<svg width="21" height="25" viewBox="0 0 21 25" fill="none" xmlns="http://www.w3.org/2000/svg">
<path fill-rule="evenodd" clip-rule="evenodd" d="M9.95538 20.1492C10.3509 20.2768 10.6998 20.5189 10.9577 20.8447C11.2157 21.1706 11.3712 21.5657 11.4046 21.98C11.438 22.3943 11.3478 22.8092 11.1454 23.1722C10.943 23.5352 10.6374 23.83 10.2674 24.0194C9.89744 24.2087 9.4796 24.2841 9.06677 24.2359C8.65393 24.1878 8.26465 24.0183 7.94817 23.7489C7.63168 23.4794 7.4022 23.1222 7.28876 22.7224C7.17532 22.3225 7.18301 21.898 7.31087 21.5025C7.4826 20.9727 7.85748 20.5327 8.35326 20.279C8.84904 20.0253 9.42522 19.9786 9.95538 20.1492Z" fill="#FF9933"/>
<path d="M9.95538 20.1492C10.3509 20.2768 10.6998 20.5189 10.9577 20.8447C11.2157 21.1706 11.3712 21.5657 11.4046 21.98C11.438 22.3943 11.3478 22.8092 11.1454 23.1722C10.943 23.5352 10.6374 23.83 10.2674 24.0194C9.89744 24.2087 9.4796 24.2841 9.06677 24.2359C8.65393 24.1878 8.26465 24.0183 7.94817 23.7489C7.63168 23.4794 7.4022 23.1222 7.28876 22.7224C7.17532 22.3225 7.18301 21.898 7.31087 21.5025C7.4826 20.9727 7.85748 20.5327 8.35326 20.279C8.84904 20.0253 9.42522 19.9786 9.95538 20.1492V20.1492Z" stroke="black" stroke-miterlimit="22.93" stroke-linecap="round"/>
<path fill-rule="evenodd" clip-rule="evenodd" d="M10.8024 21.6989L8.48352 20.9477L1 18.5274L1.87714 15.8191C3.71652 14.8241 4.06672 15.0238 5.17133 12.2778C7.57365 6.31291 8.60789 1.86339 15.1537 4.31643C21.8861 6.15745 20.1204 10.3713 18.5706 16.6111C17.8588 19.4848 18.2581 19.5289 19.1663 21.4109L18.2908 24.1208L10.8024 21.6989Z" fill="#FFCC29"/>
<path d="M10.8024 21.6989L8.48352 20.9477L1 18.5274L1.87714 15.8191C3.71652 14.8241 4.06672 15.0238 5.17133 12.2778C7.57365 6.31291 8.60789 1.86339 15.1537 4.31644C21.8861 6.15745 20.1204 10.3713 18.5706 16.6111C17.8588 19.4848 18.2581 19.5289 19.1663 21.4109L18.2908 24.1208L10.8024 21.6989Z" stroke="black" stroke-miterlimit="22.93" stroke-linecap="round"/>
<path d="M16.2265 1.08444C16.5515 1.18994 16.8379 1.3894 17.0495 1.65761C17.2612 1.92583 17.3886 2.25076 17.4156 2.59135C17.4427 2.93195 17.3681 3.27291 17.2014 3.57116C17.0348 3.86941 16.7834 4.11155 16.4792 4.26699C16.1749 4.42243 15.8314 4.4842 15.492 4.44448C15.1527 4.40476 14.8327 4.26534 14.5726 4.04384C14.3125 3.82233 14.1238 3.52869 14.0305 3.20001C13.9372 2.87133 13.9434 2.52237 14.0484 2.19723C14.1182 1.98104 14.2299 1.78073 14.3772 1.60776C14.5245 1.43479 14.7044 1.29256 14.9067 1.1892C15.109 1.08585 15.3297 1.0234 15.5562 1.00542C15.7827 0.987442 16.0105 1.0143 16.2265 1.08444V1.08444Z" stroke="black" stroke-miterlimit="22.93" stroke-linecap="round"/>
<path d="M1.87695 15.8191L10.8071 18.7091" stroke="black" stroke-miterlimit="22.93" stroke-linecap="round"/>
<path d="M16.9473 7.19169C18.4315 7.94118 18.1321 10.8606 17.628 12.1502C17.4913 12.5406 17.3745 12.9376 17.2778 13.3399" stroke="#FEFEFE" stroke-miterlimit="22.93" stroke-linecap="round"/>
</svg>
