<svg width="24" height="17" viewBox="0 0 24 17" fill="none" xmlns="http://www.w3.org/2000/svg">
<path fill-rule="evenodd" clip-rule="evenodd" d="M1.5 16.1449C2.15157 14.4799 5.12195 2.84616 5.12195 2.84616C6.21788 1.419 10.3225 0.139309 13.5995 2.78313C13.5995 2.78313 9.70808 15.4742 9.61226 15.4528C5.3076 14.4775 1.5 16.1449 1.5 16.1449Z" fill="#FEFEFE"/>
<path d="M1.5 16.1449C2.15157 14.4799 5.12195 2.84616 5.12195 2.84616C6.21788 1.419 10.3225 0.139309 13.5995 2.78313C13.5995 2.78313 9.70808 15.4742 9.61226 15.4528C5.3076 14.4775 1.5 16.1449 1.5 16.1449Z" stroke="black" stroke-width="0.5" stroke-linecap="round" stroke-linejoin="round"/>
<path fill-rule="evenodd" clip-rule="evenodd" d="M1 15.0698C1.65157 13.4072 5.1765 2.67966 5.1765 2.67966C6.27243 1.25249 10.3771 -0.0271947 13.6541 2.61662C13.6541 2.61662 9.85007 15.2863 9.76622 15.2304C5.89514 12.6282 1 15.0698 1 15.0698Z" fill="#FEFEFE"/>
<path d="M1 15.0698C1.65157 13.4072 5.1765 2.67966 5.1765 2.67966C6.27243 1.25249 10.3771 -0.0271947 13.6541 2.61662C13.6541 2.61662 9.85007 15.2863 9.76622 15.2304C5.89514 12.6282 1 15.0698 1 15.0698Z" stroke="black" stroke-width="0.5" stroke-linecap="round" stroke-linejoin="round"/>
<path fill-rule="evenodd" clip-rule="evenodd" d="M9.72852 15.4516C10.3573 13.7866 13.5385 3.09 13.5385 3.09C14.6165 1.66284 19.7751 2.14451 23.0006 4.34115C23.0006 4.34115 19.1762 16.3472 19.084 16.3127C13.178 14.1196 9.72852 15.4516 9.72852 15.4516Z" fill="#FEFEFE"/>
<path d="M9.72852 15.4516C10.3573 13.7866 13.5385 3.09 13.5385 3.09C14.6165 1.66284 19.7751 2.14451 23.0006 4.34115C23.0006 4.34115 19.1762 16.3472 19.084 16.3127C13.178 14.1196 9.72852 15.4516 9.72852 15.4516Z" stroke="black" stroke-width="0.5" stroke-linecap="round" stroke-linejoin="round"/>
<path fill-rule="evenodd" clip-rule="evenodd" d="M9.60742 15.153C10.2362 13.488 13.6522 2.59632 13.6522 2.59632C14.7301 1.16916 19.0923 0.551914 22.3226 2.74855C22.3226 2.74855 18.4647 14.789 18.3701 14.7605C13.1731 13.0539 9.60742 15.153 9.60742 15.153Z" fill="#FEFEFE"/>
<path d="M9.60742 15.153C10.2362 13.488 13.6522 2.59632 13.6522 2.59632C14.7301 1.16916 19.0923 0.551914 22.3226 2.74855C22.3226 2.74855 18.4647 14.789 18.3701 14.7605C13.1731 13.0539 9.60742 15.153 9.60742 15.153Z" stroke="black" stroke-width="0.5" stroke-linecap="round" stroke-linejoin="round"/>
<path d="M14.4121 3.69409C15.5332 2.92342 17.7454 2.54284 19.8426 3.60132" stroke="black" stroke-width="0.5" stroke-linecap="round" stroke-linejoin="round"/>
<path d="M12.1699 11.2437C13.3126 10.6146 15.6901 10.2768 17.6496 11.2045" stroke="black" stroke-width="0.5" stroke-linecap="round" stroke-linejoin="round"/>
<path d="M3.56055 11.5519C4.70319 10.9323 7.08069 10.6148 9.03899 11.5591" stroke="black" stroke-width="0.5" stroke-linecap="round" stroke-linejoin="round"/>
<path d="M4.04102 10.1579C5.18365 9.53828 7.56116 9.21954 9.51946 10.165" stroke="black" stroke-width="0.5" stroke-linecap="round" stroke-linejoin="round"/>
<path d="M4.52148 8.76176C5.31918 8.33123 6.91696 8.01488 8.15901 8.24322" stroke="black" stroke-width="0.5" stroke-linecap="round" stroke-linejoin="round"/>
<path d="M13.8828 5.1059C14.332 4.79668 14.968 4.56596 15.7022 4.45654" stroke="black" stroke-width="0.5" stroke-linecap="round" stroke-linejoin="round"/>
<path d="M13.3809 6.55687C13.9449 6.21112 14.5788 5.99306 15.2373 5.91821" stroke="black" stroke-width="0.5" stroke-linecap="round" stroke-linejoin="round"/>
<path fill-rule="evenodd" clip-rule="evenodd" d="M4.98828 7.38929C6.62199 6.77561 9.20072 6.54489 10.632 7.57244L12.0417 3.197C11.0512 2.47034 8.54915 1.82336 6.32376 3.21127L4.98828 7.38929Z" fill="#6699FF"/>
<path d="M4.98828 7.38929C6.62199 6.77561 9.20072 6.54489 10.632 7.57244L12.0417 3.197C11.0512 2.47034 8.54915 1.82336 6.32376 3.21127L4.98828 7.38929Z" stroke="black" stroke-width="0.5" stroke-linecap="round" stroke-linejoin="round"/>
<path fill-rule="evenodd" clip-rule="evenodd" d="M16.8116 4.31612L15.1348 9.46817C16.1714 9.41518 17.2071 9.59064 18.1674 9.98195L19.7053 4.90363C19.019 4.23168 17.3446 4.1068 16.8116 4.31612Z" fill="#FFF688"/>
<path d="M16.8116 4.31612L15.1348 9.46817C16.1714 9.41518 17.2071 9.59064 18.1674 9.98195L19.7053 4.90363C19.019 4.23168 17.3446 4.1068 16.8116 4.31612Z" stroke="black" stroke-width="0.5" stroke-linecap="round" stroke-linejoin="round"/>
<path d="M6.50781 6.8399C7.58577 5.58043 9.44466 4.81809 9.85428 6.98024" stroke="black" stroke-width="0.5" stroke-miterlimit="22.93" stroke-linecap="round"/>
<path d="M9.1929 4.67758C7.97001 5.11049 7.89336 3.7642 8.81921 3.56677C9.81452 3.35508 9.95825 4.40642 9.1929 4.67758Z" stroke="black" stroke-width="0.5" stroke-miterlimit="22.93" stroke-linecap="round"/>
</svg>
