<svg width="21" height="24" viewBox="0 0 21 24" fill="none" xmlns="http://www.w3.org/2000/svg">
<path d="M9.65222 7.26993C9.52111 7.08696 9.37704 6.88238 9.22001 6.6533L9.07594 6.45593C8.54432 5.701 7.38023 4.16089 6.21902 3.30079C5.93194 3.07049 5.60396 2.89648 5.25231 2.7879C5.17398 2.76329 5.0913 2.7557 5.00981 2.76564C4.92831 2.77557 4.84988 2.80281 4.77976 2.84553C4.70785 2.90004 4.6451 2.9657 4.59391 3.04002C4.56745 3.07564 4.54746 3.11562 4.53484 3.15816C4.47001 3.37138 4.59679 3.67681 4.84603 4.02258C5.27845 4.58761 5.7938 5.08401 6.37462 5.49498C7.37994 6.23515 8.48296 6.83248 9.65222 7.26993ZM12.064 7.52205C12.5772 7.39393 13.0832 7.23811 13.5796 7.05526L13.6041 7.04374C14.0003 6.84924 14.408 6.64754 14.8085 6.44152C16.6901 5.46616 18.4333 4.33809 17.7245 2.96943C17.6759 2.87192 17.5977 2.79226 17.5012 2.7418C17.2701 2.64646 17.016 2.6214 16.7707 2.66976C16.3371 2.73956 15.9186 2.88281 15.5332 3.09333C14.1975 3.8238 13.113 4.93991 12.4213 6.29601C12.2529 6.65238 12.1397 7.03226 12.0856 7.42264L12.064 7.52205ZM10.6233 8.98724C10.5559 8.91241 10.5036 8.82536 10.4691 8.7308C10.3654 8.85276 10.2285 8.94193 10.075 8.98746C9.92151 9.03299 9.75811 9.03292 9.60467 8.98724C8.2994 8.59249 6.69445 7.77129 5.40358 6.81466C4.67985 6.30503 4.03849 5.68748 3.50186 4.98353C2.96015 4.21996 2.72388 3.43333 2.95151 2.6784C3.02032 2.45459 3.12757 2.24448 3.26846 2.05746C3.42522 1.84097 3.61593 1.65123 3.83322 1.49559C4.09188 1.31415 4.38759 1.19239 4.69901 1.13907C5.01043 1.08575 5.32981 1.10222 5.6341 1.18728C6.20331 1.34396 6.73566 1.61234 7.20014 1.97678C8.55152 2.97807 9.84095 4.67522 10.4244 5.50506L10.5685 5.70244C10.6378 5.79986 10.7004 5.90191 10.7558 6.00787C10.8161 5.8478 10.8859 5.69145 10.9647 5.53964C11.8968 3.72868 13.3721 2.35857 14.7854 1.62669C15.3366 1.33191 15.9339 1.13313 16.5517 1.03888C17.1311 0.942437 17.7261 1.02643 18.2561 1.27948C18.658 1.4853 18.9843 1.81314 19.1882 2.21594C20.5655 4.87404 18.1797 6.54525 15.562 7.90383C15.1514 8.11706 14.7365 8.32164 14.3316 8.52046L14.3042 8.53342C13.6493 8.78312 12.9796 8.99194 12.2988 9.15869C11.5856 9.32869 10.933 9.34166 10.6189 8.98868L10.6233 8.98724Z" fill="#FF0000"/>
<path d="M9.65222 7.26993C9.52111 7.08696 9.37704 6.88238 9.22001 6.6533L9.07594 6.45593C8.54432 5.701 7.38023 4.16089 6.21902 3.30079C5.93194 3.07049 5.60396 2.89648 5.25231 2.7879C5.17398 2.76329 5.0913 2.7557 5.00981 2.76564C4.92831 2.77557 4.84988 2.80281 4.77976 2.84553C4.70785 2.90004 4.6451 2.9657 4.59391 3.04002C4.56745 3.07564 4.54746 3.11562 4.53484 3.15816C4.47001 3.37138 4.59679 3.67681 4.84603 4.02258C5.27845 4.58761 5.7938 5.08402 6.37462 5.49498C7.37994 6.23515 8.48296 6.83248 9.65222 7.26993V7.26993ZM12.064 7.52205C12.5772 7.39393 13.0832 7.23811 13.5796 7.05526L13.6041 7.04373C14.0003 6.84924 14.408 6.64754 14.8085 6.44152C16.6901 5.46616 18.4333 4.33809 17.7245 2.96943C17.6759 2.87192 17.5977 2.79226 17.5012 2.7418C17.2701 2.64646 17.016 2.6214 16.7707 2.66976C16.3371 2.73956 15.9186 2.88281 15.5332 3.09333C14.1975 3.8238 13.113 4.93991 12.4213 6.29601C12.2529 6.65238 12.1397 7.03226 12.0856 7.42264L12.064 7.52205ZM10.6233 8.98724C10.5559 8.91241 10.5036 8.82536 10.4691 8.7308C10.3654 8.85276 10.2285 8.94193 10.075 8.98746C9.92151 9.03299 9.75811 9.03292 9.60467 8.98724C8.2994 8.59249 6.69445 7.77129 5.40358 6.81466C4.67985 6.30503 4.03849 5.68748 3.50186 4.98353C2.96015 4.21996 2.72388 3.43333 2.95151 2.6784C3.02032 2.45459 3.12757 2.24448 3.26846 2.05746C3.42522 1.84097 3.61593 1.65123 3.83322 1.49559C4.09188 1.31415 4.38759 1.19239 4.69901 1.13907C5.01043 1.08575 5.32981 1.10222 5.6341 1.18728C6.20331 1.34396 6.73566 1.61234 7.20014 1.97678C8.55152 2.97807 9.84095 4.67522 10.4244 5.50506L10.5685 5.70244C10.6378 5.79986 10.7004 5.90191 10.7558 6.00787C10.8161 5.8478 10.8859 5.69145 10.9647 5.53964C11.8968 3.72868 13.3721 2.35857 14.7854 1.62669C15.3366 1.33191 15.9339 1.13313 16.5517 1.03888C17.1311 0.942437 17.7261 1.02643 18.2561 1.27948C18.658 1.4853 18.9843 1.81314 19.1882 2.21594C20.5655 4.87404 18.1797 6.54525 15.562 7.90383C15.1514 8.11706 14.7365 8.32164 14.3316 8.52046L14.3042 8.53342C13.6493 8.78312 12.9796 8.99194 12.2988 9.15869C11.5856 9.32869 10.933 9.34166 10.6189 8.98868L10.6233 8.98724Z" stroke="black" stroke-miterlimit="22.93"/>
<path d="M14.619 7.95859H1V23.2589H14.619V7.95859Z" fill="#FFCC29"/>
<path d="M14.619 7.95859H1V23.2589H14.619V7.95859Z" stroke="black" stroke-miterlimit="22.93" stroke-linecap="round"/>
<path d="M20.0002 7.95859H14.6191V23.2589H20.0002V7.95859Z" fill="#FF9966"/>
<path d="M20.0002 7.95859H14.6191V23.2589H20.0002V7.95859Z" stroke="black" stroke-miterlimit="22.93" stroke-linecap="round"/>
<path d="M8.78831 7.95859H7.11133V23.2589H8.78831V7.95859Z" fill="#FF0000"/>
<path d="M8.78831 7.95859H7.11133V23.2589H8.78831V7.95859Z" stroke="black" stroke-miterlimit="22.93" stroke-linecap="round"/>
<path d="M14.619 14.8063H1V16.4832H14.619V14.8063Z" fill="#FF0000"/>
<path d="M14.619 14.8063H1V16.4832H14.619V14.8063Z" stroke="black" stroke-miterlimit="22.93" stroke-linecap="round"/>
<path d="M19.6705 14.8063H14.9551V16.4832H19.6705V14.8063Z" fill="#C63538"/>
<path d="M19.6705 14.8063H14.9551V16.4832H19.6705V14.8063Z" stroke="black" stroke-miterlimit="22.93" stroke-linecap="round"/>
</svg>
