<svg width="45" height="51" viewBox="0 0 45 51" fill="none" xmlns="http://www.w3.org/2000/svg">
<path fill-rule="evenodd" clip-rule="evenodd" d="M37.4045 47.9604C39.8366 51.9766 45.7697 49.548 43.2009 45.1218C41.708 42.5495 27.8056 25.7629 26.3513 24.3435C24.8969 22.9242 21.0945 25.8119 22.8047 28.1529L37.4045 47.9604Z" fill="#6666FF"/>
<path d="M37.4045 47.9604C39.8366 51.9766 45.7697 49.548 43.2009 45.1218C41.708 42.5495 27.8056 25.7629 26.3513 24.3435C24.8969 22.9242 21.0945 25.8119 22.8047 28.1529L37.4045 47.9604Z" stroke="black" stroke-width="1.2" stroke-linecap="round" stroke-linejoin="round"/>
<path d="M15.9292 32.6386C24.1744 32.6386 30.8584 25.9546 30.8584 17.7094C30.8584 9.46425 24.1744 2.78021 15.9292 2.78021C7.68404 2.78021 1 9.46425 1 17.7094C1 25.9546 7.68404 32.6386 15.9292 32.6386Z" fill="#6666FF"/>
<path d="M15.9292 32.6386C24.1744 32.6386 30.8584 25.9546 30.8584 17.7094C30.8584 9.46425 24.1744 2.78021 15.9292 2.78021C7.68404 2.78021 1 9.46425 1 17.7094C1 25.9546 7.68404 32.6386 15.9292 32.6386Z" stroke="black" stroke-width="1.2" stroke-linecap="round" stroke-linejoin="round"/>
<path fill-rule="evenodd" clip-rule="evenodd" d="M18.0991 1C21.0519 1 23.9383 1.87558 26.3934 3.51603C28.8485 5.15647 30.762 7.48809 31.8919 10.2161C33.0219 12.944 33.3175 15.9458 32.7415 18.8418C32.1654 21.7377 30.7436 24.3979 28.6557 26.4858C26.5678 28.5736 23.9077 29.9955 21.0117 30.5716C18.1157 31.1476 15.1139 30.852 12.386 29.722C9.65801 28.5921 7.32639 26.6785 5.68595 24.2234C4.0455 21.7683 3.16992 18.8819 3.16992 15.9292C3.17085 11.97 4.74404 8.17326 7.54361 5.37369C10.3432 2.57412 14.1399 1.00093 18.0991 1Z" fill="#6666FF"/>
<path d="M18.0991 1C21.0519 1 23.9383 1.87558 26.3934 3.51603C28.8485 5.15647 30.762 7.48809 31.8919 10.2161C33.0219 12.944 33.3175 15.9458 32.7415 18.8418C32.1654 21.7377 30.7436 24.3979 28.6557 26.4858C26.5678 28.5736 23.9077 29.9955 21.0117 30.5716C18.1157 31.1476 15.1139 30.852 12.386 29.722C9.65801 28.5921 7.32639 26.6785 5.68595 24.2234C4.0455 21.7683 3.16992 18.8819 3.16992 15.9292C3.17085 11.97 4.74404 8.17326 7.54361 5.37369C10.3432 2.57412 14.1399 1.00093 18.0991 1V1Z" stroke="black" stroke-width="1.2" stroke-linecap="round" stroke-linejoin="round"/>
<path d="M18.0991 27.417C24.4436 27.417 29.5869 22.2737 29.5869 15.9292C29.5869 9.58466 24.4436 4.44141 18.0991 4.44141C11.7546 4.44141 6.61133 9.58466 6.61133 15.9292C6.61133 22.2737 11.7546 27.417 18.0991 27.417Z" fill="black"/>
<path d="M18.0991 27.417C24.4436 27.417 29.5869 22.2737 29.5869 15.9292C29.5869 9.58466 24.4436 4.44141 18.0991 4.44141C11.7546 4.44141 6.61133 9.58466 6.61133 15.9292C6.61133 22.2737 11.7546 27.417 18.0991 27.417Z" stroke="black" stroke-width="1.2" stroke-linecap="round" stroke-linejoin="round"/>
<path fill-rule="evenodd" clip-rule="evenodd" d="M9.71653 8.08609C13.9219 4.51849 20.5805 5.46822 24.5932 10.1888C28.6058 14.9094 28.4236 21.645 24.2112 25.2091C19.9988 28.7732 13.3472 27.827 9.33454 23.1064C5.32187 18.3858 5.50411 11.6502 9.71653 8.08609Z" fill="#BFE2FF"/>
<path d="M9.71653 8.08609C13.9219 4.51849 20.5805 5.46822 24.5932 10.1888C28.6058 14.9094 28.4236 21.645 24.2112 25.2091C19.9988 28.7732 13.3472 27.827 9.33454 23.1064C5.32187 18.3858 5.50411 11.6502 9.71653 8.08609Z" stroke="black" stroke-width="1.2" stroke-linecap="round" stroke-linejoin="round"/>
<path d="M36.084 46.1766C38.3759 45.4196 40.1072 44.7993 41.5615 42.8333" stroke="black" stroke-width="1.2" stroke-miterlimit="22.93" stroke-linecap="round"/>
</svg>
