<svg width="18" height="19" viewBox="0 0 18 19" fill="none" xmlns="http://www.w3.org/2000/svg">
<path fill-rule="evenodd" clip-rule="evenodd" d="M8.84258 7.09209C9.3468 7.08499 9.84186 7.22333 10.2652 7.4896C10.6884 7.75588 11.021 8.13813 11.2206 8.58802C11.4203 9.0379 11.4782 9.53522 11.3869 10.0171C11.2957 10.4989 11.0594 10.9436 10.708 11.295C10.3566 11.6464 9.90578 11.8886 9.41266 11.9911C8.91953 12.0935 8.40621 12.0516 7.93761 11.8706C7.46902 11.6896 7.06619 11.3776 6.78008 10.9742C6.49397 10.5708 6.33743 10.0939 6.33026 9.60406C6.32534 9.27882 6.38644 8.95583 6.51005 8.65354C6.63366 8.35125 6.81738 8.07559 7.05069 7.84231C7.284 7.60903 7.56234 7.4227 7.8698 7.29398C8.17726 7.16525 8.50782 7.09665 8.84258 7.09209ZM10.4023 3.59515C11.5052 3.86143 12.514 4.41146 13.3225 5.18742L14.8078 4.64656C15.3585 4.44607 15.974 4.51484 16.2751 5.00675L16.5151 5.39491C16.8162 5.88564 16.5763 6.43233 16.1444 6.82049L14.9686 7.87773C15.2756 8.92833 15.2905 10.0392 15.0118 11.0972L16.25 12.0869C16.7035 12.4506 16.9494 13.0031 16.6627 13.502L16.4359 13.8948C16.1492 14.3949 15.5409 14.466 14.9794 14.297L13.4365 13.8307C12.6584 14.6163 11.6791 15.1864 10.599 15.4824L10.3327 17.0257C10.2355 17.5899 9.86598 18.0748 9.27809 18.0748L8.81258 18.0818C8.2247 18.09 7.85277 17.6155 7.73279 17.0572L7.37286 15.5419C6.27657 15.2818 5.27196 14.7413 4.46342 13.9764L2.97811 14.5173C2.42741 14.7177 1.81193 14.6478 1.51079 14.1571L1.27084 13.7689C0.974494 13.2782 1.21445 12.7292 1.64276 12.3433L2.80294 11.3001C2.48291 10.2368 2.46302 9.10954 2.74535 8.03626L1.53599 7.06994C1.08127 6.70626 0.836521 6.15374 1.12327 5.65484L1.35002 5.26902C1.63677 4.77012 2.24385 4.69901 2.80654 4.86803L4.30745 5.31914C5.09455 4.51912 6.08937 3.94041 7.1869 3.6441L7.45325 2.13809C7.55043 1.57392 7.91996 1.08901 8.50784 1.08901L8.97335 1.08201C9.56124 1.07385 9.93317 1.54827 10.0531 2.10662L10.4023 3.59515Z" fill="#D2D3D5"/>
<path d="M8.84258 7.09209C9.3468 7.08499 9.84186 7.22333 10.2652 7.4896C10.6884 7.75588 11.021 8.13813 11.2206 8.58802C11.4203 9.0379 11.4782 9.53522 11.3869 10.0171C11.2957 10.4989 11.0594 10.9436 10.708 11.295C10.3566 11.6464 9.90578 11.8886 9.41266 11.9911C8.91953 12.0935 8.40621 12.0516 7.93761 11.8706C7.46902 11.6896 7.06619 11.3776 6.78008 10.9742C6.49397 10.5708 6.33743 10.0939 6.33026 9.60406C6.32534 9.27882 6.38644 8.95583 6.51005 8.65354C6.63366 8.35125 6.81738 8.07559 7.05069 7.84231C7.284 7.60903 7.56234 7.4227 7.8698 7.29398C8.17726 7.16525 8.50782 7.09665 8.84258 7.09209V7.09209ZM10.4023 3.59515C11.5052 3.86143 12.514 4.41146 13.3225 5.18742L14.8078 4.64656C15.3585 4.44607 15.974 4.51484 16.2751 5.00675L16.5151 5.39491C16.8162 5.88564 16.5763 6.43233 16.1444 6.82049L14.9686 7.87773C15.2756 8.92833 15.2905 10.0392 15.0118 11.0972L16.25 12.0869C16.7035 12.4506 16.9494 13.0031 16.6627 13.502L16.4359 13.8948C16.1492 14.3949 15.5409 14.466 14.9794 14.2969L13.4365 13.8307C12.6584 14.6163 11.6791 15.1864 10.599 15.4824L10.3327 17.0257C10.2355 17.5899 9.86598 18.0748 9.27809 18.0748L8.81258 18.0818C8.2247 18.09 7.85277 17.6155 7.73279 17.0572L7.37286 15.5419C6.27657 15.2818 5.27196 14.7413 4.46342 13.9764L2.97811 14.5173C2.42741 14.7177 1.81193 14.6478 1.51079 14.1571L1.27084 13.7689C0.974494 13.2782 1.21445 12.7292 1.64276 12.3433L2.80294 11.3001C2.48291 10.2368 2.46302 9.10954 2.74535 8.03626L1.53599 7.06994C1.08127 6.70626 0.836521 6.15374 1.12327 5.65484L1.35002 5.26902C1.63677 4.77012 2.24385 4.69901 2.80654 4.86803L4.30745 5.31914C5.09455 4.51912 6.08937 3.94041 7.1869 3.6441L7.45325 2.13809C7.55043 1.57392 7.91996 1.08901 8.50784 1.08901L8.97335 1.08201C9.56124 1.07385 9.93317 1.54827 10.0531 2.10662L10.4023 3.59515Z" stroke="black" stroke-width="0.6" stroke-miterlimit="22.93" stroke-linecap="round"/>
<path d="M8.9442 13.8318C8.07608 13.8451 7.22342 13.6079 6.49407 13.1503C5.76473 12.6926 5.19148 12.0351 4.84686 11.2608C4.50224 10.4866 4.40173 9.63046 4.55805 8.80071C4.71436 7.97096 5.12048 7.2049 5.72501 6.59944C6.32955 5.99399 7.10534 5.57635 7.95424 5.39936C8.80314 5.22237 9.687 5.29399 10.494 5.60515C11.301 5.91631 11.9949 6.45303 12.4878 7.14741C12.9808 7.84179 13.2507 8.66263 13.2634 9.50607" stroke="black" stroke-width="0.6" stroke-miterlimit="22.93" stroke-linecap="round"/>
</svg>
