<svg width="16" height="23" viewBox="0 0 16 23" fill="none" xmlns="http://www.w3.org/2000/svg">
<path fill-rule="evenodd" clip-rule="evenodd" d="M11.3105 16.0764L11.8667 11.3187C12.5561 11.7665 13.7419 13.9283 14.1119 14.8847C14.5979 16.1476 14.3268 18.027 14.0533 19.407C13.776 19.2491 13.4624 19.166 13.1433 19.1659C13.0162 19.166 12.8896 19.1791 12.7652 19.205C12.6859 17.8766 12.0574 17.151 11.3105 16.0764Z" fill="#6699FF"/>
<path d="M11.3105 16.0764L11.8667 11.3187C12.5561 11.7665 13.7419 13.9283 14.1119 14.8847C14.5979 16.1476 14.3268 18.027 14.0533 19.407C13.776 19.2491 13.4624 19.166 13.1433 19.1659C13.0162 19.166 12.8896 19.1791 12.7652 19.205C12.6859 17.8766 12.0574 17.151 11.3105 16.0764Z" stroke="black" stroke-width="0.5" stroke-miterlimit="22.93" stroke-linecap="round"/>
<path fill-rule="evenodd" clip-rule="evenodd" d="M4.95321 16.0764L4.39707 11.3187C3.70765 11.7665 2.52069 13.9283 2.15185 14.8847C1.62789 16.2394 1.98179 18.3186 2.26676 19.7147C2.67679 19.61 3.11048 19.6506 3.49393 19.8295C3.39741 18.0798 4.09373 17.306 4.95321 16.0764Z" fill="#6699FF"/>
<path d="M4.95321 16.0764L4.39707 11.3187C3.70765 11.7665 2.52069 13.9283 2.15185 14.8847C1.62789 16.2394 1.98179 18.3186 2.26676 19.7147C2.67679 19.61 3.11048 19.6506 3.49393 19.8295C3.39741 18.0798 4.09373 17.306 4.95321 16.0764Z" stroke="black" stroke-width="0.5" stroke-miterlimit="22.93" stroke-linecap="round"/>
<path d="M6.3783 13.4335L6.33008 20.6079" stroke="black" stroke-width="0.5" stroke-miterlimit="22.93" stroke-linecap="round"/>
<path d="M7.9082 17.616V19.9696" stroke="black" stroke-width="0.5" stroke-miterlimit="22.93" stroke-linecap="round"/>
<path d="M9.30078 16.7101V18.1716" stroke="black" stroke-width="0.5" stroke-miterlimit="22.93" stroke-linecap="round"/>
<path d="M1.14574 22.0821C0.915935 21.7285 0.88721 20.601 1.59042 20.0224C2.05004 19.6401 2.95778 19.4782 3.91838 20.0075C3.91838 20.0075 4.01375 20.0809 4.02409 20.0878" stroke="black" stroke-width="0.5" stroke-miterlimit="22.93" stroke-linecap="round"/>
<path d="M4.04102 20.0373C4.24095 19.1923 4.80972 18.748 5.63703 18.8754" stroke="black" stroke-width="0.5" stroke-miterlimit="22.93" stroke-linecap="round"/>
<path d="M10.1582 18.3611C11.4221 18.5735 11.7301 19.3944 11.6232 19.9948" stroke="black" stroke-width="0.5" stroke-miterlimit="22.93" stroke-linecap="round"/>
<path d="M12.4141 19.4621C14.1491 18.5378 15.5601 20.5103 14.7811 21.7112" stroke="black" stroke-width="0.5" stroke-miterlimit="22.93" stroke-linecap="round"/>
<path fill-rule="evenodd" clip-rule="evenodd" d="M11.2174 16.4598C11.5173 15.6837 11.8884 12.5563 11.8654 10.507C11.8011 4.6322 8.67683 0.854977 8.07358 1.09263C7.25432 1.40606 4.41389 5.64481 4.32312 10.4243C4.27716 12.8858 4.80916 15.3313 4.94934 16.4575C4.95279 16.4575 10.9634 16.4885 11.2174 16.4598Z" fill="#F0D6E7"/>
<path d="M11.2174 16.4598C11.5173 15.6837 11.8884 12.5563 11.8654 10.507C11.8011 4.6322 8.67683 0.854977 8.07358 1.09263C7.25432 1.40606 4.41389 5.64481 4.32312 10.4243C4.27716 12.8858 4.80916 15.3313 4.94934 16.4575C4.95279 16.4575 10.9634 16.4885 11.2174 16.4598Z" stroke="black" stroke-width="0.5" stroke-miterlimit="22.93" stroke-linecap="round"/>
<path fill-rule="evenodd" clip-rule="evenodd" d="M5.96875 4.0892C6.87304 2.10875 7.99336 1.01806 8.32083 1.13287C8.72644 1.28556 9.65142 2.41643 10.458 4.08576L5.96875 4.0892Z" fill="#ED3237"/>
<path d="M5.96875 4.0892C6.87304 2.10875 7.99336 1.01806 8.32083 1.13287C8.72644 1.28556 9.65142 2.41643 10.458 4.08576L5.96875 4.0892Z" stroke="black" stroke-width="0.5" stroke-miterlimit="22.93" stroke-linecap="round"/>
<path fill-rule="evenodd" clip-rule="evenodd" d="M8.20068 7.15686C8.51298 7.15663 8.81833 7.24896 9.07811 7.42216C9.33789 7.59535 9.54043 7.84164 9.6601 8.12987C9.77977 8.41809 9.8112 8.73531 9.75041 9.04138C9.68962 9.34746 9.53935 9.62865 9.3186 9.84937C9.09785 10.0701 8.81654 10.2205 8.51025 10.2814C8.20397 10.3424 7.88647 10.3112 7.59792 10.1918C7.30937 10.0725 7.06273 9.87029 6.8892 9.61086C6.71567 9.35142 6.62305 9.04638 6.62305 8.73434C6.62305 8.31616 6.78922 7.9151 7.08505 7.6193C7.38088 7.3235 7.78216 7.15717 8.20068 7.15686V7.15686Z" fill="#BDD8E3"/>
<path d="M8.20068 7.15686C8.51298 7.15663 8.81833 7.24896 9.07811 7.42216C9.33789 7.59535 9.54043 7.84164 9.6601 8.12987C9.77977 8.41809 9.8112 8.73531 9.75041 9.04138C9.68962 9.34746 9.53935 9.62865 9.3186 9.84937C9.09785 10.0701 8.81654 10.2205 8.51025 10.2814C8.20397 10.3424 7.88647 10.3112 7.59792 10.1918C7.30937 10.0725 7.06273 9.87029 6.8892 9.61086C6.71567 9.35142 6.62305 9.04638 6.62305 8.73434C6.62305 8.31616 6.78922 7.9151 7.08505 7.6193C7.38088 7.3235 7.78216 7.15717 8.20068 7.15686V7.15686Z" stroke="black" stroke-width="0.5" stroke-miterlimit="22.93" stroke-linecap="round"/>
</svg>
