<svg width="19" height="19" viewBox="0 0 19 19" fill="none" xmlns="http://www.w3.org/2000/svg">
<path fill-rule="evenodd" clip-rule="evenodd" d="M9.1705 5.26073C8.39647 5.26073 7.63983 5.49026 6.99625 5.92028C6.35266 6.35031 5.85105 6.96153 5.55484 7.67664C5.25864 8.39175 5.18114 9.17863 5.33214 9.93779C5.48315 10.6969 5.85588 11.3943 6.4032 11.9416C6.95052 12.4889 7.64785 12.8616 8.40701 13.0127C9.16616 13.1637 9.95305 13.0862 10.6682 12.7899C11.3833 12.4937 11.9945 11.9921 12.4245 11.3485C12.8545 10.705 13.0841 9.94832 13.0841 9.17429C13.0841 8.13635 12.6717 7.14092 11.9378 6.40699C11.2039 5.67305 10.2084 5.26073 9.1705 5.26073V5.26073ZM9.1705 1C10.7865 1 12.3662 1.47919 13.7098 2.37698C15.0534 3.27476 16.1007 4.55082 16.7191 6.04379C17.3375 7.53675 17.4993 9.17957 17.184 10.7645C16.8688 12.3494 16.0906 13.8053 14.9479 14.9479C13.8053 16.0906 12.3494 16.8688 10.7645 17.184C9.17957 17.4993 7.53675 17.3375 6.04379 16.7191C4.55082 16.1007 3.27476 15.0534 2.37698 13.7098C1.47919 12.3662 1 10.7865 1 9.1705C1 7.00355 1.86082 4.92535 3.39308 3.39309C4.92535 1.86082 7.00355 1 9.1705 1V1Z" fill="#FF0000"/>
<path d="M9.1705 5.26073C8.39647 5.26073 7.63983 5.49026 6.99625 5.92028C6.35266 6.35031 5.85105 6.96153 5.55484 7.67664C5.25864 8.39175 5.18114 9.17863 5.33214 9.93779C5.48315 10.6969 5.85588 11.3943 6.4032 11.9416C6.95052 12.4889 7.64785 12.8616 8.40701 13.0127C9.16616 13.1637 9.95305 13.0862 10.6682 12.7899C11.3833 12.4937 11.9945 11.9921 12.4245 11.3485C12.8545 10.705 13.0841 9.94832 13.0841 9.17429C13.0841 8.13635 12.6717 7.14092 11.9378 6.40699C11.2039 5.67305 10.2084 5.26073 9.1705 5.26073V5.26073ZM9.1705 1C10.7865 1 12.3662 1.47919 13.7098 2.37698C15.0534 3.27476 16.1007 4.55082 16.7191 6.04379C17.3375 7.53675 17.4993 9.17957 17.184 10.7645C16.8688 12.3494 16.0906 13.8053 14.9479 14.9479C13.8053 16.0906 12.3494 16.8688 10.7645 17.184C9.17957 17.4993 7.53675 17.3375 6.04379 16.7191C4.55082 16.1007 3.27476 15.0534 2.37698 13.7098C1.47919 12.3662 1 10.7865 1 9.1705C1 7.00355 1.86082 4.92535 3.39308 3.39309C4.92535 1.86082 7.00355 1 9.1705 1V1Z" stroke="black" stroke-width="0.6" stroke-miterlimit="22.93" stroke-linecap="round"/>
<path fill-rule="evenodd" clip-rule="evenodd" d="M4.56103 2.36975C5.86765 2.65885 7.08591 3.87458 7.53407 5.51701C7.58962 5.72026 5.97496 6.11541 5.40055 8.22747C5.37909 8.23757 3.88815 5.71269 1.83164 5.71269C1.3658 5.71269 2.3101 4.29118 3.26577 3.29764C3.64245 2.91793 4.08031 2.60425 4.56103 2.36975V2.36975Z" fill="#FEFEFE"/>
<path d="M4.56103 2.36975C5.86765 2.65885 7.08591 3.87458 7.53407 5.51701C7.58962 5.72026 5.97496 6.11541 5.40055 8.22747C5.37909 8.23757 3.88815 5.71269 1.83164 5.71269C1.3658 5.71269 2.3101 4.29118 3.26577 3.29764C3.64245 2.91793 4.08031 2.60425 4.56103 2.36975V2.36975Z" stroke="black" stroke-width="0.6" stroke-miterlimit="22.93" stroke-linecap="round"/>
<path fill-rule="evenodd" clip-rule="evenodd" d="M4.61525 16.1909C5.92313 15.9018 7.14013 14.686 7.58955 13.0436C7.64384 12.8404 6.03044 12.4452 5.45477 10.3332C5.43331 10.3231 3.93984 12.8429 1.88586 12.8492C1.42128 12.8492 2.36432 14.2707 3.32125 15.2642C3.69745 15.6436 4.13491 15.9569 4.61525 16.1909V16.1909Z" fill="#FEFEFE"/>
<path d="M4.61525 16.1909C5.92313 15.9018 7.14013 14.686 7.58955 13.0436C7.64384 12.8404 6.03044 12.4452 5.45477 10.3332C5.43331 10.3231 3.93984 12.8429 1.88586 12.8492C1.42128 12.8492 2.36432 14.2707 3.32125 15.2642C3.69745 15.6436 4.13491 15.9569 4.61525 16.1909V16.1909Z" stroke="black" stroke-width="0.6" stroke-miterlimit="22.93" stroke-linecap="round"/>
<path fill-rule="evenodd" clip-rule="evenodd" d="M13.796 2.4303C12.4881 2.72066 11.2711 3.93512 10.8216 5.57882C10.7674 5.78081 12.3808 6.17722 12.9564 8.28928C12.9766 8.29938 14.4714 5.77829 16.5253 5.77197C16.9899 5.77197 16.0456 4.35173 15.09 3.35819C14.7132 2.97911 14.2759 2.66552 13.796 2.4303V2.4303Z" fill="#FEFEFE"/>
<path d="M13.796 2.4303C12.4881 2.72066 11.2711 3.93512 10.8216 5.57882C10.7674 5.78081 12.3808 6.17722 12.9564 8.28928C12.9766 8.29938 14.4714 5.77829 16.5253 5.77197C16.9899 5.77197 16.0456 4.35173 15.09 3.35819C14.7132 2.97911 14.2759 2.66552 13.796 2.4303V2.4303Z" stroke="black" stroke-width="0.6" stroke-miterlimit="22.93" stroke-linecap="round"/>
<path fill-rule="evenodd" clip-rule="evenodd" d="M13.7401 16.1328C12.4322 15.8424 11.2152 14.628 10.767 12.9843C10.7115 12.7823 12.3249 12.3859 12.9005 10.2738C12.922 10.2637 14.4155 12.7836 16.4695 12.7911C16.934 12.7911 15.991 14.2114 15.0353 15.2049C14.658 15.5839 14.2203 15.8974 13.7401 16.1328Z" fill="#FEFEFE"/>
<path d="M13.7401 16.1328C12.4322 15.8424 11.2152 14.628 10.767 12.9843C10.7115 12.7823 12.3249 12.3859 12.9005 10.2738C12.922 10.2637 14.4155 12.7836 16.4695 12.7911C16.934 12.7911 15.991 14.2114 15.0353 15.2049C14.658 15.5839 14.2203 15.8974 13.7401 16.1328Z" stroke="black" stroke-width="0.6" stroke-miterlimit="22.93" stroke-linecap="round"/>
<path d="M8.48438 13.0121C10.0283 13.2797 10.2518 14.3604 10.5964 15.7087C10.9411 17.0569 11.2971 17.9899 13.5 17.9571C14.0947 17.9495 17.454 18 17.7759 18" stroke="black" stroke-width="0.6" stroke-miterlimit="22.93" stroke-linecap="round"/>
<path d="M15.8984 6.69482C16.1196 7.21869 16.2255 7.784 16.209 8.35241" stroke="#FEFEFE" stroke-width="0.6" stroke-miterlimit="22.93" stroke-linecap="round"/>
<path d="M10.6309 1.99609C10.9073 1.99609 11.5297 2.21197 11.7797 2.34579C11.8114 2.36198 11.8455 2.37306 11.8807 2.37861" stroke="#FEFEFE" stroke-width="0.6" stroke-miterlimit="22.93" stroke-linecap="round"/>
</svg>
