<svg width="20" height="20" viewBox="0 0 20 20" fill="none" xmlns="http://www.w3.org/2000/svg">
<path fill-rule="evenodd" clip-rule="evenodd" d="M6.45798 11.7328L11.0667 16.0752C11.7426 16.7153 12.4083 17.4002 11.8348 18.1235C11.5565 18.4737 11.1511 18.6995 10.7069 18.7518C10.2627 18.8041 9.81585 18.6786 9.46388 18.4026L4.36998 14.3815C4.01983 14.1035 3.79404 13.6981 3.74198 13.254C3.68992 12.81 3.81583 12.3634 4.09218 12.0119C4.66314 11.2834 5.77819 11.0965 6.45798 11.7328Z" fill="#FF6600"/>
<path d="M6.45798 11.7328L11.0667 16.0752C11.7426 16.7153 12.4083 17.4002 11.8348 18.1235C11.5565 18.4737 11.1511 18.6995 10.7069 18.7518C10.2627 18.8041 9.81585 18.6786 9.46388 18.4026L4.36998 14.3815C4.01983 14.1035 3.79404 13.6981 3.74198 13.254C3.68992 12.81 3.81583 12.3634 4.09218 12.0119C4.66314 11.2834 5.77819 11.0965 6.45798 11.7328Z" stroke="black" stroke-width="0.6" stroke-miterlimit="22.93" stroke-linecap="round"/>
<path fill-rule="evenodd" clip-rule="evenodd" d="M9.26412 2.44757C9.26412 2.44757 7.4424 6.55572 4.61444 9.31198C4.20862 9.70756 2.78504 10.2683 1.55349 11.094C0.0697443 12.0862 1.89018 15.0959 3.25231 14.3047C3.74263 14.0193 5.59891 13.2281 6.19676 13.1628C9.79668 12.7711 15.6702 13.0105 15.6702 13.0105L9.26412 2.44757Z" fill="#FFFFCC"/>
<path d="M9.26411 2.44757C9.26411 2.44757 7.4424 6.55572 4.61444 9.31198C4.20862 9.70756 2.78504 10.2683 1.55349 11.094C0.0697444 12.0862 1.89018 15.0959 3.25231 14.3047C3.74263 14.0193 5.59891 13.2281 6.19676 13.1628C9.79668 12.7711 15.6702 13.0105 15.6702 13.0105L9.26411 2.44757Z" stroke="black" stroke-width="0.6" stroke-miterlimit="22.93" stroke-linecap="round"/>
<path fill-rule="evenodd" clip-rule="evenodd" d="M9.45224 1.14046C9.67925 1.00547 9.95044 0.965787 10.2066 1.03007C10.4628 1.09435 10.6831 1.25738 10.8195 1.48356L17.2205 12.1924C17.2919 12.305 17.34 12.4307 17.362 12.5622C17.3839 12.6937 17.3793 12.8283 17.3484 12.958C17.3175 13.0877 17.2609 13.2098 17.1819 13.3172C17.1029 13.4247 17.0032 13.5152 16.8887 13.5834C16.7742 13.6516 16.6471 13.6962 16.515 13.7145C16.383 13.7327 16.2486 13.7243 16.1198 13.6898C15.9911 13.6552 15.8705 13.5952 15.7654 13.5133C15.6602 13.4313 15.5726 13.3291 15.5076 13.2127L9.10659 2.50771C8.97182 2.2804 8.93253 2.00897 8.9973 1.75277C9.06207 1.49656 9.22563 1.27642 9.45224 1.14046Z" fill="#FFCC29"/>
<path d="M9.45224 1.14046C9.67925 1.00547 9.95044 0.965787 10.2066 1.03007C10.4628 1.09435 10.6831 1.25738 10.8195 1.48356L17.2205 12.1924C17.2919 12.305 17.34 12.4307 17.362 12.5622C17.3839 12.6937 17.3793 12.8283 17.3484 12.958C17.3175 13.0877 17.2609 13.2098 17.1819 13.3172C17.1029 13.4247 17.0032 13.5152 16.8887 13.5834C16.7742 13.6516 16.6471 13.6962 16.515 13.7145C16.383 13.7327 16.2486 13.7243 16.1198 13.6898C15.9911 13.6552 15.8705 13.5952 15.7654 13.5133C15.6602 13.4313 15.5726 13.3291 15.5076 13.2127L9.10659 2.50771C8.97182 2.2804 8.93253 2.00897 8.9973 1.75277C9.06207 1.49656 9.22563 1.27642 9.45224 1.14046V1.14046Z" stroke="black" stroke-width="0.6" stroke-miterlimit="22.93" stroke-linecap="round"/>
<path d="M13.6309 3.36419L14.8957 1.53607" stroke="black" stroke-width="0.6" stroke-miterlimit="22.93" stroke-linecap="round"/>
<path d="M16.6387 5.13466L18.1916 4.18732" stroke="black" stroke-width="0.6" stroke-miterlimit="22.93" stroke-linecap="round"/>
<path d="M16.9766 8.36717L19.0006 8.19818" stroke="black" stroke-width="0.6" stroke-miterlimit="22.93" stroke-linecap="round"/>
<path d="M5.87247 12.3448C5.60107 12.2052 4.88032 11.1491 4.76126 10.8085L4.73438 10.7484" stroke="black" stroke-width="0.6" stroke-miterlimit="22.93" stroke-linecap="round"/>
</svg>
