<svg width="40" height="40" viewBox="0 0 40 40" fill="none" xmlns="http://www.w3.org/2000/svg">
<rect x="0.5" y="0.5" width="39" height="39" rx="19.5" fill="white" stroke="#EBEAED"/>
<path d="M27.3059 15.9575C27.3059 15.9406 27.3059 15.9406 27.3059 15.9237C27.289 15.8899 27.289 15.8561 27.2721 15.8222V15.8053C27.2552 15.7715 27.2213 15.7377 27.2044 15.7208L27.1875 15.7039C27.1706 15.6869 27.1368 15.67 27.1199 15.6531L27.1029 15.6362H27.086L27.0691 15.6193L19.8813 12.0507C19.746 11.9831 19.5768 11.9831 19.4246 12.0507L17.0061 13.2515L24.2278 16.9554L24.2447 16.9723C24.2616 16.9723 24.2616 16.9892 24.2785 16.9892C24.2955 17.0061 24.2955 17.023 24.3124 17.04C24.3124 17.0569 24.3124 17.0569 24.3124 17.0738V17.0907V21.0144C24.3124 21.0821 24.2785 21.1328 24.2278 21.1666L22.7733 21.9277C22.6888 21.9784 22.5873 21.9446 22.5365 21.86C22.5196 21.8431 22.5196 21.8093 22.5196 21.7755V17.9363L15.2134 14.1648L15.1965 14.1479L12.2706 15.6024L12.2537 15.6193H12.2368L12.2199 15.6362C12.203 15.6531 12.1691 15.67 12.1522 15.6869L12.1353 15.7039C12.1015 15.7377 12.0846 15.7715 12.0507 15.8053V15.8222C12.0338 15.8561 12.0169 15.8899 12.0169 15.9237C12.0169 15.9406 12.0169 15.9406 12.0169 15.9575C12.0169 15.9914 12 16.0083 12 16.0421V16.059V23.9403C12 24.1263 12.1015 24.3124 12.2875 24.3969L19.4077 27.9486C19.5092 27.9993 19.6276 28.0162 19.746 27.9824L19.7798 27.9655C19.8136 27.9655 19.8305 27.9486 19.8644 27.9317L27.0353 24.38C27.2044 24.2955 27.3228 24.1263 27.3228 23.9234V16.059V16.0421C27.3059 16.0083 27.3059 15.9914 27.3059 15.9575Z" fill="#504F54"/>
</svg>
