<svg width="32" height="32" viewBox="0 0 32 32" fill="none" xmlns="http://www.w3.org/2000/svg">
<path d="M29.3332 14.6665H23.7732L28.0932 10.3465L26.2132 8.45317L19.9998 14.6665H17.3332V11.9998L23.5465 5.7865L21.6532 3.9065L17.3332 8.2265V2.6665H14.6665V8.2265L10.3465 3.9065L8.45317 5.7865L14.6665 11.9998V14.6665H11.9998L5.7865 8.45317L3.9065 10.3465L8.2265 14.6665H2.6665V17.3332H8.2265L3.9065 21.6532L5.7865 23.5465L11.9998 17.3332H14.6665V19.9998L8.45317 26.2132L10.3465 28.0932L14.6665 23.7732V29.3332H17.3332V23.7732L21.6532 28.0932L23.5465 26.2132L17.3332 19.9998V17.3332H19.9998L26.2132 23.5465L28.0932 21.6532L23.7732 17.3332H29.3332V14.6665Z" fill="#20C9AC"/>
</svg>
