<svg width="20" height="20" viewBox="0 0 20 20" fill="none" xmlns="http://www.w3.org/2000/svg">
<path d="M18.3334 9.99996C18.3334 5.41663 14.5834 1.66663 10.0001 1.66663C5.41675 1.66663 1.66675 5.41663 1.66675 9.99996C1.66675 14.5833 5.41675 18.3333 10.0001 18.3333C14.5834 18.3333 18.3334 14.5833 18.3334 9.99996ZM4.75008 5.91663L14.0834 15.25C13.0001 16.1666 11.5834 16.6666 10.0001 16.6666C6.33342 16.6666 3.33341 13.6666 3.33341 9.99996C3.33341 8.41663 3.83341 6.99996 4.75008 5.91663ZM16.6667 9.99996C16.6667 11.5833 16.1667 13 15.2501 14.0833L5.91675 4.74996C7.00008 3.83329 8.41675 3.33329 10.0001 3.33329C13.6667 3.33329 16.6667 6.33329 16.6667 9.99996Z" fill="#B6B4BA"/>
</svg>
