<svg width="32" height="32" viewBox="0 0 32 32" fill="none" xmlns="http://www.w3.org/2000/svg">
<path d="M26.6667 6.66667V5.33333C26.6667 4.6 26.0667 4 25.3333 4H22.6667C21.9333 4 21.3333 4.6 21.3333 5.33333V6.66667H20V12C20 12.7333 20.6 13.3333 21.3333 13.3333H22.6667V22.6667C22.6667 24.1333 21.4667 25.3333 20 25.3333C18.5333 25.3333 17.3333 24.1333 17.3333 22.6667V9.33333C17.3333 6.38667 14.9467 4 12 4C9.05333 4 6.66667 6.38667 6.66667 9.33333V18.6667H5.33333C4.6 18.6667 4 19.2667 4 20V25.3333H5.33333V26.6667C5.33333 27.4 5.93333 28 6.66667 28H9.33333C10.0667 28 10.6667 27.4 10.6667 26.6667V25.3333H12V20C12 19.2667 11.4 18.6667 10.6667 18.6667H9.33333V9.33333C9.33333 7.86667 10.5333 6.66667 12 6.66667C13.4667 6.66667 14.6667 7.86667 14.6667 9.33333V22.6667C14.6667 25.6133 17.0533 28 20 28C22.9467 28 25.3333 25.6133 25.3333 22.6667V13.3333H26.6667C27.4 13.3333 28 12.7333 28 12V6.66667H26.6667Z" fill="#20C9AC"/>
</svg>
