<svg width="32" height="32" viewBox="0 0 32 32" fill="none" xmlns="http://www.w3.org/2000/svg">
<path d="M28.7999 24.2666L17.3332 15.6666V14.4532C19.5332 13.7999 21.0665 11.5599 20.5732 9.05322C20.2265 7.30655 18.8399 5.85322 17.0932 5.45322C14.0532 4.75988 11.3332 7.06655 11.3332 9.99988H13.9999C13.9999 8.89322 14.8932 7.99988 15.9999 7.99988C17.1065 7.99988 17.9999 8.89322 17.9999 9.99988C17.9999 11.1199 17.0799 12.0266 15.9599 11.9999C15.2399 11.9866 14.6665 12.5999 14.6665 13.3199V15.6666L3.19986 24.2666C2.17319 25.0399 2.71986 26.6666 3.99986 26.6666H15.9999H27.9999C29.2799 26.6666 29.8265 25.0399 28.7999 24.2666ZM7.99986 23.9999L15.9999 17.9999L23.9999 23.9999H7.99986Z" fill="#20C9AC"/>
</svg>
