<svg width="32" height="32" viewBox="0 0 32 32" fill="none" xmlns="http://www.w3.org/2000/svg">
<path d="M27.9999 13.3332C26.5333 13.3332 25.3333 14.5332 25.3333 15.9998V19.9998H6.66658V15.9998C6.66658 14.5332 5.47992 13.3332 3.99992 13.3332C2.51992 13.3332 1.33325 14.5332 1.33325 15.9998V22.6665C1.33325 24.1332 2.53325 25.3332 3.99992 25.3332H27.9999C29.4666 25.3332 30.6666 24.1332 30.6666 22.6665V15.9998C30.6666 14.5332 29.4666 13.3332 27.9999 13.3332ZM23.9999 6.6665H7.99992C6.53325 6.6665 5.33325 7.8665 5.33325 9.33317V12.1998C6.87992 12.7465 7.99992 14.2265 7.99992 15.9465V18.6665H23.9999V15.9598C23.9999 14.2265 25.1199 12.7598 26.6666 12.2132V9.33317C26.6666 7.8665 25.4666 6.6665 23.9999 6.6665Z" fill="#20C9AC"/>
</svg>
