<svg width="32" height="32" viewBox="0 0 32 32" fill="none" xmlns="http://www.w3.org/2000/svg">
<path d="M28.7733 21.4532L27.32 11.2398C26.9467 8.61317 24.6933 6.6665 22.04 6.6665H9.96001C7.30667 6.6665 5.05334 8.61317 4.68001 11.2398L3.22667 21.4532C2.93334 23.5065 4.52001 25.3332 6.58667 25.3332C7.49334 25.3332 8.34667 24.9732 8.98667 24.3332L12 21.3332H20L23 24.3332C23.64 24.9732 24.5067 25.3332 25.4 25.3332C27.48 25.3332 29.0667 23.5065 28.7733 21.4532ZM14.6667 14.6665H12V17.3332H10.6667V14.6665H8.00001V13.3332H10.6667V10.6665H12V13.3332H14.6667V14.6665ZM20 13.3332C19.2667 13.3332 18.6667 12.7332 18.6667 11.9998C18.6667 11.2665 19.2667 10.6665 20 10.6665C20.7333 10.6665 21.3333 11.2665 21.3333 11.9998C21.3333 12.7332 20.7333 13.3332 20 13.3332ZM22.6667 17.3332C21.9333 17.3332 21.3333 16.7332 21.3333 15.9998C21.3333 15.2665 21.9333 14.6665 22.6667 14.6665C23.4 14.6665 24 15.2665 24 15.9998C24 16.7332 23.4 17.3332 22.6667 17.3332Z" fill="#20C9AC"/>
</svg>
