<svg width="40" height="40" viewBox="0 0 40 40" fill="none" xmlns="http://www.w3.org/2000/svg">
<rect x="0.5" y="0.5" width="39" height="39" rx="19.5" fill="white" stroke="#EBEAED"/>
<path d="M25.0002 16.6663H24.1668V14.9997C24.1668 12.6997 22.3002 10.833 20.0002 10.833C17.7002 10.833 15.8335 12.6997 15.8335 14.9997V16.6663H15.0002C14.0835 16.6663 13.3335 17.4163 13.3335 18.333V26.6663C13.3335 27.583 14.0835 28.333 15.0002 28.333H25.0002C25.9168 28.333 26.6668 27.583 26.6668 26.6663V18.333C26.6668 17.4163 25.9168 16.6663 25.0002 16.6663ZM20.0002 24.1663C19.0835 24.1663 18.3335 23.4163 18.3335 22.4997C18.3335 21.583 19.0835 20.833 20.0002 20.833C20.9168 20.833 21.6668 21.583 21.6668 22.4997C21.6668 23.4163 20.9168 24.1663 20.0002 24.1663ZM22.5835 16.6663H17.4168V14.9997C17.4168 13.5747 18.5752 12.4163 20.0002 12.4163C21.4252 12.4163 22.5835 13.5747 22.5835 14.9997V16.6663Z" fill="#504F54"/>
</svg>
