<svg width="40" height="40" viewBox="0 0 40 40" fill="none" xmlns="http://www.w3.org/2000/svg">
<rect x="0.5" y="0.5" width="39" height="39" rx="19.5" fill="white" stroke="#EBEAED"/>
<path d="M19.9998 11.667C15.3998 11.667 11.6665 15.4003 11.6665 20.0003C11.6665 24.6003 15.3998 28.3337 19.9998 28.3337C24.5998 28.3337 28.3332 24.6003 28.3332 20.0003C28.3332 15.4003 24.5998 11.667 19.9998 11.667ZM19.9998 14.167C21.3832 14.167 22.4998 15.2837 22.4998 16.667C22.4998 18.0503 21.3832 19.167 19.9998 19.167C18.6165 19.167 17.4998 18.0503 17.4998 16.667C17.4998 15.2837 18.6165 14.167 19.9998 14.167ZM19.9998 26.0003C17.9165 26.0003 16.0748 24.9337 14.9998 23.317C15.0248 21.6587 18.3332 20.7503 19.9998 20.7503C21.6582 20.7503 24.9748 21.6587 24.9998 23.317C23.9248 24.9337 22.0832 26.0003 19.9998 26.0003Z" fill="#504F54"/>
</svg>
