<svg width="16" height="16" viewBox="0 0 16 16" fill="none" xmlns="http://www.w3.org/2000/svg">
<path d="M8 0.45C3.82865 0.45 0.45 3.82865 0.45 8C0.45 12.1713 3.82865 15.55 8 15.55C12.1713 15.55 15.55 12.1714 15.55 8C15.55 3.82862 12.1714 0.45 8 0.45ZM2.05001 8C2.05001 4.71262 4.71262 2.04998 8.00004 2.04998C9.35544 2.04998 10.599 2.50827 11.5994 3.2687L3.2687 11.5994C2.50827 10.599 2.05001 9.35541 2.05001 8ZM8 13.95C6.64459 13.95 5.40102 13.4917 4.40067 12.7313L12.7313 4.40067C13.4917 5.40106 13.95 6.64463 13.95 8C13.95 11.2874 11.2874 13.95 8 13.95Z" fill="#FC3400" stroke="#FC3400" stroke-width="0.1"/>
</svg>
