<svg width="24" height="24" viewBox="0 0 24 24" fill="none" xmlns="http://www.w3.org/2000/svg">
<rect width="24" height="24" rx="12" fill="#FBFAFC" fill-opacity="0.1"/>
<path fill-rule="evenodd" clip-rule="evenodd" d="M8 8C7.44772 8 7 8.44772 7 9V15C7 15.5523 7.44772 16 8 16H16C16.5523 16 17 15.5523 17 15V9C17 8.44772 16.5523 8 16 8H8ZM11.5 14.5H12.5V14H13C13.275 14 13.5 13.775 13.5 13.5V12C13.5 11.725 13.275 11.5 13 11.5H11.5V11H13.5V10H12.5V9.5H11.5V10H11C10.725 10 10.5 10.225 10.5 10.5V12C10.5 12.275 10.725 12.5 11 12.5H12.5V13H10.5V14H11.5V14.5Z" fill="white"/>
</svg>
