<svg width="24" height="24" viewBox="0 0 24 24" fill="none" xmlns="http://www.w3.org/2000/svg">
<rect width="24" height="24" rx="12" fill="#5542F6" fill-opacity="0.1"/>
<path d="M8 9H7V16C7 16.55 7.45 17 8 17H15V16H8V9ZM16 7H10C9.45 7 9 7.45 9 8V14C9 14.55 9.45 15 10 15H16C16.55 15 17 14.55 17 14V8C17 7.45 16.55 7 16 7ZM13 8C13.83 8 14.5 8.67 14.5 9.5C14.5 10.33 13.83 11 13 11C12.17 11 11.5 10.33 11.5 9.5C11.5 8.67 12.17 8 13 8ZM16 14H10V13.25C10 12.255 12 11.75 13 11.75C14 11.75 16 12.255 16 13.25V14Z" fill="#5542F6"/>
</svg>
