<svg width="22" height="21" viewBox="0 0 22 21" fill="none" xmlns="http://www.w3.org/2000/svg">
<path d="M11.9108 2.43295L11.9109 2.43291C14.0329 0.068715 17.547 0.0687636 19.669 2.43291C21.777 4.78136 21.777 8.52591 19.669 10.8743C18.3206 12.3765 16.9709 13.8773 15.6213 15.3781L15.6078 15.3931C14.2626 16.8889 12.9176 18.3845 11.5739 19.8815C11.5005 19.9635 11.411 20.0296 11.3107 20.075C11.2102 20.1205 11.1014 20.1441 10.9911 20.1441C10.8808 20.1441 10.772 20.1205 10.6715 20.075C10.5711 20.0295 10.4815 19.9633 10.408 19.8811L10.4081 19.8812L10.5944 19.7145L10.4079 19.881L11.9108 2.43295ZM11.9108 2.43295L11.0002 3.4479L10.0889 2.42487L10.0882 2.42417C9.03029 1.24555 7.62574 0.646301 6.21337 0.646301C4.80146 0.646301 3.38831 1.24521 2.33007 2.42417C0.221971 4.77267 0.224725 8.50668 2.32984 10.8565M11.9108 2.43295L2.32991 10.8566M2.32991 10.8566L2.51612 10.6898L2.32984 10.8565M2.32991 10.8566C2.32989 10.8566 2.32987 10.8566 2.32984 10.8565M2.32991 10.8566L2.32984 10.8565M8.92267 3.51823L8.92293 3.51852L10.4255 5.18717L10.4267 5.18854C10.5001 5.26882 10.589 5.33331 10.6883 5.37757C10.7877 5.42184 10.895 5.44482 11.0038 5.44482C11.1125 5.44482 11.2199 5.42184 11.3192 5.37757C11.4185 5.33331 11.5075 5.26882 11.5808 5.18854L11.5821 5.18713L13.0762 3.52722L13.0764 3.52696C14.6062 1.82265 16.9737 1.82268 18.5035 3.52696C20.0473 5.24691 20.0472 8.05165 18.5035 9.7715L18.6895 9.93849L18.5035 9.7715C17.2261 11.1946 15.9501 12.6192 14.6742 14.0436L14.6583 14.0613C13.4391 15.4224 12.22 16.7834 10.9998 18.1431L3.49584 9.76297L3.4958 9.76293C1.95277 8.04057 1.95196 5.23793 3.49563 3.51823L3.49564 3.51823C4.26566 2.66036 5.24584 2.23835 6.21337 2.23835C7.18033 2.23835 8.15222 2.65991 8.92267 3.51823Z" fill="#C4C4C4" stroke="#C4C4C4" stroke-width="0.5"/>
</svg>
