<svg width="22" height="21" viewBox="0 0 22 21" fill="none" xmlns="http://www.w3.org/2000/svg">
<path d="M11.9109 2.81199L11.9108 2.81203L11.0002 3.82698L10.0889 2.80395L10.0882 2.80325C9.03029 1.62464 7.62574 1.02539 6.21337 1.02539C4.80146 1.02539 3.38831 1.6243 2.33007 2.80325C0.221971 5.15175 0.224725 8.88575 2.32984 11.2356C2.32987 11.2356 2.32989 11.2356 2.32991 11.2357L10.4079 20.2601C10.4814 20.3423 10.571 20.4085 10.6715 20.454C10.772 20.4995 10.8808 20.5231 10.9911 20.5231C11.1014 20.5231 11.2102 20.4995 11.3107 20.454C11.411 20.4086 11.5005 20.3426 11.5739 20.2605C12.918 18.763 14.2635 17.2669 15.6091 15.7707L15.6213 15.7571C16.9709 14.2564 18.3206 12.7556 19.669 11.2533C21.777 8.90498 21.777 5.16044 19.669 2.81199C17.547 0.447855 14.0329 0.447806 11.9109 2.81199ZM8.92267 3.89731L8.92293 3.8976L10.4255 5.56625L10.4255 5.56625L10.4267 5.56762C10.5001 5.6479 10.589 5.71239 10.6883 5.75665C10.7877 5.80092 10.895 5.82389 11.0038 5.82389C11.1125 5.82389 11.2199 5.80092 11.3192 5.75665C11.4185 5.71239 11.5075 5.6479 11.5808 5.56762L11.5821 5.56621L13.0762 3.9063L13.0764 3.90604C14.6062 2.20174 16.9737 2.20177 18.5035 3.90604C20.0473 5.62599 20.0472 8.43072 18.5035 10.1506L18.6895 10.3176L18.5035 10.1506C17.2256 11.5742 15.9492 12.9992 14.6728 14.4241L14.6583 14.4403C13.4391 15.8014 12.22 17.1624 10.9998 18.5221L3.49584 10.142L3.4958 10.142C1.95277 8.41963 1.95196 5.61701 3.49563 3.89731L3.49564 3.89731C4.26566 3.03945 5.24584 2.61744 6.21337 2.61744C7.18033 2.61744 8.15223 3.03899 8.92267 3.89731Z" fill="#C4C4C4" stroke="#C4C4C4" stroke-width="0.5"/>
</svg>
