<svg width="85" height="37" viewBox="0 0 85 37" fill="none" xmlns="http://www.w3.org/2000/svg">
<path d="M0.772461 4.70977V6.33879H5.40579V16.3456H7.23913V6.33879H11.8725V4.70977H0.772461ZM19.5762 16.6781C23.0762 16.6781 25.5429 15.1322 26.4096 12.7385C26.6596 12.0736 26.7762 11.3256 26.7762 10.5277C26.7762 9.7298 26.6596 8.98179 26.4096 8.31688C25.5262 5.92322 23.0429 4.37732 19.5596 4.37732C16.0929 4.37732 13.6096 5.92322 12.7262 8.31688C12.4762 8.98179 12.3429 9.7298 12.3429 10.5277C12.3429 11.3256 12.4762 12.0736 12.7262 12.7385C13.6096 15.182 16.1262 16.6781 19.5762 16.6781ZM19.5596 15.049C16.9929 15.049 15.1929 13.9187 14.5429 12.1567C14.3596 11.658 14.2762 11.1095 14.2762 10.5277C14.2762 9.9459 14.3596 9.39735 14.5429 8.89867C15.1929 7.13667 16.9929 6.00634 19.5596 6.00634C22.1429 6.00634 23.9429 7.13667 24.5762 8.89867C24.7596 9.39735 24.8596 9.9459 24.8596 10.5277C24.8596 11.1095 24.7596 11.658 24.5762 12.1567C23.9262 13.952 22.1262 15.049 19.5596 15.049ZM38.7227 6.33879C38.1227 5.30819 36.9394 4.70977 35.3727 4.70977H29.3061V16.3456H31.1561V11.5084H35.3727C36.9394 11.5084 38.1227 10.8934 38.7227 9.86278C39.0061 9.36411 39.1561 8.78231 39.1561 8.10079C39.1561 7.41926 39.0061 6.85409 38.7227 6.33879ZM37.0227 9.0649C36.7394 9.56358 36.1394 9.89603 35.2727 9.89603H31.1561V6.32217H35.2727C36.1394 6.32217 36.7394 6.65462 37.0227 7.13667C37.2061 7.43588 37.2727 7.75171 37.2727 8.10079C37.2727 8.44986 37.2061 8.76569 37.0227 9.0649Z" fill="black"/>
<path d="M0.772135 4.70969V4.29412H0.355469V4.70969H0.772135ZM0.772135 6.3387H0.355469V6.75427H0.772135V6.3387ZM5.40547 6.3387H5.82214V5.92314H5.40547V6.3387ZM5.40547 16.3455H4.9888V16.7611H5.40547V16.3455ZM7.2388 16.3455V16.7611H7.65547V16.3455H7.2388ZM7.2388 6.3387V5.92314H6.82214V6.3387H7.2388ZM11.8721 6.3387V6.75427H12.2888V6.3387H11.8721ZM11.8721 4.70969H12.2888V4.29412H11.8721V4.70969ZM0.355469 4.70969V6.3387H1.1888V4.70969H0.355469ZM0.772135 6.75427H5.40547V5.92314H0.772135V6.75427ZM4.9888 6.3387V16.3455H5.82214V6.3387H4.9888ZM5.40547 16.7611H7.2388V15.93H5.40547V16.7611ZM7.65547 16.3455V6.3387H6.82214V16.3455H7.65547ZM7.2388 6.75427H11.8721V5.92314H7.2388V6.75427ZM12.2888 6.3387V4.70969H11.4555V6.3387H12.2888ZM11.8721 4.29412H0.772135V5.12525H11.8721V4.29412ZM26.4092 12.7384L26.0191 12.5925L26.0182 12.5949L26.0174 12.5973L26.4092 12.7384ZM26.4092 8.3168L26.0182 8.46033L26.0191 8.46272L26.4092 8.3168ZM12.7259 8.3168L13.1161 8.46272L13.1169 8.46033L12.7259 8.3168ZM12.7259 12.7384L13.1179 12.5975L13.117 12.595L13.1161 12.5925L12.7259 12.7384ZM24.5759 8.89859L24.1837 9.03883L24.1847 9.04165L24.5759 8.89859ZM24.5759 12.1566L24.1847 12.0136L24.184 12.0155L24.5759 12.1566ZM19.5759 17.0935C23.1956 17.0935 25.8579 15.4848 26.8011 12.8796L26.0174 12.5973C25.2273 14.7794 22.9562 16.2624 19.5759 16.2624V17.0935ZM26.7994 12.8843C27.0703 12.1638 27.1926 11.3647 27.1926 10.5276H26.3592C26.3592 11.2862 26.2482 11.9832 26.0191 12.5925L26.7994 12.8843ZM27.1926 10.5276C27.1926 9.69046 27.0703 8.89141 26.7994 8.17088L26.0191 8.46272C26.2482 9.07199 26.3592 9.76898 26.3592 10.5276H27.1926ZM26.8003 8.17326C25.8397 5.57032 23.1626 3.96167 19.5592 3.96167V4.7928C22.9226 4.7928 25.2121 6.27595 26.0182 8.46033L26.8003 8.17326ZM19.5592 3.96167C15.972 3.96167 13.2953 5.57077 12.3349 8.17326L13.1169 8.46033C13.9232 6.27551 16.2131 4.7928 19.5592 4.7928V3.96167ZM12.3358 8.17088C12.0669 8.88604 11.9259 9.68387 11.9259 10.5276H12.7592C12.7592 9.77557 12.8849 9.07737 13.1161 8.46272L12.3358 8.17088ZM11.9259 10.5276C11.9259 11.3713 12.0669 12.1692 12.3358 12.8843L13.1161 12.5925C12.8849 11.9778 12.7592 11.2796 12.7592 10.5276H11.9259ZM12.3339 12.8794C13.2953 15.5387 16.0117 17.0935 19.5759 17.0935V16.2624C16.2401 16.2624 13.9232 14.8252 13.1179 12.5975L12.3339 12.8794ZM19.5592 14.6334C17.1139 14.6334 15.5068 13.5668 14.9336 12.0131L14.1514 12.2997C14.8782 14.27 16.8713 15.4645 19.5592 15.4645V14.6334ZM14.9336 12.0131C14.7702 11.5687 14.6926 11.0705 14.6926 10.5276H13.8592C13.8592 11.1483 13.9481 11.7467 14.1514 12.2997L14.9336 12.0131ZM14.6926 10.5276C14.6926 9.98474 14.7704 9.48606 14.9338 9.04165L14.1516 8.75511C13.9483 9.30806 13.8592 9.90689 13.8592 10.5276H14.6926ZM14.9338 9.04165C15.5069 7.48799 17.1139 6.42182 19.5592 6.42182V5.59069C16.8713 5.59069 14.8784 6.78477 14.1516 8.75511L14.9338 9.04165ZM19.5592 6.42182C22.0233 6.42182 23.6268 7.48949 24.1837 9.03883L24.9681 8.75835C24.2584 6.78369 22.2619 5.59069 19.5592 5.59069V6.42182ZM24.1847 9.04165C24.3508 9.49348 24.4426 9.99355 24.4426 10.5276H25.2759C25.2759 9.89808 25.1677 9.30105 24.9671 8.75552L24.1847 9.04165ZM24.4426 10.5276C24.4426 11.0617 24.3508 11.5617 24.1847 12.0136L24.9671 12.2997C25.1677 11.7542 25.2759 11.1571 25.2759 10.5276H24.4426ZM24.184 12.0155C23.6113 13.5972 22.0088 14.6334 19.5592 14.6334V15.4645C22.243 15.4645 24.2405 14.3065 24.9678 12.2978L24.184 12.0155ZM38.7224 6.3387L39.088 6.13887L39.0855 6.13444L39.083 6.13004L38.7224 6.3387ZM29.3057 4.70969V4.29412H28.8891V4.70969H29.3057ZM29.3057 16.3455H28.8891V16.7611H29.3057V16.3455ZM31.1557 16.3455V16.7611H31.5724V16.3455H31.1557ZM31.1557 11.5083V11.0928H30.7391V11.5083H31.1557ZM38.7224 9.8627L39.083 10.0714L39.0841 10.0695L39.0849 10.0676L38.7224 9.8627ZM37.0224 9.06482L36.6669 8.84811L36.6635 8.85396L36.6599 8.85994L37.0224 9.06482ZM31.1557 9.89595H30.7391V10.3115H31.1557V9.89595ZM31.1557 6.32208V5.90652H30.7391V6.32208H31.1557ZM37.0224 7.13659L36.663 7.34676L36.6649 7.35002L36.6669 7.35329L37.0224 7.13659ZM39.083 6.13004C38.3888 4.93767 37.0441 4.29412 35.3724 4.29412V5.12525C36.8344 5.12525 37.8563 5.67854 38.3621 6.54737L39.083 6.13004ZM35.3724 4.29412H29.3057V5.12525H35.3724V4.29412ZM28.8891 4.70969V16.3455H29.7224V4.70969H28.8891ZM29.3057 16.7611H31.1557V15.93H29.3057V16.7611ZM31.5724 16.3455V11.5083H30.7391V16.3455H31.5724ZM31.1557 11.9239H35.3724V11.0928H31.1557V11.9239ZM35.3724 11.9239C37.0483 11.9239 38.3905 11.2608 39.083 10.0714L38.3621 9.65403C37.8546 10.5258 36.8302 11.0928 35.3724 11.0928V11.9239ZM39.0849 10.0676C39.408 9.49941 39.5724 8.84553 39.5724 8.1007H38.7391C38.7391 8.71893 38.6038 9.22863 38.3599 9.65783L39.0849 10.0676ZM39.5724 8.1007C39.5724 7.35268 39.4066 6.71831 39.088 6.13887L38.3571 6.53851C38.6052 6.9897 38.7391 7.48567 38.7391 8.1007H39.5724ZM36.6599 8.85994C36.4707 9.19328 36.0346 9.48038 35.2724 9.48038V10.3115C36.2438 10.3115 37.0077 9.93371 37.3849 9.26969L36.6599 8.85994ZM35.2724 9.48038H31.1557V10.3115H35.2724V9.48038ZM31.5724 9.89595V6.32208H30.7391V9.89595H31.5724ZM31.1557 6.73765H35.2724V5.90652H31.1557V6.73765ZM35.2724 6.73765C36.0355 6.73765 36.4744 7.02577 36.663 7.34676L37.3819 6.92643C37.0041 6.2833 36.243 5.90652 35.2724 5.90652V6.73765ZM36.6669 7.35329C36.8013 7.57227 36.8557 7.80839 36.8557 8.1007H37.6891C37.6891 7.69486 37.6105 7.29933 37.378 6.91989L36.6669 7.35329ZM36.8557 8.1007C36.8557 8.39301 36.8013 8.62914 36.6669 8.84811L37.378 9.28152C37.6105 8.90208 37.6891 8.50654 37.6891 8.1007H36.8557Z" fill="black"/>
<path d="M0.772135 4.29412V4.70969H0.355469M0.772135 4.29412H0.355469V4.70969M0.772135 4.29412H11.8721M0.772135 4.29412V5.12525H11.8721V4.29412M0.355469 4.70969V6.3387M0.355469 4.70969H1.1888V6.3387H0.355469M0.355469 6.3387H0.772135V6.75427M0.355469 6.3387V6.75427H0.772135M0.772135 6.75427H5.40547V5.92314M0.772135 6.75427V5.92314H5.40547M5.82214 6.3387H5.40547V5.92314M5.82214 6.3387V5.92314H5.40547M5.82214 6.3387V16.3455H4.9888M5.82214 6.3387H4.9888V16.3455M4.9888 16.3455H5.40547V16.7611M4.9888 16.3455V16.7611H5.40547M5.40547 16.7611H7.2388M5.40547 16.7611V15.93H7.2388V16.7611M7.2388 16.7611V16.3455H7.65547M7.2388 16.7611H7.65547V16.3455M7.65547 16.3455V6.3387H6.82214M7.65547 16.3455H6.82214V6.3387M7.2388 5.92314V6.3387H6.82214M7.2388 5.92314H6.82214V6.3387M7.2388 5.92314H11.8721V6.75427M7.2388 5.92314V6.75427H11.8721M11.8721 6.75427V6.3387H12.2888M11.8721 6.75427H12.2888V6.3387M12.2888 6.3387V4.70969M12.2888 6.3387H11.4555V4.70969H12.2888M12.2888 4.70969H11.8721V4.29412M12.2888 4.70969V4.29412H11.8721M26.0191 12.5925L26.4092 12.7384L26.0174 12.5973M26.0191 12.5925L26.0182 12.5949L26.0174 12.5973M26.0191 12.5925C26.2482 11.9832 26.3592 11.2862 26.3592 10.5276M26.0191 12.5925L26.7994 12.8843C27.0703 12.1638 27.1926 11.3647 27.1926 10.5276M26.0174 12.5973L26.8011 12.8796C25.8579 15.4848 23.1956 17.0935 19.5759 17.0935M26.0174 12.5973C25.2273 14.7794 22.9562 16.2624 19.5759 16.2624M26.0182 8.46033L26.4092 8.3168L26.0191 8.46272M26.0182 8.46033L26.0191 8.46272M26.0182 8.46033C25.2121 6.27595 22.9226 4.7928 19.5592 4.7928M26.0182 8.46033L26.8003 8.17326C25.8397 5.57032 23.1626 3.96167 19.5592 3.96167M26.0191 8.46272L26.7994 8.17088C27.0703 8.89141 27.1926 9.69046 27.1926 10.5276M26.0191 8.46272C26.2482 9.07199 26.3592 9.76898 26.3592 10.5276M13.1161 8.46272L12.7259 8.3168L13.1169 8.46033M13.1161 8.46272L13.1169 8.46033M13.1161 8.46272C12.8849 9.07737 12.7592 9.77557 12.7592 10.5276M13.1161 8.46272L12.3358 8.17088C12.0669 8.88604 11.9259 9.68387 11.9259 10.5276M13.1169 8.46033L12.3349 8.17326C13.2953 5.57077 15.972 3.96167 19.5592 3.96167M13.1169 8.46033C13.9232 6.27551 16.2131 4.7928 19.5592 4.7928M13.1179 12.5975L12.7259 12.7384L13.1161 12.5925M13.1179 12.5975L13.117 12.595L13.1161 12.5925M13.1179 12.5975C13.9232 14.8252 16.2401 16.2624 19.5759 16.2624M13.1179 12.5975L12.3339 12.8794C13.2953 15.5387 16.0117 17.0935 19.5759 17.0935M13.1161 12.5925L12.3358 12.8843C12.0669 12.1692 11.9259 11.3713 11.9259 10.5276M13.1161 12.5925C12.8849 11.9778 12.7592 11.2796 12.7592 10.5276M14.5426 12.1566L14.1514 12.2997M14.1514 12.2997L14.9336 12.0131M14.1514 12.2997C14.8782 14.27 16.8713 15.4645 19.5592 15.4645M14.1514 12.2997C13.9481 11.7467 13.8592 11.1483 13.8592 10.5276M14.5426 8.89859L14.1516 8.75511M14.1516 8.75511L14.9338 9.04165M14.1516 8.75511C13.9483 9.30806 13.8592 9.90689 13.8592 10.5276M14.1516 8.75511C14.8784 6.78477 16.8713 5.59069 19.5592 5.59069M24.1837 9.03883L24.5759 8.89859L24.1847 9.04165M24.1837 9.03883L24.1847 9.04165M24.1837 9.03883C23.6268 7.48949 22.0233 6.42182 19.5592 6.42182M24.1837 9.03883L24.9681 8.75835C24.2584 6.78369 22.2619 5.59069 19.5592 5.59069M24.1847 9.04165C24.3508 9.49348 24.4426 9.99355 24.4426 10.5276M24.1847 9.04165L24.9671 8.75552C25.1677 9.30105 25.2759 9.89808 25.2759 10.5276M24.1847 12.0136L24.5759 12.1566L24.184 12.0155M24.1847 12.0136L24.184 12.0155M24.1847 12.0136C24.3508 11.5617 24.4426 11.0617 24.4426 10.5276M24.1847 12.0136L24.9671 12.2997C25.1677 11.7542 25.2759 11.1571 25.2759 10.5276M24.184 12.0155C23.6113 13.5972 22.0088 14.6334 19.5592 14.6334M24.184 12.0155L24.9678 12.2978C24.2405 14.3065 22.243 15.4645 19.5592 15.4645M19.5759 17.0935V16.2624M27.1926 10.5276H26.3592M19.5592 3.96167V4.7928M11.9259 10.5276H12.7592M19.5592 14.6334C17.1139 14.6334 15.5068 13.5668 14.9336 12.0131M19.5592 14.6334V15.4645M14.9336 12.0131C14.7702 11.5687 14.6926 11.0705 14.6926 10.5276M14.6926 10.5276H13.8592M14.6926 10.5276C14.6926 9.98474 14.7704 9.48606 14.9338 9.04165M14.9338 9.04165C15.5069 7.48799 17.1139 6.42182 19.5592 6.42182M19.5592 6.42182V5.59069M24.4426 10.5276H25.2759M39.088 6.13887L38.7224 6.3387L39.083 6.13004M39.088 6.13887L39.0855 6.13444L39.083 6.13004M39.088 6.13887C39.4066 6.71831 39.5724 7.35268 39.5724 8.1007M39.088 6.13887L38.3571 6.53851C38.6052 6.9897 38.7391 7.48567 38.7391 8.1007M39.083 6.13004C38.3888 4.93767 37.0441 4.29412 35.3724 4.29412M39.083 6.13004L38.3621 6.54737C37.8563 5.67854 36.8344 5.12525 35.3724 5.12525M29.3057 4.29412V4.70969H28.8891M29.3057 4.29412H28.8891V4.70969M29.3057 4.29412H35.3724M29.3057 4.29412V5.12525H35.3724M28.8891 4.70969V16.3455M28.8891 4.70969H29.7224V16.3455H28.8891M28.8891 16.3455H29.3057V16.7611M28.8891 16.3455V16.7611H29.3057M29.3057 16.7611H31.1557M29.3057 16.7611V15.93H31.1557V16.7611M31.1557 16.7611V16.3455H31.5724M31.1557 16.7611H31.5724V16.3455M31.5724 16.3455V11.5083H30.7391M31.5724 16.3455H30.7391V11.5083M31.1557 11.0928V11.5083H30.7391M31.1557 11.0928H30.7391V11.5083M31.1557 11.0928H35.3724M31.1557 11.0928V11.9239H35.3724M39.083 10.0714L38.7224 9.8627L39.0849 10.0676M39.083 10.0714L39.0841 10.0695L39.0849 10.0676M39.083 10.0714C38.3905 11.2608 37.0483 11.9239 35.3724 11.9239M39.083 10.0714L38.3621 9.65403C37.8546 10.5258 36.8302 11.0928 35.3724 11.0928M39.0849 10.0676C39.408 9.49941 39.5724 8.84553 39.5724 8.1007M39.0849 10.0676L38.3599 9.65783C38.6038 9.22863 38.7391 8.71893 38.7391 8.1007M36.6669 8.84811L37.0224 9.06482L36.6599 8.85994M36.6669 8.84811L36.6635 8.85396L36.6599 8.85994M36.6669 8.84811C36.8013 8.62914 36.8557 8.39301 36.8557 8.1007M36.6669 8.84811L37.378 9.28152C37.6105 8.90208 37.6891 8.50654 37.6891 8.1007M36.6599 8.85994C36.4707 9.19328 36.0346 9.48038 35.2724 9.48038M36.6599 8.85994L37.3849 9.26969C37.0077 9.93371 36.2438 10.3115 35.2724 10.3115M30.7391 9.89595H31.1557V10.3115M30.7391 9.89595V10.3115H31.1557M30.7391 9.89595V6.32208M30.7391 9.89595H31.5724V6.32208H30.7391M31.1557 10.3115V9.48038H35.2724M31.1557 10.3115H35.2724M31.1557 5.90652V6.32208H30.7391M31.1557 5.90652H30.7391V6.32208M31.1557 5.90652H35.2724M31.1557 5.90652V6.73765H35.2724M36.663 7.34676L37.0224 7.13659L36.6669 7.35329M36.663 7.34676L36.6649 7.35002L36.6669 7.35329M36.663 7.34676C36.4744 7.02577 36.0355 6.73765 35.2724 6.73765M36.663 7.34676L37.3819 6.92643C37.0041 6.2833 36.243 5.90652 35.2724 5.90652M36.6669 7.35329C36.8013 7.57227 36.8557 7.80839 36.8557 8.1007M36.6669 7.35329L37.378 6.91989C37.6105 7.29933 37.6891 7.69486 37.6891 8.1007M35.3724 4.29412V5.12525M35.3724 11.9239V11.0928M39.5724 8.1007H38.7391M35.2724 9.48038V10.3115M35.2724 6.73765V5.90652M36.8557 8.1007H37.6891" stroke="black" stroke-width="0.5"/>
<path d="M44.6611 4.70977V6.33879H49.2945V16.3456H51.1278V6.33879H55.7611V4.70977H44.6611ZM63.465 16.6781C66.965 16.6781 69.4317 15.1322 70.2984 12.7385C70.5484 12.0736 70.665 11.3256 70.665 10.5277C70.665 9.7298 70.5484 8.98179 70.2984 8.31688C69.415 5.92322 66.9317 4.37732 63.4484 4.37732C59.9817 4.37732 57.4984 5.92322 56.615 8.31688C56.365 8.98179 56.2317 9.7298 56.2317 10.5277C56.2317 11.3256 56.365 12.0736 56.615 12.7385C57.4984 15.182 60.015 16.6781 63.465 16.6781ZM63.4484 15.049C60.8817 15.049 59.0817 13.9187 58.4317 12.1567C58.2484 11.658 58.165 11.1095 58.165 10.5277C58.165 9.9459 58.2484 9.39735 58.4317 8.89867C59.0817 7.13667 60.8817 6.00634 63.4484 6.00634C66.0317 6.00634 67.8317 7.13667 68.465 8.89867C68.6484 9.39735 68.7484 9.9459 68.7484 10.5277C68.7484 11.1095 68.6484 11.658 68.465 12.1567C67.815 13.952 66.015 15.049 63.4484 15.049ZM82.6114 6.33879C82.0114 5.30819 80.8281 4.70977 79.2614 4.70977H73.1947V16.3456H75.0447V11.5084H79.2614C80.8281 11.5084 82.0114 10.8934 82.6114 9.86278C82.8947 9.36411 83.0447 8.78231 83.0447 8.10079C83.0447 7.41926 82.8947 6.85409 82.6114 6.33879ZM80.9114 9.0649C80.6281 9.56358 80.0281 9.89603 79.1614 9.89603H75.0447V6.32217H79.1614C80.0281 6.32217 80.6281 6.65462 80.9114 7.13667C81.0947 7.43588 81.1614 7.75171 81.1614 8.10079C81.1614 8.44986 81.0947 8.76569 80.9114 9.0649Z" fill="black"/>
<path d="M44.6608 4.70969V4.29412H44.2441V4.70969H44.6608ZM44.6608 6.3387H44.2441V6.75427H44.6608V6.3387ZM49.2941 6.3387H49.7108V5.92314H49.2941V6.3387ZM49.2941 16.3455H48.8775V16.7611H49.2941V16.3455ZM51.1275 16.3455V16.7611H51.5441V16.3455H51.1275ZM51.1275 6.3387V5.92314H50.7108V6.3387H51.1275ZM55.7608 6.3387V6.75427H56.1775V6.3387H55.7608ZM55.7608 4.70969H56.1775V4.29412H55.7608V4.70969ZM44.2441 4.70969V6.3387H45.0775V4.70969H44.2441ZM44.6608 6.75427H49.2941V5.92314H44.6608V6.75427ZM48.8775 6.3387V16.3455H49.7108V6.3387H48.8775ZM49.2941 16.7611H51.1275V15.93H49.2941V16.7611ZM51.5441 16.3455V6.3387H50.7108V16.3455H51.5441ZM51.1275 6.75427H55.7608V5.92314H51.1275V6.75427ZM56.1775 6.3387V4.70969H55.3441V6.3387H56.1775ZM55.7608 4.29412H44.6608V5.12525H55.7608V4.29412ZM70.298 12.7384L69.9078 12.5925L69.9069 12.5949L69.9061 12.5973L70.298 12.7384ZM70.298 8.3168L69.9069 8.46033L69.9078 8.46272L70.298 8.3168ZM56.6147 8.3168L57.0047 8.46272L57.0055 8.46033L56.6147 8.3168ZM56.6147 12.7384L57.0066 12.5975L57.0055 12.595L57.0047 12.5925L56.6147 12.7384ZM58.4314 12.1566L58.04 12.2997L58.0403 12.3001L58.4314 12.1566ZM58.4314 8.89859L58.0403 8.75511L58.04 8.75552L58.4314 8.89859ZM68.4647 8.89859L68.0725 9.03883L68.0733 9.04165L68.4647 8.89859ZM68.4647 12.1566L68.0733 12.0136L68.0728 12.0155L68.4647 12.1566ZM63.4647 17.0935C67.0841 17.0935 69.7466 15.4848 70.6897 12.8796L69.9061 12.5973C69.1161 14.7794 66.845 16.2624 63.4647 16.2624V17.0935ZM70.688 12.8843C70.9589 12.1638 71.0814 11.3647 71.0814 10.5276H70.248C70.248 11.2862 70.1369 11.9832 69.9078 12.5925L70.688 12.8843ZM71.0814 10.5276C71.0814 9.69046 70.9589 8.89141 70.688 8.17088L69.9078 8.46272C70.1369 9.07199 70.248 9.76898 70.248 10.5276H71.0814ZM70.6889 8.17326C69.7283 5.57032 67.0511 3.96167 63.448 3.96167V4.7928C66.8114 4.7928 69.1008 6.27595 69.9069 8.46033L70.6889 8.17326ZM63.448 3.96167C59.8608 3.96167 57.1839 5.57077 56.2236 8.17326L57.0055 8.46033C57.8119 6.27551 60.1019 4.7928 63.448 4.7928V3.96167ZM56.2244 8.17088C55.9555 8.88604 55.8147 9.68387 55.8147 10.5276H56.648C56.648 9.77557 56.7736 9.07737 57.0047 8.46272L56.2244 8.17088ZM55.8147 10.5276C55.8147 11.3713 55.9555 12.1692 56.2244 12.8843L57.0047 12.5925C56.7736 11.9778 56.648 11.2796 56.648 10.5276H55.8147ZM56.2228 12.8794C57.1839 15.5387 59.9005 17.0935 63.4647 17.0935V16.2624C60.1289 16.2624 57.8119 14.8252 57.0066 12.5975L56.2228 12.8794ZM63.448 14.6334C61.0025 14.6334 59.3955 13.5668 58.8222 12.0131L58.0403 12.3001C58.7672 14.2704 60.76 15.4645 63.448 15.4645V14.6334ZM58.8225 12.0136C58.6591 11.5692 58.5814 11.0705 58.5814 10.5276H57.748C57.748 11.1483 57.8366 11.7467 58.04 12.2997L58.8225 12.0136ZM58.5814 10.5276C58.5814 9.98474 58.6591 9.48606 58.8225 9.04165L58.04 8.75552C57.8366 9.30847 57.748 9.90689 57.748 10.5276H58.5814ZM58.8222 9.04207C59.3955 7.48841 61.0025 6.42182 63.448 6.42182V5.59069C60.76 5.59069 58.7672 6.78477 58.0403 8.75511L58.8222 9.04207ZM63.448 6.42182C65.9119 6.42182 67.5155 7.48949 68.0725 9.03883L68.8569 8.75835C68.1469 6.78369 66.1505 5.59069 63.448 5.59069V6.42182ZM68.0733 9.04165C68.2394 9.49348 68.3314 9.99355 68.3314 10.5276H69.1647C69.1647 9.89808 69.0564 9.30105 68.8558 8.75552L68.0733 9.04165ZM68.3314 10.5276C68.3314 11.0617 68.2394 11.5617 68.0733 12.0136L68.8558 12.2997C69.0564 11.7542 69.1647 11.1571 69.1647 10.5276H68.3314ZM68.0728 12.0155C67.5 13.5972 65.8975 14.6334 63.448 14.6334V15.4645C66.1316 15.4645 68.1291 14.3065 68.8564 12.2978L68.0728 12.0155ZM82.6111 6.3387L82.9766 6.13887L82.9741 6.13444L82.9716 6.13004L82.6111 6.3387ZM73.1944 4.70969V4.29412H72.7778V4.70969H73.1944ZM73.1944 16.3455H72.7778V16.7611H73.1944V16.3455ZM75.0444 16.3455V16.7611H75.4611V16.3455H75.0444ZM75.0444 11.5083V11.0928H74.6278V11.5083H75.0444ZM82.6111 9.8627L82.9716 10.0714L82.9728 10.0695L82.9736 10.0676L82.6111 9.8627ZM80.9111 9.06482L80.5555 8.84811L80.5522 8.85396L80.5486 8.85994L80.9111 9.06482ZM75.0444 9.89595H74.6278V10.3115H75.0444V9.89595ZM75.0444 6.32208V5.90652H74.6278V6.32208H75.0444ZM80.9111 7.13659L80.5516 7.34676L80.5536 7.35002L80.5555 7.35329L80.9111 7.13659ZM82.9716 6.13004C82.2775 4.93767 80.9328 4.29412 79.2611 4.29412V5.12525C80.723 5.12525 81.745 5.67854 82.2508 6.54737L82.9716 6.13004ZM79.2611 4.29412H73.1944V5.12525H79.2611V4.29412ZM72.7778 4.70969V16.3455H73.6111V4.70969H72.7778ZM73.1944 16.7611H75.0444V15.93H73.1944V16.7611ZM75.4611 16.3455V11.5083H74.6278V16.3455H75.4611ZM75.0444 11.9239H79.2611V11.0928H75.0444V11.9239ZM79.2611 11.9239C80.9369 11.9239 82.2791 11.2608 82.9716 10.0714L82.2508 9.65403C81.7433 10.5258 80.7189 11.0928 79.2611 11.0928V11.9239ZM82.9736 10.0676C83.2966 9.49941 83.4611 8.84553 83.4611 8.1007H82.6277C82.6277 8.71893 82.4925 9.22863 82.2486 9.65783L82.9736 10.0676ZM83.4611 8.1007C83.4611 7.35268 83.2953 6.71831 82.9766 6.13887L82.2458 6.53851C82.4939 6.9897 82.6277 7.48567 82.6277 8.1007H83.4611ZM80.5486 8.85994C80.3594 9.19328 79.9233 9.48038 79.1611 9.48038V10.3115C80.1325 10.3115 80.8964 9.93371 81.2736 9.26969L80.5486 8.85994ZM79.1611 9.48038H75.0444V10.3115H79.1611V9.48038ZM75.4611 9.89595V6.32208H74.6278V9.89595H75.4611ZM75.0444 6.73765H79.1611V5.90652H75.0444V6.73765ZM79.1611 6.73765C79.9241 6.73765 80.363 7.02577 80.5516 7.34676L81.2705 6.92643C80.8928 6.2833 80.1316 5.90652 79.1611 5.90652V6.73765ZM80.5555 7.35329C80.69 7.57227 80.7444 7.80839 80.7444 8.1007H81.5777C81.5777 7.69486 81.4991 7.29933 81.2666 6.91989L80.5555 7.35329ZM80.7444 8.1007C80.7444 8.39301 80.69 8.62914 80.5555 8.84811L81.2666 9.28152C81.4991 8.90208 81.5777 8.50654 81.5777 8.1007H80.7444Z" fill="black" stroke="black" stroke-width="0.5"/>
<path d="M43.1499 16.8996V14.722H40.7666V16.8996H43.1499Z" fill="black"/>
<path d="M7.45026 32.6912C10.3669 32.6912 12.4836 31.378 13.2836 29.1173C13.5336 28.4524 13.6503 27.7044 13.6503 26.8733C13.6503 26.0421 13.5169 25.3107 13.3003 24.6458C12.4836 22.3852 10.3503 21.0554 7.45026 21.0554H1.68359V32.6912H7.45026ZM3.53359 22.6844H7.58359C9.50026 22.6844 10.8836 23.6651 11.4336 25.1778C11.6336 25.6931 11.7336 26.2582 11.7336 26.8733C11.7336 27.4883 11.6336 28.0369 11.4503 28.5522C10.9003 30.0648 9.50026 31.0622 7.58359 31.0622H3.53359V22.6844ZM27.0189 32.6912V31.0622H20.2022V27.6545H26.8522V26.0421H20.2022V22.6844H27.0189V21.0554H18.3522V32.6912H27.0189ZM36.5436 33.0236C38.8603 33.0236 40.5936 32.3089 41.3103 31.0455C41.5769 30.5635 41.7269 29.9983 41.7269 29.3833C41.7269 28.8015 41.6103 28.2862 41.3603 27.8374C40.8603 26.9896 39.8436 26.4078 38.1103 26.1917L35.7603 25.9424C34.5103 25.7762 33.8936 25.4437 33.6103 24.9617C33.4936 24.7456 33.4436 24.5129 33.4436 24.2469C33.4436 23.9311 33.5103 23.6651 33.6436 23.4324C34.0436 22.7675 35.1269 22.3353 36.6436 22.3353C38.7103 22.3353 39.9103 23.0999 39.9103 24.6957V24.8453H41.8436V24.596C41.8436 22.1358 39.8603 20.7229 36.6936 20.7229C34.3769 20.7229 32.6603 21.4709 31.9269 22.7342C31.6603 23.1997 31.5103 23.7482 31.5103 24.3466C31.5103 24.9284 31.6436 25.4437 31.8769 25.8759C32.3769 26.7569 33.4103 27.3221 35.1436 27.5382L37.5103 27.7709C38.7269 27.9371 39.3436 28.2696 39.6269 28.7516C39.7603 28.9677 39.7936 29.2004 39.7936 29.4664C39.7936 29.7822 39.7269 30.0648 39.5769 30.3142C39.1936 30.9957 38.1103 31.4112 36.5936 31.4112C34.5769 31.4112 33.2936 30.5801 33.2936 29.001V28.8514H31.3603V29.1007C31.3603 31.5442 33.4103 33.0236 36.5436 33.0236ZM48.673 32.6912V21.0554H46.823V32.6912H48.673ZM59.9475 33.0236C62.5808 33.0236 64.4308 31.8102 65.0141 29.8653H65.2641L64.8141 32.6912H66.6308V26.6572H60.1141V28.2529H64.8641C64.5808 30.1479 62.8475 31.3946 60.2641 31.3946C58.0141 31.3946 56.2141 30.4305 55.5808 28.6685C55.3641 28.1033 55.2975 27.4717 55.2975 26.8899C55.2975 26.2749 55.3975 25.7097 55.5808 25.211C56.2308 23.3825 58.0975 22.3519 60.5475 22.3519C63.0975 22.3519 64.8475 23.449 65.1475 25.1611H67.0308C66.7808 22.568 64.2475 20.7229 60.5308 20.7229C57.2141 20.7229 54.6641 22.1524 53.7475 24.6292C53.4975 25.2941 53.3641 26.0588 53.3641 26.8899C53.3641 27.6878 53.4975 28.5189 53.7641 29.2503C54.6141 31.6772 57.1475 33.0236 59.9475 33.0236ZM73.823 32.6912V22.2522H74.0897L74.4897 24.064L80.5064 32.6912H83.2897V21.0554H81.4564V31.4944H81.2064L80.773 29.6659L74.773 21.0554H71.9897V32.6912H73.823Z" fill="black"/>
<path d="M13.2833 29.1172L12.8931 28.9712L12.8917 28.9751L12.8904 28.979L13.2833 29.1172ZM13.2999 24.6458L13.6962 24.5173L13.6942 24.5111L13.6919 24.5049L13.2999 24.6458ZM1.68327 21.0553V20.6397H1.2666V21.0553H1.68327ZM1.68327 32.6911H1.2666V33.1067H1.68327V32.6911ZM3.53327 22.6843V22.2687H3.1166V22.6843H3.53327ZM11.4333 25.1777L11.0416 25.3194L11.0431 25.3235L11.0447 25.3277L11.4333 25.1777ZM11.4499 28.5521L11.8417 28.6936L11.8426 28.6911L11.4499 28.5521ZM3.53327 31.0621H3.1166V31.4777H3.53327V31.0621ZM7.44994 33.1067C10.4982 33.1067 12.8037 31.7212 13.6762 29.2555L12.8904 28.979C12.1629 31.0347 10.235 32.2755 7.44994 32.2755V33.1067ZM13.6734 29.2632C13.9446 28.5418 14.0666 27.7426 14.0666 26.8732H13.2333C13.2333 27.6661 13.1219 28.3629 12.8931 28.9712L13.6734 29.2632ZM14.0666 26.8732C14.0666 25.996 13.9256 25.2213 13.6962 24.5173L12.9037 24.7742C13.1076 25.4 13.2333 26.0881 13.2333 26.8732H14.0666ZM13.6919 24.5049C12.8027 22.0434 10.4839 20.6397 7.44994 20.6397V21.4708C10.216 21.4708 12.1638 22.7267 12.9079 24.7866L13.6919 24.5049ZM7.44994 20.6397H1.68327V21.4708H7.44994V20.6397ZM1.2666 21.0553V32.6911H2.09993V21.0553H1.2666ZM1.68327 33.1067H7.44994V32.2755H1.68327V33.1067ZM3.53327 23.0999H7.58327V22.2687H3.53327V23.0999ZM7.58327 23.0999C9.34127 23.0999 10.5569 23.9862 11.0416 25.3194L11.825 25.036C11.2097 23.3438 9.6586 22.2687 7.58327 22.2687V23.0999ZM11.0447 25.3277C11.2242 25.79 11.3166 26.3037 11.3166 26.8732H12.1499C12.1499 26.2126 12.0424 25.5959 11.8219 25.0277L11.0447 25.3277ZM11.3166 26.8732C11.3166 27.4412 11.2246 27.9426 11.0573 28.413L11.8426 28.6911C12.0419 28.131 12.1499 27.5353 12.1499 26.8732H11.3166ZM11.0582 28.4105C10.5732 29.7445 9.34027 30.6465 7.58327 30.6465V31.4777C9.65963 31.4777 11.2267 30.385 11.8416 28.6936L11.0582 28.4105ZM7.58327 30.6465H3.53327V31.4777H7.58327V30.6465ZM3.94993 31.0621V22.6843H3.1166V31.0621H3.94993ZM27.0185 32.6911V33.1067H27.4352V32.6911H27.0185ZM27.0185 31.0621H27.4352V30.6465H27.0185V31.0621ZM20.2019 31.0621H19.7852V31.4777H20.2019V31.0621ZM20.2019 27.6545V27.2389H19.7852V27.6545H20.2019ZM26.8519 27.6545V28.07H27.2685V27.6545H26.8519ZM26.8519 26.0421H27.2685V25.6265H26.8519V26.0421ZM20.2019 26.0421H19.7852V26.4576H20.2019V26.0421ZM20.2019 22.6843V22.2687H19.7852V22.6843H20.2019ZM27.0185 22.6843V23.0999H27.4352V22.6843H27.0185ZM27.0185 21.0553H27.4352V20.6397H27.0185V21.0553ZM18.3519 21.0553V20.6397H17.9352V21.0553H18.3519ZM18.3519 32.6911H17.9352V33.1067H18.3519V32.6911ZM27.4352 32.6911V31.0621H26.6019V32.6911H27.4352ZM27.0185 30.6465H20.2019V31.4777H27.0185V30.6465ZM20.6185 31.0621V27.6545H19.7852V31.0621H20.6185ZM20.2019 28.07H26.8519V27.2389H20.2019V28.07ZM27.2685 27.6545V26.0421H26.4352V27.6545H27.2685ZM26.8519 25.6265H20.2019V26.4576H26.8519V25.6265ZM20.6185 26.0421V22.6843H19.7852V26.0421H20.6185ZM20.2019 23.0999H27.0185V22.2687H20.2019V23.0999ZM27.4352 22.6843V21.0553H26.6019V22.6843H27.4352ZM27.0185 20.6397H18.3519V21.4708H27.0185V20.6397ZM17.9352 21.0553V32.6911H18.7685V21.0553H17.9352ZM18.3519 33.1067H27.0185V32.2755H18.3519V33.1067ZM41.3099 31.0455L41.6724 31.2502L41.6735 31.2483L41.6747 31.2463L41.3099 31.0455ZM41.3599 27.8373L41.7241 27.6355L41.7216 27.631L41.7191 27.6266L41.3599 27.8373ZM38.1099 26.1917L38.1616 25.7793L38.1577 25.7788L38.1538 25.7784L38.1099 26.1917ZM35.7599 25.9423L35.7047 26.3542L35.7102 26.355L35.7158 26.3556L35.7599 25.9423ZM33.6099 24.9616L33.243 25.1586L33.2466 25.1652L33.2505 25.1718L33.6099 24.9616ZM33.6433 23.4323L33.2858 23.2185L33.2835 23.2223L33.2813 23.2261L33.6433 23.4323ZM39.9099 24.8452H39.4933V25.2608H39.9099V24.8452ZM41.8433 24.8452V25.2608H42.2599V24.8452H41.8433ZM31.9266 22.7342L31.5658 22.5259L31.5647 22.528L31.9266 22.7342ZM31.8766 25.8758L31.5097 26.0728L31.5116 26.0767L31.5138 26.0805L31.8766 25.8758ZM35.1433 27.5381L35.0916 27.9503L35.0969 27.9512L35.1022 27.9517L35.1433 27.5381ZM37.5099 27.7708L37.5663 27.3591L37.5585 27.358L37.5508 27.3572L37.5099 27.7708ZM39.6266 28.7515L39.2672 28.9618L39.2694 28.9654L39.2716 28.9693L39.6266 28.7515ZM39.5766 30.3141L39.2191 30.1002L39.216 30.1055L39.213 30.1107L39.5766 30.3141ZM33.2933 28.8513H33.7099V28.4357H33.2933V28.8513ZM31.3599 28.8513V28.4357H30.9433V28.8513H31.3599ZM36.5433 33.4391C38.9141 33.4391 40.8444 32.7099 41.6724 31.2502L40.9472 30.8407C40.3419 31.9076 38.8058 32.608 36.5433 32.608V33.4391ZM41.6747 31.2463C41.9763 30.7008 42.1433 30.0664 42.1433 29.3832H41.3099C41.3099 29.9301 41.1766 30.426 40.9449 30.8446L41.6747 31.2463ZM42.1433 29.3832C42.1433 28.7452 42.0147 28.1573 41.7241 27.6355L40.9955 28.039C41.2049 28.4149 41.3099 28.8577 41.3099 29.3832H42.1433ZM41.7191 27.6266C41.1255 26.6202 39.956 26.003 38.1616 25.7793L38.0583 26.604C39.7305 26.8125 40.5944 27.3589 41.0008 28.0481L41.7191 27.6266ZM38.1538 25.7784L35.8038 25.5291L35.7158 26.3556L38.0658 26.6049L38.1538 25.7784ZM35.8149 25.5304C34.5924 25.3678 34.1499 25.0586 33.9694 24.7514L33.2505 25.1718C33.6366 25.8286 34.4272 26.1843 35.7047 26.3542L35.8149 25.5304ZM33.9766 24.7646C33.8985 24.6199 33.8599 24.4576 33.8599 24.2468H33.0266C33.0266 24.568 33.0877 24.871 33.243 25.1586L33.9766 24.7646ZM33.8599 24.2468C33.8599 23.9925 33.9127 23.7997 34.0049 23.6385L33.2813 23.2261C33.1072 23.5304 33.0266 23.8695 33.0266 24.2468H33.8599ZM34.0005 23.6461C34.136 23.4207 34.4144 23.1945 34.8708 23.0235C35.3235 22.8539 35.9216 22.7508 36.6433 22.7508V21.9196C35.848 21.9196 35.146 22.0326 34.578 22.2454C34.0138 22.4567 33.5502 22.779 33.2858 23.2185L34.0005 23.6461ZM36.6433 22.7508C37.636 22.7508 38.3535 22.9364 38.8122 23.2572C39.2466 23.561 39.4933 24.0167 39.4933 24.6956H40.3266C40.3266 23.7788 39.9733 23.0542 39.2908 22.5768C38.6327 22.1164 37.7169 21.9196 36.6433 21.9196V22.7508ZM39.4933 24.6956V24.8452H40.3266V24.6956H39.4933ZM39.9099 25.2608H41.8433V24.4297H39.9099V25.2608ZM42.2599 24.8452V24.5959H41.4266V24.8452H42.2599ZM42.2599 24.5959C42.2599 23.2404 41.7063 22.1459 40.7041 21.4032C39.7172 20.6718 38.3316 20.3073 36.6933 20.3073V21.1384C38.2213 21.1384 39.4108 21.4803 40.2072 22.0704C40.9883 22.6492 41.4266 23.4912 41.4266 24.5959H42.2599ZM36.6933 20.3073C34.3124 20.3073 32.408 21.0751 31.5658 22.5259L32.2872 22.9424C32.9116 21.8666 34.4408 21.1384 36.6933 21.1384V20.3073ZM31.5647 22.528C31.261 23.0581 31.0933 23.678 31.0933 24.3465H31.9266C31.9266 23.8183 32.0585 23.3411 32.2883 22.9403L31.5647 22.528ZM31.0933 24.3465C31.0933 24.9926 31.2416 25.5763 31.5097 26.0728L32.2433 25.6788C32.0447 25.311 31.9266 24.8641 31.9266 24.3465H31.0933ZM31.5138 26.0805C32.1091 27.1291 33.3033 27.7276 35.0916 27.9503L35.1949 27.1257C33.5163 26.9165 32.6441 26.3846 32.2391 25.6711L31.5138 26.0805ZM35.1022 27.9517L37.4688 28.1844L37.5508 27.3572L35.1841 27.1245L35.1022 27.9517ZM37.4533 28.1825C38.6405 28.3448 39.0855 28.6529 39.2672 28.9618L39.986 28.5413C39.6008 27.8861 38.8124 27.5293 37.5663 27.3591L37.4533 28.1825ZM39.2716 28.9693C39.3463 29.0904 39.3766 29.2333 39.3766 29.4663H40.2099C40.2099 29.1674 40.1733 28.8449 39.9813 28.5338L39.2716 28.9693ZM39.3766 29.4663C39.3766 29.722 39.3233 29.9273 39.2191 30.1002L39.9338 30.5279C40.1297 30.2021 40.2099 29.8423 40.2099 29.4663H39.3766ZM39.213 30.1107C39.0861 30.3365 38.8174 30.5604 38.3641 30.7288C37.9147 30.8961 37.3166 30.9956 36.5933 30.9956V31.8267C37.3863 31.8267 38.0883 31.7184 38.6555 31.5076C39.2188 31.2979 39.6835 30.9732 39.9399 30.5174L39.213 30.1107ZM36.5933 30.9956C35.6335 30.9956 34.9049 30.7967 34.428 30.4592C33.9699 30.1354 33.7099 29.6616 33.7099 29.0009H32.8766C32.8766 29.9193 33.258 30.6507 33.9458 31.1372C34.6147 31.6101 35.536 31.8267 36.5933 31.8267V30.9956ZM33.7099 29.0009V28.8513H32.8766V29.0009H33.7099ZM33.2933 28.4357H31.3599V29.2668H33.2933V28.4357ZM30.9433 28.8513V29.1006H31.7766V28.8513H30.9433ZM30.9433 29.1006C30.9433 30.4523 31.5169 31.5566 32.5269 32.311C33.5238 33.0557 34.9166 33.4391 36.5433 33.4391V32.608C35.0363 32.608 33.8374 32.2517 33.0263 31.6458C32.228 31.0496 31.7766 30.1924 31.7766 29.1006H30.9433ZM48.6727 32.6911V33.1067H49.0894V32.6911H48.6727ZM48.6727 21.0553H49.0894V20.6397H48.6727V21.0553ZM46.8227 21.0553V20.6397H46.406V21.0553H46.8227ZM46.8227 32.6911H46.406V33.1067H46.8227V32.6911ZM49.0894 32.6911V21.0553H48.256V32.6911H49.0894ZM48.6727 20.6397H46.8227V21.4708H48.6727V20.6397ZM46.406 21.0553V32.6911H47.2394V21.0553H46.406ZM46.8227 33.1067H48.6727V32.2755H46.8227V33.1067ZM65.0138 29.8653V29.4497H64.7035L64.6147 29.7461L65.0138 29.8653ZM65.2638 29.8653L65.6755 29.9304L65.7519 29.4497H65.2638V29.8653ZM64.8138 32.6911L64.4024 32.626L64.3258 33.1067H64.8138V32.6911ZM66.6305 32.6911V33.1067H67.0472V32.6911H66.6305ZM66.6305 26.6571H67.0472V26.2415H66.6305V26.6571ZM60.1138 26.6571V26.2415H59.6972V26.6571H60.1138ZM60.1138 28.2529H59.6972V28.6684H60.1138V28.2529ZM64.8638 28.2529L65.2761 28.3141L65.3472 27.8373H64.8638V28.2529ZM55.5805 28.6684L55.9727 28.5282L55.9713 28.5241L55.9697 28.5199L55.5805 28.6684ZM55.5805 25.2109L55.9716 25.354L55.9724 25.3519L55.9733 25.3498L55.5805 25.2109ZM65.1472 25.1611L64.7369 25.2326L64.7972 25.5766H65.1472V25.1611ZM67.0305 25.1611V25.5766H67.4891L67.4452 25.1213L67.0305 25.1611ZM53.7472 24.6291L54.1374 24.7751L54.138 24.773L53.7472 24.6291ZM53.7638 29.2502L54.1572 29.1131L54.1563 29.1106L54.1555 29.1081L53.7638 29.2502ZM59.9472 33.4391C62.7099 33.4391 64.7627 32.1523 65.413 29.9844L64.6147 29.7461C64.0983 31.468 62.451 32.608 59.9472 32.608V33.4391ZM65.0138 30.2808H65.2638V29.4497H65.0138V30.2808ZM64.8524 29.8002L64.4024 32.626L65.2255 32.7562L65.6755 29.9304L64.8524 29.8002ZM64.8138 33.1067H66.6305V32.2755H64.8138V33.1067ZM67.0472 32.6911V26.6571H66.2138V32.6911H67.0472ZM66.6305 26.2415H60.1138V27.0727H66.6305V26.2415ZM59.6972 26.6571V28.2529H60.5305V26.6571H59.6972ZM60.1138 28.6684H64.8638V27.8373H60.1138V28.6684ZM64.4519 28.1916C64.2094 29.8123 62.7216 30.979 60.2638 30.979V31.8101C62.9727 31.8101 64.9516 30.4833 65.2761 28.3141L64.4519 28.1916ZM60.2638 30.979C58.1213 30.979 56.5266 30.0689 55.9727 28.5282L55.1883 28.8086C55.9013 30.792 57.9066 31.8101 60.2638 31.8101V30.979ZM55.9697 28.5199C55.7783 28.0204 55.7138 27.445 55.7138 26.8898H54.8805C54.8805 27.4982 54.9494 28.1861 55.1913 28.8169L55.9697 28.5199ZM55.7138 26.8898C55.7138 26.3196 55.8066 25.8032 55.9716 25.354L55.1894 25.0679C54.9877 25.616 54.8805 26.23 54.8805 26.8898H55.7138ZM55.9733 25.3498C56.5438 23.7445 58.2038 22.7674 60.5472 22.7674V21.9363C57.9908 21.9363 55.9172 23.0204 55.1877 25.0721L55.9733 25.3498ZM60.5472 22.7674C63.0097 22.7674 64.4883 23.8142 64.7369 25.2326L65.5577 25.0895C65.206 23.0837 63.1847 21.9363 60.5472 21.9363V22.7674ZM65.1472 25.5766H67.0305V24.7455H65.1472V25.5766ZM67.4452 25.1213C67.1663 22.2263 64.3588 20.3073 60.5305 20.3073V21.1384C64.1355 21.1384 66.3949 22.9095 66.6158 25.2008L67.4452 25.1213ZM60.5305 20.3073C57.1027 20.3073 54.3527 21.793 53.3563 24.4852L54.138 24.773C54.9749 22.5117 57.3249 21.1384 60.5305 21.1384V20.3073ZM53.3572 24.4832C53.0874 25.2002 52.9472 26.015 52.9472 26.8898H53.7805C53.7805 26.1023 53.9069 25.3878 54.1374 24.7751L53.3572 24.4832ZM52.9472 26.8898C52.9472 27.7309 53.0872 28.6105 53.3722 29.3923L54.1555 29.1081C53.9072 28.4271 53.7805 27.6446 53.7805 26.8898H52.9472ZM53.3705 29.3874C54.2969 32.0323 57.0313 33.4391 59.9472 33.4391V32.608C57.263 32.608 54.9308 31.322 54.1572 29.1131L53.3705 29.3874ZM73.8227 32.6911V33.1067H74.2394V32.6911H73.8227ZM73.8227 22.2521V21.8365H73.406V22.2521H73.8227ZM74.0894 22.2521L74.4961 22.1627L74.4241 21.8365H74.0894V22.2521ZM74.4894 24.064L74.0824 24.1533L74.1002 24.2337L74.1472 24.3013L74.4894 24.064ZM80.506 32.6911L80.1638 32.9285L80.2883 33.1067H80.506V32.6911ZM83.2894 32.6911V33.1067H83.7061V32.6911H83.2894ZM83.2894 21.0553H83.7061V20.6397H83.2894V21.0553ZM81.4561 21.0553V20.6397H81.0394V21.0553H81.4561ZM81.4561 31.4943V31.9098H81.8727V31.4943H81.4561ZM81.2061 31.4943L80.8005 31.5899L80.8763 31.9098H81.2061V31.4943ZM80.7727 29.6658L81.178 29.5702L81.1599 29.4935L81.1147 29.4286L80.7727 29.6658ZM74.7727 21.0553L75.1147 20.8181L74.9905 20.6397H74.7727V21.0553ZM71.9894 21.0553V20.6397H71.5727V21.0553H71.9894ZM71.9894 32.6911H71.5727V33.1067H71.9894V32.6911ZM74.2394 32.6911V22.2521H73.406V32.6911H74.2394ZM73.8227 22.6677H74.0894V21.8365H73.8227V22.6677ZM73.6824 22.3414L74.0824 24.1533L74.8961 23.9746L74.4961 22.1627L73.6824 22.3414ZM74.1472 24.3013L80.1638 32.9285L80.848 32.4537L74.8313 23.8267L74.1472 24.3013ZM80.506 33.1067H83.2894V32.2755H80.506V33.1067ZM83.7061 32.6911V21.0553H82.8727V32.6911H83.7061ZM83.2894 20.6397H81.4561V21.4708H83.2894V20.6397ZM81.0394 21.0553V31.4943H81.8727V21.0553H81.0394ZM81.4561 31.0787H81.2061V31.9098H81.4561V31.0787ZM81.6113 31.3987L81.178 29.5702L80.3672 29.7614L80.8005 31.5899L81.6113 31.3987ZM81.1147 29.4286L75.1147 20.8181L74.4305 21.2924L80.4305 29.9029L81.1147 29.4286ZM74.7727 20.6397H71.9894V21.4708H74.7727V20.6397ZM71.5727 21.0553V32.6911H72.406V21.0553H71.5727ZM71.9894 33.1067H73.8227V32.2755H71.9894V33.1067Z" fill="black" stroke="black" stroke-width="0.5"/>
</svg>
