<svg width="10" height="18" viewBox="0 0 10 18" fill="none" xmlns="http://www.w3.org/2000/svg">
<path d="M1.41592 0.935242C1.54867 0.935242 1.68141 0.97922 1.81415 1.11116L9.82301 9.07179C9.95575 9.20374 10 9.33568 10 9.46762C10 9.59956 9.95575 9.73151 9.82301 9.86345L1.81415 17.8241C1.68141 17.956 1.54867 18 1.41592 18C1.28318 18 1.15044 17.956 1.01769 17.8241L0.176989 16.9884C0.0442451 16.8565 -5.60895e-08 16.7245 -6.18919e-08 16.5926C-6.76943e-08 16.4607 0.0442451 16.3287 0.176989 16.1968L6.9469 9.46762L0.176988 2.73848C0.0442444 2.60654 -6.82749e-07 2.47458 -6.88552e-07 2.34264C-6.94354e-07 2.21069 0.0442444 2.07875 0.176988 1.94681L1.01769 1.11116C1.15044 1.0232 1.28318 0.935242 1.41592 0.935242Z" fill="#696969"/>
</svg>
