<svg width="21" height="20" viewBox="0 0 21 20" fill="none" xmlns="http://www.w3.org/2000/svg">
<g opacity="0.5">
<path fill-rule="evenodd" clip-rule="evenodd" d="M7.62079 15.5262C7.94372 16.1868 8.19913 18.1581 8.47508 19.0491C9.09451 19.0491 9.61119 15.7905 12.0889 15.1608C17.0913 13.8925 22.3991 11.1565 20.03 5.06197C18.0498 -0.0314541 7.3419 -0.369059 3.21726 4.24291C0.237531 7.57345 0.227255 11.6996 3.59156 13.9674C5.17977 15.0389 7.51217 15.309 7.62079 15.5262Z" fill="#FEFEFE"/>
<path d="M7.62079 15.5262C7.94372 16.1868 8.19913 18.1581 8.47508 19.0491C9.09451 19.0491 9.61119 15.7905 12.0889 15.1608C17.0913 13.8925 22.3991 11.1565 20.03 5.06197C18.0498 -0.0314541 7.3419 -0.369059 3.21726 4.24291C0.237531 7.57345 0.227255 11.6996 3.59156 13.9674C5.17977 15.0389 7.51217 15.309 7.62079 15.5262Z" stroke="black" stroke-width="0.7" stroke-linecap="round" stroke-linejoin="round"/>
<path fill-rule="evenodd" clip-rule="evenodd" d="M7.7219 8.08553C7.82232 8.09339 7.91816 8.13084 7.9973 8.19316C8.07645 8.25548 8.13533 8.33986 8.16651 8.43565C8.1977 8.53143 8.19978 8.63431 8.1725 8.73128C8.14522 8.82824 8.0898 8.91494 8.01324 8.98041C7.93669 9.04589 7.84244 9.08719 7.74242 9.0991C7.64239 9.11101 7.54108 9.09299 7.45129 9.04733C7.36151 9.00166 7.28728 8.9304 7.23799 8.84255C7.1887 8.7547 7.16657 8.65421 7.17439 8.55378C7.17958 8.48708 7.19787 8.42206 7.2282 8.36242C7.25852 8.30279 7.3003 8.24972 7.35115 8.20624C7.40199 8.16276 7.4609 8.12972 7.52451 8.10901C7.58813 8.08829 7.6552 8.08032 7.7219 8.08553V8.08553Z" fill="black"/>
<path d="M7.7219 8.08553C7.82232 8.09339 7.91816 8.13084 7.9973 8.19316C8.07645 8.25548 8.13533 8.33986 8.16651 8.43565C8.1977 8.53143 8.19978 8.63431 8.1725 8.73128C8.14522 8.82824 8.0898 8.91494 8.01324 8.98041C7.93669 9.04589 7.84244 9.08719 7.74242 9.0991C7.64239 9.11101 7.54108 9.09299 7.45129 9.04733C7.36151 9.00166 7.28728 8.9304 7.23799 8.84255C7.1887 8.7547 7.16657 8.65421 7.17439 8.55378C7.17958 8.48708 7.19787 8.42206 7.2282 8.36242C7.25852 8.30279 7.3003 8.24972 7.35115 8.20624C7.40199 8.16276 7.4609 8.12972 7.52451 8.10901C7.58813 8.08829 7.6552 8.08032 7.7219 8.08553V8.08553Z" stroke="black" stroke-width="0.7" stroke-linecap="round" stroke-linejoin="round"/>
<path fill-rule="evenodd" clip-rule="evenodd" d="M10.6312 7.78194C10.7317 7.78982 10.8276 7.82734 10.9067 7.88973C10.9859 7.95213 11.0447 8.03661 11.0758 8.13248C11.107 8.22834 11.1089 8.33129 11.0815 8.42828C11.0541 8.52526 10.9985 8.61194 10.9218 8.67733C10.8451 8.74272 10.7507 8.78388 10.6506 8.79561C10.5505 8.80734 10.4492 8.7891 10.3595 8.74321C10.2697 8.69732 10.1956 8.62584 10.1465 8.53782C10.0974 8.44979 10.0756 8.34918 10.0837 8.24872C10.0889 8.18208 10.1072 8.11712 10.1375 8.05756C10.1679 7.99801 10.2097 7.94503 10.2605 7.90167C10.3114 7.8583 10.3703 7.8254 10.4339 7.80486C10.4975 7.78431 10.5646 7.77653 10.6312 7.78194Z" fill="black"/>
<path d="M10.6312 7.78194C10.7317 7.78982 10.8276 7.82734 10.9067 7.88973C10.9859 7.95213 11.0447 8.03661 11.0758 8.13248C11.107 8.22834 11.1089 8.33129 11.0815 8.42828C11.0541 8.52526 10.9985 8.61194 10.9218 8.67733C10.8451 8.74272 10.7507 8.78388 10.6506 8.79561C10.5505 8.80734 10.4492 8.7891 10.3595 8.74321C10.2697 8.69732 10.1956 8.62584 10.1465 8.53782C10.0974 8.44979 10.0756 8.34918 10.0837 8.24872C10.0889 8.18208 10.1072 8.11712 10.1375 8.05756C10.1679 7.99801 10.2097 7.94503 10.2605 7.90167C10.3114 7.8583 10.3703 7.8254 10.4339 7.80486C10.4975 7.78431 10.5646 7.77653 10.6312 7.78194Z" stroke="black" stroke-width="0.7" stroke-linecap="round" stroke-linejoin="round"/>
<path fill-rule="evenodd" clip-rule="evenodd" d="M13.5393 7.47616C13.6397 7.48401 13.7355 7.52146 13.8147 7.58378C13.8938 7.6461 13.9527 7.73049 13.9839 7.82627C14.0151 7.92206 14.0172 8.02493 13.9899 8.1219C13.9626 8.21887 13.9072 8.30557 13.8306 8.37104C13.7541 8.43651 13.6598 8.47781 13.5598 8.48972C13.4598 8.50163 13.3585 8.48362 13.2687 8.43795C13.1789 8.39229 13.1047 8.32102 13.0554 8.23317C13.0061 8.14532 12.984 8.04483 12.9918 7.9444C12.997 7.8777 13.0153 7.81268 13.0456 7.75305C13.0759 7.69342 13.1177 7.64035 13.1685 7.59686C13.2194 7.55338 13.2783 7.52034 13.3419 7.49963C13.4055 7.47892 13.4726 7.47094 13.5393 7.47616Z" fill="black"/>
<path d="M13.5393 7.47616C13.6397 7.48401 13.7355 7.52146 13.8147 7.58378C13.8938 7.6461 13.9527 7.73049 13.9839 7.82627C14.0151 7.92206 14.0172 8.02493 13.9899 8.1219C13.9626 8.21887 13.9072 8.30557 13.8306 8.37104C13.7541 8.43651 13.6598 8.47781 13.5598 8.48972C13.4598 8.50163 13.3585 8.48362 13.2687 8.43795C13.1789 8.39229 13.1047 8.32102 13.0554 8.23317C13.0061 8.14532 12.984 8.04483 12.9918 7.9444C12.997 7.8777 13.0153 7.81268 13.0456 7.75305C13.0759 7.69342 13.1177 7.64035 13.1685 7.59686C13.2194 7.55338 13.2783 7.52034 13.3419 7.49963C13.4055 7.47892 13.4726 7.47094 13.5393 7.47616Z" stroke="black" stroke-width="0.7" stroke-linecap="round" stroke-linejoin="round"/>
</g>
</svg>
