<svg width="20" height="19" viewBox="0 0 20 19" fill="none" xmlns="http://www.w3.org/2000/svg">
<path d="M18.625 0H1.375C0.960156 0 0.625 0.335156 0.625 0.75V18C0.625 18.4148 0.960156 18.75 1.375 18.75H18.625C19.0398 18.75 19.375 18.4148 19.375 18V0.75C19.375 0.335156 19.0398 0 18.625 0ZM16.4594 5.47266H14.9617C13.7875 5.47266 13.5602 6.03047 13.5602 6.85078V8.65781H16.3633L15.9977 11.4867H13.5602V18.75H10.6375V11.4891H8.19297V8.65781H10.6375V6.57187C10.6375 4.15078 12.1164 2.83125 14.2773 2.83125C15.3133 2.83125 16.2016 2.90859 16.4617 2.94375V5.47266H16.4594Z" fill="white"/>
</svg>
