<svg width="85" height="37" viewBox="0 0 85 37" fill="none" xmlns="http://www.w3.org/2000/svg">
<path d="M0.772217 4.70965V6.33867H5.40555V16.3455H7.23888V6.33867H11.8722V4.70965H0.772217ZM19.576 16.6779C23.076 16.6779 25.5427 15.132 26.4093 12.7384C26.6593 12.0735 26.776 11.3255 26.776 10.5276C26.776 9.72968 26.6593 8.98166 26.4093 8.31676C25.526 5.9231 23.0427 4.3772 19.5593 4.3772C16.0927 4.3772 13.6093 5.9231 12.726 8.31676C12.476 8.98166 12.3427 9.72968 12.3427 10.5276C12.3427 11.3255 12.476 12.0735 12.726 12.7384C13.6093 15.1819 16.126 16.6779 19.576 16.6779ZM19.5593 15.0489C16.9927 15.0489 15.1927 13.9186 14.5427 12.1566C14.3593 11.6579 14.276 11.1094 14.276 10.5276C14.276 9.94578 14.3593 9.39723 14.5427 8.89855C15.1927 7.13655 16.9927 6.00621 19.5593 6.00621C22.1427 6.00621 23.9427 7.13655 24.576 8.89855C24.7593 9.39723 24.8593 9.94578 24.8593 10.5276C24.8593 11.1094 24.7593 11.6579 24.576 12.1566C23.926 13.9518 22.126 15.0489 19.5593 15.0489ZM38.7225 6.33867C38.1225 5.30806 36.9392 4.70965 35.3725 4.70965H29.3058V16.3455H31.1558V11.5083H35.3725C36.9392 11.5083 38.1225 10.8933 38.7225 9.86266C39.0058 9.36398 39.1558 8.78219 39.1558 8.10066C39.1558 7.41914 39.0058 6.85397 38.7225 6.33867ZM37.0225 9.06478C36.7392 9.56346 36.1392 9.89591 35.2725 9.89591H31.1558V6.32204H35.2725C36.1392 6.32204 36.7392 6.6545 37.0225 7.13655C37.2058 7.43576 37.2725 7.75159 37.2725 8.10066C37.2725 8.44974 37.2058 8.76557 37.0225 9.06478Z" fill="black"/>
<path d="M0.772258 4.70969V4.29412H0.355591V4.70969H0.772258ZM0.772258 6.3387H0.355591V6.75427H0.772258V6.3387ZM5.40559 6.3387H5.82226V5.92314H5.40559V6.3387ZM5.40559 16.3455H4.98892V16.7611H5.40559V16.3455ZM7.23892 16.3455V16.7611H7.65559V16.3455H7.23892ZM7.23892 6.3387V5.92314H6.82226V6.3387H7.23892ZM11.8723 6.3387V6.75427H12.2889V6.3387H11.8723ZM11.8723 4.70969H12.2889V4.29412H11.8723V4.70969ZM0.355591 4.70969V6.3387H1.18892V4.70969H0.355591ZM0.772258 6.75427H5.40559V5.92314H0.772258V6.75427ZM4.98892 6.3387V16.3455H5.82226V6.3387H4.98892ZM5.40559 16.7611H7.23892V15.93H5.40559V16.7611ZM7.65559 16.3455V6.3387H6.82226V16.3455H7.65559ZM7.23892 6.75427H11.8723V5.92314H7.23892V6.75427ZM12.2889 6.3387V4.70969H11.4556V6.3387H12.2889ZM11.8723 4.29412H0.772258V5.12525H11.8723V4.29412ZM26.4094 12.7384L26.0192 12.5925L26.0183 12.5949L26.0175 12.5973L26.4094 12.7384ZM26.4094 8.3168L26.0183 8.46033L26.0192 8.46272L26.4094 8.3168ZM12.726 8.3168L13.1162 8.46272L13.1171 8.46033L12.726 8.3168ZM12.726 12.7384L13.118 12.5975L13.1171 12.595L13.1162 12.5925L12.726 12.7384ZM24.576 8.89859L24.1838 9.03883L24.1848 9.04165L24.576 8.89859ZM24.576 12.1566L24.1848 12.0136L24.1841 12.0155L24.576 12.1566ZM19.576 17.0935C23.1957 17.0935 25.858 15.4848 26.8013 12.8796L26.0175 12.5973C25.2274 14.7794 22.9564 16.2624 19.576 16.2624V17.0935ZM26.7995 12.8843C27.0704 12.1638 27.1927 11.3647 27.1927 10.5276H26.3594C26.3594 11.2862 26.2483 11.9832 26.0192 12.5925L26.7995 12.8843ZM27.1927 10.5276C27.1927 9.69046 27.0704 8.89141 26.7995 8.17088L26.0192 8.46272C26.2483 9.07199 26.3594 9.76898 26.3594 10.5276H27.1927ZM26.8004 8.17326C25.8398 5.57032 23.1627 3.96167 19.5594 3.96167V4.7928C22.9227 4.7928 25.2122 6.27595 26.0183 8.46033L26.8004 8.17326ZM19.5594 3.96167C15.9721 3.96167 13.2954 5.57077 12.335 8.17326L13.1171 8.46033C13.9233 6.27551 16.2133 4.7928 19.5594 4.7928V3.96167ZM12.3359 8.17088C12.067 8.88604 11.926 9.68387 11.926 10.5276H12.7594C12.7594 9.77557 12.8851 9.07737 13.1162 8.46272L12.3359 8.17088ZM11.926 10.5276C11.926 11.3713 12.067 12.1692 12.3359 12.8843L13.1162 12.5925C12.8851 11.9778 12.7594 11.2796 12.7594 10.5276H11.926ZM12.3341 12.8794C13.2954 15.5387 16.0118 17.0935 19.576 17.0935V16.2624C16.2402 16.2624 13.9233 14.8252 13.118 12.5975L12.3341 12.8794ZM19.5594 14.6334C17.114 14.6334 15.5069 13.5668 14.9337 12.0131L14.1515 12.2997C14.8783 14.27 16.8714 15.4645 19.5594 15.4645V14.6334ZM14.9337 12.0131C14.7703 11.5687 14.6927 11.0705 14.6927 10.5276H13.8594C13.8594 11.1483 13.9482 11.7467 14.1515 12.2997L14.9337 12.0131ZM14.6927 10.5276C14.6927 9.98474 14.7705 9.48606 14.9339 9.04165L14.1517 8.75511C13.9484 9.30806 13.8594 9.90689 13.8594 10.5276H14.6927ZM14.9339 9.04165C15.5071 7.48799 17.114 6.42182 19.5594 6.42182V5.59069C16.8714 5.59069 14.8785 6.78477 14.1517 8.75511L14.9339 9.04165ZM19.5594 6.42182C22.0234 6.42182 23.6269 7.48949 24.1838 9.03883L24.9683 8.75835C24.2585 6.78369 22.262 5.59069 19.5594 5.59069V6.42182ZM24.1848 9.04165C24.351 9.49348 24.4427 9.99355 24.4427 10.5276H25.276C25.276 9.89808 25.1678 9.30105 24.9672 8.75552L24.1848 9.04165ZM24.4427 10.5276C24.4427 11.0617 24.351 11.5617 24.1848 12.0136L24.9672 12.2997C25.1678 11.7542 25.276 11.1571 25.276 10.5276H24.4427ZM24.1841 12.0155C23.6114 13.5972 22.0089 14.6334 19.5594 14.6334V15.4645C22.2431 15.4645 24.2406 14.3065 24.9679 12.2978L24.1841 12.0155ZM38.7225 6.3387L39.0881 6.13887L39.0856 6.13444L39.0831 6.13004L38.7225 6.3387ZM29.3059 4.70969V4.29412H28.8892V4.70969H29.3059ZM29.3059 16.3455H28.8892V16.7611H29.3059V16.3455ZM31.1559 16.3455V16.7611H31.5725V16.3455H31.1559ZM31.1559 11.5083V11.0928H30.7392V11.5083H31.1559ZM38.7225 9.8627L39.0831 10.0714L39.0842 10.0695L39.085 10.0676L38.7225 9.8627ZM37.0225 9.06482L36.667 8.84811L36.6636 8.85396L36.66 8.85994L37.0225 9.06482ZM31.1559 9.89595H30.7392V10.3115H31.1559V9.89595ZM31.1559 6.32208V5.90652H30.7392V6.32208H31.1559ZM37.0225 7.13659L36.6631 7.34676L36.665 7.35002L36.667 7.35329L37.0225 7.13659ZM39.0831 6.13004C38.3889 4.93767 37.0442 4.29412 35.3725 4.29412V5.12525C36.8345 5.12525 37.8564 5.67854 38.3623 6.54737L39.0831 6.13004ZM35.3725 4.29412H29.3059V5.12525H35.3725V4.29412ZM28.8892 4.70969V16.3455H29.7225V4.70969H28.8892ZM29.3059 16.7611H31.1559V15.93H29.3059V16.7611ZM31.5725 16.3455V11.5083H30.7392V16.3455H31.5725ZM31.1559 11.9239H35.3725V11.0928H31.1559V11.9239ZM35.3725 11.9239C37.0484 11.9239 38.3906 11.2608 39.0831 10.0714L38.3623 9.65403C37.8548 10.5258 36.8303 11.0928 35.3725 11.0928V11.9239ZM39.085 10.0676C39.4081 9.49941 39.5725 8.84553 39.5725 8.1007H38.7392C38.7392 8.71893 38.6039 9.22863 38.36 9.65783L39.085 10.0676ZM39.5725 8.1007C39.5725 7.35268 39.4067 6.71831 39.0881 6.13887L38.3573 6.53851C38.6053 6.9897 38.7392 7.48567 38.7392 8.1007H39.5725ZM36.66 8.85994C36.4709 9.19328 36.0348 9.48038 35.2725 9.48038V10.3115C36.2439 10.3115 37.0078 9.93371 37.385 9.26969L36.66 8.85994ZM35.2725 9.48038H31.1559V10.3115H35.2725V9.48038ZM31.5725 9.89595V6.32208H30.7392V9.89595H31.5725ZM31.1559 6.73765H35.2725V5.90652H31.1559V6.73765ZM35.2725 6.73765C36.0356 6.73765 36.4745 7.02577 36.6631 7.34676L37.382 6.92643C37.0042 6.2833 36.2431 5.90652 35.2725 5.90652V6.73765ZM36.667 7.35329C36.8014 7.57227 36.8559 7.80839 36.8559 8.1007H37.6892C37.6892 7.69486 37.6106 7.29933 37.3781 6.91989L36.667 7.35329ZM36.8559 8.1007C36.8559 8.39301 36.8014 8.62914 36.667 8.84811L37.3781 9.28152C37.6106 8.90208 37.6892 8.50654 37.6892 8.1007H36.8559Z" fill="black"/>
<path d="M0.772258 4.29412V4.70969H0.355591M0.772258 4.29412H0.355591V4.70969M0.772258 4.29412H11.8723M0.772258 4.29412V5.12525H11.8723V4.29412M0.355591 4.70969V6.3387M0.355591 4.70969H1.18892V6.3387H0.355591M0.355591 6.3387H0.772258V6.75427M0.355591 6.3387V6.75427H0.772258M0.772258 6.75427H5.40559V5.92314M0.772258 6.75427V5.92314H5.40559M5.82226 6.3387H5.40559V5.92314M5.82226 6.3387V5.92314H5.40559M5.82226 6.3387V16.3455H4.98892M5.82226 6.3387H4.98892V16.3455M4.98892 16.3455H5.40559V16.7611M4.98892 16.3455V16.7611H5.40559M5.40559 16.7611H7.23892M5.40559 16.7611V15.93H7.23892V16.7611M7.23892 16.7611V16.3455H7.65559M7.23892 16.7611H7.65559V16.3455M7.65559 16.3455V6.3387H6.82226M7.65559 16.3455H6.82226V6.3387M7.23892 5.92314V6.3387H6.82226M7.23892 5.92314H6.82226V6.3387M7.23892 5.92314H11.8723V6.75427M7.23892 5.92314V6.75427H11.8723M11.8723 6.75427V6.3387H12.2889M11.8723 6.75427H12.2889V6.3387M12.2889 6.3387V4.70969M12.2889 6.3387H11.4556V4.70969H12.2889M12.2889 4.70969H11.8723V4.29412M12.2889 4.70969V4.29412H11.8723M26.0192 12.5925L26.4094 12.7384L26.0175 12.5973M26.0192 12.5925L26.0183 12.5949L26.0175 12.5973M26.0192 12.5925C26.2483 11.9832 26.3594 11.2862 26.3594 10.5276M26.0192 12.5925L26.7995 12.8843C27.0704 12.1638 27.1927 11.3647 27.1927 10.5276M26.0175 12.5973L26.8013 12.8796C25.858 15.4848 23.1957 17.0935 19.576 17.0935M26.0175 12.5973C25.2274 14.7794 22.9564 16.2624 19.576 16.2624M26.0183 8.46033L26.4094 8.3168L26.0192 8.46272M26.0183 8.46033L26.0192 8.46272M26.0183 8.46033C25.2122 6.27595 22.9227 4.7928 19.5594 4.7928M26.0183 8.46033L26.8004 8.17326C25.8398 5.57032 23.1627 3.96167 19.5594 3.96167M26.0192 8.46272L26.7995 8.17088C27.0704 8.89141 27.1927 9.69046 27.1927 10.5276M26.0192 8.46272C26.2483 9.07199 26.3594 9.76898 26.3594 10.5276M13.1162 8.46272L12.726 8.3168L13.1171 8.46033M13.1162 8.46272L13.1171 8.46033M13.1162 8.46272C12.8851 9.07737 12.7594 9.77557 12.7594 10.5276M13.1162 8.46272L12.3359 8.17088C12.067 8.88604 11.926 9.68387 11.926 10.5276M13.1171 8.46033L12.335 8.17326C13.2954 5.57077 15.9721 3.96167 19.5594 3.96167M13.1171 8.46033C13.9233 6.27551 16.2133 4.7928 19.5594 4.7928M13.118 12.5975L12.726 12.7384L13.1162 12.5925M13.118 12.5975L13.1171 12.595L13.1162 12.5925M13.118 12.5975C13.9233 14.8252 16.2402 16.2624 19.576 16.2624M13.118 12.5975L12.3341 12.8794C13.2954 15.5387 16.0118 17.0935 19.576 17.0935M13.1162 12.5925L12.3359 12.8843C12.067 12.1692 11.926 11.3713 11.926 10.5276M13.1162 12.5925C12.8851 11.9778 12.7594 11.2796 12.7594 10.5276M14.5427 12.1566L14.1515 12.2997M14.1515 12.2997L14.9337 12.0131M14.1515 12.2997C14.8783 14.27 16.8714 15.4645 19.5594 15.4645M14.1515 12.2997C13.9482 11.7467 13.8594 11.1483 13.8594 10.5276M14.5427 8.89859L14.1517 8.75511M14.1517 8.75511L14.9339 9.04165M14.1517 8.75511C13.9484 9.30806 13.8594 9.90689 13.8594 10.5276M14.1517 8.75511C14.8785 6.78477 16.8714 5.59069 19.5594 5.59069M24.1838 9.03883L24.576 8.89859L24.1848 9.04165M24.1838 9.03883L24.1848 9.04165M24.1838 9.03883C23.6269 7.48949 22.0234 6.42182 19.5594 6.42182M24.1838 9.03883L24.9683 8.75835C24.2585 6.78369 22.262 5.59069 19.5594 5.59069M24.1848 9.04165C24.351 9.49348 24.4427 9.99355 24.4427 10.5276M24.1848 9.04165L24.9672 8.75552C25.1678 9.30105 25.276 9.89808 25.276 10.5276M24.1848 12.0136L24.576 12.1566L24.1841 12.0155M24.1848 12.0136L24.1841 12.0155M24.1848 12.0136C24.351 11.5617 24.4427 11.0617 24.4427 10.5276M24.1848 12.0136L24.9672 12.2997C25.1678 11.7542 25.276 11.1571 25.276 10.5276M24.1841 12.0155C23.6114 13.5972 22.0089 14.6334 19.5594 14.6334M24.1841 12.0155L24.9679 12.2978C24.2406 14.3065 22.2431 15.4645 19.5594 15.4645M19.576 17.0935V16.2624M27.1927 10.5276H26.3594M19.5594 3.96167V4.7928M11.926 10.5276H12.7594M19.5594 14.6334C17.114 14.6334 15.5069 13.5668 14.9337 12.0131M19.5594 14.6334V15.4645M14.9337 12.0131C14.7703 11.5687 14.6927 11.0705 14.6927 10.5276M14.6927 10.5276H13.8594M14.6927 10.5276C14.6927 9.98474 14.7705 9.48606 14.9339 9.04165M14.9339 9.04165C15.5071 7.48799 17.114 6.42182 19.5594 6.42182M19.5594 6.42182V5.59069M24.4427 10.5276H25.276M39.0881 6.13887L38.7225 6.3387L39.0831 6.13004M39.0881 6.13887L39.0856 6.13444L39.0831 6.13004M39.0881 6.13887C39.4067 6.71831 39.5725 7.35268 39.5725 8.1007M39.0881 6.13887L38.3573 6.53851C38.6053 6.9897 38.7392 7.48567 38.7392 8.1007M39.0831 6.13004C38.3889 4.93767 37.0442 4.29412 35.3725 4.29412M39.0831 6.13004L38.3623 6.54737C37.8564 5.67854 36.8345 5.12525 35.3725 5.12525M29.3059 4.29412V4.70969H28.8892M29.3059 4.29412H28.8892V4.70969M29.3059 4.29412H35.3725M29.3059 4.29412V5.12525H35.3725M28.8892 4.70969V16.3455M28.8892 4.70969H29.7225V16.3455H28.8892M28.8892 16.3455H29.3059V16.7611M28.8892 16.3455V16.7611H29.3059M29.3059 16.7611H31.1559M29.3059 16.7611V15.93H31.1559V16.7611M31.1559 16.7611V16.3455H31.5725M31.1559 16.7611H31.5725V16.3455M31.5725 16.3455V11.5083H30.7392M31.5725 16.3455H30.7392V11.5083M31.1559 11.0928V11.5083H30.7392M31.1559 11.0928H30.7392V11.5083M31.1559 11.0928H35.3725M31.1559 11.0928V11.9239H35.3725M39.0831 10.0714L38.7225 9.8627L39.085 10.0676M39.0831 10.0714L39.0842 10.0695L39.085 10.0676M39.0831 10.0714C38.3906 11.2608 37.0484 11.9239 35.3725 11.9239M39.0831 10.0714L38.3623 9.65403C37.8548 10.5258 36.8303 11.0928 35.3725 11.0928M39.085 10.0676C39.4081 9.49941 39.5725 8.84553 39.5725 8.1007M39.085 10.0676L38.36 9.65783C38.6039 9.22863 38.7392 8.71893 38.7392 8.1007M36.667 8.84811L37.0225 9.06482L36.66 8.85994M36.667 8.84811L36.6636 8.85396L36.66 8.85994M36.667 8.84811C36.8014 8.62914 36.8559 8.39301 36.8559 8.1007M36.667 8.84811L37.3781 9.28152C37.6106 8.90208 37.6892 8.50654 37.6892 8.1007M36.66 8.85994C36.4709 9.19328 36.0348 9.48038 35.2725 9.48038M36.66 8.85994L37.385 9.26969C37.0078 9.93371 36.2439 10.3115 35.2725 10.3115M30.7392 9.89595H31.1559V10.3115M30.7392 9.89595V10.3115H31.1559M30.7392 9.89595V6.32208M30.7392 9.89595H31.5725V6.32208H30.7392M31.1559 10.3115V9.48038H35.2725M31.1559 10.3115H35.2725M31.1559 5.90652V6.32208H30.7392M31.1559 5.90652H30.7392V6.32208M31.1559 5.90652H35.2725M31.1559 5.90652V6.73765H35.2725M36.6631 7.34676L37.0225 7.13659L36.667 7.35329M36.6631 7.34676L36.665 7.35002L36.667 7.35329M36.6631 7.34676C36.4745 7.02577 36.0356 6.73765 35.2725 6.73765M36.6631 7.34676L37.382 6.92643C37.0042 6.2833 36.2431 5.90652 35.2725 5.90652M36.667 7.35329C36.8014 7.57227 36.8559 7.80839 36.8559 8.1007M36.667 7.35329L37.3781 6.91989C37.6106 7.29933 37.6892 7.69486 37.6892 8.1007M35.3725 4.29412V5.12525M35.3725 11.9239V11.0928M39.5725 8.1007H38.7392M35.2725 9.48038V10.3115M35.2725 6.73765V5.90652M36.8559 8.1007H37.6892" stroke="black" stroke-width="0.5"/>
<path d="M44.6611 4.70965V6.33867H49.2945V16.3455H51.1278V6.33867H55.7611V4.70965H44.6611ZM63.465 16.6779C66.965 16.6779 69.4317 15.132 70.2984 12.7384C70.5484 12.0735 70.665 11.3255 70.665 10.5276C70.665 9.72968 70.5484 8.98166 70.2984 8.31676C69.415 5.9231 66.9317 4.3772 63.4484 4.3772C59.9817 4.3772 57.4984 5.9231 56.615 8.31676C56.365 8.98166 56.2317 9.72968 56.2317 10.5276C56.2317 11.3255 56.365 12.0735 56.615 12.7384C57.4984 15.1819 60.015 16.6779 63.465 16.6779ZM63.4484 15.0489C60.8817 15.0489 59.0817 13.9186 58.4317 12.1566C58.2484 11.6579 58.165 11.1094 58.165 10.5276C58.165 9.94578 58.2484 9.39723 58.4317 8.89855C59.0817 7.13655 60.8817 6.00621 63.4484 6.00621C66.0317 6.00621 67.8317 7.13655 68.465 8.89855C68.6484 9.39723 68.7484 9.94578 68.7484 10.5276C68.7484 11.1094 68.6484 11.6579 68.465 12.1566C67.815 13.9518 66.015 15.0489 63.4484 15.0489ZM82.6114 6.33867C82.0114 5.30806 80.8281 4.70965 79.2614 4.70965H73.1947V16.3455H75.0447V11.5083H79.2614C80.8281 11.5083 82.0114 10.8933 82.6114 9.86266C82.8947 9.36398 83.0447 8.78219 83.0447 8.10066C83.0447 7.41914 82.8947 6.85397 82.6114 6.33867ZM80.9114 9.06478C80.6281 9.56346 80.0281 9.89591 79.1614 9.89591H75.0447V6.32204H79.1614C80.0281 6.32204 80.6281 6.6545 80.9114 7.13655C81.0947 7.43576 81.1614 7.75159 81.1614 8.10066C81.1614 8.44974 81.0947 8.76557 80.9114 9.06478Z" fill="black"/>
<path d="M44.6611 4.70969V4.29412H44.2444V4.70969H44.6611ZM44.6611 6.3387H44.2444V6.75427H44.6611V6.3387ZM49.2944 6.3387H49.7111V5.92314H49.2944V6.3387ZM49.2944 16.3455H48.8777V16.7611H49.2944V16.3455ZM51.1277 16.3455V16.7611H51.5444V16.3455H51.1277ZM51.1277 6.3387V5.92314H50.7111V6.3387H51.1277ZM55.7611 6.3387V6.75427H56.1777V6.3387H55.7611ZM55.7611 4.70969H56.1777V4.29412H55.7611V4.70969ZM44.2444 4.70969V6.3387H45.0777V4.70969H44.2444ZM44.6611 6.75427H49.2944V5.92314H44.6611V6.75427ZM48.8777 6.3387V16.3455H49.7111V6.3387H48.8777ZM49.2944 16.7611H51.1277V15.93H49.2944V16.7611ZM51.5444 16.3455V6.3387H50.7111V16.3455H51.5444ZM51.1277 6.75427H55.7611V5.92314H51.1277V6.75427ZM56.1777 6.3387V4.70969H55.3444V6.3387H56.1777ZM55.7611 4.29412H44.6611V5.12525H55.7611V4.29412ZM70.2983 12.7384L69.908 12.5925L69.9072 12.5949L69.9063 12.5973L70.2983 12.7384ZM70.2983 8.3168L69.9072 8.46033L69.908 8.46272L70.2983 8.3168ZM56.6149 8.3168L57.0049 8.46272L57.0058 8.46033L56.6149 8.3168ZM56.6149 12.7384L57.0069 12.5975L57.0058 12.595L57.0049 12.5925L56.6149 12.7384ZM58.4316 12.1566L58.0402 12.2997L58.0405 12.3001L58.4316 12.1566ZM58.4316 8.89859L58.0405 8.75511L58.0402 8.75552L58.4316 8.89859ZM68.4649 8.89859L68.0727 9.03883L68.0736 9.04165L68.4649 8.89859ZM68.4649 12.1566L68.0736 12.0136L68.073 12.0155L68.4649 12.1566ZM63.4649 17.0935C67.0844 17.0935 69.7469 15.4848 70.6899 12.8796L69.9063 12.5973C69.1163 14.7794 66.8452 16.2624 63.4649 16.2624V17.0935ZM70.6883 12.8843C70.9591 12.1638 71.0816 11.3647 71.0816 10.5276H70.2483C70.2483 11.2862 70.1372 11.9832 69.908 12.5925L70.6883 12.8843ZM71.0816 10.5276C71.0816 9.69046 70.9591 8.89141 70.6883 8.17088L69.908 8.46272C70.1372 9.07199 70.2483 9.76898 70.2483 10.5276H71.0816ZM70.6891 8.17326C69.7286 5.57032 67.0513 3.96167 63.4483 3.96167V4.7928C66.8116 4.7928 69.1011 6.27595 69.9072 8.46033L70.6891 8.17326ZM63.4483 3.96167C59.8611 3.96167 57.1841 5.57077 56.2238 8.17326L57.0058 8.46033C57.8122 6.27551 60.1022 4.7928 63.4483 4.7928V3.96167ZM56.2247 8.17088C55.9558 8.88604 55.8149 9.68387 55.8149 10.5276H56.6483C56.6483 9.77557 56.7738 9.07736 57.0049 8.46272L56.2247 8.17088ZM55.8149 10.5276C55.8149 11.3713 55.9558 12.1692 56.2247 12.8843L57.0049 12.5925C56.7738 11.9778 56.6483 11.2796 56.6483 10.5276H55.8149ZM56.223 12.8794C57.1841 15.5387 59.9008 17.0935 63.4649 17.0935V16.2624C60.1291 16.2624 57.8122 14.8252 57.0069 12.5975L56.223 12.8794ZM63.4483 14.6334C61.0027 14.6334 59.3958 13.5668 58.8224 12.0131L58.0405 12.3001C58.7674 14.2704 60.7602 15.4645 63.4483 15.4645V14.6334ZM58.8227 12.0136C58.6594 11.5692 58.5816 11.0705 58.5816 10.5276H57.7483C57.7483 11.1483 57.8369 11.7467 58.0402 12.2997L58.8227 12.0136ZM58.5816 10.5276C58.5816 9.98474 58.6594 9.48606 58.8227 9.04165L58.0402 8.75552C57.8369 9.30848 57.7483 9.90689 57.7483 10.5276H58.5816ZM58.8224 9.04207C59.3958 7.48841 61.0027 6.42182 63.4483 6.42182V5.59069C60.7602 5.59069 58.7674 6.78477 58.0405 8.75511L58.8224 9.04207ZM63.4483 6.42182C65.9122 6.42182 67.5158 7.48949 68.0727 9.03883L68.8572 8.75835C68.1472 6.78369 66.1508 5.59069 63.4483 5.59069V6.42182ZM68.0736 9.04165C68.2397 9.49348 68.3316 9.99355 68.3316 10.5276H69.1649C69.1649 9.89808 69.0566 9.30105 68.8561 8.75552L68.0736 9.04165ZM68.3316 10.5276C68.3316 11.0617 68.2397 11.5617 68.0736 12.0136L68.8561 12.2997C69.0566 11.7542 69.1649 11.1571 69.1649 10.5276H68.3316ZM68.073 12.0155C67.5002 13.5972 65.8977 14.6334 63.4483 14.6334V15.4645C66.1319 15.4645 68.1294 14.3065 68.8566 12.2978L68.073 12.0155ZM82.6113 6.3387L82.9769 6.13887L82.9744 6.13444L82.9719 6.13004L82.6113 6.3387ZM73.1947 4.70969V4.29412H72.778V4.70969H73.1947ZM73.1947 16.3455H72.778V16.7611H73.1947V16.3455ZM75.0447 16.3455V16.7611H75.4613V16.3455H75.0447ZM75.0447 11.5083V11.0928H74.628V11.5083H75.0447ZM82.6113 9.8627L82.9719 10.0714L82.973 10.0695L82.9738 10.0676L82.6113 9.8627ZM80.9113 9.06482L80.5558 8.84811L80.5524 8.85396L80.5488 8.85994L80.9113 9.06482ZM75.0447 9.89595H74.628V10.3115H75.0447V9.89595ZM75.0447 6.32208V5.90652H74.628V6.32208H75.0447ZM80.9113 7.13659L80.5519 7.34676L80.5538 7.35002L80.5558 7.35329L80.9113 7.13659ZM82.9719 6.13004C82.2777 4.93767 80.933 4.29412 79.2613 4.29412V5.12525C80.7233 5.12525 81.7452 5.67854 82.251 6.54737L82.9719 6.13004ZM79.2613 4.29412H73.1947V5.12525H79.2613V4.29412ZM72.778 4.70969V16.3455H73.6113V4.70969H72.778ZM73.1947 16.7611H75.0447V15.93H73.1947V16.7611ZM75.4613 16.3455V11.5083H74.628V16.3455H75.4613ZM75.0447 11.9239H79.2613V11.0928H75.0447V11.9239ZM79.2613 11.9239C80.9372 11.9239 82.2794 11.2608 82.9719 10.0714L82.251 9.65403C81.7435 10.5258 80.7191 11.0928 79.2613 11.0928V11.9239ZM82.9738 10.0676C83.2969 9.49941 83.4613 8.84553 83.4613 8.1007H82.628C82.628 8.71893 82.4927 9.22863 82.2488 9.65783L82.9738 10.0676ZM83.4613 8.1007C83.4613 7.35268 83.2955 6.71831 82.9769 6.13887L82.246 6.53851C82.4941 6.9897 82.628 7.48567 82.628 8.1007H83.4613ZM80.5488 8.85994C80.3597 9.19328 79.9235 9.48038 79.1613 9.48038V10.3115C80.1327 10.3115 80.8966 9.93371 81.2738 9.26969L80.5488 8.85994ZM79.1613 9.48038H75.0447V10.3115H79.1613V9.48038ZM75.4613 9.89595V6.32208H74.628V9.89595H75.4613ZM75.0447 6.73765H79.1613V5.90652H75.0447V6.73765ZM79.1613 6.73765C79.9244 6.73765 80.3633 7.02577 80.5519 7.34676L81.2708 6.92643C80.893 6.2833 80.1319 5.90652 79.1613 5.90652V6.73765ZM80.5558 7.35329C80.6902 7.57227 80.7447 7.80839 80.7447 8.1007H81.578C81.578 7.69486 81.4994 7.29933 81.2669 6.91989L80.5558 7.35329ZM80.7447 8.1007C80.7447 8.39301 80.6902 8.62914 80.5558 8.84811L81.2669 9.28152C81.4994 8.90208 81.578 8.50654 81.578 8.1007H80.7447Z" fill="black" stroke="black" stroke-width="0.5"/>
<path d="M43.1501 16.8997V14.7222H40.7667V16.8997H43.1501Z" fill="black"/>
<path d="M7.45002 32.6912C10.3667 32.6912 12.4833 31.378 13.2833 29.1173C13.5333 28.4524 13.65 27.7044 13.65 26.8733C13.65 26.0421 13.5167 25.3107 13.3 24.6458C12.4833 22.3852 10.35 21.0554 7.45002 21.0554H1.68335V32.6912H7.45002ZM3.53335 22.6844H7.58335C9.50002 22.6844 10.8833 23.6651 11.4333 25.1778C11.6333 25.6931 11.7333 26.2582 11.7333 26.8733C11.7333 27.4883 11.6333 28.0369 11.45 28.5522C10.9 30.0648 9.50002 31.0622 7.58335 31.0622H3.53335V22.6844ZM27.0186 32.6912V31.0622H20.202V27.6545H26.852V26.0421H20.202V22.6844H27.0186V21.0554H18.352V32.6912H27.0186ZM36.5433 33.0236C38.86 33.0236 40.5933 32.3089 41.31 31.0455C41.5767 30.5635 41.7267 29.9983 41.7267 29.3833C41.7267 28.8015 41.61 28.2862 41.36 27.8374C40.86 26.9896 39.8433 26.4078 38.11 26.1917L35.76 25.9424C34.51 25.7762 33.8933 25.4437 33.61 24.9617C33.4933 24.7456 33.4433 24.5129 33.4433 24.2469C33.4433 23.9311 33.51 23.6651 33.6433 23.4324C34.0433 22.7675 35.1267 22.3353 36.6433 22.3353C38.71 22.3353 39.91 23.0999 39.91 24.6957V24.8453H41.8433V24.596C41.8433 22.1358 39.86 20.7229 36.6933 20.7229C34.3767 20.7229 32.66 21.4709 31.9267 22.7342C31.66 23.1997 31.51 23.7482 31.51 24.3466C31.51 24.9284 31.6433 25.4437 31.8767 25.8759C32.3767 26.7569 33.41 27.3221 35.1433 27.5382L37.51 27.7709C38.7267 27.9371 39.3433 28.2696 39.6267 28.7516C39.76 28.9677 39.7933 29.2004 39.7933 29.4664C39.7933 29.7822 39.7267 30.0648 39.5767 30.3142C39.1933 30.9957 38.11 31.4112 36.5933 31.4112C34.5767 31.4112 33.2933 30.5801 33.2933 29.001V28.8514H31.36V29.1007C31.36 31.5442 33.41 33.0236 36.5433 33.0236ZM48.6728 32.6912V21.0554H46.8228V32.6912H48.6728ZM59.9472 33.0236C62.5806 33.0236 64.4306 31.8102 65.0139 29.8653H65.2639L64.8139 32.6912H66.6306V26.6572H60.1139V28.2529H64.8639C64.5806 30.1479 62.8472 31.3946 60.2639 31.3946C58.0139 31.3946 56.2139 30.4305 55.5806 28.6685C55.3639 28.1033 55.2972 27.4717 55.2972 26.8899C55.2972 26.2749 55.3972 25.7097 55.5806 25.211C56.2306 23.3825 58.0972 22.3519 60.5472 22.3519C63.0972 22.3519 64.8472 23.449 65.1472 25.1611H67.0306C66.7806 22.568 64.2472 20.7229 60.5306 20.7229C57.2139 20.7229 54.6639 22.1524 53.7472 24.6292C53.4972 25.2941 53.3639 26.0588 53.3639 26.8899C53.3639 27.6878 53.4972 28.5189 53.7639 29.2503C54.6139 31.6772 57.1472 33.0236 59.9472 33.0236ZM73.8228 32.6912V22.2522H74.0895L74.4895 24.064L80.5061 32.6912H83.2895V21.0554H81.4561V31.4944H81.2061L80.7728 29.6659L74.7728 21.0554H71.9895V32.6912H73.8228Z" fill="black"/>
<path d="M13.2834 29.1174L12.8933 28.9714L12.8918 28.9752L12.8905 28.9791L13.2834 29.1174ZM13.3001 24.6459L13.6963 24.5174L13.6943 24.5112L13.6921 24.505L13.3001 24.6459ZM1.68339 21.0554V20.6398H1.26672V21.0554H1.68339ZM1.68339 32.6912H1.26672V33.1068H1.68339V32.6912ZM3.53339 22.6844V22.2688H3.11672V22.6844H3.53339ZM11.4334 25.1778L11.0417 25.3195L11.0432 25.3237L11.0448 25.3278L11.4334 25.1778ZM11.4501 28.5522L11.8418 28.6938L11.8427 28.6913L11.4501 28.5522ZM3.53339 31.0622H3.11672V31.4778H3.53339V31.0622ZM7.45006 33.1068C10.4983 33.1068 12.8038 31.7213 13.6763 29.2556L12.8905 28.9791C12.163 31.0348 10.2351 32.2757 7.45006 32.2757V33.1068ZM13.6735 29.2634C13.9448 28.5419 14.0667 27.7427 14.0667 26.8733H13.2334C13.2334 27.6663 13.122 28.363 12.8933 28.9714L13.6735 29.2634ZM14.0667 26.8733C14.0667 25.9961 13.9257 25.2214 13.6963 24.5174L12.9038 24.7743C13.1077 25.4001 13.2334 26.0882 13.2334 26.8733H14.0667ZM13.6921 24.505C12.8029 22.0436 10.484 20.6398 7.45006 20.6398V21.471C10.2161 21.471 12.1639 22.7269 12.9081 24.7867L13.6921 24.505ZM7.45006 20.6398H1.68339V21.471H7.45006V20.6398ZM1.26672 21.0554V32.6912H2.10006V21.0554H1.26672ZM1.68339 33.1068H7.45006V32.2757H1.68339V33.1068ZM3.53339 23.1H7.58339V22.2688H3.53339V23.1ZM7.58339 23.1C9.34139 23.1 10.557 23.9863 11.0417 25.3195L11.8251 25.0361C11.2098 23.3439 9.65872 22.2688 7.58339 22.2688V23.1ZM11.0448 25.3278C11.2243 25.7902 11.3167 26.3038 11.3167 26.8733H12.1501C12.1501 26.2128 12.0425 25.5961 11.822 25.0278L11.0448 25.3278ZM11.3167 26.8733C11.3167 27.4413 11.2248 27.9427 11.0574 28.4131L11.8427 28.6913C12.042 28.1311 12.1501 27.5354 12.1501 26.8733H11.3167ZM11.0584 28.4106C10.5733 29.7446 9.34039 30.6466 7.58339 30.6466V31.4778C9.65975 31.4778 11.2268 30.3851 11.8418 28.6938L11.0584 28.4106ZM7.58339 30.6466H3.53339V31.4778H7.58339V30.6466ZM3.95006 31.0622V22.6844H3.11672V31.0622H3.95006ZM27.0187 32.6912V33.1068H27.4353V32.6912H27.0187ZM27.0187 31.0622H27.4353V30.6466H27.0187V31.0622ZM20.202 31.0622H19.7853V31.4778H20.202V31.0622ZM20.202 27.6546V27.239H19.7853V27.6546H20.202ZM26.852 27.6546V28.0701H27.2687V27.6546H26.852ZM26.852 26.0422H27.2687V25.6266H26.852V26.0422ZM20.202 26.0422H19.7853V26.4577H20.202V26.0422ZM20.202 22.6844V22.2688H19.7853V22.6844H20.202ZM27.0187 22.6844V23.1H27.4353V22.6844H27.0187ZM27.0187 21.0554H27.4353V20.6398H27.0187V21.0554ZM18.352 21.0554V20.6398H17.9353V21.0554H18.352ZM18.352 32.6912H17.9353V33.1068H18.352V32.6912ZM27.4353 32.6912V31.0622H26.602V32.6912H27.4353ZM27.0187 30.6466H20.202V31.4778H27.0187V30.6466ZM20.6187 31.0622V27.6546H19.7853V31.0622H20.6187ZM20.202 28.0701H26.852V27.239H20.202V28.0701ZM27.2687 27.6546V26.0422H26.4353V27.6546H27.2687ZM26.852 25.6266H20.202V26.4577H26.852V25.6266ZM20.6187 26.0422V22.6844H19.7853V26.0422H20.6187ZM20.202 23.1H27.0187V22.2688H20.202V23.1ZM27.4353 22.6844V21.0554H26.602V22.6844H27.4353ZM27.0187 20.6398H18.352V21.471H27.0187V20.6398ZM17.9353 21.0554V32.6912H18.7687V21.0554H17.9353ZM18.352 33.1068H27.0187V32.2757H18.352V33.1068ZM41.3101 31.0456L41.6726 31.2503L41.6737 31.2484L41.6748 31.2464L41.3101 31.0456ZM41.3601 27.8374L41.7242 27.6356L41.7217 27.6311L41.7192 27.6267L41.3601 27.8374ZM38.1101 26.1918L38.1617 25.7794L38.1578 25.779L38.1539 25.7785L38.1101 26.1918ZM35.7601 25.9424L35.7048 26.3544L35.7103 26.3551L35.7159 26.3557L35.7601 25.9424ZM33.6101 24.9617L33.2431 25.1587L33.2467 25.1654L33.2506 25.1719L33.6101 24.9617ZM33.6434 23.4324L33.2859 23.2186L33.2837 23.2224L33.2814 23.2263L33.6434 23.4324ZM39.9101 24.8453H39.4934V25.2609H39.9101V24.8453ZM41.8434 24.8453V25.2609H42.2601V24.8453H41.8434ZM31.9267 22.7343L31.5659 22.5261L31.5648 22.5281L31.9267 22.7343ZM31.8767 25.876L31.5098 26.073L31.5117 26.0768L31.5139 26.0807L31.8767 25.876ZM35.1434 27.5382L35.0917 27.9505L35.097 27.9513L35.1023 27.9518L35.1434 27.5382ZM37.5101 27.7709L37.5664 27.3592L37.5587 27.3581L37.5509 27.3574L37.5101 27.7709ZM39.6267 28.7517L39.2673 28.9619L39.2695 28.9655L39.2717 28.9694L39.6267 28.7517ZM39.5767 30.3142L39.2192 30.1003L39.2162 30.1056L39.2131 30.1108L39.5767 30.3142ZM33.2934 28.8514H33.7101V28.4358H33.2934V28.8514ZM31.3601 28.8514V28.4358H30.9434V28.8514H31.3601ZM36.5434 33.4392C38.9142 33.4392 40.8445 32.7101 41.6726 31.2503L40.9473 30.8409C40.342 31.9077 38.8059 32.6081 36.5434 32.6081V33.4392ZM41.6748 31.2464C41.9765 30.7009 42.1434 30.0665 42.1434 29.3833H41.3101C41.3101 29.9302 41.1767 30.4261 40.9451 30.8447L41.6748 31.2464ZM42.1434 29.3833C42.1434 28.7453 42.0148 28.1574 41.7242 27.6356L40.9956 28.0391C41.2051 28.4151 41.3101 28.8578 41.3101 29.3833H42.1434ZM41.7192 27.6267C41.1256 26.6203 39.9562 26.0031 38.1617 25.7794L38.0584 26.6041C39.7306 26.8126 40.5945 27.3591 41.0009 28.0483L41.7192 27.6267ZM38.1539 25.7785L35.8039 25.5292L35.7159 26.3557L38.0659 26.605L38.1539 25.7785ZM35.8151 25.5305C34.5926 25.368 34.1501 25.0587 33.9695 24.7515L33.2506 25.1719C33.6367 25.8288 34.4273 26.1845 35.7048 26.3544L35.8151 25.5305ZM33.9767 24.7647C33.8987 24.6201 33.8601 24.4577 33.8601 24.2469H33.0267C33.0267 24.5681 33.0878 24.8712 33.2431 25.1587L33.9767 24.7647ZM33.8601 24.2469C33.8601 23.9926 33.9128 23.7998 34.0051 23.6386L33.2814 23.2263C33.1073 23.5305 33.0267 23.8696 33.0267 24.2469H33.8601ZM34.0006 23.6462C34.1362 23.4208 34.4145 23.1946 34.8709 23.0236C35.3237 22.854 35.9217 22.7509 36.6434 22.7509V21.9198C35.8481 21.9198 35.1462 22.0327 34.5781 22.2455C34.014 22.4568 33.5503 22.7792 33.2859 23.2186L34.0006 23.6462ZM36.6434 22.7509C37.6362 22.7509 38.3537 22.9365 38.8123 23.2573C39.2467 23.5612 39.4934 24.0168 39.4934 24.6957H40.3267C40.3267 23.7789 39.9734 23.0543 39.2909 22.5769C38.6328 22.1165 37.717 21.9198 36.6434 21.9198V22.7509ZM39.4934 24.6957V24.8453H40.3267V24.6957H39.4934ZM39.9101 25.2609H41.8434V24.4298H39.9101V25.2609ZM42.2601 24.8453V24.596H41.4267V24.8453H42.2601ZM42.2601 24.596C42.2601 23.2405 41.7064 22.146 40.7042 21.4034C39.7173 20.672 38.3317 20.3074 36.6934 20.3074V21.1385C38.2214 21.1385 39.4109 21.4804 40.2073 22.0705C40.9884 22.6493 41.4267 23.4914 41.4267 24.596H42.2601ZM36.6934 20.3074C34.3126 20.3074 32.4081 21.0752 31.5659 22.5261L32.2873 22.9425C32.9117 21.8667 34.4409 21.1385 36.6934 21.1385V20.3074ZM31.5648 22.5281C31.2612 23.0582 31.0934 23.6781 31.0934 24.3467H31.9267C31.9267 23.8184 32.0587 23.3412 32.2884 22.9405L31.5648 22.5281ZM31.0934 24.3467C31.0934 24.9927 31.2417 25.5764 31.5098 26.073L32.2434 25.6789C32.0448 25.3111 31.9267 24.8642 31.9267 24.3467H31.0934ZM31.5139 26.0807C32.1092 27.1292 33.3034 27.7277 35.0917 27.9505L35.1951 27.1259C33.5164 26.9166 32.6442 26.3847 32.2392 25.6712L31.5139 26.0807ZM35.1023 27.9518L37.4689 28.1846L37.5509 27.3574L35.1842 27.1246L35.1023 27.9518ZM37.4534 28.1826C38.6406 28.345 39.0856 28.653 39.2673 28.9619L39.9862 28.5414C39.6009 27.8862 38.8126 27.5294 37.5664 27.3592L37.4534 28.1826ZM39.2717 28.9694C39.3465 29.0905 39.3767 29.2334 39.3767 29.4664H40.2101C40.2101 29.1675 40.1734 28.845 39.9814 28.5339L39.2717 28.9694ZM39.3767 29.4664C39.3767 29.7222 39.3234 29.9274 39.2192 30.1003L39.9339 30.5281C40.1298 30.2023 40.2101 29.8424 40.2101 29.4664H39.3767ZM39.2131 30.1108C39.0862 30.3366 38.8176 30.5605 38.3642 30.7289C37.9148 30.8963 37.3167 30.9957 36.5934 30.9957V31.8269C37.3864 31.8269 38.0884 31.7185 38.6556 31.5077C39.2189 31.298 39.6837 30.9733 39.9401 30.5175L39.2131 30.1108ZM36.5934 30.9957C35.6337 30.9957 34.9051 30.7968 34.4281 30.4594C33.9701 30.1355 33.7101 29.6618 33.7101 29.001H32.8767C32.8767 29.9194 33.2581 30.6508 33.9459 31.1373C34.6148 31.6102 35.5362 31.8269 36.5934 31.8269V30.9957ZM33.7101 29.001V28.8514H32.8767V29.001H33.7101ZM33.2934 28.4358H31.3601V29.267H33.2934V28.4358ZM30.9434 28.8514V29.1007H31.7767V28.8514H30.9434ZM30.9434 29.1007C30.9434 30.4524 31.517 31.5567 32.527 32.3111C33.5239 33.0558 34.9167 33.4392 36.5434 33.4392V32.6081C35.0364 32.6081 33.8376 32.2518 33.0264 31.6459C32.2281 31.0497 31.7767 30.1926 31.7767 29.1007H30.9434ZM48.6728 32.6912V33.1068H49.0895V32.6912H48.6728ZM48.6728 21.0554H49.0895V20.6398H48.6728V21.0554ZM46.8228 21.0554V20.6398H46.4062V21.0554H46.8228ZM46.8228 32.6912H46.4062V33.1068H46.8228V32.6912ZM49.0895 32.6912V21.0554H48.2562V32.6912H49.0895ZM48.6728 20.6398H46.8228V21.471H48.6728V20.6398ZM46.4062 21.0554V32.6912H47.2395V21.0554H46.4062ZM46.8228 33.1068H48.6728V32.2757H46.8228V33.1068ZM65.014 29.8654V29.4498H64.7037L64.6148 29.7463L65.014 29.8654ZM65.264 29.8654L65.6756 29.9305L65.752 29.4498H65.264V29.8654ZM64.8139 32.6912L64.4026 32.6261L64.3259 33.1068H64.8139V32.6912ZM66.6306 32.6912V33.1068H67.0473V32.6912H66.6306ZM66.6306 26.6572H67.0473V26.2417H66.6306V26.6572ZM60.1139 26.6572V26.2417H59.6973V26.6572H60.1139ZM60.1139 28.253H59.6973V28.6686H60.1139V28.253ZM64.8639 28.253L65.2762 28.3142L65.3473 27.8374H64.8639V28.253ZM55.5806 28.6686L55.9728 28.5284L55.9714 28.5242L55.9698 28.5201L55.5806 28.6686ZM55.5806 25.211L55.9717 25.3541L55.9726 25.352L55.9734 25.3499L55.5806 25.211ZM65.1473 25.1612L64.737 25.2327L64.7973 25.5767H65.1473V25.1612ZM67.0306 25.1612V25.5767H67.4892L67.4453 25.1214L67.0306 25.1612ZM53.7473 24.6293L54.1376 24.7752L54.1381 24.7732L53.7473 24.6293ZM53.764 29.2503L54.1573 29.1132L54.1564 29.1107L54.1556 29.1082L53.764 29.2503ZM59.9473 33.4392C62.7101 33.4392 64.7628 32.1524 65.4131 29.9845L64.6148 29.7463C64.0984 31.4681 62.4512 32.6081 59.9473 32.6081V33.4392ZM65.014 30.2809H65.264V29.4498H65.014V30.2809ZM64.8526 29.8003L64.4026 32.6261L65.2256 32.7563L65.6756 29.9305L64.8526 29.8003ZM64.8139 33.1068H66.6306V32.2757H64.8139V33.1068ZM67.0473 32.6912V26.6572H66.214V32.6912H67.0473ZM66.6306 26.2417H60.1139V27.0728H66.6306V26.2417ZM59.6973 26.6572V28.253H60.5306V26.6572H59.6973ZM60.1139 28.6686H64.8639V27.8374H60.1139V28.6686ZM64.452 28.1918C64.2095 29.8125 62.7217 30.9791 60.264 30.9791V31.8102C62.9728 31.8102 64.9517 30.4835 65.2762 28.3142L64.452 28.1918ZM60.264 30.9791C58.1214 30.9791 56.5267 30.069 55.9728 28.5284L55.1884 28.8087C55.9014 30.7921 57.9067 31.8102 60.264 31.8102V30.9791ZM55.9698 28.5201C55.7784 28.0205 55.714 27.4451 55.714 26.8899H54.8806C54.8806 27.4983 54.9495 28.1862 55.1914 28.817L55.9698 28.5201ZM55.714 26.8899C55.714 26.3197 55.8067 25.8033 55.9717 25.3541L55.1895 25.068C54.9878 25.6161 54.8806 26.2301 54.8806 26.8899H55.714ZM55.9734 25.3499C56.5439 23.7446 58.2039 22.7675 60.5473 22.7675V21.9364C57.9909 21.9364 55.9173 23.0205 55.1878 25.0722L55.9734 25.3499ZM60.5473 22.7675C63.0098 22.7675 64.4884 23.8143 64.737 25.2327L65.5578 25.0896C65.2062 23.0838 63.1848 21.9364 60.5473 21.9364V22.7675ZM65.1473 25.5767H67.0306V24.7456H65.1473V25.5767ZM67.4453 25.1214C67.1665 22.2265 64.359 20.3074 60.5306 20.3074V21.1385C64.1356 21.1385 66.3951 22.9096 66.6159 25.201L67.4453 25.1214ZM60.5306 20.3074C57.1028 20.3074 54.3528 21.7931 53.3564 24.4854L54.1381 24.7732C54.9751 22.5119 57.3251 21.1385 60.5306 21.1385V20.3074ZM53.3573 24.4833C53.0876 25.2004 52.9473 26.0152 52.9473 26.8899H53.7806C53.7806 26.1024 53.907 25.388 54.1376 24.7752L53.3573 24.4833ZM52.9473 26.8899C52.9473 27.731 53.0873 28.6107 53.3723 29.3925L54.1556 29.1082C53.9073 28.4272 53.7806 27.6447 53.7806 26.8899H52.9473ZM53.3706 29.3875C54.297 32.0324 57.0314 33.4392 59.9473 33.4392V32.6081C57.2631 32.6081 54.9309 31.3221 54.1573 29.1132L53.3706 29.3875ZM73.8228 32.6912V33.1068H74.2395V32.6912H73.8228ZM73.8228 22.2522V21.8367H73.4062V22.2522H73.8228ZM74.0895 22.2522L74.4962 22.1628L74.4242 21.8367H74.0895V22.2522ZM74.4895 24.0641L74.0826 24.1534L74.1003 24.2338L74.1473 24.3014L74.4895 24.0641ZM80.5062 32.6912L80.1639 32.9287L80.2884 33.1068H80.5062V32.6912ZM83.2895 32.6912V33.1068H83.7062V32.6912H83.2895ZM83.2895 21.0554H83.7062V20.6398H83.2895V21.0554ZM81.4562 21.0554V20.6398H81.0395V21.0554H81.4562ZM81.4562 31.4944V31.91H81.8728V31.4944H81.4562ZM81.2062 31.4944L80.8006 31.59L80.8764 31.91H81.2062V31.4944ZM80.7728 29.6659L81.1781 29.5703L81.1601 29.4936L81.1148 29.4288L80.7728 29.6659ZM74.7728 21.0554L75.1148 20.8182L74.9906 20.6398H74.7728V21.0554ZM71.9895 21.0554V20.6398H71.5728V21.0554H71.9895ZM71.9895 32.6912H71.5728V33.1068H71.9895V32.6912ZM74.2395 32.6912V22.2522H73.4062V32.6912H74.2395ZM73.8228 22.6678H74.0895V21.8367H73.8228V22.6678ZM73.6826 22.3416L74.0826 24.1534L74.8962 23.9747L74.4962 22.1628L73.6826 22.3416ZM74.1473 24.3014L80.1639 32.9287L80.8481 32.4538L74.8315 23.8268L74.1473 24.3014ZM80.5062 33.1068H83.2895V32.2757H80.5062V33.1068ZM83.7062 32.6912V21.0554H82.8728V32.6912H83.7062ZM83.2895 20.6398H81.4562V21.471H83.2895V20.6398ZM81.0395 21.0554V31.4944H81.8728V21.0554H81.0395ZM81.4562 31.0788H81.2062V31.91H81.4562V31.0788ZM81.6115 31.3988L81.1781 29.5703L80.3673 29.7615L80.8006 31.59L81.6115 31.3988ZM81.1148 29.4288L75.1148 20.8182L74.4306 21.2925L80.4306 29.9031L81.1148 29.4288ZM74.7728 20.6398H71.9895V21.471H74.7728V20.6398ZM71.5728 21.0554V32.6912H72.4062V21.0554H71.5728ZM71.9895 33.1068H73.8228V32.2757H71.9895V33.1068Z" fill="black" stroke="black" stroke-width="0.5"/>
</svg>
