<svg width="23" height="22" viewBox="0 0 23 22" fill="none" xmlns="http://www.w3.org/2000/svg">
<path fill-rule="evenodd" clip-rule="evenodd" d="M7.43883 13.306L12.7231 18.2849C13.4981 19.0188 14.2614 19.8041 13.6038 20.6335C13.2847 21.0349 12.8198 21.2939 12.3105 21.3538C11.8012 21.4138 11.2889 21.2699 10.8853 20.9535L5.04477 16.343C4.6433 16.0242 4.38441 15.5594 4.32472 15.0502C4.26503 14.5411 4.4094 14.029 4.72625 13.626C5.38091 12.7908 6.6594 12.5765 7.43883 13.306Z" fill="#FF6600"/>
<path d="M7.43883 13.306L12.7231 18.2849C13.4981 19.0188 14.2614 19.8041 13.6038 20.6335C13.2847 21.0349 12.8198 21.2939 12.3105 21.3538C11.8012 21.4138 11.2889 21.2699 10.8853 20.9535L5.04477 16.343C4.6433 16.0242 4.38441 15.5594 4.32472 15.0502C4.26503 14.5411 4.4094 14.029 4.72625 13.626C5.38091 12.7908 6.6594 12.5765 7.43883 13.306Z" stroke="black" stroke-width="0.7" stroke-miterlimit="22.93" stroke-linecap="round"/>
<path fill-rule="evenodd" clip-rule="evenodd" d="M10.6561 2.65918C10.6561 2.65918 8.56738 7.3695 5.32491 10.5298C4.8596 10.9833 3.22735 11.6262 1.81529 12.573C0.114053 13.7106 2.20133 17.1615 3.76312 16.2544C4.3253 15.927 6.45368 15.0199 7.13916 14.945C11.2667 14.4959 18.0012 14.7704 18.0012 14.7704L10.6561 2.65918Z" fill="#FFFFCC"/>
<path d="M10.6561 2.65918C10.6561 2.65918 8.56738 7.3695 5.32491 10.5298C4.8596 10.9833 3.22735 11.6262 1.81529 12.573C0.114053 13.7106 2.20133 17.1615 3.76312 16.2544C4.3253 15.927 6.45368 15.0199 7.13916 14.945C11.2667 14.4959 18.0012 14.7704 18.0012 14.7704L10.6561 2.65918Z" stroke="black" stroke-width="0.7" stroke-miterlimit="22.93" stroke-linecap="round"/>
<path fill-rule="evenodd" clip-rule="evenodd" d="M10.872 1.16105C11.1323 1.00628 11.4433 0.960773 11.737 1.03448C12.0307 1.10818 12.2833 1.29511 12.4397 1.55444L19.7789 13.833C19.8608 13.962 19.916 14.1062 19.9412 14.257C19.9664 14.4078 19.9611 14.5621 19.9256 14.7108C19.8901 14.8594 19.8252 14.9995 19.7347 15.1227C19.6441 15.2458 19.5298 15.3496 19.3985 15.4278C19.2672 15.5061 19.1215 15.5572 18.9701 15.5781C18.8187 15.5991 18.6646 15.5895 18.517 15.5498C18.3693 15.5102 18.2311 15.4414 18.1105 15.3474C17.99 15.2535 17.8894 15.1363 17.8149 15.0028L10.4757 2.72871C10.3212 2.46807 10.2761 2.15686 10.3504 1.86311C10.4247 1.56935 10.6122 1.31694 10.872 1.16105Z" fill="#FFCC29"/>
<path d="M10.872 1.16105C11.1323 1.00628 11.4433 0.960773 11.737 1.03448C12.0307 1.10818 12.2833 1.29511 12.4397 1.55444L19.7789 13.833C19.8608 13.962 19.916 14.1062 19.9412 14.257C19.9664 14.4078 19.9611 14.5621 19.9256 14.7108C19.8901 14.8594 19.8252 14.9995 19.7347 15.1227C19.6441 15.2458 19.5298 15.3496 19.3985 15.4278C19.2672 15.5061 19.1215 15.5572 18.9701 15.5781C18.8187 15.5991 18.6646 15.5895 18.517 15.5498C18.3693 15.5102 18.2311 15.4414 18.1105 15.3474C17.99 15.2535 17.8894 15.1363 17.8149 15.0028L10.4757 2.72871C10.3212 2.46807 10.2761 2.15686 10.3504 1.86311C10.4247 1.56935 10.6122 1.31694 10.872 1.16105V1.16105Z" stroke="black" stroke-width="0.7" stroke-miterlimit="22.93" stroke-linecap="round"/>
<path d="M15.6631 3.71034L17.1133 1.61426" stroke="black" stroke-width="0.7" stroke-miterlimit="22.93" stroke-linecap="round"/>
<path d="M19.1123 5.7405L20.8928 4.6543" stroke="black" stroke-width="0.7" stroke-miterlimit="22.93" stroke-linecap="round"/>
<path d="M19.4985 9.44669L21.8192 9.25293" stroke="black" stroke-width="0.7" stroke-miterlimit="22.93" stroke-linecap="round"/>
<path d="M6.76781 14.0072C6.45662 13.8472 5.63022 12.6362 5.49372 12.2457L5.46289 12.1768" stroke="black" stroke-width="0.7" stroke-miterlimit="22.93" stroke-linecap="round"/>
</svg>
