<svg width="425" height="23" viewBox="0 0 425 23" fill="none" xmlns="http://www.w3.org/2000/svg">
<rect width="425" height="23" rx="11.5" fill="#FF7373"/>
<path d="M94.6714 7.02V7.824H97.5514V15.012H98.5354V7.824H101.391V7.02H94.6714ZM105.599 8.808C104.411 8.808 103.667 9.48 103.295 10.572V6.6H102.335V15H103.295V12.708C103.295 10.644 104.003 9.612 105.335 9.612C106.211 9.612 106.775 9.996 106.775 11.28V15H107.735V11.172C107.735 9.624 107.099 8.808 105.599 8.808ZM111.914 14.46C110.714 14.46 109.922 13.86 109.85 12.216H114.674C114.698 12.072 114.698 11.952 114.698 11.796C114.698 10.044 113.678 8.808 111.878 8.808C109.886 8.808 108.902 10.2 108.902 11.988C108.902 13.8 109.814 15.192 111.878 15.192C113.87 15.192 114.566 14.064 114.686 13.152H113.81C113.63 13.908 113.09 14.46 111.914 14.46ZM111.89 9.54C113.006 9.54 113.714 10.116 113.762 11.496H109.874C110.006 10.08 110.75 9.54 111.89 9.54ZM121.524 14.46C120.324 14.46 119.532 13.86 119.46 12.216H124.284C124.308 12.072 124.308 11.952 124.308 11.796C124.308 10.044 123.288 8.808 121.488 8.808C119.496 8.808 118.512 10.2 118.512 11.988C118.512 13.8 119.424 15.192 121.488 15.192C123.48 15.192 124.176 14.064 124.296 13.152H123.42C123.24 13.908 122.7 14.46 121.524 14.46ZM121.5 9.54C122.616 9.54 123.324 10.116 123.372 11.496H119.484C119.616 10.08 120.36 9.54 121.5 9.54ZM132.894 8.808C131.694 8.808 130.998 9.444 130.65 10.5C130.482 9.384 129.846 8.808 128.682 8.808C127.53 8.808 126.846 9.444 126.498 10.476V9H125.538V15H126.498V12.708C126.498 10.644 127.098 9.612 128.382 9.612C129.258 9.612 129.762 10.032 129.762 11.244V15H130.698V12.708C130.698 10.644 131.286 9.612 132.594 9.612C133.47 9.612 133.962 10.032 133.962 11.244V15H134.922V11.136C134.922 9.6 134.262 8.808 132.894 8.808ZM138.26 15.156C139.652 15.156 140.288 14.316 140.516 13.596C140.516 14.04 140.552 14.484 140.6 15H141.476C141.416 14.412 141.404 13.944 141.404 13.512V10.632C141.404 9.552 140.66 8.796 139.016 8.796C137.36 8.796 136.46 9.612 136.424 10.884H137.372C137.432 10.104 137.876 9.552 139.052 9.552C140.216 9.552 140.528 10.02 140.528 10.632C140.528 11.088 140.264 11.256 139.628 11.364L138.104 11.616C136.808 11.832 136.28 12.444 136.28 13.416C136.28 14.556 137.108 15.156 138.26 15.156ZM138.452 14.4C137.744 14.4 137.252 14.064 137.252 13.38C137.252 12.732 137.636 12.42 138.452 12.252L139.448 12.048C139.904 11.952 140.228 11.856 140.528 11.64V12.156C140.528 13.296 139.868 14.4 138.452 14.4ZM144.091 8.016V7.02H142.855V8.016H144.091ZM143.947 15V9H142.987V15H143.947ZM146.619 15V6.6H145.659V15H146.619ZM153.738 13.62L153.558 14.196L153.354 13.62L151.518 9H150.51L152.886 15H153.222L152.562 16.62H150.894V17.4H152.034C153.114 17.4 153.354 16.956 153.726 15.996L156.546 9H155.598L153.738 13.62ZM160.067 15.192C162.083 15.192 163.079 13.788 163.079 11.988C163.079 10.212 162.083 8.808 160.067 8.808C158.039 8.808 157.043 10.2 157.043 11.988C157.043 13.8 158.039 15.192 160.067 15.192ZM158.015 12C158.015 10.308 158.711 9.588 160.067 9.588C161.423 9.588 162.107 10.308 162.107 12C162.107 13.68 161.423 14.412 160.067 14.412C158.711 14.412 158.015 13.68 158.015 12ZM168.741 11.292C168.741 13.284 168.033 14.4 166.785 14.4C165.861 14.4 165.273 14.052 165.273 12.72V9H164.313V12.828C164.313 14.4 164.997 15.192 166.509 15.192C167.673 15.192 168.381 14.544 168.741 13.476V15H169.701V9H168.741V11.292ZM176.859 14.46C175.659 14.46 174.867 13.86 174.795 12.216H179.619C179.643 12.072 179.643 11.952 179.643 11.796C179.643 10.044 178.623 8.808 176.823 8.808C174.831 8.808 173.847 10.2 173.847 11.988C173.847 13.8 174.759 15.192 176.823 15.192C178.815 15.192 179.511 14.064 179.631 13.152H178.755C178.575 13.908 178.035 14.46 176.859 14.46ZM176.835 9.54C177.951 9.54 178.659 10.116 178.707 11.496H174.819C174.951 10.08 175.695 9.54 176.835 9.54ZM184.138 8.808C182.95 8.808 182.206 9.48 181.834 10.572V9H180.874V15H181.834V12.708C181.834 10.644 182.542 9.612 183.874 9.612C184.75 9.612 185.314 9.996 185.314 11.28V15H186.274V11.172C186.274 9.624 185.638 8.808 184.138 8.808ZM191.16 15V14.22H189.252V9.756H191.232V9H189.252V7.668H188.736L188.376 8.916L187.152 9.216V9.756H188.292V13.596C188.292 14.556 188.592 15 189.744 15H191.16ZM194.895 14.46C193.695 14.46 192.903 13.86 192.831 12.216H197.655C197.679 12.072 197.679 11.952 197.679 11.796C197.679 10.044 196.659 8.808 194.859 8.808C192.867 8.808 191.883 10.2 191.883 11.988C191.883 13.8 192.795 15.192 194.859 15.192C196.851 15.192 197.547 14.064 197.667 13.152H196.791C196.611 13.908 196.071 14.46 194.895 14.46ZM194.871 9.54C195.987 9.54 196.695 10.116 196.743 11.496H192.855C192.987 10.08 193.731 9.54 194.871 9.54ZM202.065 8.916C200.925 8.916 200.229 9.588 199.869 10.584V9H198.909V15H199.869V12.792C199.869 11.1 200.253 9.804 202.029 9.864H202.281V8.916H202.065ZM205.852 14.46C204.652 14.46 203.86 13.86 203.788 12.216H208.612C208.636 12.072 208.636 11.952 208.636 11.796C208.636 10.044 207.616 8.808 205.816 8.808C203.824 8.808 202.84 10.2 202.84 11.988C202.84 13.8 203.752 15.192 205.816 15.192C207.808 15.192 208.504 14.064 208.624 13.152H207.748C207.568 13.908 207.028 14.46 205.852 14.46ZM205.828 9.54C206.944 9.54 207.652 10.116 207.7 11.496H203.812C203.944 10.08 204.688 9.54 205.828 9.54ZM214.7 10.14C214.292 9.288 213.536 8.808 212.432 8.808C210.548 8.808 209.684 10.152 209.684 12C209.684 13.836 210.548 15.192 212.432 15.192C213.536 15.192 214.292 14.7 214.7 13.848V15H215.66V6.6H214.7V10.14ZM212.624 14.412C211.256 14.412 210.656 13.608 210.656 12C210.656 10.38 211.256 9.588 212.624 9.588C213.896 9.588 214.7 10.308 214.7 12C214.7 13.692 213.896 14.412 212.624 14.412ZM221.189 8.016V7.02H219.953V8.016H221.189ZM221.045 15V9H220.085V15H221.045ZM222.302 12.996C222.326 14.256 223.118 15.192 225.074 15.192C226.67 15.192 227.522 14.592 227.522 13.368C227.522 12.384 227.018 11.796 225.638 11.592L224.366 11.412C223.61 11.304 223.394 10.944 223.394 10.524C223.394 9.936 223.814 9.528 224.834 9.528C225.938 9.528 226.394 10.092 226.454 10.716H227.402C227.33 9.588 226.43 8.796 224.858 8.796C223.346 8.796 222.458 9.48 222.458 10.596C222.458 11.52 223.046 12.072 224.09 12.216L225.482 12.42C226.238 12.528 226.574 12.84 226.574 13.416C226.574 14.088 226.154 14.46 225.098 14.46C223.718 14.46 223.262 13.812 223.19 12.996H222.302ZM233.405 15.156C234.797 15.156 235.433 14.316 235.661 13.596C235.661 14.04 235.697 14.484 235.745 15H236.621C236.561 14.412 236.549 13.944 236.549 13.512V10.632C236.549 9.552 235.805 8.796 234.161 8.796C232.505 8.796 231.605 9.612 231.569 10.884H232.517C232.577 10.104 233.021 9.552 234.197 9.552C235.361 9.552 235.673 10.02 235.673 10.632C235.673 11.088 235.409 11.256 234.773 11.364L233.249 11.616C231.953 11.832 231.425 12.444 231.425 13.416C231.425 14.556 232.253 15.156 233.405 15.156ZM233.597 14.4C232.889 14.4 232.397 14.064 232.397 13.38C232.397 12.732 232.781 12.42 233.597 12.252L234.593 12.048C235.049 11.952 235.373 11.856 235.673 11.64V12.156C235.673 13.296 235.013 14.4 233.597 14.4ZM239.068 15V6.6H238.108V15H239.068ZM243.96 8.916C242.82 8.916 242.124 9.588 241.764 10.584V9H240.804V15H241.764V12.792C241.764 11.1 242.148 9.804 243.924 9.864H244.176V8.916H243.96ZM247.746 14.46C246.546 14.46 245.754 13.86 245.682 12.216H250.506C250.53 12.072 250.53 11.952 250.53 11.796C250.53 10.044 249.51 8.808 247.71 8.808C245.718 8.808 244.734 10.2 244.734 11.988C244.734 13.8 245.646 15.192 247.71 15.192C249.702 15.192 250.398 14.064 250.518 13.152H249.642C249.462 13.908 248.922 14.46 247.746 14.46ZM247.722 9.54C248.838 9.54 249.546 10.116 249.594 11.496H245.706C245.838 10.08 246.582 9.54 247.722 9.54ZM253.619 15.156C255.011 15.156 255.647 14.316 255.875 13.596C255.875 14.04 255.911 14.484 255.959 15H256.835C256.775 14.412 256.763 13.944 256.763 13.512V10.632C256.763 9.552 256.019 8.796 254.375 8.796C252.719 8.796 251.819 9.612 251.783 10.884H252.731C252.791 10.104 253.235 9.552 254.411 9.552C255.575 9.552 255.887 10.02 255.887 10.632C255.887 11.088 255.623 11.256 254.987 11.364L253.463 11.616C252.167 11.832 251.639 12.444 251.639 13.416C251.639 14.556 252.467 15.156 253.619 15.156ZM253.811 14.4C253.103 14.4 252.611 14.064 252.611 13.38C252.611 12.732 252.995 12.42 253.811 12.252L254.807 12.048C255.263 11.952 255.587 11.856 255.887 11.64V12.156C255.887 13.296 255.227 14.4 253.811 14.4ZM263.086 10.14C262.678 9.288 261.922 8.808 260.818 8.808C258.934 8.808 258.07 10.152 258.07 12C258.07 13.836 258.934 15.192 260.818 15.192C261.922 15.192 262.678 14.7 263.086 13.848V15H264.046V6.6H263.086V10.14ZM261.01 14.412C259.642 14.412 259.042 13.608 259.042 12C259.042 10.38 259.642 9.588 261.01 9.588C262.282 9.588 263.086 10.308 263.086 12C263.086 13.692 262.282 14.412 261.01 14.412ZM268.277 13.62L268.097 14.196L267.893 13.62L266.057 9H265.049L267.425 15H267.761L267.101 16.62H265.433V17.4H266.573C267.653 17.4 267.893 16.956 268.265 15.996L271.085 9H270.137L268.277 13.62ZM278.108 8.916C276.968 8.916 276.272 9.588 275.912 10.584V9H274.952V15H275.912V12.792C275.912 11.1 276.296 9.804 278.072 9.864H278.324V8.916H278.108ZM281.895 14.46C280.695 14.46 279.903 13.86 279.831 12.216H284.655C284.679 12.072 284.679 11.952 284.679 11.796C284.679 10.044 283.659 8.808 281.859 8.808C279.867 8.808 278.883 10.2 278.883 11.988C278.883 13.8 279.795 15.192 281.859 15.192C283.851 15.192 284.547 14.064 284.667 13.152H283.791C283.611 13.908 283.071 14.46 281.895 14.46ZM281.871 9.54C282.987 9.54 283.695 10.116 283.743 11.496H279.855C279.987 10.08 280.731 9.54 281.871 9.54ZM290.766 10.032C290.358 9.264 289.626 8.832 288.534 8.832C286.65 8.832 285.762 10.008 285.762 11.844C285.762 13.692 286.65 14.868 288.534 14.868C289.614 14.868 290.358 14.484 290.766 13.704V15C290.766 16.284 290.178 16.776 288.762 16.776C287.43 16.776 286.926 16.176 286.854 15.384H285.906C286.014 16.752 286.974 17.532 288.762 17.532C290.946 17.532 291.726 16.608 291.726 15.012V9H290.766V10.032ZM288.762 14.112C287.394 14.112 286.746 13.464 286.746 11.844C286.746 10.224 287.394 9.588 288.762 9.588C290.034 9.588 290.766 10.224 290.766 11.844C290.766 13.476 290.034 14.112 288.762 14.112ZM294.478 8.016V7.02H293.242V8.016H294.478ZM294.334 15V9H293.374V15H294.334ZM295.591 12.996C295.615 14.256 296.407 15.192 298.363 15.192C299.959 15.192 300.811 14.592 300.811 13.368C300.811 12.384 300.307 11.796 298.927 11.592L297.655 11.412C296.899 11.304 296.683 10.944 296.683 10.524C296.683 9.936 297.103 9.528 298.123 9.528C299.227 9.528 299.683 10.092 299.743 10.716H300.691C300.619 9.588 299.719 8.796 298.147 8.796C296.635 8.796 295.747 9.48 295.747 10.596C295.747 11.52 296.335 12.072 297.379 12.216L298.771 12.42C299.527 12.528 299.863 12.84 299.863 13.416C299.863 14.088 299.443 14.46 298.387 14.46C297.007 14.46 296.551 13.812 296.479 12.996H295.591ZM305.371 15V14.22H303.463V9.756H305.443V9H303.463V7.668H302.947L302.587 8.916L301.363 9.216V9.756H302.503V13.596C302.503 14.556 302.803 15 303.955 15H305.371ZM309.106 14.46C307.906 14.46 307.114 13.86 307.042 12.216H311.866C311.89 12.072 311.89 11.952 311.89 11.796C311.89 10.044 310.87 8.808 309.07 8.808C307.078 8.808 306.094 10.2 306.094 11.988C306.094 13.8 307.006 15.192 309.07 15.192C311.062 15.192 311.758 14.064 311.878 13.152H311.002C310.822 13.908 310.282 14.46 309.106 14.46ZM309.082 9.54C310.198 9.54 310.906 10.116 310.954 11.496H307.066C307.198 10.08 307.942 9.54 309.082 9.54ZM316.276 8.916C315.136 8.916 314.44 9.588 314.08 10.584V9H313.12V15H314.08V12.792C314.08 11.1 314.464 9.804 316.24 9.864H316.492V8.916H316.276ZM320.063 14.46C318.863 14.46 318.071 13.86 317.999 12.216H322.823C322.847 12.072 322.847 11.952 322.847 11.796C322.847 10.044 321.827 8.808 320.027 8.808C318.035 8.808 317.051 10.2 317.051 11.988C317.051 13.8 317.963 15.192 320.027 15.192C322.019 15.192 322.715 14.064 322.835 13.152H321.959C321.779 13.908 321.239 14.46 320.063 14.46ZM320.039 9.54C321.155 9.54 321.863 10.116 321.911 11.496H318.023C318.155 10.08 318.899 9.54 320.039 9.54ZM328.911 10.14C328.503 9.288 327.747 8.808 326.643 8.808C324.759 8.808 323.895 10.152 323.895 12C323.895 13.836 324.759 15.192 326.643 15.192C327.747 15.192 328.503 14.7 328.911 13.848V15H329.871V6.6H328.911V10.14ZM326.835 14.412C325.467 14.412 324.867 13.608 324.867 12C324.867 10.38 325.467 9.588 326.835 9.588C328.107 9.588 328.911 10.308 328.911 12C328.911 13.692 328.107 14.412 326.835 14.412Z" fill="black"/>
</svg>
