<svg width="644" height="23" viewBox="0 0 644 23" fill="none" xmlns="http://www.w3.org/2000/svg">
<rect width="644" height="23" rx="11.5" fill="#FF7373"/>
<path d="M46.6772 7.02V7.824H49.5573V15.012H50.5413V7.824H53.3973V7.02H46.6772ZM57.6048 8.808C56.4168 8.808 55.6728 9.48 55.3008 10.572V6.6H54.3408V15H55.3008V12.708C55.3008 10.644 56.0088 9.612 57.3408 9.612C58.2168 9.612 58.7808 9.996 58.7808 11.28V15H59.7408V11.172C59.7408 9.624 59.1048 8.808 57.6048 8.808ZM63.92 14.46C62.72 14.46 61.928 13.86 61.856 12.216H66.68C66.704 12.072 66.704 11.952 66.704 11.796C66.704 10.044 65.684 8.808 63.884 8.808C61.892 8.808 60.908 10.2 60.908 11.988C60.908 13.8 61.82 15.192 63.884 15.192C65.876 15.192 66.572 14.064 66.692 13.152H65.816C65.636 13.908 65.096 14.46 63.92 14.46ZM63.896 9.54C65.012 9.54 65.72 10.116 65.768 11.496H61.88C62.012 10.08 62.756 9.54 63.896 9.54ZM73.5294 14.46C72.3294 14.46 71.5374 13.86 71.4654 12.216H76.2894C76.3134 12.072 76.3134 11.952 76.3134 11.796C76.3134 10.044 75.2934 8.808 73.4934 8.808C71.5014 8.808 70.5174 10.2 70.5174 11.988C70.5174 13.8 71.4294 15.192 73.4934 15.192C75.4854 15.192 76.1814 14.064 76.3014 13.152H75.4254C75.2454 13.908 74.7054 14.46 73.5294 14.46ZM73.5054 9.54C74.6214 9.54 75.3294 10.116 75.3774 11.496H71.4894C71.6214 10.08 72.3654 9.54 73.5054 9.54ZM84.9 8.808C83.7 8.808 83.004 9.444 82.656 10.5C82.488 9.384 81.852 8.808 80.688 8.808C79.536 8.808 78.852 9.444 78.504 10.476V9H77.544V15H78.504V12.708C78.504 10.644 79.104 9.612 80.388 9.612C81.264 9.612 81.768 10.032 81.768 11.244V15H82.704V12.708C82.704 10.644 83.292 9.612 84.6 9.612C85.476 9.612 85.968 10.032 85.968 11.244V15H86.928V11.136C86.928 9.6 86.268 8.808 84.9 8.808ZM90.2658 15.156C91.6578 15.156 92.2938 14.316 92.5218 13.596C92.5218 14.04 92.5578 14.484 92.6058 15H93.4818C93.4218 14.412 93.4098 13.944 93.4098 13.512V10.632C93.4098 9.552 92.6658 8.796 91.0218 8.796C89.3658 8.796 88.4658 9.612 88.4298 10.884H89.3778C89.4378 10.104 89.8818 9.552 91.0578 9.552C92.2218 9.552 92.5338 10.02 92.5338 10.632C92.5338 11.088 92.2698 11.256 91.6338 11.364L90.1098 11.616C88.8138 11.832 88.2858 12.444 88.2858 13.416C88.2858 14.556 89.1138 15.156 90.2658 15.156ZM90.4578 14.4C89.7498 14.4 89.2578 14.064 89.2578 13.38C89.2578 12.732 89.6418 12.42 90.4578 12.252L91.4538 12.048C91.9098 11.952 92.2338 11.856 92.5338 11.64V12.156C92.5338 13.296 91.8738 14.4 90.4578 14.4ZM96.0972 8.016V7.02H94.8612V8.016H96.0972ZM95.9532 15V9H94.9932V15H95.9532ZM98.6248 15V6.6H97.6648V15H98.6248ZM105.744 13.62L105.564 14.196L105.36 13.62L103.524 9H102.516L104.892 15H105.228L104.568 16.62H102.9V17.4H104.04C105.12 17.4 105.36 16.956 105.732 15.996L108.552 9H107.604L105.744 13.62ZM112.073 15.192C114.089 15.192 115.085 13.788 115.085 11.988C115.085 10.212 114.089 8.808 112.073 8.808C110.045 8.808 109.049 10.2 109.049 11.988C109.049 13.8 110.045 15.192 112.073 15.192ZM110.021 12C110.021 10.308 110.717 9.588 112.073 9.588C113.429 9.588 114.113 10.308 114.113 12C114.113 13.68 113.429 14.412 112.073 14.412C110.717 14.412 110.021 13.68 110.021 12ZM120.747 11.292C120.747 13.284 120.039 14.4 118.791 14.4C117.867 14.4 117.279 14.052 117.279 12.72V9H116.319V12.828C116.319 14.4 117.003 15.192 118.515 15.192C119.679 15.192 120.387 14.544 120.747 13.476V15H121.707V9H120.747V11.292ZM128.865 14.46C127.665 14.46 126.873 13.86 126.801 12.216H131.625C131.649 12.072 131.649 11.952 131.649 11.796C131.649 10.044 130.629 8.808 128.829 8.808C126.837 8.808 125.853 10.2 125.853 11.988C125.853 13.8 126.765 15.192 128.829 15.192C130.821 15.192 131.517 14.064 131.637 13.152H130.761C130.581 13.908 130.041 14.46 128.865 14.46ZM128.841 9.54C129.957 9.54 130.665 10.116 130.713 11.496H126.825C126.957 10.08 127.701 9.54 128.841 9.54ZM136.144 8.808C134.956 8.808 134.212 9.48 133.84 10.572V9H132.88V15H133.84V12.708C133.84 10.644 134.548 9.612 135.88 9.612C136.756 9.612 137.32 9.996 137.32 11.28V15H138.28V11.172C138.28 9.624 137.644 8.808 136.144 8.808ZM143.166 15V14.22H141.258V9.756H143.238V9H141.258V7.668H140.742L140.382 8.916L139.158 9.216V9.756H140.298V13.596C140.298 14.556 140.598 15 141.75 15H143.166ZM146.901 14.46C145.701 14.46 144.909 13.86 144.837 12.216H149.661C149.685 12.072 149.685 11.952 149.685 11.796C149.685 10.044 148.665 8.808 146.865 8.808C144.873 8.808 143.889 10.2 143.889 11.988C143.889 13.8 144.801 15.192 146.865 15.192C148.857 15.192 149.553 14.064 149.673 13.152H148.797C148.617 13.908 148.077 14.46 146.901 14.46ZM146.877 9.54C147.993 9.54 148.701 10.116 148.749 11.496H144.861C144.993 10.08 145.737 9.54 146.877 9.54ZM154.071 8.916C152.931 8.916 152.235 9.588 151.875 10.584V9H150.915V15H151.875V12.792C151.875 11.1 152.259 9.804 154.035 9.864H154.287V8.916H154.071ZM157.858 14.46C156.658 14.46 155.866 13.86 155.794 12.216H160.618C160.642 12.072 160.642 11.952 160.642 11.796C160.642 10.044 159.622 8.808 157.822 8.808C155.83 8.808 154.846 10.2 154.846 11.988C154.846 13.8 155.758 15.192 157.822 15.192C159.814 15.192 160.51 14.064 160.63 13.152H159.754C159.574 13.908 159.034 14.46 157.858 14.46ZM157.834 9.54C158.95 9.54 159.658 10.116 159.706 11.496H155.818C155.95 10.08 156.694 9.54 157.834 9.54ZM166.706 10.14C166.298 9.288 165.542 8.808 164.438 8.808C162.554 8.808 161.69 10.152 161.69 12C161.69 13.836 162.554 15.192 164.438 15.192C165.542 15.192 166.298 14.7 166.706 13.848V15H167.666V6.6H166.706V10.14ZM164.63 14.412C163.262 14.412 162.662 13.608 162.662 12C162.662 10.38 163.262 9.588 164.63 9.588C165.902 9.588 166.706 10.308 166.706 12C166.706 13.692 165.902 14.412 164.63 14.412ZM173.195 8.016V7.02H171.959V8.016H173.195ZM173.051 15V9H172.091V15H173.051ZM174.308 12.996C174.332 14.256 175.124 15.192 177.08 15.192C178.676 15.192 179.528 14.592 179.528 13.368C179.528 12.384 179.024 11.796 177.644 11.592L176.372 11.412C175.616 11.304 175.4 10.944 175.4 10.524C175.4 9.936 175.82 9.528 176.84 9.528C177.944 9.528 178.4 10.092 178.46 10.716H179.408C179.336 9.588 178.436 8.796 176.864 8.796C175.352 8.796 174.464 9.48 174.464 10.596C174.464 11.52 175.052 12.072 176.096 12.216L177.488 12.42C178.244 12.528 178.58 12.84 178.58 13.416C178.58 14.088 178.16 14.46 177.104 14.46C175.724 14.46 175.268 13.812 175.196 12.996H174.308ZM184.558 15V6.6H183.598V15H184.558ZM187.398 8.016V7.02H186.162V8.016H187.398ZM187.254 15V9H186.294V15H187.254ZM192.16 8.808C190.972 8.808 190.228 9.48 189.856 10.572V9H188.896V15H189.856V12.708C189.856 10.644 190.564 9.612 191.896 9.612C192.772 9.612 193.336 9.996 193.336 11.28V15H194.296V11.172C194.296 9.624 193.66 8.808 192.16 8.808ZM201.568 15L198.688 11.532L201.316 9.024V9H200.128L197.428 11.592C197.236 11.772 197.032 11.988 196.852 12.216V6.6H195.892V15H196.852V13.284L198.088 12.108L200.356 15H201.568ZM204.932 14.46C203.732 14.46 202.94 13.86 202.868 12.216H207.692C207.716 12.072 207.716 11.952 207.716 11.796C207.716 10.044 206.696 8.808 204.896 8.808C202.904 8.808 201.92 10.2 201.92 11.988C201.92 13.8 202.832 15.192 204.896 15.192C206.888 15.192 207.584 14.064 207.704 13.152H206.828C206.648 13.908 206.108 14.46 204.932 14.46ZM204.908 9.54C206.024 9.54 206.732 10.116 206.78 11.496H202.892C203.024 10.08 203.768 9.54 204.908 9.54ZM213.78 10.14C213.372 9.288 212.616 8.808 211.512 8.808C209.628 8.808 208.764 10.152 208.764 12C208.764 13.836 209.628 15.192 211.512 15.192C212.616 15.192 213.372 14.7 213.78 13.848V15H214.74V6.6H213.78V10.14ZM211.704 14.412C210.336 14.412 209.736 13.608 209.736 12C209.736 10.38 210.336 9.588 211.704 9.588C212.976 9.588 213.78 10.308 213.78 12C213.78 13.692 212.976 14.412 211.704 14.412ZM222.537 15V14.22H220.629V9.756H222.609V9H220.629V7.668H220.113L219.753 8.916L218.529 9.216V9.756H219.669V13.596C219.669 14.556 219.969 15 221.121 15H222.537ZM226.284 15.192C228.3 15.192 229.296 13.788 229.296 11.988C229.296 10.212 228.3 8.808 226.284 8.808C224.256 8.808 223.26 10.2 223.26 11.988C223.26 13.8 224.256 15.192 226.284 15.192ZM224.232 12C224.232 10.308 224.928 9.588 226.284 9.588C227.64 9.588 228.324 10.308 228.324 12C228.324 13.68 227.64 14.412 226.284 14.412C224.928 14.412 224.232 13.68 224.232 12ZM239.271 7.02H233.379V15H234.375V11.352H238.911V10.56H234.375V7.824H239.271V7.02ZM242.012 15.156C243.404 15.156 244.04 14.316 244.268 13.596C244.268 14.04 244.304 14.484 244.352 15H245.228C245.168 14.412 245.156 13.944 245.156 13.512V10.632C245.156 9.552 244.412 8.796 242.768 8.796C241.112 8.796 240.212 9.612 240.176 10.884H241.124C241.184 10.104 241.628 9.552 242.804 9.552C243.968 9.552 244.28 10.02 244.28 10.632C244.28 11.088 244.016 11.256 243.38 11.364L241.856 11.616C240.56 11.832 240.032 12.444 240.032 13.416C240.032 14.556 240.86 15.156 242.012 15.156ZM242.204 14.4C241.496 14.4 241.004 14.064 241.004 13.38C241.004 12.732 241.388 12.42 242.204 12.252L243.2 12.048C243.656 11.952 243.98 11.856 244.28 11.64V12.156C244.28 13.296 243.62 14.4 242.204 14.4ZM246.381 12C246.381 13.836 247.413 15.192 249.381 15.192C251.205 15.192 252.177 14.088 252.249 12.708H251.337C251.217 13.728 250.593 14.412 249.381 14.412C248.121 14.412 247.353 13.74 247.353 12C247.353 10.272 248.145 9.588 249.417 9.588C250.533 9.588 251.133 10.212 251.277 11.196H252.177C252.081 9.804 251.181 8.808 249.381 8.808C247.437 8.808 246.381 10.164 246.381 12ZM256.201 14.46C255.001 14.46 254.209 13.86 254.137 12.216H258.961C258.985 12.072 258.985 11.952 258.985 11.796C258.985 10.044 257.965 8.808 256.165 8.808C254.173 8.808 253.189 10.2 253.189 11.988C253.189 13.8 254.101 15.192 256.165 15.192C258.157 15.192 258.853 14.064 258.973 13.152H258.097C257.917 13.908 257.377 14.46 256.201 14.46ZM256.177 9.54C257.293 9.54 258.001 10.116 258.049 11.496H254.161C254.293 10.08 255.037 9.54 256.177 9.54ZM263.478 8.808C262.374 8.808 261.618 9.288 261.21 10.14V6.6H260.25V15H261.21V13.848C261.618 14.7 262.374 15.192 263.478 15.192C265.362 15.192 266.226 13.836 266.226 12C266.226 10.152 265.362 8.808 263.478 8.808ZM263.286 14.412C262.014 14.412 261.21 13.692 261.21 12C261.21 10.308 262.014 9.588 263.286 9.588C264.654 9.588 265.254 10.38 265.254 12C265.254 13.608 264.654 14.412 263.286 14.412ZM270.288 15.192C272.304 15.192 273.299 13.788 273.299 11.988C273.299 10.212 272.304 8.808 270.288 8.808C268.26 8.808 267.264 10.2 267.264 11.988C267.264 13.8 268.26 15.192 270.288 15.192ZM268.236 12C268.236 10.308 268.932 9.588 270.288 9.588C271.644 9.588 272.328 10.308 272.328 12C272.328 13.68 271.644 14.412 270.288 14.412C268.932 14.412 268.236 13.68 268.236 12ZM277.33 15.192C279.346 15.192 280.342 13.788 280.342 11.988C280.342 10.212 279.346 8.808 277.33 8.808C275.302 8.808 274.306 10.2 274.306 11.988C274.306 13.8 275.302 15.192 277.33 15.192ZM275.278 12C275.278 10.308 275.974 9.588 277.33 9.588C278.686 9.588 279.37 10.308 279.37 12C279.37 13.68 278.686 14.412 277.33 14.412C275.974 14.412 275.278 13.68 275.278 12ZM287.279 15L284.399 11.532L287.027 9.024V9H285.839L283.139 11.592C282.947 11.772 282.743 11.988 282.563 12.216V6.6H281.603V15H282.563V13.284L283.799 12.108L286.067 15H287.279ZM292.918 15.156C294.31 15.156 294.946 14.316 295.174 13.596C295.174 14.04 295.21 14.484 295.258 15H296.134C296.074 14.412 296.062 13.944 296.062 13.512V10.632C296.062 9.552 295.318 8.796 293.674 8.796C292.018 8.796 291.118 9.612 291.082 10.884H292.03C292.09 10.104 292.534 9.552 293.71 9.552C294.874 9.552 295.186 10.02 295.186 10.632C295.186 11.088 294.922 11.256 294.286 11.364L292.762 11.616C291.466 11.832 290.938 12.444 290.938 13.416C290.938 14.556 291.766 15.156 292.918 15.156ZM293.11 14.4C292.402 14.4 291.91 14.064 291.91 13.38C291.91 12.732 292.294 12.42 293.11 12.252L294.106 12.048C294.562 11.952 294.886 11.856 295.186 11.64V12.156C295.186 13.296 294.526 14.4 293.11 14.4ZM297.287 12C297.287 13.836 298.319 15.192 300.287 15.192C302.111 15.192 303.083 14.088 303.155 12.708H302.243C302.123 13.728 301.499 14.412 300.287 14.412C299.027 14.412 298.259 13.74 298.259 12C298.259 10.272 299.051 9.588 300.323 9.588C301.439 9.588 302.039 10.212 302.183 11.196H303.083C302.987 9.804 302.087 8.808 300.287 8.808C298.343 8.808 297.287 10.164 297.287 12ZM304.096 12C304.096 13.836 305.128 15.192 307.096 15.192C308.92 15.192 309.892 14.088 309.964 12.708H309.052C308.932 13.728 308.308 14.412 307.096 14.412C305.836 14.412 305.068 13.74 305.068 12C305.068 10.272 305.86 9.588 307.132 9.588C308.248 9.588 308.848 10.212 308.992 11.196H309.892C309.796 9.804 308.896 8.808 307.096 8.808C305.152 8.808 304.096 10.164 304.096 12ZM313.928 15.192C315.944 15.192 316.94 13.788 316.94 11.988C316.94 10.212 315.944 8.808 313.928 8.808C311.9 8.808 310.904 10.2 310.904 11.988C310.904 13.8 311.9 15.192 313.928 15.192ZM311.876 12C311.876 10.308 312.572 9.588 313.928 9.588C315.284 9.588 315.968 10.308 315.968 12C315.968 13.68 315.284 14.412 313.928 14.412C312.572 14.412 311.876 13.68 311.876 12ZM322.602 11.292C322.602 13.284 321.894 14.4 320.646 14.4C319.722 14.4 319.134 14.052 319.134 12.72V9H318.174V12.828C318.174 14.4 318.858 15.192 320.37 15.192C321.534 15.192 322.242 14.544 322.602 13.476V15H323.562V9H322.602V11.292ZM328.46 8.808C327.272 8.808 326.528 9.48 326.156 10.572V9H325.196V15H326.156V12.708C326.156 10.644 326.864 9.612 328.196 9.612C329.072 9.612 329.636 9.996 329.636 11.28V15H330.596V11.172C330.596 9.624 329.96 8.808 328.46 8.808ZM335.482 15V14.22H333.574V9.756H335.554V9H333.574V7.668H333.058L332.698 8.916L331.474 9.216V9.756H332.614V13.596C332.614 14.556 332.914 15 334.066 15H335.482ZM336.903 14.952V15.972H336.291V16.596H336.543C337.227 16.596 337.527 16.356 337.527 15.696V13.944H336.291V14.952H336.903ZM344.549 8.808C343.445 8.808 342.689 9.3 342.281 10.152V9H341.321V17.4H342.281V13.86C342.689 14.712 343.445 15.192 344.549 15.192C346.433 15.192 347.297 13.848 347.297 12C347.297 10.164 346.433 8.808 344.549 8.808ZM344.357 14.412C343.085 14.412 342.281 13.692 342.281 12C342.281 10.308 343.085 9.588 344.357 9.588C345.725 9.588 346.325 10.392 346.325 12C346.325 13.62 345.725 14.412 344.357 14.412ZM349.582 15V6.6H348.622V15H349.582ZM353.924 14.46C352.724 14.46 351.932 13.86 351.86 12.216H356.684C356.708 12.072 356.708 11.952 356.708 11.796C356.708 10.044 355.688 8.808 353.888 8.808C351.896 8.808 350.912 10.2 350.912 11.988C350.912 13.8 351.824 15.192 353.888 15.192C355.88 15.192 356.576 14.064 356.696 13.152H355.82C355.64 13.908 355.1 14.46 353.924 14.46ZM353.9 9.54C355.016 9.54 355.724 10.116 355.772 11.496H351.884C352.016 10.08 352.76 9.54 353.9 9.54ZM359.797 15.156C361.189 15.156 361.825 14.316 362.053 13.596C362.053 14.04 362.089 14.484 362.137 15H363.013C362.953 14.412 362.941 13.944 362.941 13.512V10.632C362.941 9.552 362.197 8.796 360.553 8.796C358.897 8.796 357.997 9.612 357.961 10.884H358.909C358.969 10.104 359.413 9.552 360.589 9.552C361.753 9.552 362.065 10.02 362.065 10.632C362.065 11.088 361.801 11.256 361.165 11.364L359.641 11.616C358.345 11.832 357.817 12.444 357.817 13.416C357.817 14.556 358.645 15.156 359.797 15.156ZM359.989 14.4C359.281 14.4 358.789 14.064 358.789 13.38C358.789 12.732 359.173 12.42 359.989 12.252L360.985 12.048C361.441 11.952 361.765 11.856 362.065 11.64V12.156C362.065 13.296 361.405 14.4 359.989 14.4ZM364.14 12.996C364.164 14.256 364.956 15.192 366.912 15.192C368.508 15.192 369.36 14.592 369.36 13.368C369.36 12.384 368.856 11.796 367.476 11.592L366.204 11.412C365.448 11.304 365.232 10.944 365.232 10.524C365.232 9.936 365.652 9.528 366.672 9.528C367.776 9.528 368.232 10.092 368.292 10.716H369.24C369.168 9.588 368.268 8.796 366.696 8.796C365.184 8.796 364.296 9.48 364.296 10.596C364.296 11.52 364.884 12.072 365.928 12.216L367.32 12.42C368.076 12.528 368.412 12.84 368.412 13.416C368.412 14.088 367.992 14.46 366.936 14.46C365.556 14.46 365.1 13.812 365.028 12.996H364.14ZM373.401 14.46C372.201 14.46 371.409 13.86 371.337 12.216H376.161C376.185 12.072 376.185 11.952 376.185 11.796C376.185 10.044 375.165 8.808 373.365 8.808C371.373 8.808 370.389 10.2 370.389 11.988C370.389 13.8 371.301 15.192 373.365 15.192C375.357 15.192 376.053 14.064 376.173 13.152H375.297C375.117 13.908 374.577 14.46 373.401 14.46ZM373.377 9.54C374.493 9.54 375.201 10.116 375.249 11.496H371.361C371.493 10.08 372.237 9.54 373.377 9.54ZM384.606 11.292C384.606 13.284 383.898 14.4 382.65 14.4C381.726 14.4 381.138 14.052 381.138 12.72V9H380.178V12.828C380.178 14.4 380.862 15.192 382.374 15.192C383.538 15.192 384.246 14.544 384.606 13.476V15H385.566V9H384.606V11.292ZM386.815 12.996C386.839 14.256 387.631 15.192 389.587 15.192C391.183 15.192 392.035 14.592 392.035 13.368C392.035 12.384 391.531 11.796 390.151 11.592L388.879 11.412C388.123 11.304 387.907 10.944 387.907 10.524C387.907 9.936 388.327 9.528 389.347 9.528C390.451 9.528 390.907 10.092 390.967 10.716H391.915C391.843 9.588 390.943 8.796 389.371 8.796C387.859 8.796 386.971 9.48 386.971 10.596C386.971 11.52 387.559 12.072 388.603 12.216L389.995 12.42C390.751 12.528 391.087 12.84 391.087 13.416C391.087 14.088 390.667 14.46 389.611 14.46C388.231 14.46 387.775 13.812 387.703 12.996H386.815ZM396.076 14.46C394.876 14.46 394.084 13.86 394.012 12.216H398.836C398.86 12.072 398.86 11.952 398.86 11.796C398.86 10.044 397.84 8.808 396.04 8.808C394.048 8.808 393.064 10.2 393.064 11.988C393.064 13.8 393.976 15.192 396.04 15.192C398.032 15.192 398.728 14.064 398.848 13.152H397.972C397.792 13.908 397.252 14.46 396.076 14.46ZM396.052 9.54C397.168 9.54 397.876 10.116 397.924 11.496H394.036C394.168 10.08 394.912 9.54 396.052 9.54ZM408.806 7.02H402.914V15H403.91V11.352H408.446V10.56H403.91V7.824H408.806V7.02ZM411.547 15.156C412.939 15.156 413.575 14.316 413.803 13.596C413.803 14.04 413.839 14.484 413.887 15H414.763C414.703 14.412 414.691 13.944 414.691 13.512V10.632C414.691 9.552 413.947 8.796 412.303 8.796C410.647 8.796 409.747 9.612 409.711 10.884H410.659C410.719 10.104 411.163 9.552 412.339 9.552C413.503 9.552 413.815 10.02 413.815 10.632C413.815 11.088 413.551 11.256 412.915 11.364L411.391 11.616C410.095 11.832 409.567 12.444 409.567 13.416C409.567 14.556 410.395 15.156 411.547 15.156ZM411.739 14.4C411.031 14.4 410.539 14.064 410.539 13.38C410.539 12.732 410.923 12.42 411.739 12.252L412.735 12.048C413.191 11.952 413.515 11.856 413.815 11.64V12.156C413.815 13.296 413.155 14.4 411.739 14.4ZM415.916 12C415.916 13.836 416.948 15.192 418.916 15.192C420.74 15.192 421.712 14.088 421.784 12.708H420.872C420.752 13.728 420.128 14.412 418.916 14.412C417.656 14.412 416.888 13.74 416.888 12C416.888 10.272 417.68 9.588 418.952 9.588C420.068 9.588 420.668 10.212 420.812 11.196H421.712C421.616 9.804 420.716 8.808 418.916 8.808C416.972 8.808 415.916 10.164 415.916 12ZM425.736 14.46C424.536 14.46 423.744 13.86 423.672 12.216H428.496C428.52 12.072 428.52 11.952 428.52 11.796C428.52 10.044 427.5 8.808 425.7 8.808C423.708 8.808 422.724 10.2 422.724 11.988C422.724 13.8 423.636 15.192 425.7 15.192C427.692 15.192 428.388 14.064 428.508 13.152H427.632C427.452 13.908 426.912 14.46 425.736 14.46ZM425.712 9.54C426.828 9.54 427.536 10.116 427.584 11.496H423.696C423.828 10.08 424.572 9.54 425.712 9.54ZM433.014 8.808C431.91 8.808 431.154 9.288 430.746 10.14V6.6H429.786V15H430.746V13.848C431.154 14.7 431.91 15.192 433.014 15.192C434.898 15.192 435.762 13.836 435.762 12C435.762 10.152 434.898 8.808 433.014 8.808ZM432.822 14.412C431.55 14.412 430.746 13.692 430.746 12C430.746 10.308 431.55 9.588 432.822 9.588C434.19 9.588 434.79 10.38 434.79 12C434.79 13.608 434.19 14.412 432.822 14.412ZM439.823 15.192C441.839 15.192 442.835 13.788 442.835 11.988C442.835 10.212 441.839 8.808 439.823 8.808C437.795 8.808 436.799 10.2 436.799 11.988C436.799 13.8 437.795 15.192 439.823 15.192ZM437.771 12C437.771 10.308 438.467 9.588 439.823 9.588C441.179 9.588 441.863 10.308 441.863 12C441.863 13.68 441.179 14.412 439.823 14.412C438.467 14.412 437.771 13.68 437.771 12ZM446.866 15.192C448.882 15.192 449.878 13.788 449.878 11.988C449.878 10.212 448.882 8.808 446.866 8.808C444.838 8.808 443.842 10.2 443.842 11.988C443.842 13.8 444.838 15.192 446.866 15.192ZM444.814 12C444.814 10.308 445.51 9.588 446.866 9.588C448.222 9.588 448.906 10.308 448.906 12C448.906 13.68 448.222 14.412 446.866 14.412C445.51 14.412 444.814 13.68 444.814 12ZM456.814 15L453.934 11.532L456.562 9.024V9H455.374L452.674 11.592C452.482 11.772 452.278 11.988 452.098 12.216V6.6H451.138V15H452.098V13.284L453.334 12.108L455.602 15H456.814ZM462.453 15.156C463.845 15.156 464.481 14.316 464.709 13.596C464.709 14.04 464.745 14.484 464.793 15H465.669C465.609 14.412 465.597 13.944 465.597 13.512V10.632C465.597 9.552 464.853 8.796 463.209 8.796C461.553 8.796 460.653 9.612 460.617 10.884H461.565C461.625 10.104 462.069 9.552 463.245 9.552C464.409 9.552 464.721 10.02 464.721 10.632C464.721 11.088 464.457 11.256 463.821 11.364L462.297 11.616C461.001 11.832 460.473 12.444 460.473 13.416C460.473 14.556 461.301 15.156 462.453 15.156ZM462.645 14.4C461.937 14.4 461.445 14.064 461.445 13.38C461.445 12.732 461.829 12.42 462.645 12.252L463.641 12.048C464.097 11.952 464.421 11.856 464.721 11.64V12.156C464.721 13.296 464.061 14.4 462.645 14.4ZM466.822 12C466.822 13.836 467.854 15.192 469.822 15.192C471.646 15.192 472.618 14.088 472.69 12.708H471.778C471.658 13.728 471.034 14.412 469.822 14.412C468.562 14.412 467.794 13.74 467.794 12C467.794 10.272 468.586 9.588 469.858 9.588C470.974 9.588 471.574 10.212 471.718 11.196H472.618C472.522 9.804 471.622 8.808 469.822 8.808C467.878 8.808 466.822 10.164 466.822 12ZM473.631 12C473.631 13.836 474.663 15.192 476.631 15.192C478.455 15.192 479.427 14.088 479.499 12.708H478.587C478.467 13.728 477.843 14.412 476.631 14.412C475.371 14.412 474.603 13.74 474.603 12C474.603 10.272 475.395 9.588 476.667 9.588C477.783 9.588 478.383 10.212 478.527 11.196H479.427C479.331 9.804 478.431 8.808 476.631 8.808C474.687 8.808 473.631 10.164 473.631 12ZM483.463 15.192C485.479 15.192 486.475 13.788 486.475 11.988C486.475 10.212 485.479 8.808 483.463 8.808C481.435 8.808 480.439 10.2 480.439 11.988C480.439 13.8 481.435 15.192 483.463 15.192ZM481.411 12C481.411 10.308 482.107 9.588 483.463 9.588C484.819 9.588 485.503 10.308 485.503 12C485.503 13.68 484.819 14.412 483.463 14.412C482.107 14.412 481.411 13.68 481.411 12ZM492.137 11.292C492.137 13.284 491.429 14.4 490.181 14.4C489.257 14.4 488.669 14.052 488.669 12.72V9H487.709V12.828C487.709 14.4 488.393 15.192 489.905 15.192C491.069 15.192 491.777 14.544 492.137 13.476V15H493.097V9H492.137V11.292ZM497.995 8.808C496.807 8.808 496.063 9.48 495.691 10.572V9H494.731V15H495.691V12.708C495.691 10.644 496.399 9.612 497.731 9.612C498.607 9.612 499.171 9.996 499.171 11.28V15H500.131V11.172C500.131 9.624 499.495 8.808 497.995 8.808ZM505.018 15V14.22H503.11V9.756H505.09V9H503.11V7.668H502.594L502.234 8.916L501.01 9.216V9.756H502.15V13.596C502.15 14.556 502.45 15 503.602 15H505.018ZM512.232 8.808C511.128 8.808 510.372 9.288 509.964 10.14V6.6H509.004V15H509.964V13.848C510.372 14.7 511.128 15.192 512.232 15.192C514.116 15.192 514.98 13.836 514.98 12C514.98 10.152 514.116 8.808 512.232 8.808ZM512.04 14.412C510.768 14.412 509.964 13.692 509.964 12C509.964 10.308 510.768 9.588 512.04 9.588C513.408 9.588 514.008 10.38 514.008 12C514.008 13.608 513.408 14.412 512.04 14.412ZM520.696 11.292C520.696 13.284 519.988 14.4 518.74 14.4C517.816 14.4 517.228 14.052 517.228 12.72V9H516.268V12.828C516.268 14.4 516.952 15.192 518.464 15.192C519.628 15.192 520.336 14.544 520.696 13.476V15H521.656V9H520.696V11.292ZM526.627 15V14.22H524.719V9.756H526.699V9H524.719V7.668H524.203L523.843 8.916L522.619 9.216V9.756H523.759V13.596C523.759 14.556 524.059 15 525.211 15H526.627ZM531.174 15V14.22H529.266V9.756H531.246V9H529.266V7.668H528.75L528.39 8.916L527.166 9.216V9.756H528.306V13.596C528.306 14.556 528.606 15 529.758 15H531.174ZM534.92 15.192C536.936 15.192 537.932 13.788 537.932 11.988C537.932 10.212 536.936 8.808 534.92 8.808C532.892 8.808 531.896 10.2 531.896 11.988C531.896 13.8 532.892 15.192 534.92 15.192ZM532.868 12C532.868 10.308 533.564 9.588 534.92 9.588C536.276 9.588 536.96 10.308 536.96 12C536.96 13.68 536.276 14.412 534.92 14.412C533.564 14.412 532.868 13.68 532.868 12ZM542.456 8.808C541.268 8.808 540.524 9.48 540.152 10.572V9H539.192V15H540.152V12.708C540.152 10.644 540.86 9.612 542.192 9.612C543.068 9.612 543.632 9.996 543.632 11.28V15H544.592V11.172C544.592 9.624 543.956 8.808 542.456 8.808ZM552.291 15V14.22H550.383V9.756H552.363V9H550.383V7.668H549.867L549.507 8.916L548.283 9.216V9.756H549.423V13.596C549.423 14.556 549.723 15 550.875 15H552.291ZM556.038 15.192C558.054 15.192 559.049 13.788 559.049 11.988C559.049 10.212 558.054 8.808 556.038 8.808C554.01 8.808 553.014 10.2 553.014 11.988C553.014 13.8 554.01 15.192 556.038 15.192ZM553.986 12C553.986 10.308 554.682 9.588 556.038 9.588C557.394 9.588 558.078 10.308 558.078 12C558.078 13.68 557.394 14.412 556.038 14.412C554.682 14.412 553.986 13.68 553.986 12ZM562.772 12.996C562.796 14.256 563.588 15.192 565.544 15.192C567.14 15.192 567.992 14.592 567.992 13.368C567.992 12.384 567.488 11.796 566.108 11.592L564.836 11.412C564.08 11.304 563.864 10.944 563.864 10.524C563.864 9.936 564.284 9.528 565.304 9.528C566.408 9.528 566.864 10.092 566.924 10.716H567.872C567.8 9.588 566.9 8.796 565.328 8.796C563.816 8.796 562.928 9.48 562.928 10.596C562.928 11.52 563.516 12.072 564.56 12.216L565.952 12.42C566.708 12.528 567.044 12.84 567.044 13.416C567.044 14.088 566.624 14.46 565.568 14.46C564.188 14.46 563.732 13.812 563.66 12.996H562.772ZM570.414 8.016V7.02H569.178V8.016H570.414ZM570.27 15V9H569.31V15H570.27ZM576.662 10.032C576.254 9.264 575.522 8.832 574.43 8.832C572.546 8.832 571.658 10.008 571.658 11.844C571.658 13.692 572.546 14.868 574.43 14.868C575.51 14.868 576.254 14.484 576.662 13.704V15C576.662 16.284 576.074 16.776 574.658 16.776C573.326 16.776 572.822 16.176 572.75 15.384H571.802C571.91 16.752 572.87 17.532 574.658 17.532C576.842 17.532 577.622 16.608 577.622 15.012V9H576.662V10.032ZM574.658 14.112C573.29 14.112 572.642 13.464 572.642 11.844C572.642 10.224 573.29 9.588 574.658 9.588C575.93 9.588 576.662 10.224 576.662 11.844C576.662 13.476 575.93 14.112 574.658 14.112ZM582.499 8.808C581.311 8.808 580.567 9.48 580.195 10.572V9H579.235V15H580.195V12.708C580.195 10.644 580.903 9.612 582.235 9.612C583.111 9.612 583.675 9.996 583.675 11.28V15H584.635V11.172C584.635 9.624 583.999 8.808 582.499 8.808ZM590.066 8.016V7.02H588.83V8.016H590.066ZM589.922 15V9H588.962V15H589.922ZM594.828 8.808C593.64 8.808 592.896 9.48 592.524 10.572V9H591.564V15H592.524V12.708C592.524 10.644 593.232 9.612 594.564 9.612C595.44 9.612 596.004 9.996 596.004 11.28V15H596.964V11.172C596.964 9.624 596.328 8.808 594.828 8.808Z" fill="black"/>
</svg>
