<svg width="644" height="23" viewBox="0 0 644 23" fill="none" xmlns="http://www.w3.org/2000/svg">
<rect width="644" height="23" rx="11.5" fill="#FF7373"/>
<path d="M61.2905 7.02V7.824H64.1705V15.012H65.1545V7.824H68.0105V7.02H61.2905ZM72.2181 8.808C71.0301 8.808 70.2861 9.48 69.9141 10.572V6.6H68.9541V15H69.9141V12.708C69.9141 10.644 70.6221 9.612 71.9541 9.612C72.8301 9.612 73.3941 9.996 73.3941 11.28V15H74.3541V11.172C74.3541 9.624 73.7181 8.808 72.2181 8.808ZM78.5333 14.46C77.3333 14.46 76.5413 13.86 76.4693 12.216H81.2933C81.3173 12.072 81.3173 11.952 81.3173 11.796C81.3173 10.044 80.2973 8.808 78.4973 8.808C76.5053 8.808 75.5213 10.2 75.5213 11.988C75.5213 13.8 76.4333 15.192 78.4973 15.192C80.4893 15.192 81.1853 14.064 81.3053 13.152H80.4293C80.2493 13.908 79.7093 14.46 78.5333 14.46ZM78.5093 9.54C79.6253 9.54 80.3333 10.116 80.3813 11.496H76.4933C76.6253 10.08 77.3693 9.54 78.5093 9.54ZM88.1427 14.46C86.9427 14.46 86.1507 13.86 86.0787 12.216H90.9027C90.9267 12.072 90.9267 11.952 90.9267 11.796C90.9267 10.044 89.9067 8.808 88.1067 8.808C86.1147 8.808 85.1307 10.2 85.1307 11.988C85.1307 13.8 86.0427 15.192 88.1067 15.192C90.0987 15.192 90.7947 14.064 90.9147 13.152H90.0387C89.8587 13.908 89.3187 14.46 88.1427 14.46ZM88.1187 9.54C89.2347 9.54 89.9427 10.116 89.9907 11.496H86.1027C86.2347 10.08 86.9787 9.54 88.1187 9.54ZM99.5133 8.808C98.3133 8.808 97.6172 9.444 97.2693 10.5C97.1013 9.384 96.4653 8.808 95.3013 8.808C94.1493 8.808 93.4653 9.444 93.1173 10.476V9H92.1573V15H93.1173V12.708C93.1173 10.644 93.7173 9.612 95.0013 9.612C95.8773 9.612 96.3813 10.032 96.3813 11.244V15H97.3173V12.708C97.3173 10.644 97.9053 9.612 99.2133 9.612C100.089 9.612 100.581 10.032 100.581 11.244V15H101.541V11.136C101.541 9.6 100.881 8.808 99.5133 8.808ZM104.879 15.156C106.271 15.156 106.907 14.316 107.135 13.596C107.135 14.04 107.171 14.484 107.219 15H108.095C108.035 14.412 108.023 13.944 108.023 13.512V10.632C108.023 9.552 107.279 8.796 105.635 8.796C103.979 8.796 103.079 9.612 103.043 10.884H103.991C104.051 10.104 104.495 9.552 105.671 9.552C106.835 9.552 107.147 10.02 107.147 10.632C107.147 11.088 106.883 11.256 106.247 11.364L104.723 11.616C103.427 11.832 102.899 12.444 102.899 13.416C102.899 14.556 103.727 15.156 104.879 15.156ZM105.071 14.4C104.363 14.4 103.871 14.064 103.871 13.38C103.871 12.732 104.255 12.42 105.071 12.252L106.067 12.048C106.523 11.952 106.847 11.856 107.147 11.64V12.156C107.147 13.296 106.487 14.4 105.071 14.4ZM110.71 8.016V7.02H109.474V8.016H110.71ZM110.566 15V9H109.606V15H110.566ZM113.238 15V6.6H112.278V15H113.238ZM120.357 13.62L120.177 14.196L119.973 13.62L118.137 9H117.129L119.505 15H119.841L119.181 16.62H117.513V17.4H118.653C119.733 17.4 119.973 16.956 120.345 15.996L123.165 9H122.217L120.357 13.62ZM126.686 15.192C128.702 15.192 129.698 13.788 129.698 11.988C129.698 10.212 128.702 8.808 126.686 8.808C124.658 8.808 123.662 10.2 123.662 11.988C123.662 13.8 124.658 15.192 126.686 15.192ZM124.634 12C124.634 10.308 125.33 9.588 126.686 9.588C128.042 9.588 128.726 10.308 128.726 12C128.726 13.68 128.042 14.412 126.686 14.412C125.33 14.412 124.634 13.68 124.634 12ZM135.36 11.292C135.36 13.284 134.652 14.4 133.404 14.4C132.48 14.4 131.892 14.052 131.892 12.72V9H130.932V12.828C130.932 14.4 131.616 15.192 133.128 15.192C134.292 15.192 135 14.544 135.36 13.476V15H136.32V9H135.36V11.292ZM143.479 14.46C142.279 14.46 141.487 13.86 141.415 12.216H146.239C146.263 12.072 146.263 11.952 146.263 11.796C146.263 10.044 145.243 8.808 143.443 8.808C141.451 8.808 140.467 10.2 140.467 11.988C140.467 13.8 141.379 15.192 143.443 15.192C145.435 15.192 146.131 14.064 146.251 13.152H145.375C145.195 13.908 144.655 14.46 143.479 14.46ZM143.455 9.54C144.571 9.54 145.279 10.116 145.327 11.496H141.439C141.571 10.08 142.315 9.54 143.455 9.54ZM150.757 8.808C149.569 8.808 148.825 9.48 148.453 10.572V9H147.493V15H148.453V12.708C148.453 10.644 149.161 9.612 150.493 9.612C151.369 9.612 151.933 9.996 151.933 11.28V15H152.893V11.172C152.893 9.624 152.257 8.808 150.757 8.808ZM157.779 15V14.22H155.871V9.756H157.851V9H155.871V7.668H155.355L154.995 8.916L153.771 9.216V9.756H154.911V13.596C154.911 14.556 155.211 15 156.363 15H157.779ZM161.514 14.46C160.314 14.46 159.522 13.86 159.45 12.216H164.274C164.298 12.072 164.298 11.952 164.298 11.796C164.298 10.044 163.278 8.808 161.478 8.808C159.486 8.808 158.502 10.2 158.502 11.988C158.502 13.8 159.414 15.192 161.478 15.192C163.47 15.192 164.166 14.064 164.286 13.152H163.41C163.23 13.908 162.69 14.46 161.514 14.46ZM161.49 9.54C162.606 9.54 163.314 10.116 163.362 11.496H159.474C159.606 10.08 160.35 9.54 161.49 9.54ZM168.684 8.916C167.544 8.916 166.848 9.588 166.488 10.584V9H165.528V15H166.488V12.792C166.488 11.1 166.872 9.804 168.648 9.864H168.9V8.916H168.684ZM172.471 14.46C171.271 14.46 170.479 13.86 170.407 12.216H175.231C175.255 12.072 175.255 11.952 175.255 11.796C175.255 10.044 174.235 8.808 172.435 8.808C170.443 8.808 169.459 10.2 169.459 11.988C169.459 13.8 170.371 15.192 172.435 15.192C174.427 15.192 175.123 14.064 175.243 13.152H174.367C174.187 13.908 173.647 14.46 172.471 14.46ZM172.447 9.54C173.563 9.54 174.271 10.116 174.319 11.496H170.431C170.563 10.08 171.307 9.54 172.447 9.54ZM181.319 10.14C180.911 9.288 180.155 8.808 179.051 8.808C177.167 8.808 176.303 10.152 176.303 12C176.303 13.836 177.167 15.192 179.051 15.192C180.155 15.192 180.911 14.7 181.319 13.848V15H182.279V6.6H181.319V10.14ZM179.243 14.412C177.875 14.412 177.275 13.608 177.275 12C177.275 10.38 177.875 9.588 179.243 9.588C180.515 9.588 181.319 10.308 181.319 12C181.319 13.692 180.515 14.412 179.243 14.412ZM187.808 8.016V7.02H186.572V8.016H187.808ZM187.664 15V9H186.704V15H187.664ZM188.921 12.996C188.945 14.256 189.737 15.192 191.693 15.192C193.289 15.192 194.141 14.592 194.141 13.368C194.141 12.384 193.637 11.796 192.257 11.592L190.985 11.412C190.229 11.304 190.013 10.944 190.013 10.524C190.013 9.936 190.433 9.528 191.453 9.528C192.557 9.528 193.013 10.092 193.073 10.716H194.021C193.949 9.588 193.049 8.796 191.477 8.796C189.965 8.796 189.077 9.48 189.077 10.596C189.077 11.52 189.665 12.072 190.709 12.216L192.101 12.42C192.857 12.528 193.193 12.84 193.193 13.416C193.193 14.088 192.773 14.46 191.717 14.46C190.337 14.46 189.881 13.812 189.809 12.996H188.921ZM199.172 15V6.6H198.212V15H199.172ZM202.011 8.016V7.02H200.775V8.016H202.011ZM201.867 15V9H200.907V15H201.867ZM206.773 8.808C205.585 8.808 204.841 9.48 204.469 10.572V9H203.509V15H204.469V12.708C204.469 10.644 205.177 9.612 206.509 9.612C207.385 9.612 207.949 9.996 207.949 11.28V15H208.909V11.172C208.909 9.624 208.273 8.808 206.773 8.808ZM216.181 15L213.301 11.532L215.929 9.024V9H214.741L212.041 11.592C211.849 11.772 211.645 11.988 211.465 12.216V6.6H210.505V15H211.465V13.284L212.701 12.108L214.969 15H216.181ZM219.545 14.46C218.345 14.46 217.553 13.86 217.481 12.216H222.305C222.329 12.072 222.329 11.952 222.329 11.796C222.329 10.044 221.309 8.808 219.509 8.808C217.517 8.808 216.533 10.2 216.533 11.988C216.533 13.8 217.445 15.192 219.509 15.192C221.501 15.192 222.197 14.064 222.317 13.152H221.441C221.261 13.908 220.721 14.46 219.545 14.46ZM219.521 9.54C220.637 9.54 221.345 10.116 221.393 11.496H217.505C217.637 10.08 218.381 9.54 219.521 9.54ZM228.393 10.14C227.985 9.288 227.229 8.808 226.125 8.808C224.241 8.808 223.377 10.152 223.377 12C223.377 13.836 224.241 15.192 226.125 15.192C227.229 15.192 227.985 14.7 228.393 13.848V15H229.353V6.6H228.393V10.14ZM226.317 14.412C224.949 14.412 224.349 13.608 224.349 12C224.349 10.38 224.949 9.588 226.317 9.588C227.589 9.588 228.393 10.308 228.393 12C228.393 13.692 227.589 14.412 226.317 14.412ZM237.15 15V14.22H235.242V9.756H237.222V9H235.242V7.668H234.726L234.366 8.916L233.142 9.216V9.756H234.282V13.596C234.282 14.556 234.582 15 235.734 15H237.15ZM240.897 15.192C242.913 15.192 243.909 13.788 243.909 11.988C243.909 10.212 242.913 8.808 240.897 8.808C238.869 8.808 237.873 10.2 237.873 11.988C237.873 13.8 238.869 15.192 240.897 15.192ZM238.845 12C238.845 10.308 239.541 9.588 240.897 9.588C242.253 9.588 242.937 10.308 242.937 12C242.937 13.68 242.253 14.412 240.897 14.412C239.541 14.412 238.845 13.68 238.845 12ZM251.7 15.204C253.524 15.204 254.424 14.208 254.772 13.044V14.988H255.672V11.064H251.1V11.808H254.7C254.472 13.296 253.704 14.376 251.844 14.376C249.78 14.376 248.88 13.224 248.88 11.004C248.88 8.748 249.816 7.632 251.844 7.632C253.608 7.632 254.448 8.34 254.652 9.876H255.684C255.456 7.884 254.256 6.804 251.88 6.804C249.12 6.804 247.836 8.592 247.836 11.004C247.836 13.428 249.06 15.204 251.7 15.204ZM260.069 15.192C262.085 15.192 263.081 13.788 263.081 11.988C263.081 10.212 262.085 8.808 260.069 8.808C258.041 8.808 257.045 10.2 257.045 11.988C257.045 13.8 258.041 15.192 260.069 15.192ZM258.017 12C258.017 10.308 258.713 9.588 260.069 9.588C261.425 9.588 262.109 10.308 262.109 12C262.109 13.68 261.425 14.412 260.069 14.412C258.713 14.412 258.017 13.68 258.017 12ZM267.112 15.192C269.128 15.192 270.124 13.788 270.124 11.988C270.124 10.212 269.128 8.808 267.112 8.808C265.084 8.808 264.088 10.2 264.088 11.988C264.088 13.8 265.084 15.192 267.112 15.192ZM265.06 12C265.06 10.308 265.756 9.588 267.112 9.588C268.468 9.588 269.152 10.308 269.152 12C269.152 13.68 268.468 14.412 267.112 14.412C265.756 14.412 265.06 13.68 265.06 12ZM276.24 10.032C275.832 9.264 275.1 8.832 274.008 8.832C272.124 8.832 271.236 10.008 271.236 11.844C271.236 13.692 272.124 14.868 274.008 14.868C275.088 14.868 275.832 14.484 276.24 13.704V15C276.24 16.284 275.652 16.776 274.236 16.776C272.904 16.776 272.4 16.176 272.328 15.384H271.38C271.488 16.752 272.448 17.532 274.236 17.532C276.42 17.532 277.2 16.608 277.2 15.012V9H276.24V10.032ZM274.236 14.112C272.868 14.112 272.22 13.464 272.22 11.844C272.22 10.224 272.868 9.588 274.236 9.588C275.508 9.588 276.24 10.224 276.24 11.844C276.24 13.476 275.508 14.112 274.236 14.112ZM279.879 15V6.6H278.919V15H279.879ZM284.221 14.46C283.021 14.46 282.229 13.86 282.157 12.216H286.981C287.005 12.072 287.005 11.952 287.005 11.796C287.005 10.044 285.985 8.808 284.185 8.808C282.193 8.808 281.209 10.2 281.209 11.988C281.209 13.8 282.121 15.192 284.185 15.192C286.177 15.192 286.873 14.064 286.993 13.152H286.117C285.937 13.908 285.397 14.46 284.221 14.46ZM284.197 9.54C285.313 9.54 286.021 10.116 286.069 11.496H282.181C282.313 10.08 283.057 9.54 284.197 9.54ZM292.918 15.156C294.31 15.156 294.946 14.316 295.174 13.596C295.174 14.04 295.21 14.484 295.258 15H296.134C296.074 14.412 296.062 13.944 296.062 13.512V10.632C296.062 9.552 295.318 8.796 293.674 8.796C292.018 8.796 291.118 9.612 291.082 10.884H292.03C292.09 10.104 292.534 9.552 293.71 9.552C294.874 9.552 295.186 10.02 295.186 10.632C295.186 11.088 294.922 11.256 294.286 11.364L292.762 11.616C291.466 11.832 290.938 12.444 290.938 13.416C290.938 14.556 291.766 15.156 292.918 15.156ZM293.11 14.4C292.402 14.4 291.91 14.064 291.91 13.38C291.91 12.732 292.294 12.42 293.11 12.252L294.106 12.048C294.562 11.952 294.886 11.856 295.186 11.64V12.156C295.186 13.296 294.526 14.4 293.11 14.4ZM297.287 12C297.287 13.836 298.319 15.192 300.287 15.192C302.111 15.192 303.083 14.088 303.155 12.708H302.243C302.123 13.728 301.499 14.412 300.287 14.412C299.027 14.412 298.259 13.74 298.259 12C298.259 10.272 299.051 9.588 300.323 9.588C301.439 9.588 302.039 10.212 302.183 11.196H303.083C302.987 9.804 302.087 8.808 300.287 8.808C298.343 8.808 297.287 10.164 297.287 12ZM304.096 12C304.096 13.836 305.128 15.192 307.096 15.192C308.92 15.192 309.892 14.088 309.964 12.708H309.052C308.932 13.728 308.308 14.412 307.096 14.412C305.836 14.412 305.068 13.74 305.068 12C305.068 10.272 305.86 9.588 307.132 9.588C308.248 9.588 308.848 10.212 308.992 11.196H309.892C309.796 9.804 308.896 8.808 307.096 8.808C305.152 8.808 304.096 10.164 304.096 12ZM313.928 15.192C315.944 15.192 316.94 13.788 316.94 11.988C316.94 10.212 315.944 8.808 313.928 8.808C311.9 8.808 310.904 10.2 310.904 11.988C310.904 13.8 311.9 15.192 313.928 15.192ZM311.876 12C311.876 10.308 312.572 9.588 313.928 9.588C315.284 9.588 315.968 10.308 315.968 12C315.968 13.68 315.284 14.412 313.928 14.412C312.572 14.412 311.876 13.68 311.876 12ZM322.602 11.292C322.602 13.284 321.894 14.4 320.646 14.4C319.722 14.4 319.134 14.052 319.134 12.72V9H318.174V12.828C318.174 14.4 318.858 15.192 320.37 15.192C321.534 15.192 322.242 14.544 322.602 13.476V15H323.562V9H322.602V11.292ZM328.46 8.808C327.272 8.808 326.528 9.48 326.156 10.572V9H325.196V15H326.156V12.708C326.156 10.644 326.864 9.612 328.196 9.612C329.072 9.612 329.636 9.996 329.636 11.28V15H330.596V11.172C330.596 9.624 329.96 8.808 328.46 8.808ZM335.482 15V14.22H333.574V9.756H335.554V9H333.574V7.668H333.058L332.698 8.916L331.474 9.216V9.756H332.614V13.596C332.614 14.556 332.914 15 334.066 15H335.482ZM336.903 14.952V15.972H336.291V16.596H336.543C337.227 16.596 337.527 16.356 337.527 15.696V13.944H336.291V14.952H336.903ZM344.549 8.808C343.445 8.808 342.689 9.3 342.281 10.152V9H341.321V17.4H342.281V13.86C342.689 14.712 343.445 15.192 344.549 15.192C346.433 15.192 347.297 13.848 347.297 12C347.297 10.164 346.433 8.808 344.549 8.808ZM344.357 14.412C343.085 14.412 342.281 13.692 342.281 12C342.281 10.308 343.085 9.588 344.357 9.588C345.725 9.588 346.325 10.392 346.325 12C346.325 13.62 345.725 14.412 344.357 14.412ZM349.582 15V6.6H348.622V15H349.582ZM353.924 14.46C352.724 14.46 351.932 13.86 351.86 12.216H356.684C356.708 12.072 356.708 11.952 356.708 11.796C356.708 10.044 355.688 8.808 353.888 8.808C351.896 8.808 350.912 10.2 350.912 11.988C350.912 13.8 351.824 15.192 353.888 15.192C355.88 15.192 356.576 14.064 356.696 13.152H355.82C355.64 13.908 355.1 14.46 353.924 14.46ZM353.9 9.54C355.016 9.54 355.724 10.116 355.772 11.496H351.884C352.016 10.08 352.76 9.54 353.9 9.54ZM359.797 15.156C361.189 15.156 361.825 14.316 362.053 13.596C362.053 14.04 362.089 14.484 362.137 15H363.013C362.953 14.412 362.941 13.944 362.941 13.512V10.632C362.941 9.552 362.197 8.796 360.553 8.796C358.897 8.796 357.997 9.612 357.961 10.884H358.909C358.969 10.104 359.413 9.552 360.589 9.552C361.753 9.552 362.065 10.02 362.065 10.632C362.065 11.088 361.801 11.256 361.165 11.364L359.641 11.616C358.345 11.832 357.817 12.444 357.817 13.416C357.817 14.556 358.645 15.156 359.797 15.156ZM359.989 14.4C359.281 14.4 358.789 14.064 358.789 13.38C358.789 12.732 359.173 12.42 359.989 12.252L360.985 12.048C361.441 11.952 361.765 11.856 362.065 11.64V12.156C362.065 13.296 361.405 14.4 359.989 14.4ZM364.14 12.996C364.164 14.256 364.956 15.192 366.912 15.192C368.508 15.192 369.36 14.592 369.36 13.368C369.36 12.384 368.856 11.796 367.476 11.592L366.204 11.412C365.448 11.304 365.232 10.944 365.232 10.524C365.232 9.936 365.652 9.528 366.672 9.528C367.776 9.528 368.232 10.092 368.292 10.716H369.24C369.168 9.588 368.268 8.796 366.696 8.796C365.184 8.796 364.296 9.48 364.296 10.596C364.296 11.52 364.884 12.072 365.928 12.216L367.32 12.42C368.076 12.528 368.412 12.84 368.412 13.416C368.412 14.088 367.992 14.46 366.936 14.46C365.556 14.46 365.1 13.812 365.028 12.996H364.14ZM373.401 14.46C372.201 14.46 371.409 13.86 371.337 12.216H376.161C376.185 12.072 376.185 11.952 376.185 11.796C376.185 10.044 375.165 8.808 373.365 8.808C371.373 8.808 370.389 10.2 370.389 11.988C370.389 13.8 371.301 15.192 373.365 15.192C375.357 15.192 376.053 14.064 376.173 13.152H375.297C375.117 13.908 374.577 14.46 373.401 14.46ZM373.377 9.54C374.493 9.54 375.201 10.116 375.249 11.496H371.361C371.493 10.08 372.237 9.54 373.377 9.54ZM384.606 11.292C384.606 13.284 383.898 14.4 382.65 14.4C381.726 14.4 381.138 14.052 381.138 12.72V9H380.178V12.828C380.178 14.4 380.862 15.192 382.374 15.192C383.538 15.192 384.246 14.544 384.606 13.476V15H385.566V9H384.606V11.292ZM386.815 12.996C386.839 14.256 387.631 15.192 389.587 15.192C391.183 15.192 392.035 14.592 392.035 13.368C392.035 12.384 391.531 11.796 390.151 11.592L388.879 11.412C388.123 11.304 387.907 10.944 387.907 10.524C387.907 9.936 388.327 9.528 389.347 9.528C390.451 9.528 390.907 10.092 390.967 10.716H391.915C391.843 9.588 390.943 8.796 389.371 8.796C387.859 8.796 386.971 9.48 386.971 10.596C386.971 11.52 387.559 12.072 388.603 12.216L389.995 12.42C390.751 12.528 391.087 12.84 391.087 13.416C391.087 14.088 390.667 14.46 389.611 14.46C388.231 14.46 387.775 13.812 387.703 12.996H386.815ZM396.076 14.46C394.876 14.46 394.084 13.86 394.012 12.216H398.836C398.86 12.072 398.86 11.952 398.86 11.796C398.86 10.044 397.84 8.808 396.04 8.808C394.048 8.808 393.064 10.2 393.064 11.988C393.064 13.8 393.976 15.192 396.04 15.192C398.032 15.192 398.728 14.064 398.848 13.152H397.972C397.792 13.908 397.252 14.46 396.076 14.46ZM396.052 9.54C397.168 9.54 397.876 10.116 397.924 11.496H394.036C394.168 10.08 394.912 9.54 396.052 9.54ZM406.622 15.204C408.446 15.204 409.346 14.208 409.694 13.044V14.988H410.594V11.064H406.022V11.808H409.622C409.394 13.296 408.626 14.376 406.766 14.376C404.702 14.376 403.802 13.224 403.802 11.004C403.802 8.748 404.738 7.632 406.766 7.632C408.53 7.632 409.37 8.34 409.574 9.876H410.606C410.378 7.884 409.178 6.804 406.802 6.804C404.042 6.804 402.758 8.592 402.758 11.004C402.758 13.428 403.982 15.204 406.622 15.204ZM414.991 15.192C417.007 15.192 418.003 13.788 418.003 11.988C418.003 10.212 417.007 8.808 414.991 8.808C412.963 8.808 411.967 10.2 411.967 11.988C411.967 13.8 412.963 15.192 414.991 15.192ZM412.939 12C412.939 10.308 413.635 9.588 414.991 9.588C416.347 9.588 417.031 10.308 417.031 12C417.031 13.68 416.347 14.412 414.991 14.412C413.635 14.412 412.939 13.68 412.939 12ZM422.034 15.192C424.05 15.192 425.046 13.788 425.046 11.988C425.046 10.212 424.05 8.808 422.034 8.808C420.006 8.808 419.01 10.2 419.01 11.988C419.01 13.8 420.006 15.192 422.034 15.192ZM419.982 12C419.982 10.308 420.678 9.588 422.034 9.588C423.39 9.588 424.074 10.308 424.074 12C424.074 13.68 423.39 14.412 422.034 14.412C420.678 14.412 419.982 13.68 419.982 12ZM431.162 10.032C430.754 9.264 430.022 8.832 428.93 8.832C427.046 8.832 426.158 10.008 426.158 11.844C426.158 13.692 427.046 14.868 428.93 14.868C430.01 14.868 430.754 14.484 431.162 13.704V15C431.162 16.284 430.574 16.776 429.158 16.776C427.826 16.776 427.322 16.176 427.25 15.384H426.302C426.41 16.752 427.37 17.532 429.158 17.532C431.342 17.532 432.122 16.608 432.122 15.012V9H431.162V10.032ZM429.158 14.112C427.79 14.112 427.142 13.464 427.142 11.844C427.142 10.224 427.79 9.588 429.158 9.588C430.43 9.588 431.162 10.224 431.162 11.844C431.162 13.476 430.43 14.112 429.158 14.112ZM434.801 15V6.6H433.841V15H434.801ZM439.143 14.46C437.943 14.46 437.151 13.86 437.079 12.216H441.903C441.927 12.072 441.927 11.952 441.927 11.796C441.927 10.044 440.907 8.808 439.107 8.808C437.115 8.808 436.131 10.2 436.131 11.988C436.131 13.8 437.043 15.192 439.107 15.192C441.099 15.192 441.795 14.064 441.915 13.152H441.039C440.859 13.908 440.319 14.46 439.143 14.46ZM439.119 9.54C440.235 9.54 440.943 10.116 440.991 11.496H437.103C437.235 10.08 437.979 9.54 439.119 9.54ZM447.84 15.156C449.232 15.156 449.868 14.316 450.096 13.596C450.096 14.04 450.132 14.484 450.18 15H451.056C450.996 14.412 450.984 13.944 450.984 13.512V10.632C450.984 9.552 450.24 8.796 448.596 8.796C446.94 8.796 446.04 9.612 446.004 10.884H446.952C447.012 10.104 447.456 9.552 448.632 9.552C449.796 9.552 450.108 10.02 450.108 10.632C450.108 11.088 449.844 11.256 449.208 11.364L447.684 11.616C446.388 11.832 445.86 12.444 445.86 13.416C445.86 14.556 446.688 15.156 447.84 15.156ZM448.032 14.4C447.324 14.4 446.832 14.064 446.832 13.38C446.832 12.732 447.216 12.42 448.032 12.252L449.028 12.048C449.484 11.952 449.808 11.856 450.108 11.64V12.156C450.108 13.296 449.448 14.4 448.032 14.4ZM452.209 12C452.209 13.836 453.241 15.192 455.209 15.192C457.033 15.192 458.005 14.088 458.077 12.708H457.165C457.045 13.728 456.421 14.412 455.209 14.412C453.949 14.412 453.181 13.74 453.181 12C453.181 10.272 453.973 9.588 455.245 9.588C456.361 9.588 456.961 10.212 457.105 11.196H458.005C457.909 9.804 457.009 8.808 455.209 8.808C453.265 8.808 452.209 10.164 452.209 12ZM459.017 12C459.017 13.836 460.049 15.192 462.017 15.192C463.841 15.192 464.813 14.088 464.885 12.708H463.973C463.853 13.728 463.229 14.412 462.017 14.412C460.757 14.412 459.989 13.74 459.989 12C459.989 10.272 460.781 9.588 462.053 9.588C463.169 9.588 463.769 10.212 463.913 11.196H464.813C464.717 9.804 463.817 8.808 462.017 8.808C460.073 8.808 459.017 10.164 459.017 12ZM468.85 15.192C470.866 15.192 471.862 13.788 471.862 11.988C471.862 10.212 470.866 8.808 468.85 8.808C466.822 8.808 465.826 10.2 465.826 11.988C465.826 13.8 466.822 15.192 468.85 15.192ZM466.798 12C466.798 10.308 467.494 9.588 468.85 9.588C470.206 9.588 470.89 10.308 470.89 12C470.89 13.68 470.206 14.412 468.85 14.412C467.494 14.412 466.798 13.68 466.798 12ZM477.524 11.292C477.524 13.284 476.816 14.4 475.568 14.4C474.644 14.4 474.056 14.052 474.056 12.72V9H473.096V12.828C473.096 14.4 473.78 15.192 475.292 15.192C476.456 15.192 477.164 14.544 477.524 13.476V15H478.484V9H477.524V11.292ZM483.382 8.808C482.194 8.808 481.45 9.48 481.078 10.572V9H480.118V15H481.078V12.708C481.078 10.644 481.786 9.612 483.118 9.612C483.994 9.612 484.558 9.996 484.558 11.28V15H485.518V11.172C485.518 9.624 484.882 8.808 483.382 8.808ZM490.404 15V14.22H488.496V9.756H490.476V9H488.496V7.668H487.98L487.62 8.916L486.396 9.216V9.756H487.536V13.596C487.536 14.556 487.836 15 488.988 15H490.404ZM497.619 8.808C496.515 8.808 495.759 9.288 495.351 10.14V6.6H494.391V15H495.351V13.848C495.759 14.7 496.515 15.192 497.619 15.192C499.503 15.192 500.367 13.836 500.367 12C500.367 10.152 499.503 8.808 497.619 8.808ZM497.427 14.412C496.155 14.412 495.351 13.692 495.351 12C495.351 10.308 496.155 9.588 497.427 9.588C498.795 9.588 499.395 10.38 499.395 12C499.395 13.608 498.795 14.412 497.427 14.412ZM506.082 11.292C506.082 13.284 505.374 14.4 504.126 14.4C503.202 14.4 502.614 14.052 502.614 12.72V9H501.654V12.828C501.654 14.4 502.338 15.192 503.85 15.192C505.014 15.192 505.722 14.544 506.082 13.476V15H507.042V9H506.082V11.292ZM512.014 15V14.22H510.106V9.756H512.086V9H510.106V7.668H509.59L509.23 8.916L508.006 9.216V9.756H509.146V13.596C509.146 14.556 509.446 15 510.598 15H512.014ZM516.561 15V14.22H514.653V9.756H516.633V9H514.653V7.668H514.137L513.777 8.916L512.553 9.216V9.756H513.693V13.596C513.693 14.556 513.993 15 515.145 15H516.561ZM520.307 15.192C522.323 15.192 523.319 13.788 523.319 11.988C523.319 10.212 522.323 8.808 520.307 8.808C518.279 8.808 517.283 10.2 517.283 11.988C517.283 13.8 518.279 15.192 520.307 15.192ZM518.255 12C518.255 10.308 518.951 9.588 520.307 9.588C521.663 9.588 522.347 10.308 522.347 12C522.347 13.68 521.663 14.412 520.307 14.412C518.951 14.412 518.255 13.68 518.255 12ZM527.843 8.808C526.655 8.808 525.911 9.48 525.539 10.572V9H524.579V15H525.539V12.708C525.539 10.644 526.247 9.612 527.579 9.612C528.455 9.612 529.019 9.996 529.019 11.28V15H529.979V11.172C529.979 9.624 529.343 8.808 527.843 8.808ZM537.678 15V14.22H535.77V9.756H537.75V9H535.77V7.668H535.254L534.894 8.916L533.67 9.216V9.756H534.81V13.596C534.81 14.556 535.11 15 536.262 15H537.678ZM541.424 15.192C543.44 15.192 544.436 13.788 544.436 11.988C544.436 10.212 543.44 8.808 541.424 8.808C539.396 8.808 538.4 10.2 538.4 11.988C538.4 13.8 539.396 15.192 541.424 15.192ZM539.372 12C539.372 10.308 540.068 9.588 541.424 9.588C542.78 9.588 543.464 10.308 543.464 12C543.464 13.68 542.78 14.412 541.424 14.412C540.068 14.412 539.372 13.68 539.372 12ZM548.159 12.996C548.183 14.256 548.975 15.192 550.931 15.192C552.527 15.192 553.379 14.592 553.379 13.368C553.379 12.384 552.875 11.796 551.495 11.592L550.223 11.412C549.467 11.304 549.251 10.944 549.251 10.524C549.251 9.936 549.671 9.528 550.691 9.528C551.795 9.528 552.251 10.092 552.311 10.716H553.259C553.187 9.588 552.287 8.796 550.715 8.796C549.203 8.796 548.315 9.48 548.315 10.596C548.315 11.52 548.903 12.072 549.947 12.216L551.339 12.42C552.095 12.528 552.431 12.84 552.431 13.416C552.431 14.088 552.011 14.46 550.955 14.46C549.575 14.46 549.119 13.812 549.047 12.996H548.159ZM555.8 8.016V7.02H554.564V8.016H555.8ZM555.656 15V9H554.696V15H555.656ZM562.049 10.032C561.641 9.264 560.909 8.832 559.817 8.832C557.933 8.832 557.045 10.008 557.045 11.844C557.045 13.692 557.933 14.868 559.817 14.868C560.897 14.868 561.641 14.484 562.049 13.704V15C562.049 16.284 561.461 16.776 560.045 16.776C558.713 16.776 558.209 16.176 558.137 15.384H557.189C557.297 16.752 558.257 17.532 560.045 17.532C562.229 17.532 563.009 16.608 563.009 15.012V9H562.049V10.032ZM560.045 14.112C558.677 14.112 558.029 13.464 558.029 11.844C558.029 10.224 558.677 9.588 560.045 9.588C561.317 9.588 562.049 10.224 562.049 11.844C562.049 13.476 561.317 14.112 560.045 14.112ZM567.886 8.808C566.698 8.808 565.954 9.48 565.582 10.572V9H564.622V15H565.582V12.708C565.582 10.644 566.29 9.612 567.622 9.612C568.498 9.612 569.062 9.996 569.062 11.28V15H570.022V11.172C570.022 9.624 569.386 8.808 567.886 8.808ZM575.453 8.016V7.02H574.217V8.016H575.453ZM575.309 15V9H574.349V15H575.309ZM580.214 8.808C579.026 8.808 578.282 9.48 577.91 10.572V9H576.95V15H577.91V12.708C577.91 10.644 578.618 9.612 579.95 9.612C580.826 9.612 581.39 9.996 581.39 11.28V15H582.35V11.172C582.35 9.624 581.714 8.808 580.214 8.808Z" fill="black"/>
</svg>
