<svg width="256" height="23" viewBox="0 0 256 23" fill="none" xmlns="http://www.w3.org/2000/svg">
<rect width="256" height="23" rx="11.5" fill="#FF7373"/>
<path d="M53.1792 7.02V7.824H56.0592V15.012H57.0432V7.824H59.8992V7.02H53.1792ZM64.1068 8.808C62.9188 8.808 62.1748 9.48 61.8028 10.572V6.6H60.8428V15H61.8028V12.708C61.8028 10.644 62.5108 9.612 63.8428 9.612C64.7188 9.612 65.2828 9.996 65.2828 11.28V15H66.2428V11.172C66.2428 9.624 65.6068 8.808 64.1068 8.808ZM70.422 14.46C69.222 14.46 68.43 13.86 68.358 12.216H73.182C73.206 12.072 73.206 11.952 73.206 11.796C73.206 10.044 72.186 8.808 70.386 8.808C68.394 8.808 67.41 10.2 67.41 11.988C67.41 13.8 68.322 15.192 70.386 15.192C72.378 15.192 73.074 14.064 73.194 13.152H72.318C72.138 13.908 71.598 14.46 70.422 14.46ZM70.398 9.54C71.514 9.54 72.222 10.116 72.27 11.496H68.382C68.514 10.08 69.258 9.54 70.398 9.54ZM80.5234 8.808C79.4194 8.808 78.6634 9.3 78.2554 10.152V9H77.2954V17.4H78.2554V13.86C78.6634 14.712 79.4194 15.192 80.5234 15.192C82.4074 15.192 83.2714 13.848 83.2714 12C83.2714 10.164 82.4074 8.808 80.5234 8.808ZM80.3314 14.412C79.0594 14.412 78.2554 13.692 78.2554 12C78.2554 10.308 79.0594 9.588 80.3314 9.588C81.6994 9.588 82.2994 10.392 82.2994 12C82.2994 13.62 81.6994 14.412 80.3314 14.412ZM86.3615 15.156C87.7535 15.156 88.3895 14.316 88.6175 13.596C88.6175 14.04 88.6535 14.484 88.7015 15H89.5775C89.5175 14.412 89.5055 13.944 89.5055 13.512V10.632C89.5055 9.552 88.7615 8.796 87.1175 8.796C85.4615 8.796 84.5615 9.612 84.5255 10.884H85.4735C85.5335 10.104 85.9775 9.552 87.1535 9.552C88.3175 9.552 88.6295 10.02 88.6295 10.632C88.6295 11.088 88.3655 11.256 87.7295 11.364L86.2055 11.616C84.9095 11.832 84.3815 12.444 84.3815 13.416C84.3815 14.556 85.2095 15.156 86.3615 15.156ZM86.5535 14.4C85.8455 14.4 85.3535 14.064 85.3535 13.38C85.3535 12.732 85.7375 12.42 86.5535 12.252L87.5495 12.048C88.0055 11.952 88.3295 11.856 88.6295 11.64V12.156C88.6295 13.296 87.9695 14.4 86.5535 14.4ZM90.704 12.996C90.728 14.256 91.52 15.192 93.476 15.192C95.072 15.192 95.924 14.592 95.924 13.368C95.924 12.384 95.42 11.796 94.04 11.592L92.768 11.412C92.012 11.304 91.796 10.944 91.796 10.524C91.796 9.936 92.216 9.528 93.236 9.528C94.34 9.528 94.796 10.092 94.856 10.716H95.804C95.732 9.588 94.832 8.796 93.26 8.796C91.748 8.796 90.86 9.48 90.86 10.596C90.86 11.52 91.448 12.072 92.492 12.216L93.884 12.42C94.64 12.528 94.976 12.84 94.976 13.416C94.976 14.088 94.556 14.46 93.5 14.46C92.12 14.46 91.664 13.812 91.592 12.996H90.704ZM96.9267 12.996C96.9507 14.256 97.7427 15.192 99.6987 15.192C101.295 15.192 102.147 14.592 102.147 13.368C102.147 12.384 101.643 11.796 100.263 11.592L98.9907 11.412C98.2347 11.304 98.0187 10.944 98.0187 10.524C98.0187 9.936 98.4387 9.528 99.4587 9.528C100.563 9.528 101.019 10.092 101.079 10.716H102.027C101.955 9.588 101.055 8.796 99.4827 8.796C97.9707 8.796 97.0827 9.48 97.0827 10.596C97.0827 11.52 97.6707 12.072 98.7147 12.216L100.107 12.42C100.863 12.528 101.199 12.84 101.199 13.416C101.199 14.088 100.779 14.46 99.7227 14.46C98.3427 14.46 97.8867 13.812 97.8147 12.996H96.9267ZM110.034 14.28L108.138 9H107.142L105.246 14.28L103.698 9H102.69L104.526 15H105.894L107.61 10.14L109.338 15H110.706L112.53 9H111.594L110.034 14.28ZM116.149 15.192C118.165 15.192 119.161 13.788 119.161 11.988C119.161 10.212 118.165 8.808 116.149 8.808C114.121 8.808 113.125 10.2 113.125 11.988C113.125 13.8 114.121 15.192 116.149 15.192ZM114.097 12C114.097 10.308 114.793 9.588 116.149 9.588C117.505 9.588 118.189 10.308 118.189 12C118.189 13.68 117.505 14.412 116.149 14.412C114.793 14.412 114.097 13.68 114.097 12ZM123.577 8.916C122.437 8.916 121.741 9.588 121.381 10.584V9H120.421V15H121.381V12.792C121.381 11.1 121.765 9.804 123.541 9.864H123.793V8.916H123.577ZM129.485 10.14C129.077 9.288 128.321 8.808 127.217 8.808C125.333 8.808 124.469 10.152 124.469 12C124.469 13.836 125.333 15.192 127.217 15.192C128.321 15.192 129.077 14.7 129.485 13.848V15H130.445V6.6H129.485V10.14ZM127.409 14.412C126.041 14.412 125.441 13.608 125.441 12C125.441 10.38 126.041 9.588 127.409 9.588C128.681 9.588 129.485 10.308 129.485 12C129.485 13.692 128.681 14.412 127.409 14.412ZM136.67 15.156C138.062 15.156 138.698 14.316 138.926 13.596C138.926 14.04 138.962 14.484 139.01 15H139.886C139.826 14.412 139.814 13.944 139.814 13.512V10.632C139.814 9.552 139.07 8.796 137.426 8.796C135.77 8.796 134.87 9.612 134.834 10.884H135.782C135.842 10.104 136.286 9.552 137.462 9.552C138.626 9.552 138.938 10.02 138.938 10.632C138.938 11.088 138.674 11.256 138.038 11.364L136.514 11.616C135.218 11.832 134.69 12.444 134.69 13.416C134.69 14.556 135.518 15.156 136.67 15.156ZM136.862 14.4C136.154 14.4 135.662 14.064 135.662 13.38C135.662 12.732 136.046 12.42 136.862 12.252L137.858 12.048C138.314 11.952 138.638 11.856 138.938 11.64V12.156C138.938 13.296 138.278 14.4 136.862 14.4ZM144.553 8.916C143.413 8.916 142.717 9.588 142.357 10.584V9H141.397V15H142.357V12.792C142.357 11.1 142.741 9.804 144.517 9.864H144.769V8.916H144.553ZM148.34 14.46C147.14 14.46 146.348 13.86 146.276 12.216H151.1C151.124 12.072 151.124 11.952 151.124 11.796C151.124 10.044 150.104 8.808 148.304 8.808C146.312 8.808 145.328 10.2 145.328 11.988C145.328 13.8 146.24 15.192 148.304 15.192C150.296 15.192 150.992 14.064 151.112 13.152H150.236C150.056 13.908 149.516 14.46 148.34 14.46ZM148.316 9.54C149.432 9.54 150.14 10.116 150.188 11.496H146.3C146.432 10.08 147.176 9.54 148.316 9.54ZM155.619 8.808C154.431 8.808 153.687 9.48 153.315 10.572V9H152.355V15H153.315V12.708C153.315 10.644 154.023 9.612 155.355 9.612C156.231 9.612 156.795 9.996 156.795 11.28V15H157.755V11.172C157.755 9.624 157.119 8.808 155.619 8.808ZM159.139 8.028V9.06H158.527V9.684H158.779C159.463 9.684 159.763 9.432 159.763 8.772V7.02H158.527V8.028H159.139ZM164.539 15V14.22H162.631V9.756H164.611V9H162.631V7.668H162.115L161.755 8.916L160.531 9.216V9.756H161.671V13.596C161.671 14.556 161.971 15 163.123 15H164.539ZM175.906 8.808C174.706 8.808 174.01 9.444 173.662 10.5C173.494 9.384 172.858 8.808 171.694 8.808C170.542 8.808 169.858 9.444 169.51 10.476V9H168.55V15H169.51V12.708C169.51 10.644 170.11 9.612 171.394 9.612C172.27 9.612 172.774 10.032 172.774 11.244V15H173.71V12.708C173.71 10.644 174.298 9.612 175.606 9.612C176.482 9.612 176.974 10.032 176.974 11.244V15H177.934V11.136C177.934 9.6 177.274 8.808 175.906 8.808ZM181.272 15.156C182.664 15.156 183.3 14.316 183.528 13.596C183.528 14.04 183.564 14.484 183.612 15H184.488C184.428 14.412 184.416 13.944 184.416 13.512V10.632C184.416 9.552 183.672 8.796 182.028 8.796C180.372 8.796 179.472 9.612 179.436 10.884H180.384C180.444 10.104 180.888 9.552 182.064 9.552C183.228 9.552 183.54 10.02 183.54 10.632C183.54 11.088 183.276 11.256 182.64 11.364L181.116 11.616C179.82 11.832 179.292 12.444 179.292 13.416C179.292 14.556 180.12 15.156 181.272 15.156ZM181.464 14.4C180.756 14.4 180.264 14.064 180.264 13.38C180.264 12.732 180.648 12.42 181.464 12.252L182.46 12.048C182.916 11.952 183.24 11.856 183.54 11.64V12.156C183.54 13.296 182.88 14.4 181.464 14.4ZM189.277 15V14.22H187.369V9.756H189.349V9H187.369V7.668H186.853L186.493 8.916L185.269 9.216V9.756H186.409V13.596C186.409 14.556 186.709 15 187.861 15H189.277ZM190 12C190 13.836 191.032 15.192 193 15.192C194.824 15.192 195.796 14.088 195.868 12.708H194.956C194.836 13.728 194.212 14.412 193 14.412C191.74 14.412 190.972 13.74 190.972 12C190.972 10.272 191.764 9.588 193.036 9.588C194.152 9.588 194.752 10.212 194.896 11.196H195.796C195.7 9.804 194.8 8.808 193 8.808C191.056 8.808 190 10.164 190 12ZM200.326 8.808C199.138 8.808 198.394 9.48 198.022 10.572V6.6H197.062V15H198.022V12.708C198.022 10.644 198.73 9.612 200.062 9.612C200.938 9.612 201.502 9.996 201.502 11.28V15H202.462V11.172C202.462 9.624 201.826 8.808 200.326 8.808Z" fill="black"/>
</svg>
