<svg width="425" height="23" viewBox="0 0 425 23" fill="none" xmlns="http://www.w3.org/2000/svg">
<rect width="425" height="23" rx="11.5" fill="#FF7373"/>
<path d="M137.679 7.02V7.824H140.559V15.012H141.543V7.824H144.399V7.02H137.679ZM148.607 8.808C147.419 8.808 146.675 9.48 146.303 10.572V6.6H145.343V15H146.303V12.708C146.303 10.644 147.011 9.612 148.343 9.612C149.219 9.612 149.783 9.996 149.783 11.28V15H150.743V11.172C150.743 9.624 150.107 8.808 148.607 8.808ZM154.922 14.46C153.722 14.46 152.93 13.86 152.858 12.216H157.682C157.706 12.072 157.706 11.952 157.706 11.796C157.706 10.044 156.686 8.808 154.886 8.808C152.894 8.808 151.91 10.2 151.91 11.988C151.91 13.8 152.822 15.192 154.886 15.192C156.878 15.192 157.574 14.064 157.694 13.152H156.818C156.638 13.908 156.098 14.46 154.922 14.46ZM154.898 9.54C156.014 9.54 156.722 10.116 156.77 11.496H152.882C153.014 10.08 153.758 9.54 154.898 9.54ZM165.023 8.808C163.919 8.808 163.163 9.3 162.755 10.152V9H161.795V17.4H162.755V13.86C163.163 14.712 163.919 15.192 165.023 15.192C166.907 15.192 167.771 13.848 167.771 12C167.771 10.164 166.907 8.808 165.023 8.808ZM164.831 14.412C163.559 14.412 162.755 13.692 162.755 12C162.755 10.308 163.559 9.588 164.831 9.588C166.199 9.588 166.799 10.392 166.799 12C166.799 13.62 166.199 14.412 164.831 14.412ZM170.862 15.156C172.254 15.156 172.89 14.316 173.118 13.596C173.118 14.04 173.154 14.484 173.202 15H174.078C174.018 14.412 174.006 13.944 174.006 13.512V10.632C174.006 9.552 173.262 8.796 171.618 8.796C169.962 8.796 169.062 9.612 169.026 10.884H169.974C170.034 10.104 170.478 9.552 171.654 9.552C172.818 9.552 173.13 10.02 173.13 10.632C173.13 11.088 172.866 11.256 172.23 11.364L170.706 11.616C169.41 11.832 168.882 12.444 168.882 13.416C168.882 14.556 169.71 15.156 170.862 15.156ZM171.054 14.4C170.346 14.4 169.854 14.064 169.854 13.38C169.854 12.732 170.238 12.42 171.054 12.252L172.05 12.048C172.506 11.952 172.83 11.856 173.13 11.64V12.156C173.13 13.296 172.47 14.4 171.054 14.4ZM175.204 12.996C175.228 14.256 176.02 15.192 177.976 15.192C179.572 15.192 180.424 14.592 180.424 13.368C180.424 12.384 179.92 11.796 178.54 11.592L177.268 11.412C176.512 11.304 176.296 10.944 176.296 10.524C176.296 9.936 176.716 9.528 177.736 9.528C178.84 9.528 179.296 10.092 179.356 10.716H180.304C180.232 9.588 179.332 8.796 177.76 8.796C176.248 8.796 175.36 9.48 175.36 10.596C175.36 11.52 175.948 12.072 176.992 12.216L178.384 12.42C179.14 12.528 179.476 12.84 179.476 13.416C179.476 14.088 179.056 14.46 178 14.46C176.62 14.46 176.164 13.812 176.092 12.996H175.204ZM181.427 12.996C181.451 14.256 182.243 15.192 184.199 15.192C185.795 15.192 186.647 14.592 186.647 13.368C186.647 12.384 186.143 11.796 184.763 11.592L183.491 11.412C182.735 11.304 182.519 10.944 182.519 10.524C182.519 9.936 182.939 9.528 183.959 9.528C185.063 9.528 185.519 10.092 185.579 10.716H186.527C186.455 9.588 185.555 8.796 183.983 8.796C182.471 8.796 181.583 9.48 181.583 10.596C181.583 11.52 182.171 12.072 183.215 12.216L184.607 12.42C185.363 12.528 185.699 12.84 185.699 13.416C185.699 14.088 185.279 14.46 184.223 14.46C182.843 14.46 182.387 13.812 182.315 12.996H181.427ZM194.534 14.28L192.638 9H191.642L189.746 14.28L188.198 9H187.19L189.026 15H190.394L192.11 10.14L193.838 15H195.206L197.03 9H196.094L194.534 14.28ZM200.649 15.192C202.665 15.192 203.661 13.788 203.661 11.988C203.661 10.212 202.665 8.808 200.649 8.808C198.621 8.808 197.625 10.2 197.625 11.988C197.625 13.8 198.621 15.192 200.649 15.192ZM198.597 12C198.597 10.308 199.293 9.588 200.649 9.588C202.005 9.588 202.689 10.308 202.689 12C202.689 13.68 202.005 14.412 200.649 14.412C199.293 14.412 198.597 13.68 198.597 12ZM208.077 8.916C206.937 8.916 206.241 9.588 205.881 10.584V9H204.921V15H205.881V12.792C205.881 11.1 206.265 9.804 208.041 9.864H208.293V8.916H208.077ZM213.985 10.14C213.577 9.288 212.821 8.808 211.717 8.808C209.833 8.808 208.969 10.152 208.969 12C208.969 13.836 209.833 15.192 211.717 15.192C212.821 15.192 213.577 14.7 213.985 13.848V15H214.945V6.6H213.985V10.14ZM211.909 14.412C210.541 14.412 209.941 13.608 209.941 12C209.941 10.38 210.541 9.588 211.909 9.588C213.181 9.588 213.985 10.308 213.985 12C213.985 13.692 213.181 14.412 211.909 14.412ZM221.17 15.156C222.562 15.156 223.198 14.316 223.426 13.596C223.426 14.04 223.462 14.484 223.51 15H224.386C224.326 14.412 224.314 13.944 224.314 13.512V10.632C224.314 9.552 223.57 8.796 221.926 8.796C220.27 8.796 219.37 9.612 219.334 10.884H220.282C220.342 10.104 220.786 9.552 221.962 9.552C223.126 9.552 223.438 10.02 223.438 10.632C223.438 11.088 223.174 11.256 222.538 11.364L221.014 11.616C219.718 11.832 219.19 12.444 219.19 13.416C219.19 14.556 220.018 15.156 221.17 15.156ZM221.362 14.4C220.654 14.4 220.162 14.064 220.162 13.38C220.162 12.732 220.546 12.42 221.362 12.252L222.358 12.048C222.814 11.952 223.138 11.856 223.438 11.64V12.156C223.438 13.296 222.778 14.4 221.362 14.4ZM229.053 8.916C227.913 8.916 227.217 9.588 226.857 10.584V9H225.897V15H226.857V12.792C226.857 11.1 227.241 9.804 229.017 9.864H229.269V8.916H229.053ZM232.84 14.46C231.64 14.46 230.848 13.86 230.776 12.216H235.6C235.624 12.072 235.624 11.952 235.624 11.796C235.624 10.044 234.604 8.808 232.804 8.808C230.812 8.808 229.828 10.2 229.828 11.988C229.828 13.8 230.74 15.192 232.804 15.192C234.796 15.192 235.492 14.064 235.612 13.152H234.736C234.556 13.908 234.016 14.46 232.84 14.46ZM232.816 9.54C233.932 9.54 234.64 10.116 234.688 11.496H230.8C230.932 10.08 231.676 9.54 232.816 9.54ZM240.119 8.808C238.931 8.808 238.187 9.48 237.815 10.572V9H236.855V15H237.815V12.708C237.815 10.644 238.523 9.612 239.855 9.612C240.731 9.612 241.295 9.996 241.295 11.28V15H242.255V11.172C242.255 9.624 241.619 8.808 240.119 8.808ZM243.639 8.028V9.06H243.027V9.684H243.279C243.963 9.684 244.263 9.432 244.263 8.772V7.02H243.027V8.028H243.639ZM249.039 15V14.22H247.131V9.756H249.111V9H247.131V7.668H246.615L246.255 8.916L245.031 9.216V9.756H246.171V13.596C246.171 14.556 246.471 15 247.623 15H249.039ZM260.406 8.808C259.206 8.808 258.51 9.444 258.162 10.5C257.994 9.384 257.358 8.808 256.194 8.808C255.042 8.808 254.358 9.444 254.01 10.476V9H253.05V15H254.01V12.708C254.01 10.644 254.61 9.612 255.894 9.612C256.77 9.612 257.274 10.032 257.274 11.244V15H258.21V12.708C258.21 10.644 258.798 9.612 260.106 9.612C260.982 9.612 261.474 10.032 261.474 11.244V15H262.434V11.136C262.434 9.6 261.774 8.808 260.406 8.808ZM265.772 15.156C267.164 15.156 267.8 14.316 268.028 13.596C268.028 14.04 268.064 14.484 268.112 15H268.988C268.928 14.412 268.916 13.944 268.916 13.512V10.632C268.916 9.552 268.172 8.796 266.528 8.796C264.872 8.796 263.972 9.612 263.936 10.884H264.884C264.944 10.104 265.388 9.552 266.564 9.552C267.728 9.552 268.04 10.02 268.04 10.632C268.04 11.088 267.776 11.256 267.14 11.364L265.616 11.616C264.32 11.832 263.792 12.444 263.792 13.416C263.792 14.556 264.62 15.156 265.772 15.156ZM265.964 14.4C265.256 14.4 264.764 14.064 264.764 13.38C264.764 12.732 265.148 12.42 265.964 12.252L266.96 12.048C267.416 11.952 267.74 11.856 268.04 11.64V12.156C268.04 13.296 267.38 14.4 265.964 14.4ZM273.777 15V14.22H271.869V9.756H273.849V9H271.869V7.668H271.353L270.993 8.916L269.769 9.216V9.756H270.909V13.596C270.909 14.556 271.209 15 272.361 15H273.777ZM274.5 12C274.5 13.836 275.532 15.192 277.5 15.192C279.324 15.192 280.296 14.088 280.368 12.708H279.456C279.336 13.728 278.712 14.412 277.5 14.412C276.24 14.412 275.472 13.74 275.472 12C275.472 10.272 276.264 9.588 277.536 9.588C278.652 9.588 279.252 10.212 279.396 11.196H280.296C280.2 9.804 279.3 8.808 277.5 8.808C275.556 8.808 274.5 10.164 274.5 12ZM284.826 8.808C283.638 8.808 282.894 9.48 282.522 10.572V6.6H281.562V15H282.522V12.708C282.522 10.644 283.23 9.612 284.562 9.612C285.438 9.612 286.002 9.996 286.002 11.28V15H286.962V11.172C286.962 9.624 286.326 8.808 284.826 8.808Z" fill="black"/>
</svg>
