<svg width="151" height="201" viewBox="0 0 151 201" fill="none" xmlns="http://www.w3.org/2000/svg">
<path fill-rule="evenodd" clip-rule="evenodd" d="M44.529 109.819C44.1748 108.279 32.2811 82.6386 36.013 82.7618C42.4655 82.9826 47.4447 83.4805 52.7474 80.072C54.7699 78.7733 62.172 96.8064 62.5262 94.0807C62.6905 92.8179 66.9151 80.0002 67.8391 75.2416C69.8565 64.8827 75.6879 66.5151 86.6987 64.0974C108.366 59.3286 120.794 64.2975 138.242 76.3453C144.212 80.4519 144.591 79.1737 146.634 89.1784C148.118 96.4625 150.741 138.257 145.762 142.4C141.835 145.685 139.874 147.307 139.089 148.18C137.944 149.468 138.462 152.574 138.462 157.656C138.462 165.469 139.294 179.903 139.859 185.848C139.859 185.966 110.897 176.746 107.227 175.232C103.192 173.564 54.313 158.862 54.5029 154.807C54.698 150.664 48.5946 110.661 44.5136 109.794" fill="#FEFEFE"/>
<path fill-rule="evenodd" clip-rule="evenodd" d="M61.6939 166.941L114.695 184.435C116.291 184.948 117.349 187.16 115.177 188.197L100.599 195.153C98.4275 196.18 95.2192 196.585 92.822 195.789L38.9229 177.921C37.3315 177.407 37.8038 176.103 39.9752 175.056L54.8616 167.87C57.0176 166.838 60.0975 166.412 61.6939 166.941Z" fill="#E6E7E8"/>
<path d="M61.6939 166.941L114.695 184.435C116.291 184.948 117.349 187.16 115.177 188.197L100.599 195.153C98.4275 196.18 95.2192 196.585 92.822 195.789L38.9229 177.921C37.3315 177.407 37.8038 176.103 39.9752 175.056L54.8616 167.87C57.0176 166.838 60.0975 166.412 61.6939 166.941Z" stroke="black" stroke-width="1.5" stroke-linecap="round" stroke-linejoin="round"/>
<path d="M9.55273 143.461L147.534 188.367" stroke="black" stroke-width="1.5" stroke-linecap="round" stroke-linejoin="round"/>
<path fill-rule="evenodd" clip-rule="evenodd" d="M86.6522 160.766C87.1347 153.882 86.8524 148.102 88.2538 140.983C89.2804 135.818 89.1264 128.719 90.4559 123.442C91.9138 117.657 93.5359 103.423 95.3684 98.3612C96.2924 95.7946 97.0778 91.8009 98.8026 87.5454C102.765 77.7922 101.949 77.6588 109.238 70.9599C110.932 69.4199 98.1147 71.9865 94.8243 69.5328C93.2484 68.3471 88.0792 87.6583 87.7764 90.4868C86.606 101.503 83.9983 112.56 84.4141 123.725C84.6964 131.229 83.603 140.238 84.1831 148.138C84.5219 152.758 84.8093 157.188 83.834 161.767C83.3207 164.144 86.5854 161.736 86.6522 160.766" fill="#8ED2D1"/>
<path fill-rule="evenodd" clip-rule="evenodd" d="M93.46 156.372C92.4333 156.496 92.6849 157.204 92.7362 158.318C92.9005 161.737 100.313 167.445 103.696 168.882C108.603 170.966 108.156 165.289 105.924 162.425C103.496 159.345 100.713 156.147 95.0308 155.864C94.5482 155.839 93.7423 156.336 93.46 156.372Z" fill="black"/>
<path d="M93.46 156.372C92.4333 156.496 92.6849 157.204 92.7362 158.318C92.9005 161.737 100.313 167.445 103.696 168.882C108.603 170.966 108.156 165.289 105.924 162.425C103.496 159.345 100.713 156.147 95.0308 155.864C94.5482 155.839 93.7423 156.336 93.46 156.372Z" stroke="black" stroke-width="1.5" stroke-linecap="round" stroke-linejoin="round"/>
<path fill-rule="evenodd" clip-rule="evenodd" d="M93.9068 57.9615C93.6604 57.7305 81.4843 53.5366 84.7747 38.4141C85.9194 33.1679 89.6513 29.7492 89.8053 27.4443C90.8319 12.3937 104.692 7.37334 114.229 13.754C120.245 17.7887 121.18 24.3747 120.969 30.9452C122.509 31.6279 124.183 33.3168 123.361 36.2273C123.136 36.8358 122.739 37.366 122.219 37.754C121.699 38.1421 121.078 38.3713 120.43 38.4141C120.328 39.7025 120.235 40.9448 120.194 42.1203C119.717 55.9801 112.73 56.7552 112.381 58.6904C112.114 60.1534 112.71 63.6132 112.812 65.4766C113.197 72.6631 95.2157 71.6365 94.764 67.3605C94.2558 62.9561 93.9786 58.0231 93.9068 57.9615Z" fill="#FAC384"/>
<path d="M93.9068 57.9615C93.6604 57.7305 81.4843 53.5366 84.7747 38.4141C85.9194 33.1679 89.6513 29.7492 89.8053 27.4443C90.8319 12.3937 104.692 7.37334 114.229 13.754C120.245 17.7887 121.18 24.3747 120.969 30.9452C122.509 31.6279 124.183 33.3168 123.361 36.2273C123.136 36.8358 122.739 37.366 122.219 37.754C121.699 38.1421 121.078 38.3713 120.43 38.4141C120.328 39.7025 120.235 40.9448 120.194 42.1203C119.717 55.9801 112.73 56.7552 112.381 58.6904C112.114 60.1534 112.71 63.6132 112.812 65.4766C113.197 72.6631 95.2157 71.6365 94.764 67.3605C94.2558 62.9561 93.9786 58.0231 93.9068 57.9615Z" stroke="black" stroke-width="1.5" stroke-linecap="round" stroke-linejoin="round"/>
<path d="M92.582 57.3457C94.8978 58.4284 97.4403 58.9373 99.9944 58.8292" stroke="black" stroke-width="1.5" stroke-linecap="round" stroke-linejoin="round"/>
<path d="M95.8473 35.0579C93.024 33.6205 93.6862 29.9811 96.5454 30.9512C97.0587 31.1258 98.4396 31.8393 99.112 32.1576" stroke="black" stroke-width="1.5" stroke-linecap="round" stroke-linejoin="round"/>
<path fill-rule="evenodd" clip-rule="evenodd" d="M103.918 30.8576C104.031 31.1912 104.221 31.1758 104.431 29.7026C104.534 29.0147 104.852 26.5816 104.539 26.8485C104.123 27.177 103.728 30.375 103.918 30.8576Z" fill="black"/>
<path d="M103.918 30.8576C104.031 31.1912 104.221 31.1758 104.431 29.7026C104.534 29.0147 104.852 26.5816 104.539 26.8485C104.123 27.177 103.728 30.375 103.918 30.8576Z" stroke="black" stroke-width="1.5" stroke-linecap="round" stroke-linejoin="round"/>
<path fill-rule="evenodd" clip-rule="evenodd" d="M94.9071 29.8376C95.02 30.1661 95.2099 30.1507 95.4204 28.7083C95.5179 28.0358 95.8362 25.6591 95.5231 25.9158C95.2099 26.1724 94.7428 29.3653 94.9071 29.8376Z" fill="black"/>
<path d="M94.9071 29.8376C95.02 30.1661 95.2099 30.1507 95.4204 28.7083C95.5179 28.0358 95.8362 25.6591 95.5231 25.9158C95.2099 26.1724 94.7428 29.3653 94.9071 29.8376Z" stroke="black" stroke-width="1.5" stroke-linecap="round" stroke-linejoin="round"/>
<path d="M108.936 20.3303C108.104 19.2728 105.502 17.6405 104.203 17.3633" stroke="black" stroke-width="1.5" stroke-linecap="round" stroke-linejoin="round"/>
<path d="M97.6895 22.225C96.5516 21.5189 95.3482 20.9241 94.0962 20.4489C93.7044 20.298 93.2986 20.1863 92.8848 20.1152" stroke="black" stroke-width="1.5" stroke-linecap="round" stroke-linejoin="round"/>
<path fill-rule="evenodd" clip-rule="evenodd" d="M99.2972 36.0852C100.237 36.1622 105.288 39.8325 103.876 42.1732C103.065 43.5182 100.622 41.1466 100.35 41.7831C99.4255 43.8878 97.2696 40.8694 96.5407 41.5521C94.5952 43.359 93.7379 40.3971 93.1117 40.5255C89.2823 41.1979 88.6457 37.2402 92.5419 35.459C96.1197 33.8163 98.4092 36.0185 99.2972 36.0852Z" fill="black"/>
<path d="M99.2972 36.0852C100.237 36.1622 105.288 39.8325 103.876 42.1732C103.065 43.5182 100.622 41.1466 100.35 41.7831C99.4255 43.8878 97.2696 40.8694 96.5407 41.5521C94.5952 43.359 93.7379 40.3971 93.1117 40.5255C89.2823 41.1979 88.6457 37.2402 92.5419 35.459C96.1197 33.8163 98.4092 36.0185 99.2972 36.0852Z" stroke="black" stroke-width="2.83" stroke-linecap="round" stroke-linejoin="round"/>
<path d="M93.1367 46.4082C93.8502 47.7942 94.8974 48.7284 96.9867 48.595" stroke="black" stroke-width="1.5" stroke-linecap="round" stroke-linejoin="round"/>
<path fill-rule="evenodd" clip-rule="evenodd" d="M8.01662 1.54206L68.3887 5.86425C70.2584 6.05832 72.0033 6.89335 73.3272 8.22762C74.6512 9.56189 75.4727 11.3132 75.6523 13.1843L79.6152 67.2322C79.8924 70.9898 77.0742 73.849 73.3526 73.5821L12.9856 69.2599C11.1158 69.065 9.37073 68.2299 8.04608 66.8959C6.72142 65.5619 5.89858 63.811 5.71692 61.9399L1.76432 7.89702C1.47686 4.13435 4.29501 1.28026 8.01662 1.54206Z" fill="black"/>
<path d="M8.01662 1.54206L68.3887 5.86425C70.2584 6.05832 72.0033 6.89335 73.3272 8.22762C74.6512 9.56189 75.4727 11.3132 75.6523 13.1843L79.6152 67.2322C79.8924 70.9898 77.0742 73.849 73.3526 73.5821L12.9856 69.2599C11.1158 69.065 9.37073 68.2299 8.04608 66.8959C6.72142 65.5619 5.89858 63.811 5.71692 61.9399L1.76432 7.89702C1.47686 4.13435 4.29501 1.28026 8.01662 1.54206Z" stroke="black" stroke-width="2.83" stroke-linecap="round" stroke-linejoin="round"/>
<path d="M103.475 10.6334C105.282 9.00615 107.735 7.38918 110.343 8.75976C111.57 9.40141 112.134 11.1621 111.472 12.2709" stroke="black" stroke-width="1.5" stroke-linecap="round" stroke-linejoin="round"/>
<path d="M108.055 11.2709C108.912 10.2442 110.472 9.36131 113.126 9.47938C114.81 9.55638 117.561 11.2914 116.412 14.0993C116.412 14.0993 116.345 14.4586 116.34 14.474" stroke="black" stroke-width="1.5" stroke-linecap="round" stroke-linejoin="round"/>
<path d="M119.132 33.5742C118.346 33.9592 118.619 35.1707 118.983 35.2066" stroke="black" stroke-width="1.5" stroke-linecap="round" stroke-linejoin="round"/>
<path d="M120.584 38.4002C119.46 38.5901 117.971 38.0306 117.504 37.1836" stroke="black" stroke-width="1.5" stroke-linecap="round" stroke-linejoin="round"/>
<path d="M120.969 30.9499C120.126 30.667 119.206 30.7222 118.402 31.1039" stroke="black" stroke-width="2.83" stroke-linecap="round" stroke-linejoin="round"/>
<path d="M112.699 64.168C116.733 65.6155 142.774 76.2003 144.212 80.4609C148.431 92.9963 147.938 93.4223 148.955 107.292C149.653 116.779 149.191 126.121 149.17 131.039C149.109 142.999 145.829 142.876 125.917 157.218C124.377 158.317 106.924 170.519 107.047 168.542C107.689 159.19 95.4562 154.852 93.1873 155.95C91.8167 156.608 95.3022 152.968 101.436 147.85C106.498 143.626 119.403 132.204 125.327 129.761C125.989 129.483 125.558 128.77 125.742 128.154C125.948 127.521 126.275 126.935 126.707 126.429C125.481 122.225 123.627 107.108 123.068 99.6079" stroke="black" stroke-width="1.5" stroke-linecap="round" stroke-linejoin="round"/>
<path d="M115.765 66.5352C117.418 70.4672 117.665 74.9023 117.968 76.4783C118.25 77.9566 114.795 77.7564 110.499 78.5829C106.202 79.4093 111.823 82.2018 109.472 83.3465C104.749 85.6616 98.5176 96.8572 97.9786 100.096C97.9334 100.559 97.767 101.002 97.4961 101.38" stroke="black" stroke-width="1.5" stroke-linecap="round" stroke-linejoin="round"/>
<path d="M110.718 69.1172C105.375 74.0708 103.054 77.0173 98.2703 88.8853C94.5589 98.0636 89.6875 123.971 86.9258 147.666" stroke="black" stroke-width="1.5" stroke-linecap="round" stroke-linejoin="round"/>
<path d="M94.7643 67.3613C91.4072 76.1648 87.8806 92.0933 86.1353 102.36C84.7442 110.542 83.4198 137.836 83.1016 146.244" stroke="black" stroke-width="1.5" stroke-linecap="round" stroke-linejoin="round"/>
<path d="M93.1363 63.3613C90.4259 63.5615 77.1411 65.2298 75.1699 66.0666" stroke="black" stroke-width="1.5" stroke-linecap="round" stroke-linejoin="round"/>
<path d="M65.4162 122.96C61.5046 124.448 56.397 124.474 53.1477 124.017C47.265 123.186 35.3815 83.9779 35.248 80.9903C36.1361 78.5007 39.5035 79.4503 43.2918 79.168C45.4273 79.0089 53.9741 77.4689 54.6723 79.5684C56.1712 84.06 62.5672 95.4815 63.445 98.0481" stroke="black" stroke-width="1.5" stroke-linecap="round" stroke-linejoin="round"/>
<path fill-rule="evenodd" clip-rule="evenodd" d="M33.621 71.4631C33.0255 68.1368 32.3736 66.8432 32.5019 62.675C32.5276 61.864 32.9382 58.5684 33.0871 56.7358C33.2569 54.9741 33.2569 53.2001 33.0871 51.4383C32.9023 49.8984 35.1661 49.6776 36.2543 50.7351C36.7676 51.2484 37.1578 54.1795 37.1988 56.9822C37.1988 58.2142 36.7523 59.5848 36.511 61.0375C36.3074 62.5592 36.3524 64.104 36.6444 65.6112C36.7163 66.1246 36.5161 64.3279 36.4135 62.0642C36.3313 60.2624 37.3015 57.9576 37.1424 56.3919C37.0551 55.5141 36.5829 49.924 36.8652 49.2926C37.2656 48.3738 39.5396 48.846 40.2223 50.8326C40.6073 51.9517 40.6689 54.4875 40.6997 56.1609C40.6997 56.7923 40.1248 59.8569 40.1351 60.596C40.1351 62.0796 40.2172 65.3032 40.2891 65.3135C40.3609 65.3238 40.1556 60.7808 40.1915 60.4061C40.2429 59.9236 40.9564 57.28 41.0693 55.7862C41.1654 53.8693 41.1654 51.9487 41.0693 50.0318C41.0693 48.7434 43.6051 49.2618 44.0158 50.9763C44.4528 53.0873 44.6252 55.2445 44.5291 57.398C44.7498 58.553 44.2417 60.401 44.1133 61.3455C44.0209 62.0231 44.2314 65.293 44.3084 65.0774C44.6369 64.1329 44.6677 61.3558 45.027 59.015C45.2426 57.6085 44.6831 55.4731 45.2324 54.4259C45.6482 53.6251 47.2857 53.5686 47.9171 55.2985C48.2222 56.2975 48.3864 57.3341 48.4047 58.3785C48.5895 60.596 48.2045 61.9718 48.7384 63.6401C49.0104 64.4922 49.3595 65.1287 50.7301 69.1942C51.5873 71.7352 52.9374 75.4311 52.845 79.2451C52.7423 83.7367 38.0561 85.5231 36.5623 82.284C35.4484 79.8611 33.2462 79.1271 31.773 76.35C30.2998 73.5729 30.3922 70.7753 31.1416 70.4108C31.3315 70.3184 33.1025 70.5597 33.2616 70.5135C33.4208 70.4673 34.0573 73.9066 33.621 71.4631Z" fill="#FAC384"/>
<path d="M33.621 71.4631C33.0255 68.1368 32.3736 66.8432 32.5019 62.675C32.5276 61.864 32.9382 58.5684 33.0871 56.7358C33.2569 54.9741 33.2569 53.2001 33.0871 51.4383C32.9023 49.8984 35.1661 49.6776 36.2543 50.7351C36.7676 51.2484 37.1578 54.1795 37.1988 56.9822C37.1988 58.2142 36.7523 59.5848 36.511 61.0375C36.3074 62.5592 36.3524 64.104 36.6444 65.6112C36.7163 66.1246 36.5161 64.3279 36.4135 62.0642C36.3313 60.2624 37.3015 57.9576 37.1424 56.3919C37.0551 55.5141 36.5829 49.924 36.8652 49.2926C37.2656 48.3738 39.5396 48.846 40.2223 50.8326C40.6073 51.9517 40.6689 54.4875 40.6997 56.1609C40.6997 56.7923 40.1248 59.8569 40.1351 60.596C40.1351 62.0796 40.2172 65.3032 40.2891 65.3135C40.3609 65.3238 40.1556 60.7808 40.1915 60.4061C40.2429 59.9236 40.9564 57.28 41.0693 55.7862C41.1654 53.8693 41.1654 51.9487 41.0693 50.0318C41.0693 48.7434 43.6051 49.2618 44.0158 50.9763C44.4528 53.0873 44.6252 55.2445 44.5291 57.398C44.7498 58.553 44.2417 60.401 44.1133 61.3455C44.0209 62.0231 44.2314 65.293 44.3084 65.0774C44.6369 64.1329 44.6677 61.3558 45.027 59.015C45.2426 57.6085 44.6831 55.4731 45.2324 54.4259C45.6482 53.6251 47.2857 53.5686 47.9171 55.2985C48.2222 56.2975 48.3864 57.3341 48.4047 58.3785C48.5895 60.596 48.2045 61.9718 48.7384 63.6401C49.0104 64.4922 49.3595 65.1287 50.7301 69.1942C51.5873 71.7352 52.9374 75.4311 52.845 79.2451C52.7423 83.7367 38.0561 85.5231 36.5623 82.284C35.4484 79.8611 33.2462 79.1271 31.773 76.35C30.2998 73.5729 30.3922 70.7753 31.1416 70.4108C31.3315 70.3184 33.1025 70.5597 33.2616 70.5135C33.4208 70.4673 34.0573 73.9066 33.621 71.4631Z" stroke="black" stroke-width="1.5" stroke-linecap="round" stroke-linejoin="round"/>
<path fill-rule="evenodd" clip-rule="evenodd" d="M93.0911 156.829C91.7411 157.019 83.2404 161.69 82.2702 163.194C79.8525 166.942 81.2847 172.855 84.0104 168.292C85.0371 166.536 89.0359 165.961 86.0227 169.041C85.3759 169.703 74.827 173.471 80.0322 173.497C83.1121 173.497 87.4394 172.522 80.4839 174.221C71.4853 176.423 81.0434 177.942 84.2671 175.992C86.0586 174.909 80.8175 178.522 84.3954 178.261C87.1058 178.06 86.5514 180.873 92.9474 176.592C96.5407 174.2 98.8712 173.707 102.459 169.97C104.266 168.086 103.702 169.164 105.262 166.947C108.583 162.219 99.2408 155.967 94.934 156.285C94.549 156.311 93.471 156.778 93.0911 156.829Z" fill="#FAC384"/>
<path d="M93.0911 156.829C91.7411 157.019 83.2404 161.69 82.2702 163.194C79.8525 166.942 81.2847 172.855 84.0104 168.292C85.0371 166.536 89.0359 165.961 86.0227 169.041C85.3759 169.703 74.827 173.471 80.0322 173.497C83.1121 173.497 87.4394 172.522 80.4839 174.221C71.4853 176.423 81.0434 177.942 84.2671 175.992C86.0586 174.909 80.8175 178.522 84.3954 178.261C87.1058 178.06 86.5514 180.873 92.9474 176.592C96.5407 174.2 98.8712 173.707 102.459 169.97C104.266 168.086 103.702 169.164 105.262 166.947C108.583 162.219 99.2408 155.967 94.934 156.285C94.549 156.311 93.471 156.778 93.0911 156.829Z" stroke="black" stroke-width="1.5" stroke-linecap="round" stroke-linejoin="round"/>
<path fill-rule="evenodd" clip-rule="evenodd" d="M21.9743 18.3217C21.0555 17.4645 21.2813 13.5016 19.4077 11.551C17.955 10.011 14.4747 9.83647 13.9151 13.7891C13.5455 16.4122 14.8134 17.6236 12.7755 19.7026C12.2849 20.2253 11.926 20.8575 11.7287 21.5467C11.5314 22.2359 11.5014 22.9623 11.6411 23.6654C12.1544 26.3963 14.2077 27.9671 16.7076 27.5C18.5813 27.1458 19.4282 24.5432 20.2496 25.2208C21.7895 26.4682 39.0732 40.1072 38.8986 39.2962C38.4983 37.4379 38.7139 37.3763 39.0424 37.3096C39.5814 37.1967 40.4438 37.7562 39.4736 35.2563C40.9468 34.4761 41.1367 34.4196 40.5002 32.7308L21.9743 18.3217Z" fill="#FEFEFE"/>
<path d="M21.9743 18.3217C21.0555 17.4645 21.2813 13.5016 19.4077 11.551C17.955 10.011 14.4747 9.83647 13.9151 13.7891C13.5455 16.4122 14.8134 17.6236 12.7755 19.7026C12.2849 20.2253 11.926 20.8575 11.7287 21.5467C11.5314 22.2359 11.5014 22.9623 11.6411 23.6654C12.1544 26.3963 14.2077 27.9671 16.7076 27.5C18.5813 27.1458 19.4282 24.5432 20.2496 25.2208C21.7895 26.4682 39.0732 40.1072 38.8986 39.2962C38.4983 37.4379 38.7139 37.3763 39.0424 37.3096C39.5814 37.1967 40.4438 37.7562 39.4736 35.2563C40.9468 34.4761 41.1367 34.4196 40.5002 32.7308L21.9743 18.3217Z" stroke="black" stroke-width="2.83" stroke-linecap="round" stroke-linejoin="round"/>
<path fill-rule="evenodd" clip-rule="evenodd" d="M58.2296 56.2945C59.051 57.2595 58.5325 61.1249 60.1649 63.2911C61.4431 64.9851 64.7848 65.6319 65.6061 61.8179C66.1605 59.2923 65.0363 57.932 67.1461 56.1713C67.6637 55.7059 68.0603 55.1216 68.3018 54.4688C68.5432 53.816 68.6223 53.1142 68.5321 52.424C68.2703 49.6726 66.3915 47.8554 63.9583 47.9838C62.1309 48.0813 61.1248 50.5504 60.3651 49.7496C59.0048 48.3226 43.4253 32.6046 43.5177 33.4361C43.7641 35.3149 43.5485 35.3457 43.2303 35.3714C42.717 35.4124 41.9162 34.7451 42.6605 37.3425C41.1873 37.9226 41.0025 37.9483 41.5004 39.6936L58.2296 56.2945Z" fill="#FEFEFE"/>
<path d="M58.2296 56.2945C59.051 57.2595 58.5325 61.1249 60.1649 63.2911C61.4431 64.9851 64.7848 65.6319 65.6061 61.8179C66.1605 59.2923 65.0363 57.932 67.1461 56.1713C67.6637 55.7059 68.0603 55.1216 68.3018 54.4688C68.5432 53.816 68.6223 53.1142 68.5321 52.424C68.2703 49.6726 66.3915 47.8554 63.9583 47.9838C62.1309 48.0813 61.1248 50.5504 60.3651 49.7496C59.0048 48.3226 43.4253 32.6046 43.5177 33.4361C43.7641 35.3149 43.5485 35.3457 43.2303 35.3714C42.717 35.4124 41.9162 34.7451 42.6605 37.3425C41.1873 37.9226 41.0025 37.9483 41.5004 39.6936L58.2296 56.2945Z" stroke="black" stroke-width="2.83" stroke-linecap="round" stroke-linejoin="round"/>
<path d="M119.64 105.737C114.22 106.137 108.06 103.914 105.806 103.976L105.236 106.46" stroke="black" stroke-width="1.5" stroke-linecap="round" stroke-linejoin="round"/>
<path d="M125.307 129.744C125.307 129.744 129.439 130.329 130.373 130.632C130.787 130.795 131.217 130.914 131.656 130.986" stroke="black" stroke-width="1.5" stroke-linecap="round" stroke-linejoin="round"/>
<path d="M126.461 127.188C128.14 126.161 131.219 126.618 133.175 126.475" stroke="black" stroke-width="1.5" stroke-linecap="round" stroke-linejoin="round"/>
<path d="M93.3522 132.076C94.0503 132.025 94.579 133.01 94.5328 134.268C94.4866 135.526 93.8809 136.593 93.1776 136.645C92.4744 136.696 91.9508 135.716 91.997 134.453C92.0432 133.19 92.6489 132.148 93.3522 132.076Z" stroke="black" stroke-width="1.5" stroke-linecap="round" stroke-linejoin="round"/>
<path d="M96.2173 118.145C96.9155 118.093 97.4442 119.074 97.398 120.336C97.3518 121.599 96.7461 122.662 96.048 122.713C95.3498 122.764 94.816 121.784 94.8622 120.521C94.9084 119.258 95.5141 118.216 96.2173 118.145Z" stroke="black" stroke-width="1.5" stroke-linecap="round" stroke-linejoin="round"/>
<path d="M99.0806 104.193C99.7787 104.142 100.307 105.122 100.261 106.385C100.215 107.648 99.6093 108.711 98.9112 108.762C98.2131 108.813 97.6792 107.833 97.7254 106.57C97.7716 105.307 98.3825 104.245 99.0806 104.193Z" stroke="black" stroke-width="1.5" stroke-linecap="round" stroke-linejoin="round"/>
<path d="M92.3411 145.627C93.0444 145.576 93.5731 146.556 93.5218 147.819C93.4704 149.082 92.8699 150.144 92.1717 150.196C91.4736 150.247 90.9449 149.266 90.9911 148.004C91.0373 146.741 91.643 145.678 92.3411 145.627Z" stroke="black" stroke-width="1.5" stroke-linecap="round" stroke-linejoin="round"/>
<path d="M92.1104 63.4609C91.2942 67.2133 80.1037 68.1527 87.5932 71.3097C89.2717 72.0181 83.4866 74.2613 82.5318 74.7951C81.9774 75.1083 81.8901 75.7551 82.732 77.9264C84.0512 81.3298 84.9957 87.4897 86.2893 90.8211" stroke="black" stroke-width="1.5" stroke-linecap="round" stroke-linejoin="round"/>
<path fill-rule="evenodd" clip-rule="evenodd" d="M109.337 104.31L107.053 103.796L107.961 98.0729C107.782 97.5596 108.423 96.2609 109.471 96.5843C110.189 96.805 110.22 97.2978 110.266 97.9035L109.337 104.31Z" fill="#FF0000"/>
<path d="M109.337 104.31L107.053 103.796L107.961 98.0729C107.782 97.5596 108.423 96.2609 109.471 96.5843C110.189 96.805 110.22 97.2978 110.266 97.9035L109.337 104.31Z" stroke="black" stroke-width="1.5" stroke-linecap="round" stroke-linejoin="round"/>
<path d="M68.0469 74.0352C68.2266 76.4991 62.3593 93.408 62.6365 95.1328" stroke="black" stroke-width="1.5" stroke-linecap="round" stroke-linejoin="round"/>
<path d="M71.5783 90.7734C71.6296 93.8123 68.5651 112.805 67.5898 116.127C65.6853 122.579 67.5128 129.519 66.1165 136.033L65.9574 136.357C64.6382 139.709 62.7132 152.09 62.7132 155.935C62.6572 156.961 62.6675 157.99 62.744 159.015" stroke="black" stroke-width="1.5" stroke-linecap="round" stroke-linejoin="round"/>
<path d="M36.127 67.2676C36.127 67.5961 36.127 68.3866 36.4298 68.6074" stroke="black" stroke-width="1.5" stroke-linecap="round" stroke-linejoin="round"/>
<path d="M39.7925 67.1406C39.7176 67.481 39.7336 67.835 39.8387 68.1673" stroke="black" stroke-width="1.5" stroke-linecap="round" stroke-linejoin="round"/>
<path d="M43.6777 66.8379C43.6777 67.1408 43.6777 67.9415 44.0217 68.1315" stroke="black" stroke-width="1.5" stroke-linecap="round" stroke-linejoin="round"/>
<path d="M72.4512 86.6768C72.8362 82.3084 72.5179 78.6586 72.7592 75.127" stroke="black" stroke-width="1.5" stroke-linecap="round" stroke-linejoin="round"/>
<path d="M123.73 94.8381C124.896 89.3148 130.768 83.2524 136.358 82.0563L136.666 81.9023" stroke="black" stroke-width="1.5" stroke-linecap="round" stroke-linejoin="round"/>
<path fill-rule="evenodd" clip-rule="evenodd" d="M114.039 22.162C113.059 25.0109 111.078 34.7179 117.042 30.7293C118.957 29.446 116.791 30.1339 118.428 30.8063C119.732 31.3197 119.968 29.8618 120.995 30.8063C122.124 31.833 124.434 30.8063 124.434 28.5169C124.434 26.7665 123.454 26.3815 124.029 24.0921C124.691 21.4484 122.258 20.3243 119.999 20.2062C117.833 20.0984 114.876 19.7288 114.039 22.162Z" fill="black"/>
<path d="M114.039 22.162C113.059 25.0109 111.078 34.7179 117.042 30.7293C118.957 29.446 116.791 30.1339 118.428 30.8063C119.732 31.3197 119.968 29.8618 120.995 30.8063C122.124 31.833 124.434 30.8063 124.434 28.5169C124.434 26.7665 123.454 26.3815 124.029 24.0921C124.691 21.4484 122.258 20.3243 119.999 20.2062C117.833 20.0984 114.876 19.7288 114.039 22.162Z" stroke="black" stroke-width="2.83" stroke-linecap="round" stroke-linejoin="round"/>
<path fill-rule="evenodd" clip-rule="evenodd" d="M89.1021 29.4119C85.0365 28.5854 87.1463 21.4759 88.5579 19.9667C89.3331 19.1351 90.1698 17.9134 91.5609 18.1136C91.8997 18.1598 90.7139 24.7868 90.6369 25.7416C90.5753 26.4397 89.9696 28.8216 89.5692 29.3862C89.4922 29.4992 89.1739 29.4119 89.1021 29.4119Z" fill="black"/>
<path d="M89.1021 29.4119C85.0365 28.5854 87.1463 21.4759 88.5579 19.9667C89.3331 19.1351 90.1698 17.9134 91.5609 18.1136C91.8997 18.1598 90.7139 24.7868 90.6369 25.7416C90.5753 26.4397 89.9696 28.8216 89.5692 29.3862C89.4922 29.4992 89.1739 29.4119 89.1021 29.4119Z" stroke="black" stroke-width="2.83" stroke-linecap="round" stroke-linejoin="round"/>
<path fill-rule="evenodd" clip-rule="evenodd" d="M56.496 199.989C58.036 200.24 66.4494 195.913 68.477 195.009C72.7633 193.089 71.521 192.104 67.7892 190.646C65.9617 189.932 61.5318 188.634 60.849 188.418C57.5586 187.392 55.7568 187.607 53.2878 188.824C51.4438 189.639 49.7048 190.673 48.1083 191.904C45.0848 194.25 45.6649 194.178 48.9194 197.196C49.6894 197.915 55.6234 199.835 56.496 199.989Z" fill="#8ED2D1"/>
<path d="M56.496 199.989C58.036 200.24 66.4494 195.913 68.477 195.009C72.7633 193.089 71.521 192.104 67.7892 190.646C65.9617 189.932 61.5318 188.634 60.849 188.418C57.5586 187.392 55.7568 187.607 53.2878 188.824C51.4438 189.639 49.7048 190.673 48.1083 191.904C45.0848 194.25 45.6649 194.178 48.9194 197.196C49.6894 197.915 55.6234 199.835 56.496 199.989Z" stroke="black" stroke-width="1.5" stroke-linecap="round" stroke-linejoin="round"/>
<path fill-rule="evenodd" clip-rule="evenodd" d="M92.4997 189.732C94.784 190.189 94.3938 191.683 95.2408 191C95.323 190.934 97.212 189.111 97.2941 189.039C98.8752 187.397 97.9563 183.906 97.4071 181.509L86.078 130.105C83.845 121.532 75.329 119.427 75.0826 119.227L12.8111 100.049C9.13572 98.838 6.75389 98.5094 5.26525 98.9201C4.71086 99.0638 2.63703 100.973 2.31363 101.292C0.860925 102.749 3.15549 104.238 4.0846 108.032C6.17897 116.62 12.8111 151.664 13.5452 155.18C14.9312 161.895 16.081 165.103 24.6638 167.269L92.4997 189.732Z" fill="#8ED2D1"/>
<path d="M92.4997 189.732C94.784 190.189 94.3938 191.683 95.2408 191C95.323 190.934 97.212 189.111 97.2941 189.039C98.8752 187.397 97.9563 183.906 97.4071 181.509L86.078 130.105C83.845 121.532 75.329 119.427 75.0826 119.227L12.8111 100.049C9.13572 98.838 6.75389 98.5094 5.26525 98.9201C4.71086 99.0638 2.63703 100.973 2.31363 101.292C0.860925 102.749 3.15549 104.238 4.0846 108.032C6.17897 116.62 12.8111 151.664 13.5452 155.18C14.9312 161.895 16.081 165.103 24.6638 167.269L92.4997 189.732Z" stroke="black" stroke-width="1.5" stroke-linecap="round" stroke-linejoin="round"/>
<path fill-rule="evenodd" clip-rule="evenodd" d="M90.3958 191.755C97.8082 193.244 96.1347 187.192 95.298 183.542L83.9741 132.128C82.3109 123.54 73.2302 121.456 72.9786 121.25L10.7072 102.072C-0.493539 98.3713 0.291848 103.15 1.98069 110.055C4.08019 118.643 10.7072 153.687 11.4464 157.204C12.8272 163.918 13.9771 167.126 22.5599 169.292L90.3958 191.755Z" fill="#8ED2D1"/>
<path d="M90.3958 191.755C97.8082 193.244 96.1347 187.192 95.298 183.542L83.9741 132.128C82.3109 123.54 73.2302 121.456 72.9786 121.25L10.7072 102.072C-0.493539 98.3713 0.291848 103.15 1.98069 110.055C4.08019 118.643 10.7072 153.687 11.4464 157.204C12.8272 163.918 13.9771 167.126 22.5599 169.292L90.3958 191.755Z" stroke="black" stroke-width="1.5" stroke-linecap="round" stroke-linejoin="round"/>
<path fill-rule="evenodd" clip-rule="evenodd" d="M56.6134 199.983C51.6034 199.983 50.5767 182.658 52.2142 172.022L35.4953 166.945C34.6329 176.565 33.1134 192.514 38.7908 194.398C39.8996 194.762 54.8425 199.87 56.6134 199.983Z" fill="#8ED2D1"/>
<path d="M56.6134 199.983C51.6034 199.983 50.5767 182.658 52.2142 172.022L35.4953 166.945C34.6329 176.565 33.1134 192.514 38.7908 194.398C39.8996 194.762 54.8425 199.87 56.6134 199.983Z" stroke="black" stroke-width="1.5" stroke-linecap="round" stroke-linejoin="round"/>
<path fill-rule="evenodd" clip-rule="evenodd" d="M51.5664 178.897L52.2132 172.023L54.5693 179.893L51.5664 178.897Z" fill="black"/>
<path d="M51.5664 178.897L52.2132 172.023L54.5693 179.893L51.5664 178.897Z" stroke="black" stroke-width="1.5" stroke-linecap="round" stroke-linejoin="round"/>
<path fill-rule="evenodd" clip-rule="evenodd" d="M42.6007 138.748C42.0001 138.964 39.685 143.019 39.9417 144.564C40.6654 148.964 43.8737 152.675 45.9681 150.935C47.7955 149.421 46.3531 144.01 44.577 141.49C44.1868 140.94 43.1089 138.564 42.6007 138.748" fill="#FEFEFE"/>
<path d="M100.324 184.343L102.51 183.547C103.46 183.219 103.937 183.414 105.205 183.855L111.997 186.011C112.782 186.417 111.689 187.038 111.304 187.166L99.9592 192.484C98.9194 192.918 97.7601 192.973 96.6841 192.638H96.6328" stroke="black" stroke-width="1.5" stroke-linecap="round" stroke-linejoin="round"/>
<path d="M138.236 148.549C138.816 156.829 137.985 174.118 139.561 181.263" stroke="black" stroke-width="1.5" stroke-linecap="round" stroke-linejoin="round"/>
<path d="M133.643 166.242C127.411 169.589 121.949 172.438 112.658 172.962L112.145 173.054" stroke="black" stroke-width="1.5" stroke-linecap="round" stroke-linejoin="round"/>
</svg>
