<svg width="28" height="28" viewBox="0 0 28 28" fill="none" xmlns="http://www.w3.org/2000/svg">
<path d="M15.4806 9.35262C14.3357 9.02284 12.9979 9.19706 11.7162 9.83795C10.6957 10.3482 9.53838 11.462 9.27083 12.7935C9.03438 13.9508 9.12149 14.9651 9.51972 15.6495C9.83705 16.1971 10.3784 16.502 10.5402 16.5766C10.5962 16.6015 10.7642 16.6015 10.8637 16.5082C10.9633 16.4148 11.0442 15.998 11.0691 15.8548C11.1002 15.6993 11.1313 15.6122 11.0068 15.4877C10.7828 15.2513 10.5091 14.7162 10.4468 14.1873C10.3908 13.7082 10.4842 13.1046 10.6895 12.6068C11.0566 11.7171 11.9526 11.0948 12.3259 10.8708C12.4628 10.7837 13.7446 10.0246 15.4184 10.6842C17.0299 11.3188 17.1668 13.0922 17.1668 13.1233C17.2415 13.6397 17.0735 14.9651 16.5633 15.998C16.0344 17.0744 15.0015 17.4228 14.3046 17.1304C14.0246 17.0122 13.5704 16.6948 13.6451 15.8611C13.6575 15.7553 13.7197 15.494 13.8504 15.0086C13.9686 14.5606 14.1117 14.0068 14.1926 13.6273C14.3171 13.0175 14.1677 12.1277 13.3153 12.1277C12.9482 12.1277 12.5686 12.3082 12.2264 12.8806C11.7659 13.6522 12.189 15.1268 12.189 15.1268C12.189 15.1268 11.6291 17.4228 11.4922 18.0015C11.3677 18.5366 11.2122 19.6691 11.2557 20.3286C11.2682 20.534 11.2931 20.702 11.3304 20.8202L11.4237 21.15C11.4362 21.1562 11.4486 21.1562 11.4611 21.1624L11.7037 20.9695C11.7597 20.926 11.8219 20.8637 11.9215 20.758C12.1642 20.4966 12.5002 19.862 12.6682 19.4202C12.8424 18.9722 13.0664 17.9455 13.0664 17.9331L13.1722 17.454L13.5019 17.8211C13.7508 18.1011 14.3606 18.3064 14.6842 18.3811C14.9268 18.4371 15.7668 18.462 16.7624 17.902C17.5713 17.4477 18.1748 16.6824 18.5544 15.6308C18.8593 14.7846 19.0957 13.0548 18.4922 11.742C17.9384 10.5597 16.9553 9.77573 15.4806 9.35262V9.35262Z" fill="black"/>
<path d="M14 0C6.26578 0 0 6.26578 0 14C0 21.7342 6.26578 28 14 28C21.7342 28 28 21.7342 28 14C28 6.26578 21.7342 0 14 0ZM14 21.7778C9.70667 21.7778 6.22222 18.2933 6.22222 14C6.22222 9.70667 9.70667 6.22222 14 6.22222C18.2933 6.22222 21.7778 9.70667 21.7778 14C21.7778 18.2933 18.2933 21.7778 14 21.7778Z" fill="black"/>
</svg>
