<svg width="28" height="28" viewBox="0 0 28 28" fill="none" xmlns="http://www.w3.org/2000/svg">
<path d="M14 0C6.26578 0 0 6.26578 0 14C0 21.7342 6.26578 28 14 28C21.7342 28 28 21.7342 28 14C28 6.26578 21.7342 0 14 0ZM18.0196 8.77956C18.0196 8.77956 16.5387 8.76711 16.1653 8.76711C15.6053 8.76711 15.232 9.25245 15.232 9.744V11.8036H18.0196L17.7022 14.6098H15.2009V21.7778H12.3698V14.6471H9.98044V11.7724H12.4071C12.4071 11.7724 12.4071 10.7644 12.4071 9.05956C12.4071 7.54756 14.0871 6.216 15.2569 6.216C15.4311 6.216 18.0196 6.24089 18.0196 6.24089V8.77956Z" fill="black"/>
</svg>
