<svg width="28" height="28" viewBox="0 0 28 28" fill="none" xmlns="http://www.w3.org/2000/svg">
<path d="M14 0C6.28132 0 0 6.28132 0 14C0 21.7186 6.28132 28 14 28C21.7187 28 28 21.7186 28 14C28 6.28132 21.7187 0 14 0ZM7.97065 20.0293C5.75865 17.808 5.67469 14.2613 7.78403 11.9467C8.12936 11.5733 8.71736 11.5453 9.1 11.8907C9.48264 12.236 9.51067 12.824 9.16534 13.2066C7.72803 14.784 7.78403 17.2013 9.29602 18.704C10.7987 20.216 13.216 20.272 14.7933 18.8346C15.176 18.4893 15.764 18.5173 16.1093 18.9C16.464 19.2826 16.436 19.8706 16.0533 20.216C14.9333 21.2333 13.524 21.7467 12.1146 21.7467C10.612 21.7467 9.11869 21.168 7.97065 20.0293ZM10.4067 16.268L15.876 10.808C16.24 10.4347 16.8373 10.4347 17.2013 10.808C17.5653 11.172 17.5653 11.76 17.2013 12.124L11.732 17.5933C11.5453 17.7706 11.312 17.864 11.0693 17.864C10.836 17.864 10.5933 17.7706 10.4067 17.5933C10.0427 17.2293 10.0427 16.632 10.4067 16.268ZM20.216 16.0533C20.0294 16.2493 19.7773 16.352 19.5253 16.352C19.3013 16.352 19.0773 16.268 18.9 16.1093C18.5174 15.7547 18.4987 15.1667 18.844 14.784C19.516 14.056 19.88 13.1133 19.8706 12.1146C19.88 11.0506 19.4693 10.052 18.7133 9.29596C17.2013 7.78396 14.784 7.72797 13.2067 9.16534C12.8333 9.51067 12.236 9.48264 11.8907 9.1C11.5453 8.71731 11.5734 8.1293 11.956 7.78397C14.2706 5.67463 17.8174 5.75866 20.0294 7.97065C21.14 9.08131 21.7467 10.556 21.7373 12.1146C21.7467 13.5706 21.2053 14.9706 20.216 16.0533V16.0533Z" fill="black"/>
</svg>
