<svg width="28" height="28" viewBox="0 0 28 28" fill="none" xmlns="http://www.w3.org/2000/svg">
<path d="M14 0C6.26578 0 0 6.26578 0 14C0 21.7342 6.26578 28 14 28C21.7342 28 28 21.7342 28 14C28 6.26578 21.7342 0 14 0ZM20.2409 10.7707C20.2409 10.7707 20.6951 14.9147 17.4222 18.0196C12.8364 22.3689 6.22222 18.984 6.22222 18.984C9.40178 19.0213 10.7458 17.6836 10.7458 17.6836C8.13244 17.2356 7.87111 15.3689 7.87111 15.3689C8.31911 15.6489 9.296 15.3689 9.296 15.3689C6.384 14.0311 6.83822 12.2702 6.83822 12.2702C7.68444 12.7431 8.31911 12.5689 8.31911 12.5689C6.05422 10.6027 7.336 8.51822 7.336 8.51822C11.312 12.3013 13.8693 11.5236 13.8693 11.5236C13.6889 8.86044 15.2631 7.82756 16.9618 7.77156C18.3929 7.72178 19.2142 8.71733 19.2142 8.71733C20.3156 8.81067 21.3484 8.07644 21.3484 8.07644C21.2551 8.96622 20.048 9.71911 20.048 9.71911C20.6764 9.77511 21.7716 9.43289 21.7716 9.43289C21.2053 10.472 20.2409 10.7707 20.2409 10.7707V10.7707Z" fill="black"/>
</svg>
