<svg width="507" height="31" viewBox="0 0 507 31" fill="none" xmlns="http://www.w3.org/2000/svg">
<rect y="3" width="507" height="23" rx="11.5" fill="#33CC66"/>
<path d="M141.765 13.32C141.585 13.668 141.393 14.004 141.213 14.34C141.021 14.004 140.841 13.668 140.661 13.32L138.849 10.02H137.709L140.709 15.204V18H141.705V15.204L144.705 10.02H143.589L141.765 13.32ZM147.442 18.192C149.458 18.192 150.454 16.788 150.454 14.988C150.454 13.212 149.458 11.808 147.442 11.808C145.414 11.808 144.418 13.2 144.418 14.988C144.418 16.8 145.414 18.192 147.442 18.192ZM145.39 15C145.39 13.308 146.086 12.588 147.442 12.588C148.798 12.588 149.482 13.308 149.482 15C149.482 16.68 148.798 17.412 147.442 17.412C146.086 17.412 145.39 16.68 145.39 15ZM156.116 14.292C156.116 16.284 155.408 17.4 154.16 17.4C153.236 17.4 152.648 17.052 152.648 15.72V12H151.688V15.828C151.688 17.4 152.372 18.192 153.884 18.192C155.048 18.192 155.756 17.544 156.116 16.476V18H157.076V12H156.116V14.292ZM161.866 11.916C160.726 11.916 160.03 12.588 159.67 13.584V12H158.71V18H159.67V15.792C159.67 14.1 160.054 12.804 161.83 12.864H162.082V11.916H161.866ZM167.822 18.156C169.214 18.156 169.85 17.316 170.078 16.596C170.078 17.04 170.114 17.484 170.162 18H171.038C170.978 17.412 170.966 16.944 170.966 16.512V13.632C170.966 12.552 170.222 11.796 168.578 11.796C166.922 11.796 166.022 12.612 165.986 13.884H166.934C166.994 13.104 167.438 12.552 168.614 12.552C169.778 12.552 170.09 13.02 170.09 13.632C170.09 14.088 169.826 14.256 169.19 14.364L167.666 14.616C166.37 14.832 165.842 15.444 165.842 16.416C165.842 17.556 166.67 18.156 167.822 18.156ZM168.014 17.4C167.306 17.4 166.814 17.064 166.814 16.38C166.814 15.732 167.198 15.42 168.014 15.252L169.01 15.048C169.466 14.952 169.79 14.856 170.09 14.64V15.156C170.09 16.296 169.43 17.4 168.014 17.4ZM172.191 15C172.191 16.836 173.223 18.192 175.191 18.192C177.015 18.192 177.987 17.088 178.059 15.708H177.147C177.027 16.728 176.403 17.412 175.191 17.412C173.931 17.412 173.163 16.74 173.163 15C173.163 13.272 173.955 12.588 175.227 12.588C176.343 12.588 176.943 13.212 177.087 14.196H177.987C177.891 12.804 176.991 11.808 175.191 11.808C173.247 11.808 172.191 13.164 172.191 15ZM179 15C179 16.836 180.032 18.192 182 18.192C183.824 18.192 184.796 17.088 184.868 15.708H183.956C183.836 16.728 183.212 17.412 182 17.412C180.74 17.412 179.972 16.74 179.972 15C179.972 13.272 180.764 12.588 182.036 12.588C183.152 12.588 183.752 13.212 183.896 14.196H184.796C184.7 12.804 183.8 11.808 182 11.808C180.056 11.808 179 13.164 179 15ZM188.832 18.192C190.848 18.192 191.844 16.788 191.844 14.988C191.844 13.212 190.848 11.808 188.832 11.808C186.804 11.808 185.808 13.2 185.808 14.988C185.808 16.8 186.804 18.192 188.832 18.192ZM186.78 15C186.78 13.308 187.476 12.588 188.832 12.588C190.188 12.588 190.872 13.308 190.872 15C190.872 16.68 190.188 17.412 188.832 17.412C187.476 17.412 186.78 16.68 186.78 15ZM197.506 14.292C197.506 16.284 196.798 17.4 195.55 17.4C194.626 17.4 194.038 17.052 194.038 15.72V12H193.078V15.828C193.078 17.4 193.762 18.192 195.274 18.192C196.438 18.192 197.146 17.544 197.506 16.476V18H198.466V12H197.506V14.292ZM203.365 11.808C202.177 11.808 201.433 12.48 201.061 13.572V12H200.101V18H201.061V15.708C201.061 13.644 201.769 12.612 203.101 12.612C203.977 12.612 204.541 12.996 204.541 14.28V18H205.501V14.172C205.501 12.624 204.865 11.808 203.365 11.808ZM210.387 18V17.22H208.479V12.756H210.459V12H208.479V10.668H207.963L207.603 11.916L206.379 12.216V12.756H207.519V16.596C207.519 17.556 207.819 18 208.971 18H210.387ZM213.977 15.996C214.001 17.256 214.793 18.192 216.749 18.192C218.345 18.192 219.197 17.592 219.197 16.368C219.197 15.384 218.693 14.796 217.313 14.592L216.041 14.412C215.285 14.304 215.069 13.944 215.069 13.524C215.069 12.936 215.489 12.528 216.509 12.528C217.613 12.528 218.069 13.092 218.129 13.716H219.077C219.005 12.588 218.105 11.796 216.533 11.796C215.021 11.796 214.133 12.48 214.133 13.596C214.133 14.52 214.721 15.072 215.765 15.216L217.157 15.42C217.913 15.528 218.249 15.84 218.249 16.416C218.249 17.088 217.829 17.46 216.773 17.46C215.393 17.46 214.937 16.812 214.865 15.996H213.977ZM223.238 17.46C222.038 17.46 221.246 16.86 221.174 15.216H225.998C226.022 15.072 226.022 14.952 226.022 14.796C226.022 13.044 225.002 11.808 223.202 11.808C221.21 11.808 220.226 13.2 220.226 14.988C220.226 16.8 221.138 18.192 223.202 18.192C225.194 18.192 225.89 17.064 226.01 16.152H225.134C224.954 16.908 224.414 17.46 223.238 17.46ZM223.214 12.54C224.33 12.54 225.038 13.116 225.086 14.496H221.198C221.33 13.08 222.074 12.54 223.214 12.54ZM230.59 18V17.22H228.682V12.756H230.662V12H228.682V10.668H228.166L227.806 11.916L226.582 12.216V12.756H227.722V16.596C227.722 17.556 228.022 18 229.174 18H230.59ZM235.137 18V17.22H233.229V12.756H235.209V12H233.229V10.668H232.713L232.353 11.916L231.129 12.216V12.756H232.269V16.596C232.269 17.556 232.569 18 233.721 18H235.137ZM237.533 11.016V10.02H236.297V11.016H237.533ZM237.389 18V12H236.429V18H237.389ZM242.294 11.808C241.106 11.808 240.362 12.48 239.99 13.572V12H239.03V18H239.99V15.708C239.99 13.644 240.698 12.612 242.03 12.612C242.906 12.612 243.47 12.996 243.47 14.28V18H244.43V14.172C244.43 12.624 243.794 11.808 242.294 11.808ZM250.754 13.032C250.346 12.264 249.614 11.832 248.522 11.832C246.638 11.832 245.75 13.008 245.75 14.844C245.75 16.692 246.638 17.868 248.522 17.868C249.602 17.868 250.346 17.484 250.754 16.704V18C250.754 19.284 250.166 19.776 248.75 19.776C247.418 19.776 246.914 19.176 246.842 18.384H245.894C246.002 19.752 246.962 20.532 248.75 20.532C250.934 20.532 251.714 19.608 251.714 18.012V12H250.754V13.032ZM248.75 17.112C247.382 17.112 246.734 16.464 246.734 14.844C246.734 13.224 247.382 12.588 248.75 12.588C250.022 12.588 250.754 13.224 250.754 14.844C250.754 16.476 250.022 17.112 248.75 17.112ZM252.989 15.996C253.013 17.256 253.805 18.192 255.761 18.192C257.357 18.192 258.209 17.592 258.209 16.368C258.209 15.384 257.705 14.796 256.325 14.592L255.053 14.412C254.297 14.304 254.081 13.944 254.081 13.524C254.081 12.936 254.501 12.528 255.521 12.528C256.625 12.528 257.081 13.092 257.141 13.716H258.089C258.017 12.588 257.117 11.796 255.545 11.796C254.033 11.796 253.145 12.48 253.145 13.596C253.145 14.52 253.733 15.072 254.777 15.216L256.169 15.42C256.925 15.528 257.261 15.84 257.261 16.416C257.261 17.088 256.841 17.46 255.785 17.46C254.405 17.46 253.949 16.812 253.877 15.996H252.989ZM265.556 11.808C264.368 11.808 263.624 12.48 263.252 13.572V9.6H262.292V18H263.252V15.708C263.252 13.644 263.96 12.612 265.292 12.612C266.168 12.612 266.732 12.996 266.732 14.28V18H267.692V14.172C267.692 12.624 267.056 11.808 265.556 11.808ZM271.03 18.156C272.422 18.156 273.058 17.316 273.286 16.596C273.286 17.04 273.322 17.484 273.37 18H274.246C274.186 17.412 274.174 16.944 274.174 16.512V13.632C274.174 12.552 273.43 11.796 271.786 11.796C270.13 11.796 269.23 12.612 269.194 13.884H270.142C270.202 13.104 270.646 12.552 271.822 12.552C272.986 12.552 273.298 13.02 273.298 13.632C273.298 14.088 273.034 14.256 272.398 14.364L270.874 14.616C269.578 14.832 269.05 15.444 269.05 16.416C269.05 17.556 269.878 18.156 271.03 18.156ZM271.222 17.4C270.514 17.4 270.022 17.064 270.022 16.38C270.022 15.732 270.406 15.42 271.222 15.252L272.218 15.048C272.674 14.952 272.998 14.856 273.298 14.64V15.156C273.298 16.296 272.638 17.4 271.222 17.4ZM277.994 17.16L275.978 12H274.97L277.334 18H278.606L280.97 12H280.022L277.994 17.16ZM284.469 17.46C283.269 17.46 282.477 16.86 282.405 15.216H287.229C287.253 15.072 287.253 14.952 287.253 14.796C287.253 13.044 286.233 11.808 284.433 11.808C282.441 11.808 281.457 13.2 281.457 14.988C281.457 16.8 282.369 18.192 284.433 18.192C286.425 18.192 287.121 17.064 287.241 16.152H286.365C286.185 16.908 285.645 17.46 284.469 17.46ZM284.445 12.54C285.561 12.54 286.269 13.116 286.317 14.496H282.429C282.561 13.08 283.305 12.54 284.445 12.54ZM294.57 11.808C293.466 11.808 292.71 12.288 292.302 13.14V9.6H291.342V18H292.302V16.848C292.71 17.7 293.466 18.192 294.57 18.192C296.454 18.192 297.318 16.836 297.318 15C297.318 13.152 296.454 11.808 294.57 11.808ZM294.378 17.412C293.106 17.412 292.302 16.692 292.302 15C292.302 13.308 293.106 12.588 294.378 12.588C295.746 12.588 296.346 13.38 296.346 15C296.346 16.608 295.746 17.412 294.378 17.412ZM301.367 17.46C300.167 17.46 299.375 16.86 299.303 15.216H304.127C304.151 15.072 304.151 14.952 304.151 14.796C304.151 13.044 303.131 11.808 301.331 11.808C299.339 11.808 298.355 13.2 298.355 14.988C298.355 16.8 299.267 18.192 301.331 18.192C303.323 18.192 304.019 17.064 304.139 16.152H303.263C303.083 16.908 302.543 17.46 301.367 17.46ZM301.343 12.54C302.459 12.54 303.167 13.116 303.215 14.496H299.327C299.459 13.08 300.203 12.54 301.343 12.54ZM308.141 17.46C306.941 17.46 306.149 16.86 306.077 15.216H310.901C310.925 15.072 310.925 14.952 310.925 14.796C310.925 13.044 309.905 11.808 308.105 11.808C306.113 11.808 305.129 13.2 305.129 14.988C305.129 16.8 306.041 18.192 308.105 18.192C310.097 18.192 310.793 17.064 310.913 16.152H310.037C309.857 16.908 309.317 17.46 308.141 17.46ZM308.117 12.54C309.233 12.54 309.941 13.116 309.989 14.496H306.101C306.233 13.08 306.977 12.54 308.117 12.54ZM315.419 11.808C314.231 11.808 313.487 12.48 313.115 13.572V12H312.155V18H313.115V15.708C313.115 13.644 313.823 12.612 315.155 12.612C316.031 12.612 316.595 12.996 316.595 14.28V18H317.555V14.172C317.555 12.624 316.919 11.808 315.419 11.808ZM326.19 14.292C326.19 16.284 325.482 17.4 324.234 17.4C323.31 17.4 322.722 17.052 322.722 15.72V12H321.762V15.828C321.762 17.4 322.446 18.192 323.958 18.192C325.122 18.192 325.83 17.544 326.19 16.476V18H327.15V12H326.19V14.292ZM332.047 11.808C330.943 11.808 330.187 12.3 329.779 13.152V12H328.819V20.4H329.779V16.86C330.187 17.712 330.943 18.192 332.047 18.192C333.931 18.192 334.795 16.848 334.795 15C334.795 13.164 333.931 11.808 332.047 11.808ZM331.855 17.412C330.583 17.412 329.779 16.692 329.779 15C329.779 13.308 330.583 12.588 331.855 12.588C333.223 12.588 333.823 13.392 333.823 15C333.823 16.62 333.223 17.412 331.855 17.412ZM340.895 13.14C340.487 12.288 339.731 11.808 338.627 11.808C336.743 11.808 335.879 13.152 335.879 15C335.879 16.836 336.743 18.192 338.627 18.192C339.731 18.192 340.487 17.7 340.895 16.848V18H341.855V9.6H340.895V13.14ZM338.819 17.412C337.451 17.412 336.851 16.608 336.851 15C336.851 13.38 337.451 12.588 338.819 12.588C340.091 12.588 340.895 13.308 340.895 15C340.895 16.692 340.091 17.412 338.819 17.412ZM345.315 18.156C346.707 18.156 347.343 17.316 347.571 16.596C347.571 17.04 347.607 17.484 347.655 18H348.531C348.471 17.412 348.459 16.944 348.459 16.512V13.632C348.459 12.552 347.715 11.796 346.071 11.796C344.415 11.796 343.515 12.612 343.479 13.884H344.427C344.487 13.104 344.931 12.552 346.107 12.552C347.271 12.552 347.583 13.02 347.583 13.632C347.583 14.088 347.319 14.256 346.683 14.364L345.159 14.616C343.863 14.832 343.335 15.444 343.335 16.416C343.335 17.556 344.163 18.156 345.315 18.156ZM345.507 17.4C344.799 17.4 344.307 17.064 344.307 16.38C344.307 15.732 344.691 15.42 345.507 15.252L346.503 15.048C346.959 14.952 347.283 14.856 347.583 14.64V15.156C347.583 16.296 346.923 17.4 345.507 17.4ZM353.32 18V17.22H351.412V12.756H353.392V12H351.412V10.668H350.896L350.536 11.916L349.312 12.216V12.756H350.452V16.596C350.452 17.556 350.752 18 351.904 18H353.32ZM357.055 17.46C355.855 17.46 355.063 16.86 354.991 15.216H359.815C359.839 15.072 359.839 14.952 359.839 14.796C359.839 13.044 358.819 11.808 357.019 11.808C355.027 11.808 354.043 13.2 354.043 14.988C354.043 16.8 354.955 18.192 357.019 18.192C359.011 18.192 359.707 17.064 359.827 16.152H358.951C358.771 16.908 358.231 17.46 357.055 17.46ZM357.031 12.54C358.147 12.54 358.855 13.116 358.903 14.496H355.015C355.147 13.08 355.891 12.54 357.031 12.54ZM365.903 13.14C365.495 12.288 364.739 11.808 363.635 11.808C361.751 11.808 360.887 13.152 360.887 15C360.887 16.836 361.751 18.192 363.635 18.192C364.739 18.192 365.495 17.7 365.903 16.848V18H366.863V9.6H365.903V13.14ZM363.827 17.412C362.459 17.412 361.859 16.608 361.859 15C361.859 13.38 362.459 12.588 363.827 12.588C365.099 12.588 365.903 13.308 365.903 15C365.903 16.692 365.099 17.412 363.827 17.412ZM369.393 18V16.944H368.145V18H369.393Z" fill="black"/>
<path fill-rule="evenodd" clip-rule="evenodd" d="M390.647 5.31774C391.42 2.24546 390.988 1.00414 392.413 1C393.624 1 393.241 2.67372 393.752 4.48605C394.534 7.23972 395.463 10.4982 401.837 11.3423C405.122 11.7788 404.413 13.3429 402.634 13.6987C401.599 13.9056 401.643 13.7546 400.025 14.0504C394.764 15.0125 394.097 19.6923 393.551 23.079C393.224 25.1065 391.809 25.1065 391.323 22.4583C390.796 19.5743 390.86 14.3794 382.383 13.9553C380.6 13.8663 380.635 12.3747 381.949 12.0209C386.242 10.8664 389.066 11.5988 390.647 5.31774Z" fill="#FFCC00"/>
<path d="M390.647 5.31774C391.42 2.24546 390.988 1.00414 392.413 1C393.624 1 393.241 2.67372 393.752 4.48605C394.534 7.23972 395.463 10.4982 401.837 11.3423C405.122 11.7788 404.413 13.3429 402.634 13.6987C401.599 13.9056 401.643 13.7546 400.025 14.0504C394.764 15.0125 394.097 19.6923 393.551 23.079C393.224 25.1065 391.809 25.1065 391.323 22.4583C390.796 19.5743 390.86 14.3794 382.383 13.9553C380.6 13.8663 380.635 12.3747 381.949 12.0209C386.242 10.8664 389.066 11.5988 390.647 5.31774Z" stroke="black" stroke-width="0.8" stroke-miterlimit="22.93" stroke-linecap="round"/>
<path fill-rule="evenodd" clip-rule="evenodd" d="M401.519 18.2198C401.978 16.393 401.725 15.6544 402.57 15.6523C403.287 15.6523 403.058 16.6475 403.364 17.7212C403.829 19.3598 404.382 21.2962 408.17 21.7969C410.121 22.0555 409.701 22.9865 408.644 23.1975C408.023 23.3196 408.054 23.2306 407.092 23.4044C403.966 23.9775 403.575 26.758 403.246 28.7711C403.052 29.9772 402.212 29.9751 401.922 28.4028C401.608 26.6877 401.645 23.6009 396.607 23.3485C395.548 23.2948 395.573 22.4093 396.351 22.1983C398.899 21.53 400.579 21.9541 401.519 18.2198Z" fill="#FFCC00"/>
<path d="M401.519 18.2198C401.978 16.393 401.725 15.6544 402.57 15.6523C403.287 15.6523 403.058 16.6475 403.364 17.7212C403.829 19.3598 404.382 21.2962 408.17 21.7969C410.121 22.0555 409.701 22.9865 408.644 23.1975C408.023 23.3196 408.054 23.2306 407.092 23.4044C403.966 23.9775 403.575 26.758 403.246 28.7711C403.052 29.9772 402.212 29.9751 401.922 28.4028C401.608 26.6877 401.645 23.6009 396.607 23.3485C395.548 23.2948 395.573 22.4093 396.351 22.1983C398.899 21.53 400.579 21.9541 401.519 18.2198Z" stroke="black" stroke-width="0.8" stroke-miterlimit="22.93" stroke-linecap="round"/>
<path fill-rule="evenodd" clip-rule="evenodd" d="M407.783 6.09145C408.083 4.90392 407.915 4.42394 408.468 4.42188C408.935 4.42188 408.784 5.06943 408.985 5.77078C409.287 6.83418 409.647 8.09619 412.111 8.42307C413.381 8.59065 413.108 9.19683 412.419 9.33338C412.022 9.41199 412.037 9.35407 411.412 9.46992C409.376 9.84232 409.12 11.6526 408.906 12.9622C408.78 13.7463 408.234 13.7463 408.046 12.7222C407.839 11.6071 407.866 9.59612 404.587 9.43268C403.898 9.39958 403.91 8.81202 404.419 8.68375C406.078 8.23894 407.173 8.51824 407.783 6.09145Z" fill="#FFCC00"/>
<path d="M407.783 6.09145C408.083 4.90392 407.915 4.42394 408.468 4.42188C408.935 4.42188 408.784 5.06943 408.985 5.77078C409.287 6.83418 409.647 8.09619 412.111 8.42307C413.381 8.59065 413.108 9.19683 412.419 9.33338C412.022 9.41199 412.037 9.35407 411.412 9.46992C409.376 9.84232 409.12 11.6526 408.906 12.9622C408.78 13.7463 408.234 13.7463 408.046 12.7222C407.839 11.6071 407.866 9.59612 404.587 9.43268C403.898 9.39958 403.91 8.81202 404.419 8.68375C406.078 8.23894 407.173 8.51824 407.783 6.09145Z" stroke="black" stroke-width="0.8" stroke-miterlimit="22.93" stroke-linecap="round"/>
</svg>
