<svg width="233" height="269" viewBox="0 0 233 269" fill="none" xmlns="http://www.w3.org/2000/svg">
<path fill-rule="evenodd" clip-rule="evenodd" d="M39.4439 51.4082C43.1883 51.4082 46.8487 52.5182 49.9625 54.598C53.0762 56.6777 55.5036 59.6339 56.9377 63.0928C58.3719 66.5517 58.7485 70.3581 58.0199 74.031C57.2913 77.7039 55.4903 81.0783 52.8445 83.7279C50.1986 86.3775 46.8267 88.1833 43.1548 88.917C39.483 89.6508 35.676 89.2796 32.2151 87.8503C28.7542 86.421 25.7946 83.9978 23.7105 80.887C21.6263 77.7762 20.5112 74.1174 20.5059 70.3729C20.5024 67.8837 20.9896 65.4182 21.9398 63.1175C22.8899 60.8167 24.2843 58.7258 26.0432 56.9645C27.8021 55.2031 29.891 53.8057 32.1904 52.8523C34.4898 51.8989 36.9546 51.4082 39.4439 51.4082Z" fill="#FFCC00"/>
<path d="M39.4439 51.4082C43.1883 51.4082 46.8487 52.5182 49.9625 54.598C53.0762 56.6777 55.5036 59.6339 56.9377 63.0928C58.3719 66.5517 58.7485 70.3581 58.0199 74.031C57.2913 77.7039 55.4903 81.0783 52.8445 83.7279C50.1986 86.3775 46.8267 88.1833 43.1548 88.917C39.483 89.6508 35.676 89.2796 32.2151 87.8503C28.7542 86.421 25.7946 83.9978 23.7105 80.887C21.6263 77.7762 20.5112 74.1174 20.5059 70.3729C20.5024 67.8837 20.9896 65.4182 21.9398 63.1175C22.8899 60.8167 24.2843 58.7258 26.0432 56.9645C27.8021 55.2031 29.891 53.8057 32.1904 52.8523C34.4898 51.8989 36.9546 51.4082 39.4439 51.4082V51.4082Z" stroke="black" stroke-width="2.83" stroke-linecap="round" stroke-linejoin="round"/>
<path fill-rule="evenodd" clip-rule="evenodd" d="M17.2262 119.705C14.5074 119.806 9.37042 118.296 12.2161 113.159C14.0665 109.819 18.2282 111.676 24.1868 105.724C29.8582 100.053 35.7233 99.5651 40.7734 106.345C44.2404 111.021 52.8643 104.428 58.656 108.884C64.4476 113.339 71.2345 110.039 72.9847 115.51C74.1537 119.158 67.7275 119.759 67.6406 119.705H17.2262Z" fill="#FEFEFE"/>
<path d="M17.2262 119.705C14.5074 119.806 9.37042 118.296 12.2161 113.159C14.0665 109.819 18.2282 111.676 24.1868 105.724C29.8582 100.053 35.7233 99.5651 40.7734 106.345C44.2404 111.021 52.8643 104.428 58.656 108.884C64.4476 113.339 71.2345 110.039 72.9847 115.51C74.1537 119.158 67.7275 119.759 67.6406 119.705H17.2262Z" stroke="black" stroke-width="2.83" stroke-linecap="round" stroke-linejoin="round"/>
<path fill-rule="evenodd" clip-rule="evenodd" d="M63.8325 111.609C65.703 111.79 81.2675 115.617 81.2675 116.386C81.2675 127.414 79.9315 123.012 82.8908 135.39C83.8059 139.165 83.9729 147.081 82.7371 150.975C82.4298 151.93 79.1566 167.628 79.9849 168.076C82.4566 169.412 100.332 174.235 103.559 174.636C108.756 175.27 113.686 177.809 120.927 177.809C133.446 177.809 135.169 176.399 146.979 173.353C150.052 172.558 156.946 170.067 155.303 166.092C153.706 162.238 147.915 142.244 149.818 137.942C152.277 132.371 153.078 123.667 151.288 117.702C152.958 116.913 168.99 112.358 169.197 114.676C166.525 99.5452 162.11 83.2325 154.822 79.672C140.914 72.8851 134.675 88.0956 103.973 80.0261C99.2235 81.1082 93.4252 78.9572 87.6069 78.1757C81.1807 77.3139 74.721 78.1156 69.6041 86.7462C68.4017 88.7502 65.8165 100.627 63.8125 111.609" fill="#FFFFCC"/>
<path fill-rule="evenodd" clip-rule="evenodd" d="M113.999 228.323C106.932 232.097 95.7828 223.253 86.9117 233.667C84.1328 236.92 76.9851 238.864 71.8949 241.176C69.1895 242.398 67.5996 242.899 66.484 245.417C65.0345 248.684 56.0164 256.713 64.8274 259.138C66.1634 259.499 63.7452 261.45 69.8107 262.665C69.9376 262.665 72.1688 264.73 73.0839 264.836C83.0573 265.972 85.0747 259.158 96.9385 254.562C102.176 252.558 111.681 248.504 116.144 245.571C118.675 243.908 122.824 243.854 124.534 241.563C125.629 240.087 125.73 237.689 123.779 233.36C121.868 229.105 114.941 227.822 113.999 228.323Z" fill="#F7B6C8"/>
<path d="M113.999 228.323C106.932 232.097 95.7828 223.253 86.9117 233.667C84.1328 236.92 76.9851 238.864 71.8949 241.176C69.1895 242.398 67.5996 242.899 66.484 245.417C65.0345 248.684 56.0164 256.713 64.8274 259.138C66.1634 259.499 63.7452 261.45 69.8107 262.665C69.9376 262.665 72.1688 264.73 73.0839 264.836C83.0573 265.972 85.0747 259.158 96.9385 254.562C102.176 252.558 111.681 248.504 116.144 245.571C118.675 243.908 122.824 243.854 124.534 241.563C125.629 240.087 125.73 237.689 123.779 233.36C121.868 229.105 114.941 227.822 113.999 228.323Z" stroke="black" stroke-width="2.83" stroke-linecap="round" stroke-linejoin="round"/>
<path d="M64.8281 259.125C67.2864 258.597 66.0973 258.383 67.8342 256.119C68.275 255.544 68.9764 254.115 69.5175 253.387" stroke="black" stroke-width="2.83" stroke-linecap="round" stroke-linejoin="round"/>
<path d="M69.7246 261.369C70.1655 260.414 71.0072 259.539 71.2944 258.984" stroke="black" stroke-width="2.83" stroke-linecap="round" stroke-linejoin="round"/>
<path d="M72.7227 263.352C73.3694 262.346 74.0673 261.374 74.8135 260.439" stroke="black" stroke-width="2.83" stroke-linecap="round" stroke-linejoin="round"/>
<path d="M76.6172 264.536C77.1296 263.738 77.6825 262.966 78.2738 262.225" stroke="black" stroke-width="2.83" stroke-linecap="round" stroke-linejoin="round"/>
<path d="M104.789 234.034C103.085 233.746 100.854 233.626 99.2976 232.885C97.2936 231.909 95.363 233.82 93.5527 234.08" stroke="black" stroke-width="2.83" stroke-linecap="round" stroke-linejoin="round"/>
<path fill-rule="evenodd" clip-rule="evenodd" d="M110.46 242.566C105.563 238.358 58.1013 230.482 48.0211 225.425C33.5788 218.17 28.5354 214.416 19.1699 200.642C13.3783 192.125 12.3028 174.142 21.6148 167.402C33.2983 158.945 49.8381 159.266 63.2584 162.793C71.3546 164.924 79.1703 168.457 87.7675 171.223C88.6293 171.503 118.79 177.903 118.943 177.903C130.553 177.903 150.761 171.991 162.043 167.809C177.741 161.991 204.221 158.985 214.575 174.175C221.923 184.944 222.364 192.92 216.446 206.053C210.794 218.618 172.698 227.977 159.184 229.914C153.012 230.796 138.115 233.501 132.25 235.832C126.873 237.97 124.521 239.8 118.79 242.419C117.454 243.04 111.916 242.947 110.66 241.945L110.46 242.566Z" fill="#CCFFCC"/>
<path fill-rule="evenodd" clip-rule="evenodd" d="M128.402 228.323C135.476 232.097 146.625 223.253 155.496 233.667C158.275 236.92 164.648 239.546 170.052 240.969C172.918 241.723 174.127 242.164 175.924 245.417C177.654 248.544 186.392 256.713 177.581 259.138C176.245 259.499 178.663 261.45 172.591 262.665C172.47 262.665 170.239 264.73 169.317 264.836C163.773 265.504 162.637 265.164 158.422 260.895C155.91 258.35 150.727 256.6 145.463 254.562C140.199 252.525 130.727 248.504 126.258 245.571C123.733 243.908 119.578 243.854 117.874 241.563C116.779 240.087 116.672 237.689 118.629 233.36C120.54 229.105 127.447 227.822 128.402 228.323Z" fill="#F7B6C8"/>
<path d="M128.402 228.323C135.476 232.097 146.625 223.253 155.496 233.667C158.275 236.92 164.648 239.546 170.052 240.969C172.918 241.723 174.127 242.164 175.924 245.417C177.654 248.544 186.392 256.713 177.581 259.138C176.245 259.499 178.663 261.45 172.591 262.665C172.47 262.665 170.239 264.73 169.317 264.836C163.773 265.504 162.637 265.164 158.422 260.895C155.91 258.35 150.727 256.6 145.463 254.562C140.199 252.525 130.727 248.504 126.258 245.571C123.733 243.908 119.578 243.854 117.874 241.563C116.779 240.087 116.672 237.689 118.629 233.36C120.54 229.105 127.447 227.822 128.402 228.323Z" stroke="black" stroke-width="2.83" stroke-linecap="round" stroke-linejoin="round"/>
<path d="M177.581 259.125C175.123 258.597 176.312 258.383 174.575 256.119C174.134 255.544 173.433 254.115 172.885 253.387" stroke="black" stroke-width="2.83" stroke-linecap="round" stroke-linejoin="round"/>
<path d="M172.678 261.369C172.237 260.414 171.396 259.539 171.115 258.984" stroke="black" stroke-width="2.83" stroke-linecap="round" stroke-linejoin="round"/>
<path d="M169.685 263.352C169.038 262.346 168.34 261.374 167.594 260.439" stroke="black" stroke-width="2.83" stroke-linecap="round" stroke-linejoin="round"/>
<path d="M165.789 264.536C165.277 263.738 164.724 262.966 164.133 262.225" stroke="black" stroke-width="2.83" stroke-linecap="round" stroke-linejoin="round"/>
<path d="M137.621 234.034C139.318 233.746 141.549 233.626 143.105 232.885C145.143 231.909 147.047 233.82 148.857 234.08" stroke="black" stroke-width="2.83" stroke-linecap="round" stroke-linejoin="round"/>
<path d="M153.005 231.256C161.268 231.45 199.632 220.227 211.082 211.971C216.312 208.203 228.396 186.038 213.714 172.097C208.323 166.974 188.209 159.893 170.747 165.644C166.258 167.127 140.053 174.743 133.473 177.181" stroke="black" stroke-width="2.83" stroke-linecap="round" stroke-linejoin="round"/>
<path d="M115.59 221.582C118.349 220.58 146.064 204.942 148.716 202.878C157.487 196.097 172.724 191.729 179.565 191.521" stroke="black" stroke-width="2.83" stroke-linecap="round" stroke-linejoin="round"/>
<path d="M171.576 192.29C173.106 189.986 173.988 189.972 175.183 188.449" stroke="black" stroke-width="2.83" stroke-linecap="round" stroke-linejoin="round"/>
<path d="M121.001 243.868C99.0972 240.014 52.9312 229.472 34.6947 217.923C16.9724 206.7 4.2135 170.848 28.362 164.148C62.1898 157.468 81.709 171.676 101.054 174.509" stroke="black" stroke-width="2.83" stroke-linecap="round" stroke-linejoin="round"/>
<path d="M59.2422 189.945C75.5549 195.349 103.498 218.89 128.107 228.309" stroke="black" stroke-width="2.83" stroke-linecap="round" stroke-linejoin="round"/>
<path d="M66.1174 192.029C65.5772 190.404 64.7112 188.906 63.5723 187.627" stroke="black" stroke-width="2.83" stroke-linecap="round" stroke-linejoin="round"/>
<path d="M63.832 111.609C65.8361 100.627 68.4212 88.7703 69.6236 86.7462C74.7406 78.1156 81.2002 77.3139 87.6264 78.1757C93.4448 78.9572 99.2431 81.1082 103.993 80.0261C134.721 88.0956 140.933 72.8851 154.841 79.672C162.129 83.2325 167.326 98.9507 170.012 114.074" stroke="black" stroke-width="2.83" stroke-linecap="round" stroke-linejoin="round"/>
<path fill-rule="evenodd" clip-rule="evenodd" d="M97.0515 248.422H141.581C145.008 248.422 146.785 250.119 147.813 251.996L153.538 262.437C154.941 264.988 152.082 266.999 148.655 266.999H87.5391C84.1122 266.999 80.7254 264.828 83.0367 261.889L90.819 252.002C92.2151 250.219 93.6246 248.422 97.0515 248.422Z" fill="black"/>
<path d="M97.0515 248.422H141.581C145.008 248.422 146.785 250.119 147.813 251.996L153.538 262.437C154.941 264.988 152.082 266.999 148.655 266.999H87.5391C84.1122 266.999 80.7254 264.828 83.0367 261.889L90.819 252.002C92.2151 250.219 93.6246 248.422 97.0515 248.422Z" stroke="black" stroke-width="2.83" stroke-linecap="round" stroke-linejoin="round"/>
<path fill-rule="evenodd" clip-rule="evenodd" d="M97.6536 249.186H141.114C144.167 249.186 145.87 250.562 146.665 252.105L151.174 260.842C152.263 262.946 149.838 264.57 146.819 264.57H89.9715C86.9254 264.57 84.1398 262.846 85.9635 260.395L92.1091 252.111C92.6938 251.178 93.5156 250.415 94.4908 249.903C95.4659 249.39 96.5595 249.145 97.6603 249.192" fill="#9999FF"/>
<path d="M146.818 103.332C146.818 110.847 155.502 118.335 152.162 130.994C149.217 142.11 149.617 143.098 151.301 149.391C151.428 149.865 154.968 164.388 156.057 170.099" stroke="black" stroke-width="2.83" stroke-linecap="round" stroke-linejoin="round"/>
<path d="M86.0302 103.332C86.0302 110.847 78.2212 118.229 81.2406 130.887C83.9594 142.243 84.0863 139.531 82.7369 150.553C82.6768 151.034 79.1497 167.254 79.1898 167.694" stroke="black" stroke-width="2.83" stroke-linecap="round" stroke-linejoin="round"/>
<path fill-rule="evenodd" clip-rule="evenodd" d="M92.2503 67.4147C89.5783 71.1422 87.5743 74.6559 86.9062 78.1362C86.9062 78.1362 92.9784 80.3941 103.5 80.6613C108.296 80.7815 108.389 74.2818 108.389 70.3473C108.389 60.7013 105.624 59.1114 96.6124 59.7393C95.3833 59.8329 94.2276 64.6559 92.2503 67.4147Z" fill="#FF6600"/>
<path d="M92.2503 67.4147C89.5783 71.1422 87.5743 74.6559 86.9062 78.1362C86.9062 78.1362 92.9784 80.3941 103.5 80.6613C108.296 80.7815 108.389 74.2818 108.389 70.3473C108.389 60.7013 105.624 59.1114 96.6124 59.7393C95.3833 59.8329 94.2276 64.6559 92.2503 67.4147Z" stroke="black" stroke-width="2.83" stroke-linecap="round" stroke-linejoin="round"/>
<path fill-rule="evenodd" clip-rule="evenodd" d="M138.194 16.2046C147.306 39.5849 128.348 47.6544 117.152 47.6544C105.956 47.6544 92.3425 52.4974 93.3779 25.3029C94.2931 0.0455508 129.083 -7.19564 138.194 16.2046Z" fill="#FF6600"/>
<path d="M138.195 16.2046C147.306 39.5849 128.348 47.6544 117.152 47.6544C105.956 47.6544 92.3425 52.4974 93.3779 25.3029C94.2931 0.0455508 129.083 -7.19564 138.195 16.2046Z" stroke="black" stroke-width="2.83" stroke-linecap="round" stroke-linejoin="round"/>
<path fill-rule="evenodd" clip-rule="evenodd" d="M104.354 84.7095C105.516 90.2205 123.379 91.2559 128.228 85.3775C128.228 79.6727 128.228 72.0507 129.063 71.5297C142.504 62.8456 138.562 48.6839 135.503 39.4654C134.107 36.0719 135.136 31.4493 134.033 27.2141C132.757 26.6129 130.5 25.5842 130.025 25.317C127.821 24.0945 120.92 19.3517 118.402 15.2969C117.874 15.2969 117.326 15.2969 116.759 15.2969C114.588 21.5561 107.407 28.2896 100.633 28.2896H100.58C99.7379 32.5782 100.753 36.8201 99.2035 39.9396C93.7926 50.8215 93.7793 64.6893 104.467 71.5631C104.467 75.4509 104.267 83.0662 104.354 84.7095Z" fill="#F7B6C8"/>
<path d="M104.354 84.7095C105.516 90.2205 123.379 91.2559 128.228 85.3775C128.228 79.6727 128.228 72.0507 129.063 71.5297C142.504 62.8456 138.562 48.6839 135.503 39.4654C134.107 36.0719 135.136 31.4493 134.033 27.2141C132.757 26.6129 130.5 25.5842 130.025 25.317C127.821 24.0945 120.92 19.3517 118.402 15.2969C117.874 15.2969 117.326 15.2969 116.759 15.2969C114.588 21.5561 107.407 28.2896 100.633 28.2896H100.58C99.7379 32.5782 100.753 36.8201 99.2035 39.9396C93.7926 50.8215 93.7793 64.6893 104.467 71.5631C104.467 75.4509 104.267 83.0662 104.354 84.7095Z" stroke="black" stroke-width="2.83" stroke-linecap="round" stroke-linejoin="round"/>
<path d="M119.691 47.1459C119.023 45.389 116.304 45.9434 116.264 47.2394" stroke="black" stroke-width="2.83" stroke-linecap="round" stroke-linejoin="round"/>
<path d="M121.615 31.2812C123.466 31.4464 125.297 31.7818 127.086 32.2833C127.645 32.4386 128.188 32.6443 128.709 32.8978" stroke="#FF6633" stroke-width="2.83" stroke-linecap="round" stroke-linejoin="round"/>
<path d="M113.205 31.2812C111.356 31.4513 109.527 31.7912 107.74 32.2966C107.182 32.452 106.639 32.6577 106.117 32.9112" stroke="#FF6633" stroke-width="2.83" stroke-linecap="round" stroke-linejoin="round"/>
<path d="M115.088 73.392C117.641 73.8975 120.27 73.8816 122.817 73.3452C125.181 72.9377 128.862 71.9558 130.699 70.1855" stroke="black" stroke-width="2.83" stroke-linecap="round" stroke-linejoin="round"/>
<path d="M115.322 55.2363C116.304 55.6572 118.936 55.6305 119.631 55.2363" stroke="black" stroke-width="2.83" stroke-linecap="round" stroke-linejoin="round"/>
<path d="M109.096 38.8959C110.939 37.0656 112.102 38.0275 112.362 38.9494" stroke="black" stroke-width="3.4" stroke-linecap="round" stroke-linejoin="round"/>
<path d="M124.902 38.8959C123.065 37.0656 121.896 38.0275 121.643 38.9494" stroke="black" stroke-width="3.4" stroke-linecap="round" stroke-linejoin="round"/>
<path d="M102.73 28.1823C101.194 28.022 99.0631 28.5564 97.834 28.5564" stroke="black" stroke-width="2.83" stroke-linecap="round" stroke-linejoin="round"/>
<path d="M116.09 16.9325C117.118 15.0417 117.662 12.9257 117.673 10.7734" stroke="black" stroke-width="2.83" stroke-linecap="round" stroke-linejoin="round"/>
<path d="M85.3945 262.398C85.7569 262.953 86.2526 263.407 86.8361 263.72C87.4197 264.033 88.0725 264.194 88.7346 264.189H138.06" stroke="#FEFEFE" stroke-width="2.83" stroke-linecap="round" stroke-linejoin="round"/>
<path d="M169.136 114.635C167.48 114.401 155.496 116.853 152.924 117.167" stroke="black" stroke-width="2.83" stroke-linecap="round" stroke-linejoin="round"/>
<path d="M63.9453 111.789C66.5505 111.562 77.9735 114.595 80.5854 115.737" stroke="black" stroke-width="2.83" stroke-linecap="round" stroke-linejoin="round"/>
<path d="M100.514 130.801C110.941 130.801 126.305 131.396 136.005 129.592C136.222 129.531 136.449 129.513 136.673 129.538" stroke="black" stroke-width="2.83" stroke-linecap="round" stroke-linejoin="round"/>
<path d="M99.25 125.749C102.59 125.649 111.087 127.794 115.897 127.754C117.634 127.754 119.384 127.754 121.127 127.754" stroke="black" stroke-width="2.83" stroke-linecap="round" stroke-linejoin="round"/>
<path fill-rule="evenodd" clip-rule="evenodd" d="M64.507 109.404C64.507 109.404 58.682 130.527 55.5558 138.362C54.36 141.362 39.8977 152.063 31.08 156.853C30.6458 156.853 28.5549 157 27.947 156.786C25.0345 155.784 17.3992 152.11 15.0144 154.314C10.6123 158.322 13.3043 160.326 13.7652 159.765C11.6477 158.603 10.0177 162.07 9.44993 162.17C9.27624 161.088 10.2783 160.34 10.2783 158.095C10.2783 155.196 7.3123 156.091 6.70442 157.361C5.77589 159.311 6.25017 158.656 6.21009 157.741C6.21009 157.073 5.68905 156.298 5.2014 156.225C2.8901 155.884 2.30893 161.155 2.08849 162.471C1.26016 167.367 6.5107 166.298 6.86474 167.534C7.35239 169.238 10.3785 169.799 10.3451 170.567C10.2248 173.386 18.468 175.697 20.5322 175.504C24.2596 175.156 27.4059 175.056 30.9397 174.448C39.6238 173.513 43.3646 169.772 48.2344 167.06C57.0788 162.097 61.3407 159.825 68.8691 153.914C76.2172 148.175 74.6407 145.898 81.107 131.261C82.2426 128.676 79.2433 123.306 82.5299 115.056C83.5853 112.397 64.507 109.404 64.507 109.404Z" fill="#F7B6C8"/>
<path d="M64.507 109.404C64.507 109.404 58.682 130.527 55.5558 138.362C54.36 141.362 39.8977 152.063 31.08 156.853C30.6458 156.853 28.5549 157 27.947 156.786C25.0345 155.784 17.3992 152.11 15.0144 154.314C10.6123 158.322 13.3043 160.326 13.7652 159.765C11.6477 158.603 10.0177 162.07 9.44993 162.17C9.27624 161.088 10.2783 160.34 10.2783 158.095C10.2783 155.196 7.3123 156.091 6.70442 157.361C5.77589 159.311 6.25017 158.656 6.21009 157.741C6.21009 157.073 5.68905 156.298 5.2014 156.225C2.8901 155.884 2.30893 161.155 2.08849 162.471C1.26016 167.367 6.5107 166.298 6.86474 167.534C7.35238 169.238 10.3785 169.799 10.3451 170.567C10.2248 173.386 18.468 175.697 20.5322 175.504C24.2596 175.156 27.4059 175.056 30.9397 174.448C39.6238 173.513 43.3646 169.772 48.2344 167.06C57.0788 162.097 61.3407 159.825 68.8691 153.914C76.2172 148.175 74.6407 145.898 81.107 131.261C82.2426 128.676 79.2433 123.306 82.5299 115.056C83.5853 112.397 64.507 109.404 64.507 109.404Z" stroke="black" stroke-width="2.83" stroke-linecap="round" stroke-linejoin="round"/>
<path d="M59.9375 139.805C63.0371 140.8 65.2816 141.682 67.8734 143.525L68.1206 143.719" stroke="black" stroke-width="2.83" stroke-linecap="round" stroke-linejoin="round"/>
<path d="M12.9434 158.623C13.3375 159.819 14.3863 160.373 16.3903 159.799C17.0023 159.495 17.5897 159.145 18.1471 158.75" stroke="black" stroke-width="2.83" stroke-linecap="round" stroke-linejoin="round"/>
<path d="M7.57227 168.061C7.79646 165.909 8.46039 163.827 9.52285 161.942C9.58297 161.822 9.56293 161.842 9.78337 161.942" stroke="black" stroke-width="2.83" stroke-linecap="round" stroke-linejoin="round"/>
<path d="M14.319 160.053C15.802 161.469 13.317 164.455 12.983 165.791C12.9028 166.098 12.7559 166.238 12.7559 166.519" stroke="black" stroke-width="2.83" stroke-linecap="round" stroke-linejoin="round"/>
<path d="M6.23 158.496C5.80248 159.478 4.94743 164.508 5.45512 165.644C5.57536 165.918 5.60876 166.171 5.70228 166.405" stroke="black" stroke-width="2.83" stroke-linecap="round" stroke-linejoin="round"/>
<path d="M16.4439 169.17C16.5508 169.17 17.7799 168.943 18.1139 168.95C24.3531 169.083 23.0772 165.75 21.4539 165.803C19.5167 165.863 14.2929 164.674 12.9569 166.418C12.0083 167.44 10.8994 169.237 11.0464 170.713C11.024 171.021 11.0962 171.329 11.2535 171.595" stroke="black" stroke-width="2.83" stroke-linecap="round" stroke-linejoin="round"/>
<path d="M23.1973 166.111C25.1612 166.519 28.0403 165.764 30.5453 164.982" stroke="black" stroke-width="2.83" stroke-linecap="round" stroke-linejoin="round"/>
<path fill-rule="evenodd" clip-rule="evenodd" d="M169.01 109.404C169.01 109.404 174.835 130.527 177.962 138.362C179.157 141.362 193.62 152.063 202.444 156.853C203.486 156.939 204.533 156.917 205.57 156.786C208.483 155.784 216.118 152.11 218.503 154.314C222.905 158.322 220.213 160.326 219.752 159.765C221.87 158.603 223.5 162.07 224.067 162.17C224.241 161.088 223.239 160.34 223.239 158.095C223.239 155.196 226.205 156.091 226.813 157.361C227.742 159.311 227.267 158.656 227.307 157.741C227.307 157.073 227.828 156.298 228.316 156.225C230.627 155.884 231.208 161.155 231.429 162.471C232.257 167.367 227.007 166.298 226.653 167.534C226.165 169.238 223.139 169.799 223.172 170.567C223.293 173.386 215.049 175.697 212.985 175.504C209.258 175.156 206.111 175.056 202.578 174.448C193.894 173.513 190.153 169.772 185.283 167.06C176.445 162.097 172.177 159.825 164.648 153.914C157.3 148.175 159.271 146.519 152.811 131.869C151.669 129.278 154.274 123.312 150.988 115.062C149.932 112.397 169.01 109.404 169.01 109.404Z" fill="#F7B6C8"/>
<path d="M169.01 109.404C169.01 109.404 174.835 130.527 177.962 138.362C179.157 141.362 193.62 152.063 202.444 156.853C203.486 156.939 204.533 156.917 205.57 156.786C208.483 155.784 216.118 152.11 218.503 154.314C222.905 158.322 220.213 160.326 219.752 159.765C221.87 158.603 223.5 162.07 224.067 162.17C224.241 161.088 223.239 160.34 223.239 158.095C223.239 155.196 226.205 156.091 226.813 157.361C227.742 159.311 227.267 158.656 227.307 157.741C227.307 157.073 227.828 156.298 228.316 156.225C230.627 155.884 231.208 161.155 231.429 162.471C232.257 167.367 227.007 166.298 226.653 167.534C226.165 169.238 223.139 169.799 223.172 170.567C223.293 173.386 215.049 175.697 212.985 175.504C209.258 175.156 206.111 175.056 202.578 174.448C193.894 173.513 190.153 169.772 185.283 167.06C176.445 162.097 172.177 159.825 164.648 153.914C157.3 148.175 159.271 146.519 152.811 131.869C151.669 129.278 154.274 123.312 150.988 115.062C149.932 112.397 169.01 109.404 169.01 109.404Z" stroke="black" stroke-width="2.83" stroke-linecap="round" stroke-linejoin="round"/>
<path d="M173.58 139.805C170.48 140.8 168.236 141.682 165.644 143.525L165.396 143.719" stroke="black" stroke-width="2.83" stroke-linecap="round" stroke-linejoin="round"/>
<path d="M220.573 158.623C220.179 159.819 219.13 160.373 217.126 159.799C216.514 159.495 215.927 159.145 215.369 158.75" stroke="black" stroke-width="2.83" stroke-linecap="round" stroke-linejoin="round"/>
<path d="M225.944 168.061C225.719 165.909 225.055 163.827 223.993 161.942C223.933 161.822 223.953 161.842 223.732 161.942" stroke="black" stroke-width="2.83" stroke-linecap="round" stroke-linejoin="round"/>
<path d="M219.197 160.053C217.714 161.469 220.199 164.455 220.533 165.791C220.613 166.098 220.76 166.238 220.76 166.519" stroke="black" stroke-width="2.83" stroke-linecap="round" stroke-linejoin="round"/>
<path d="M227.287 158.496C227.715 159.478 228.57 164.508 228.062 165.644C227.942 165.918 227.908 166.171 227.815 166.405" stroke="black" stroke-width="2.83" stroke-linecap="round" stroke-linejoin="round"/>
<path d="M217.074 169.17C216.967 169.17 215.738 168.943 215.404 168.95C209.165 169.083 210.441 165.75 212.064 165.803C214.001 165.863 219.225 164.674 220.561 166.418C221.509 167.44 222.618 169.237 222.471 170.713C222.494 171.021 222.422 171.329 222.264 171.595" stroke="black" stroke-width="2.83" stroke-linecap="round" stroke-linejoin="round"/>
<path d="M210.319 166.111C208.355 166.519 205.476 165.764 202.971 164.982" stroke="black" stroke-width="2.83" stroke-linecap="round" stroke-linejoin="round"/>
<path d="M141.789 264.275H146.819" stroke="white" stroke-width="2.83" stroke-linecap="round" stroke-linejoin="round"/>
<path fill-rule="evenodd" clip-rule="evenodd" d="M92.2228 251.943C92.2228 252.511 90.7732 253.205 92.1292 253.947C93.1246 254.475 92.7973 255.543 91.6149 255.951C90.5861 256.312 89.0831 256.125 88.542 256.946C87.8006 258.089 86.8587 258.042 87.5133 256.479C87.8473 255.677 90.025 253.727 90.7264 252.758C90.8533 252.584 91.9489 251.388 92.2361 251.829C92.2361 251.863 92.2361 251.923 92.2361 251.963" fill="black"/>
<path fill-rule="evenodd" clip-rule="evenodd" d="M43.6581 85.0702C36.811 85.0702 36.4302 78.9446 43.304 77.4015C49.5833 75.992 51.8144 63.9879 63.0971 73.2465C67.6061 76.9472 77.0584 62.8189 85.5888 74.9298C87.005 76.9339 94.7539 76.847 96.1834 80.0802C96.985 81.8838 97.1053 85.0167 87.0117 85.0167C83.3043 85.0167 78.9956 84.9099 75.3216 85.0702H43.6581Z" fill="#FEFEFE"/>
<path d="M43.6581 85.0702C36.811 85.0702 36.4302 78.9446 43.304 77.4015C49.5833 75.992 51.8144 63.9879 63.0971 73.2465C67.6061 76.9472 77.0584 62.8189 85.5888 74.9298C87.005 76.9339 94.7539 76.847 96.1834 80.0802C96.985 81.8838 97.1053 85.0167 87.0117 85.0167C83.3043 85.0167 78.9956 84.9099 75.3216 85.0702H43.6581Z" stroke="black" stroke-width="2.83" stroke-linecap="round" stroke-linejoin="round"/>
<path fill-rule="evenodd" clip-rule="evenodd" d="M221.817 104.521C226.807 104.521 230.922 103.533 229.893 98.8099C228.604 92.8446 218.577 97.1265 211.743 88.4891C199.973 73.6126 196.974 88.0683 190.648 83.1451C174.943 70.9606 156.726 81.3281 161.255 92.2834C162.197 94.5747 157.829 94.3676 155.01 96.8994C152.338 99.2775 151.957 104.595 159.198 104.308C171.469 103.84 208.323 104.521 221.817 104.521Z" fill="#FEFEFE"/>
<path d="M221.817 104.521C226.807 104.521 230.922 103.533 229.893 98.8099C228.604 92.8446 218.577 97.1265 211.743 88.4891C199.973 73.6126 196.974 88.0683 190.648 83.1451C174.943 70.9606 156.726 81.3281 161.255 92.2834C162.197 94.5747 157.829 94.3676 155.01 96.8994C152.338 99.2775 151.957 104.595 159.198 104.308C171.469 103.84 208.323 104.521 221.817 104.521Z" stroke="black" stroke-width="2.83" stroke-linecap="round" stroke-linejoin="round"/>
</svg>
