<svg width="219" height="269" viewBox="0 0 219 269" fill="none" xmlns="http://www.w3.org/2000/svg">
<path fill-rule="evenodd" clip-rule="evenodd" d="M71.7454 264.348C71.9159 263.359 71.6363 254.557 72.1477 254.407C74.316 253.793 101.821 255.409 107.76 255.409C109.124 255.409 105.462 266.721 105.483 267C101.392 267 98.0576 266.352 93.6393 266.352C88.6687 266.352 86.1936 265.671 81.1003 266.352C79.3889 266.571 72.475 266.475 71.8341 264.675C71.8068 264.573 71.725 264.437 71.7454 264.348Z" fill="#FAC384"/>
<path d="M71.7454 264.348C71.9159 263.359 71.6363 254.557 72.1477 254.407C74.316 253.793 101.821 255.409 107.76 255.409C109.124 255.409 105.462 266.721 105.483 267C101.392 267 98.0576 266.352 93.6393 266.352C88.6687 266.352 86.1936 265.671 81.1003 266.352C79.3889 266.571 72.475 266.475 71.8341 264.675C71.8068 264.573 71.725 264.437 71.7454 264.348Z" stroke="#FAC384" stroke-width="2.83" stroke-linecap="round" stroke-linejoin="round"/>
<path fill-rule="evenodd" clip-rule="evenodd" d="M157.015 263.59C156.838 262.602 157.118 253.792 156.606 253.649C154.445 253.035 126.155 255.06 120.217 255.06C118.853 255.06 119.453 266.502 121.11 266.652C125.201 266.652 128.61 266.863 133.008 266.863C137.972 266.863 140.447 266.181 145.54 266.863C147.252 267.081 156.286 265.683 156.92 263.89C156.947 263.815 157.029 263.679 157.015 263.59Z" fill="#FAC384"/>
<path d="M157.015 263.59C156.838 262.602 157.118 253.792 156.606 253.649C154.445 253.035 126.155 255.06 120.217 255.06C118.853 255.06 119.453 266.502 121.11 266.652C125.201 266.652 128.61 266.863 133.008 266.863C137.972 266.863 140.447 266.181 145.54 266.863C147.252 267.081 156.286 265.683 156.92 263.89C156.947 263.815 157.029 263.679 157.015 263.59Z" stroke="#FAC384" stroke-width="2.83" stroke-linecap="round" stroke-linejoin="round"/>
<path fill-rule="evenodd" clip-rule="evenodd" d="M67.2383 253.151C72.7612 254.794 110.624 256.478 111.217 254.576C114.285 244.764 112.942 239.487 114.919 253.894C115.247 256.274 147.484 255.06 152.543 253.949C161.932 251.903 159.743 254.303 159.743 241.273C159.743 239.078 160.309 214.648 159.587 214.682C139.316 215.732 117.994 218.636 97.7097 216.904C89.4117 216.223 78.6182 217.409 70.1361 216.789C69.3588 226.123 67.9951 234.632 68.3224 244.199C68.3974 246.421 67.2383 251.017 67.2383 253.137" fill="#FFC4E2"/>
<path fill-rule="evenodd" clip-rule="evenodd" d="M103.901 252.631C107.522 257.07 99.2375 261.863 98.5488 253.245C98.467 252.147 97.867 254.111 95.2146 254.445C90.7486 255.018 91.2395 248.424 94.6964 248.138C94.6964 248.138 91.4372 244.47 96.0601 242.826C97.8806 242.179 100.894 244.961 99.8716 246.727C100.472 245.417 101.058 240.276 104.713 243.488C107.188 245.663 102.333 249.263 105.504 247.763C108.674 246.263 111.272 253 104.74 252.747C104.569 252.747 103.819 252.529 103.901 252.631" fill="#5CA47A"/>
<path fill-rule="evenodd" clip-rule="evenodd" d="M78.6716 231.474C73.5306 228.944 79.0535 221.13 83.2741 228.685C83.8127 229.646 83.5536 227.601 85.8037 226.196C89.6288 223.81 91.9402 230.015 88.9129 231.712C88.9129 231.712 93.4062 233.69 89.8811 237.113C88.5174 238.476 84.6037 237.188 84.7946 235.156C84.7946 236.594 86.4037 241.517 81.7399 240.12C78.5898 239.172 81.5013 233.874 79.2444 236.56C76.9875 239.247 71.8123 234.208 77.8807 231.712C78.0375 231.651 78.808 231.528 78.6921 231.474" fill="#5CA47A"/>
<path fill-rule="evenodd" clip-rule="evenodd" d="M103.32 217.074C106.886 212.587 113.343 219.651 105.065 222.167C104.009 222.488 106.061 222.665 106.954 225.167C108.468 229.408 101.915 230.336 100.899 227.022C100.899 227.022 98.0084 230.99 95.4447 226.817C94.4288 225.181 96.5015 221.642 98.4448 222.263C97.0334 221.956 91.8855 222.481 94.2447 218.226C95.8402 215.349 100.381 219.324 98.2539 216.542C96.1265 213.76 102.14 209.785 103.286 216.228C103.286 216.392 103.286 217.169 103.347 217.074" fill="#5CA47A"/>
<path fill-rule="evenodd" clip-rule="evenodd" d="M121.438 238.688C118.028 243.29 111.34 236.444 119.528 233.656C120.572 233.301 118.512 233.192 117.537 230.724C115.881 226.53 122.399 225.385 123.524 228.678C123.524 228.678 126.251 224.587 128.979 228.678C130.049 230.28 128.092 233.887 126.129 233.335C127.547 233.594 132.674 232.899 130.458 237.235C128.965 240.16 124.274 236.342 126.51 239.049C128.747 241.756 122.856 245.929 121.499 239.533C121.458 239.363 121.499 238.585 121.403 238.688" fill="#5CA47A"/>
<path fill-rule="evenodd" clip-rule="evenodd" d="M142.704 219.612C137.406 217.436 142.397 209.268 147.116 216.523C147.716 217.443 147.313 215.425 149.468 213.87C153.123 211.239 155.836 217.28 152.938 219.168C152.938 219.168 157.555 220.839 154.268 224.494C152.979 225.925 149.004 224.916 149.059 222.878C149.154 224.316 151.104 229.116 146.331 228.032C143.127 227.303 145.65 221.821 143.604 224.623C141.559 227.425 136.042 222.768 141.906 219.884C142.056 219.802 142.813 219.632 142.697 219.584" fill="#5CA47A"/>
<path fill-rule="evenodd" clip-rule="evenodd" d="M157.964 233.465C158.768 227.785 167.912 230.622 162.055 236.976C161.305 237.781 163.166 236.901 165.198 238.606C168.648 241.497 163.473 245.615 160.916 243.27C160.916 243.27 160.432 248.158 156.089 245.874C154.384 244.974 154.377 240.87 156.368 240.42C155.004 240.863 150.825 243.924 150.702 239.056C150.62 235.769 156.566 236.888 153.307 235.578C150.047 234.269 153.245 227.785 157.486 232.762C157.602 232.892 157.957 233.581 157.97 233.444" fill="#5CA47A"/>
<path fill-rule="evenodd" clip-rule="evenodd" d="M140.223 248.602C145.923 247.981 145.425 257.541 137.823 253.416C136.855 252.891 138.164 254.479 137.011 256.866C135.061 260.957 129.798 256.92 131.441 253.866C131.441 253.866 126.586 254.602 127.732 249.822C128.182 247.947 132.157 246.938 133.084 248.759C132.314 247.538 128.311 244.245 133.009 242.929C136.173 242.043 136.548 248.084 137.018 244.599C137.489 241.115 144.559 242.622 140.775 247.961C140.68 248.097 140.093 248.643 140.223 248.602Z" fill="#5CA47A"/>
<path fill-rule="evenodd" clip-rule="evenodd" d="M72.979 255.012C74.9768 260.385 65.5879 262.253 67.7152 253.873C67.9879 252.802 66.7743 254.466 64.1696 253.934C59.7581 253.041 62.3491 246.952 65.7106 247.798C65.7106 247.798 63.8083 243.27 68.7175 243.209C70.6471 243.209 72.604 246.789 71.063 248.132C72.0585 247.082 74.2677 242.404 76.695 246.625C78.3315 249.475 72.604 251.323 76.0609 250.927C79.5179 250.532 79.8383 257.746 73.7359 255.393C73.5722 255.332 72.9313 254.896 72.979 255.012" fill="#5CA47A"/>
<path d="M67.2383 253.151C72.7612 254.794 110.624 256.478 111.217 254.576C114.285 244.764 112.942 239.487 114.919 253.894C115.247 256.274 147.484 255.06 152.543 253.949C161.932 251.903 159.743 254.303 159.743 241.273C159.743 239.078 160.309 214.648 159.587 214.682C139.316 215.732 117.994 218.636 97.7097 216.904C89.4117 216.223 78.6182 217.409 70.1361 216.789C69.3588 226.123 67.9951 234.632 68.3224 244.199C68.3974 246.421 67.2383 251.037 67.2383 253.151Z" stroke="black" stroke-width="2.83" stroke-linecap="round" stroke-linejoin="round"/>
<path fill-rule="evenodd" clip-rule="evenodd" d="M96.8514 93.8539C101.031 91.9107 104.761 99.4586 117.341 93.5539C120.204 92.1902 121.916 91.2766 128.761 86.1423C138.655 78.7171 151.78 82.0172 158.715 90.3015C162.253 94.529 180.534 126.903 177.029 127.366C172.154 128.007 155.21 140.717 151.358 143.519C152.844 146.697 162.226 200.589 162.383 204.932C162.635 211.894 163.788 213.68 161.838 214.376C149.564 218.726 113.161 220.097 99.5924 219.449C90.3466 219.012 64.9277 217.403 64.6276 215.269C65.3095 205.567 72.7143 148.947 70.0142 146.608C68.9641 146.41 53.3091 133.864 42.2633 132.064C40.8178 131.832 48.9726 117.923 49.3954 117.473C52.75 110.368 58.5865 103.795 62.3503 98.5927C71.8347 85.6446 85.8806 84.915 96.8514 93.8539Z" fill="#6699FF"/>
<path d="M96.8514 93.8539C101.031 91.9107 104.761 99.4586 117.341 93.5539C120.204 92.1902 121.916 91.2766 128.761 86.1423C138.655 78.7171 151.78 82.0172 158.715 90.3015C162.253 94.529 180.534 126.903 177.029 127.366C172.154 128.007 155.21 140.717 151.358 143.519C152.844 146.697 162.226 200.589 162.383 204.932C162.635 211.894 163.788 213.68 161.838 214.376C149.564 218.726 113.161 220.097 99.5924 219.449C90.3466 219.012 64.9277 217.403 64.6276 215.269C65.3095 205.567 72.7143 148.947 70.0142 146.608C68.9641 146.41 53.3091 133.864 42.2633 132.064C40.8178 131.832 48.9726 117.923 49.3954 117.473C52.75 110.368 58.5865 103.795 62.3503 98.5927C71.8347 85.6446 85.8806 84.915 96.8514 93.8539Z" stroke="black" stroke-width="2.83" stroke-linecap="round" stroke-linejoin="round"/>
<path d="M70.5938 148.919C71.3506 144.268 71.8961 134.177 72.2643 129.016" stroke="black" stroke-width="2.83" stroke-linecap="round" stroke-linejoin="round"/>
<path d="M151.357 143.519C149.836 137.907 149.311 133.291 146.945 126.473" stroke="black" stroke-width="2.83" stroke-linecap="round" stroke-linejoin="round"/>
<path d="M93.4082 96.1442C95.2764 105.008 112.357 105.063 119.114 101.49C121.602 100.174 125.291 96.6419 126.198 94.1191" stroke="black" stroke-width="2.83" stroke-linecap="round" stroke-linejoin="round"/>
<path fill-rule="evenodd" clip-rule="evenodd" d="M70.9408 145.904C70.5931 152.647 69.6248 164.627 60.6791 167.041C52.1084 169.352 53.1039 167.804 45.365 161.627C35.2124 153.527 35.7783 112.957 34.0533 100.984C33.0646 94.1112 24.6848 92.6725 19.5778 89.0179C15.5686 86.1542 4.12734 84.6064 2 76.6902C2.46365 70.2127 6.67742 79.9221 5.12283 75.2447C3.92961 71.6651 8.57293 70.9764 9.11159 73.5878C10.0866 73.2947 7.57745 68.1331 11.4844 69.79C12.6231 70.2605 14.2731 73.6424 16.4959 74.4742C18.8823 75.3674 27.3644 77.8834 30.91 78.7494C32.335 78.5039 31.3737 77.1061 30.8623 76.397C27.2485 71.3514 28.4895 67.9013 32.9555 71.0241C35.001 72.4696 42.2626 78.3403 44.3081 83.7814C44.7591 84.8278 45.0842 85.9242 45.2764 87.0474C49.2719 95.7204 53.4584 114.464 58.0063 128.012C59.8336 133.412 61.5178 138.001 62.486 141.376C62.861 142.672 64.4906 141.888 65.6634 142.74C65.7725 142.795 70.7294 145.836 70.9408 145.904Z" fill="#FAC384"/>
<path d="M70.9408 145.904C70.5931 152.647 69.6248 164.627 60.6791 167.041C52.1084 169.352 53.1039 167.804 45.365 161.627C35.2124 153.527 35.7783 112.957 34.0533 100.984C33.0646 94.1112 24.6848 92.6725 19.5778 89.0179C15.5686 86.1542 4.12734 84.6064 2 76.6902C2.46365 70.2127 6.67742 79.9221 5.12283 75.2447C3.92961 71.6651 8.57293 70.9764 9.11159 73.5878C10.0866 73.2947 7.57745 68.1331 11.4844 69.79C12.6231 70.2605 14.2731 73.6424 16.4959 74.4742C18.8823 75.3674 27.3644 77.8834 30.91 78.7494C32.335 78.5039 31.3737 77.1061 30.8623 76.397C27.2485 71.3514 28.4895 67.9013 32.9555 71.0241C35.001 72.4696 42.2626 78.3403 44.3081 83.7814C44.7591 84.8278 45.0842 85.9242 45.2764 87.0474C49.2719 95.7204 53.4584 114.464 58.0063 128.012C59.8336 133.412 61.5178 138.001 62.486 141.376C62.861 142.672 64.4906 141.888 65.6634 142.74C65.7725 142.795 70.7294 145.836 70.9408 145.904Z" stroke="black" stroke-width="2.83" stroke-linecap="round" stroke-linejoin="round"/>
<path d="M60.502 135.234C62.1043 138.153 63.1952 144.33 63.5702 147.78C63.6109 148.146 63.6886 148.507 63.8021 148.858" stroke="black" stroke-width="2.83" stroke-linecap="round" stroke-linejoin="round"/>
<path d="M13.748 72.4629C16.4754 84.0201 31.1213 81.395 37.3397 84.886" stroke="black" stroke-width="2.83" stroke-linecap="round" stroke-linejoin="round"/>
<path d="M18.6786 87.9693C12.542 83.8374 12.0988 83.776 9.81465 76.8349C9.6851 76.4462 9.55555 73.9916 9.13281 73.3848" stroke="black" stroke-width="2.83" stroke-linecap="round" stroke-linejoin="round"/>
<path d="M5.27344 75.3262C5.77118 75.933 6.1871 78.7899 7.25077 79.9286C8.17126 80.9104 9.10537 82.9832 10.5236 83.3378" stroke="black" stroke-width="2.83" stroke-linecap="round" stroke-linejoin="round"/>
<path fill-rule="evenodd" clip-rule="evenodd" d="M151.221 141.186C151.943 147.868 153.573 159.712 162.628 161.171C171.301 162.535 170.217 161.13 177.628 154.155C187.297 145.004 184.447 104.619 185.524 92.496C186.124 85.5344 194.388 83.2161 199.29 79.0365C203.122 75.7568 214.448 73.0022 216.132 64.8883C215.3 58.479 211.645 68.6043 212.934 63.7769C213.923 60.0813 209.259 59.8836 208.843 62.5496C207.854 62.3587 210.07 56.9721 206.266 59.0108C205.161 59.5972 203.702 63.1496 201.527 64.2133C199.195 65.3519 189.363 68.802 185.845 70.0293C186.935 67.5952 189.097 65.0315 189.383 63.2928C189.758 60.9813 187.392 58.9358 185.395 61.8814C183.949 64.0223 176.026 70.7453 174.294 76.425C173.905 77.5117 173.642 78.6396 173.51 79.7865C170.012 88.8549 166.91 107.981 163.098 121.972C161.578 127.549 160.16 132.302 159.376 135.766C159.076 137.129 157.412 136.495 156.287 137.45C156.198 137.538 151.398 141.097 151.221 141.186Z" fill="#FAC384"/>
<path d="M151.221 141.186C151.943 147.868 153.573 159.712 162.628 161.171C171.301 162.535 170.217 161.13 177.628 154.155C187.297 145.004 184.447 104.619 185.524 92.496C186.124 85.5344 194.388 83.2161 199.29 79.0365C203.122 75.7568 214.448 73.0022 216.132 64.8883C215.3 58.479 211.645 68.6043 212.934 63.7769C213.923 60.0813 209.259 59.8836 208.843 62.5496C207.854 62.3587 210.07 56.9721 206.266 59.0108C205.161 59.5972 203.702 63.1496 201.527 64.2133C199.195 65.3519 189.363 68.802 185.845 70.0293C186.935 67.5952 189.097 65.0315 189.383 63.2928C189.758 60.9813 187.392 58.9358 185.395 61.8814C183.949 64.0223 176.026 70.7453 174.294 76.425C173.905 77.5117 173.642 78.6396 173.51 79.7865C170.012 88.8549 166.91 107.981 163.098 121.972C161.578 127.549 160.16 132.302 159.376 135.766C159.076 137.129 157.412 136.495 156.287 137.45C156.198 137.538 151.398 141.097 151.221 141.186Z" stroke="black" stroke-width="2.83" stroke-linecap="round" stroke-linejoin="round"/>
<path d="M161.052 129.439C159.613 132.521 158.87 138.794 158.693 142.272C158.668 142.645 158.609 143.014 158.516 143.376" stroke="black" stroke-width="2.83" stroke-linecap="round" stroke-linejoin="round"/>
<path d="M204.145 61.9023C202.1 73.7118 187.318 72.6413 181.311 76.7733" stroke="black" stroke-width="2.83" stroke-linecap="round" stroke-linejoin="round"/>
<path d="M200.279 78.1029C206.136 73.3301 206.416 73.0232 208.318 65.8298C208.427 65.4275 208.414 62.9729 208.816 62.3184" stroke="black" stroke-width="2.83" stroke-linecap="round" stroke-linejoin="round"/>
<path d="M212.744 63.8867C212.28 64.5686 212.062 67.4323 211.032 68.6596C210.166 69.7369 209.348 71.8983 207.957 72.4302" stroke="black" stroke-width="2.83" stroke-linecap="round" stroke-linejoin="round"/>
<path d="M186.581 69.7773C185.477 70.2205 183.52 71.141 182.49 71.4342" stroke="black" stroke-width="2.83" stroke-linecap="round" stroke-linejoin="round"/>
<path d="M159.082 215.199C159.907 222.502 159.962 238.382 159.962 246.366V250.103" stroke="black" stroke-width="2.83" stroke-linecap="round" stroke-linejoin="round"/>
<path d="M71.9015 254.516C71.7992 257.045 71.5742 260.011 71.5742 262.534" stroke="black" stroke-width="2.83" stroke-linecap="round" stroke-linejoin="round"/>
<path d="M108.306 255.197C108.163 256.479 107.324 263.209 107.324 264.163" stroke="black" stroke-width="2.83" stroke-linecap="round" stroke-linejoin="round"/>
<path d="M118.459 254.924C118.575 257.528 118.991 261.422 118.991 263.972" stroke="black" stroke-width="2.83" stroke-linecap="round" stroke-linejoin="round"/>
<path d="M157.663 252.926C157.581 256.471 157.363 258.892 157.363 262.342" stroke="black" stroke-width="2.83" stroke-linecap="round" stroke-linejoin="round"/>
<path d="M108.299 243.496C111.885 243.681 117.742 244.533 121.608 243.271H121.867" stroke="black" stroke-width="2.83" stroke-linecap="round" stroke-linejoin="round"/>
<path fill-rule="evenodd" clip-rule="evenodd" d="M181.187 79.9154C176.243 77.004 173.318 75.5653 172.895 74.3175C172.534 73.2334 173.093 72.3743 174.586 71.4197C180.102 67.9151 196.269 59.1466 203.496 55.0965C205.815 53.7874 206.708 53.5692 208.515 54.3124C209.878 54.8715 214.249 57.2443 215.231 57.7693C219.097 59.8148 216.533 60.5717 214.317 62.2285C213.758 62.6376 213.588 62.024 213.001 61.5467C211.938 60.7217 210.431 59.733 209.353 61.4581C208.808 62.3444 208.978 57.4352 205.801 59.4125C205.153 59.808 203.994 63.1831 202.269 66.7014C201.11 69.1561 199.408 71.3151 197.292 73.0152C192.171 76.1108 189.369 77.9858 187.255 79.5063C186.402 80.1771 185.367 80.5749 184.284 80.6479C183.201 80.7209 182.122 80.4656 181.187 79.9154V79.9154Z" fill="black"/>
<path d="M181.187 79.9154C176.243 77.004 173.318 75.5653 172.895 74.3175C172.534 73.2334 173.093 72.3743 174.586 71.4197C180.102 67.9151 196.269 59.1466 203.496 55.0965C205.815 53.7874 206.708 53.5692 208.515 54.3124C209.878 54.8715 214.249 57.2443 215.231 57.7693C219.097 59.8148 216.533 60.5717 214.317 62.2285C213.758 62.6376 213.588 62.024 213.001 61.5467C211.938 60.7217 210.431 59.733 209.353 61.4581C208.808 62.3444 208.978 57.4352 205.801 59.4125C205.153 59.808 203.994 63.1831 202.269 66.7014C201.11 69.1561 199.408 71.3151 197.292 73.0152C192.171 76.1108 189.369 77.9858 187.255 79.5063C186.402 80.1771 185.367 80.5749 184.284 80.6479C183.201 80.7209 182.122 80.4656 181.187 79.9154V79.9154Z" stroke="black" stroke-width="2.83" stroke-linecap="round" stroke-linejoin="round"/>
<path d="M137.325 124.011C137.108 123.974 136.885 123.992 136.678 124.065C133.623 125.327 122.523 126.056 118.909 125.988C118.452 127.256 119.229 140.879 120.082 141.309C121.848 142.209 129.511 147.043 130.575 146.641C134.605 145.114 139.303 138.875 139.357 137.416C139.357 136.325 138.075 126.82 137.993 126.206" stroke="black" stroke-width="2.83" stroke-linecap="round" stroke-linejoin="round"/>
<path fill-rule="evenodd" clip-rule="evenodd" d="M98.4127 7.0067C87.1009 1.32698 71.0368 17.5752 74.5483 34.9962C74.9574 37.0417 76.3347 43.1783 78.6393 43.3283C86.8214 44.0101 87.9191 40.1168 93.2989 33.6053C98.5763 27.2164 102.695 19.5116 101.91 10.8659C101.59 7.92718 99.0195 7.33398 98.4127 7.0067Z" fill="black"/>
<path d="M98.4127 7.0067C87.1009 1.32698 71.0368 17.5752 74.5483 34.9962C74.9574 37.0417 76.3347 43.1783 78.6393 43.3283C86.8214 44.0101 87.9191 40.1168 93.2989 33.6053C98.5763 27.2164 102.695 19.5116 101.91 10.8659C101.59 7.92718 99.0195 7.33398 98.4127 7.0067Z" stroke="black" stroke-width="2.83" stroke-linecap="round" stroke-linejoin="round"/>
<path fill-rule="evenodd" clip-rule="evenodd" d="M124.219 37.2616C125.085 35.216 128.167 33.5592 130.676 36.2797C134.222 40.1321 131.522 45.3141 126.271 44.6186C122.862 44.1686 123.824 38.1752 124.219 37.2616Z" fill="#FAC384"/>
<path d="M124.219 37.2616C125.085 35.216 128.167 33.5592 130.676 36.2797C134.222 40.1321 131.522 45.3141 126.271 44.6186C122.862 44.1686 123.824 38.1752 124.219 37.2616Z" stroke="black" stroke-width="2.83" stroke-linecap="round" stroke-linejoin="round"/>
<path d="M127.819 38.4805C126.639 40.0623 127.751 40.9215 127.819 41.4669" stroke="black" stroke-width="2.83" stroke-linecap="round" stroke-linejoin="round"/>
<path fill-rule="evenodd" clip-rule="evenodd" d="M97.0273 78.7913C96.9386 84.8119 97.9682 90.3825 97.5659 93.219C98.2477 98.101 118.342 100.685 120.653 91.1121L120.783 89.953C120.326 81.4163 120.005 77.5503 120.408 76.3162C120.408 76.3162 126.224 73.8888 129.64 66.7704C137.194 50.979 124.396 46.5334 123.844 32.5012C123.019 11.3164 87.7815 6.59127 83.6632 35.0649C83.1586 38.515 83.7177 40.4173 84.0723 42.4015C82.6541 41.3037 80.3699 41.0378 78.6176 43.3561C75.3993 47.5016 78.2289 52.22 83.1995 51.2313C80.7176 62.6658 82.395 74.7411 97.0273 78.7913Z" fill="#FAC384"/>
<path d="M97.0273 78.7913C96.9386 84.8119 97.9682 90.3825 97.5659 93.219C98.2477 98.101 118.342 100.685 120.653 91.1121L120.783 89.953C120.326 81.4163 120.005 77.5503 120.408 76.3162C120.408 76.3162 126.224 73.8888 129.64 66.7704C137.194 50.979 124.396 46.5334 123.844 32.5012C123.019 11.3164 87.7815 6.59127 83.6632 35.0649C83.1586 38.515 83.7177 40.4173 84.0723 42.4015C82.6541 41.3037 80.3699 41.0378 78.6176 43.3561C75.3993 47.5016 78.2289 52.22 83.1995 51.2313C80.7176 62.6658 82.395 74.7411 97.0273 78.7913Z" stroke="black" stroke-width="2.83" stroke-linecap="round" stroke-linejoin="round"/>
<path d="M95.7793 78.5996C95.7793 78.5996 102.482 79.1178 102.502 79.1314C104.889 80.952 108.857 81.1224 111.25 79.0564C111.39 78.9322 111.538 78.8183 111.693 78.7155" stroke="black" stroke-width="2.83" stroke-linecap="round" stroke-linejoin="round"/>
<path d="M99.7966 32.3164C98.4874 32.746 92.9782 34.6688 92.0781 35.1188" stroke="black" stroke-width="2.83" stroke-linecap="round" stroke-linejoin="round"/>
<path d="M109.643 30.2793C111.899 30.5447 114.126 31.0148 116.297 31.6839" stroke="black" stroke-width="2.83" stroke-linecap="round" stroke-linejoin="round"/>
<path d="M103.499 48.9674C102.415 43.8195 110.999 43.5126 110.713 47.1332L110.672 47.6719" stroke="black" stroke-width="2.83" stroke-linecap="round" stroke-linejoin="round"/>
<path d="M105.23 64.1108C104.637 61.588 108.591 59.8425 111.189 62.6176C113.234 64.8131 116.535 61.0834 115.28 59.3516" stroke="black" stroke-width="2.83" stroke-linecap="round" stroke-linejoin="round"/>
<path fill-rule="evenodd" clip-rule="evenodd" d="M100.273 42.7143C100.13 43.1507 99.8705 43.1439 99.5569 41.2825C99.4069 40.4097 98.9296 37.3278 99.3523 37.6415C99.8841 38.0301 100.477 42.0802 100.273 42.7143Z" fill="black"/>
<path d="M100.273 42.7143C100.13 43.1507 99.8705 43.1439 99.5569 41.2825C99.4069 40.4097 98.9296 37.3278 99.3523 37.6415C99.8841 38.0301 100.477 42.0802 100.273 42.7143Z" stroke="black" stroke-width="2.83" stroke-linecap="round" stroke-linejoin="round"/>
<path fill-rule="evenodd" clip-rule="evenodd" d="M111.006 41.6579C111.218 42.0534 111.47 41.992 111.463 40.0965C111.463 39.2101 111.409 36.0805 111.04 36.4828C110.672 36.8851 110.693 41.0988 111.006 41.6579Z" fill="black"/>
<path d="M111.006 41.6579C111.218 42.0534 111.47 41.992 111.463 40.0965C111.463 39.2101 111.409 36.0805 111.04 36.4828C110.672 36.8851 110.693 41.0988 111.006 41.6579Z" stroke="black" stroke-width="2.83" stroke-linecap="round" stroke-linejoin="round"/>
<path d="M81.6387 45.2324C82.9137 46.6711 81.8637 47.653 81.8228 48.2121" stroke="black" stroke-width="2.83" stroke-linecap="round" stroke-linejoin="round"/>
<path fill-rule="evenodd" clip-rule="evenodd" d="M98.4121 7.00741C102.626 -1.05875 114.026 2.49364 118.976 4.81871C124.547 7.43697 129.443 16.2327 129.886 23.2284C130.097 26.8694 130.322 33.7355 126.333 34.5537C124.117 35.0037 121.52 35.2356 122.092 27.4217C122.29 24.6943 120.545 25.2944 118.172 24.6057C108.231 21.7488 100.683 20.7738 98.4121 7.00741Z" fill="black"/>
<path d="M98.4121 7.00741C102.626 -1.05875 114.026 2.49364 118.976 4.81871C124.547 7.43697 129.443 16.2327 129.886 23.2284C130.097 26.8694 130.322 33.7355 126.333 34.5537C124.117 35.0037 121.52 35.2356 122.092 27.4217C122.29 24.6943 120.545 25.2944 118.172 24.6057C108.231 21.7488 100.683 20.7738 98.4121 7.00741Z" stroke="black" stroke-width="2.83" stroke-linecap="round" stroke-linejoin="round"/>
<path d="M100.86 17.917C99.428 16.4237 99.1553 13.8736 98.4121 12.0259C98.4017 11.9604 98.4017 11.8936 98.4121 11.8281" stroke="#FAC384" stroke-width="2.83" stroke-linecap="round" stroke-linejoin="round"/>
<path d="M67.4163 21.319L58.416 19.2734" stroke="black" stroke-width="2.83" stroke-linecap="round" stroke-linejoin="round"/>
<path d="M66.9038 28.0703L60.2559 28.5817" stroke="black" stroke-width="2.83" stroke-linecap="round" stroke-linejoin="round"/>
<path d="M130.111 10.784L133.589 8.43164" stroke="black" stroke-width="2.83" stroke-linecap="round" stroke-linejoin="round"/>
<path d="M132.463 17.2291L138.19 16.3086" stroke="black" stroke-width="2.83" stroke-linecap="round" stroke-linejoin="round"/>
<path d="M177.676 75.0889L181.924 77.4958C184.61 78.9618 186.294 77.5913 187.726 76.6912C187.862 76.6026 196.685 71.0047 196.815 70.9297" stroke="#96989A" stroke-width="2.83" stroke-linecap="round" stroke-linejoin="round"/>
</svg>
