<svg width="25" height="16" viewBox="0 0 25 16" fill="none" xmlns="http://www.w3.org/2000/svg">
<path fill-rule="evenodd" clip-rule="evenodd" d="M12.579 1C18.9717 1 24.153 8.18508 24.153 8.18508C24.153 8.18508 18.9717 15.3702 12.579 15.3702C6.18623 15.3702 1 8.83991 1 8.18508C1 7.53026 6.18786 1 12.579 1Z" fill="#FEFEFE"/>
<path d="M12.579 1C18.9717 1 24.153 8.18508 24.153 8.18508C24.153 8.18508 18.9717 15.3702 12.579 15.3702C6.18623 15.3702 1 8.83991 1 8.18508C1 7.53026 6.18786 1 12.579 1Z" stroke="black" stroke-miterlimit="22.93" stroke-linecap="round"/>
<path d="M12.5249 12.4404C14.9344 12.4404 16.8877 10.4871 16.8877 8.07762C16.8877 5.66813 14.9344 3.71484 12.5249 3.71484C10.1154 3.71484 8.16211 5.66813 8.16211 8.07762C8.16211 10.4871 10.1154 12.4404 12.5249 12.4404Z" fill="#00AFEF"/>
<path d="M12.5249 12.4404C14.9344 12.4404 16.8877 10.4871 16.8877 8.07762C16.8877 5.66813 14.9344 3.71484 12.5249 3.71484C10.1154 3.71484 8.16211 5.66813 8.16211 8.07762C8.16211 10.4871 10.1154 12.4404 12.5249 12.4404Z" stroke="black" stroke-miterlimit="22.93" stroke-linecap="round"/>
<path fill-rule="evenodd" clip-rule="evenodd" d="M12.5249 6.49414C12.838 6.49414 13.1441 6.58698 13.4044 6.76093C13.6648 6.93488 13.8677 7.18212 13.9875 7.47138C14.1073 7.76064 14.1386 8.07894 14.0776 8.38602C14.0165 8.6931 13.8657 8.97517 13.6443 9.19656C13.4229 9.41796 13.1409 9.56873 12.8338 9.62981C12.5267 9.69089 12.2084 9.65954 11.9191 9.53972C11.6299 9.41991 11.3826 9.217 11.2087 8.95667C11.0347 8.69634 10.9419 8.39028 10.9419 8.07718C10.9419 7.65733 11.1087 7.25468 11.4056 6.9578C11.7024 6.66093 12.1051 6.49414 12.5249 6.49414Z" fill="black"/>
<path d="M12.5249 6.49414C12.838 6.49414 13.1441 6.58698 13.4044 6.76093C13.6648 6.93488 13.8677 7.18212 13.9875 7.47138C14.1073 7.76064 14.1386 8.07894 14.0776 8.38602C14.0165 8.6931 13.8657 8.97517 13.6443 9.19656C13.4229 9.41796 13.1409 9.56873 12.8338 9.62981C12.5267 9.69089 12.2084 9.65954 11.9191 9.53972C11.6299 9.41991 11.3826 9.217 11.2087 8.95667C11.0347 8.69634 10.9419 8.39028 10.9419 8.07718C10.9419 7.65733 11.1087 7.25468 11.4056 6.9578C11.7024 6.66093 12.1051 6.49414 12.5249 6.49414Z" stroke="black" stroke-miterlimit="22.93" stroke-linecap="round"/>
<path fill-rule="evenodd" clip-rule="evenodd" d="M15.3162 3.53711C15.6297 3.53679 15.9362 3.62945 16.197 3.80338C16.4579 3.97731 16.6612 4.22469 16.7814 4.51422C16.9016 4.80376 16.9332 5.12244 16.8723 5.42994C16.8113 5.73745 16.6605 6.01996 16.439 6.24175C16.2174 6.46353 15.935 6.61462 15.6276 6.6759C15.3202 6.73718 15.0014 6.70589 14.7118 6.586C14.4221 6.46611 14.1745 6.263 14.0003 6.00236C13.8261 5.74173 13.7332 5.43528 13.7332 5.12179C13.7329 4.91376 13.7737 4.70774 13.8532 4.51548C13.9326 4.32323 14.0492 4.14852 14.1962 4.00135C14.3433 3.85418 14.5178 3.73743 14.71 3.65777C14.9022 3.57811 15.1082 3.53711 15.3162 3.53711V3.53711Z" fill="#FEFEFE"/>
<path d="M15.3162 3.53711C15.6297 3.53679 15.9362 3.62945 16.197 3.80338C16.4579 3.97731 16.6612 4.22469 16.7814 4.51422C16.9016 4.80376 16.9332 5.12244 16.8723 5.42994C16.8113 5.73745 16.6605 6.01996 16.439 6.24175C16.2174 6.46353 15.935 6.61462 15.6276 6.6759C15.3202 6.73718 15.0014 6.70589 14.7118 6.586C14.4221 6.46611 14.1745 6.263 14.0003 6.00236C13.8261 5.74173 13.7332 5.43528 13.7332 5.12179C13.7329 4.91376 13.7737 4.70774 13.8532 4.51548C13.9326 4.32323 14.0492 4.14852 14.1962 4.00135C14.3433 3.85418 14.5178 3.73743 14.71 3.65777C14.9022 3.57811 15.1082 3.53711 15.3162 3.53711V3.53711Z" stroke="black" stroke-miterlimit="22.93" stroke-linecap="round"/>
</svg>
