<svg width="25" height="26" viewBox="0 0 25 26" fill="none" xmlns="http://www.w3.org/2000/svg">
<path fill-rule="evenodd" clip-rule="evenodd" d="M12.579 5.87891C18.9717 5.87891 24.153 13.064 24.153 13.064C24.153 13.064 18.9717 20.2491 12.579 20.2491C6.18623 20.2491 1 13.7123 1 13.064C1 12.4157 6.18786 5.87891 12.579 5.87891Z" fill="#FEFEFE"/>
<path d="M12.579 5.87891C18.9717 5.87891 24.153 13.064 24.153 13.064C24.153 13.064 18.9717 20.2491 12.579 20.2491C6.18623 20.2491 1 13.7123 1 13.064C1 12.4157 6.18786 5.87891 12.579 5.87891Z" stroke="black" stroke-miterlimit="22.93" stroke-linecap="round"/>
<path fill-rule="evenodd" clip-rule="evenodd" d="M12.5249 8.5918C13.3882 8.59147 14.2323 8.84721 14.9502 9.32665C15.6682 9.8061 16.2279 10.4877 16.5584 11.2853C16.8889 12.0828 16.9755 12.9605 16.8072 13.8073C16.6388 14.654 16.2231 15.4319 15.6126 16.0423C15.0022 16.6528 14.2243 17.0685 13.3776 17.2368C12.5308 17.4052 11.6531 17.3186 10.8556 16.9881C10.058 16.6576 9.37641 16.0979 8.89696 15.3799C8.41752 14.662 8.16179 13.8179 8.16211 12.9546C8.16254 11.7976 8.62233 10.6882 9.44042 9.87011C10.2585 9.05202 11.3679 8.59223 12.5249 8.5918Z" fill="#00AFEF"/>
<path d="M12.5249 8.5918C13.3882 8.59147 14.2323 8.84721 14.9502 9.32665C15.6682 9.8061 16.2279 10.4877 16.5584 11.2853C16.8889 12.0828 16.9755 12.9605 16.8072 13.8073C16.6388 14.654 16.2231 15.4319 15.6126 16.0423C15.0022 16.6528 14.2243 17.0685 13.3776 17.2369C12.5308 17.4052 11.6531 17.3186 10.8556 16.9881C10.058 16.6576 9.37641 16.0979 8.89696 15.3799C8.41752 14.662 8.16179 13.8179 8.16211 12.9546C8.16254 11.7976 8.62233 10.6882 9.44042 9.87011C10.2585 9.05202 11.3679 8.59223 12.5249 8.5918V8.5918Z" stroke="black" stroke-miterlimit="22.93" stroke-linecap="round"/>
<path fill-rule="evenodd" clip-rule="evenodd" d="M12.5249 11.3711C12.8385 11.3708 13.1451 11.4635 13.406 11.6375C13.6668 11.8115 13.8702 12.059 13.9903 12.3486C14.1105 12.6382 14.142 12.957 14.0809 13.2645C14.0198 13.5721 13.8688 13.8546 13.6471 14.0763C13.4254 14.298 13.1429 14.449 12.8353 14.5101C12.5278 14.5712 12.209 14.5397 11.9194 14.4195C11.6298 14.2994 11.3823 14.096 11.2083 13.8352C11.0343 13.5743 10.9416 13.2677 10.9419 12.9541C10.9419 12.5343 11.1087 12.1316 11.4056 11.8348C11.7024 11.5379 12.1051 11.3711 12.5249 11.3711Z" fill="black"/>
<path d="M12.5249 11.3711C12.8385 11.3708 13.1451 11.4635 13.406 11.6375C13.6668 11.8115 13.8702 12.059 13.9903 12.3486C14.1105 12.6382 14.142 12.957 14.0809 13.2645C14.0198 13.5721 13.8688 13.8546 13.6471 14.0763C13.4254 14.298 13.1429 14.449 12.8353 14.5101C12.5278 14.5712 12.209 14.5397 11.9194 14.4195C11.6298 14.2994 11.3823 14.096 11.2083 13.8352C11.0343 13.5743 10.9416 13.2677 10.9419 12.9541C10.9419 12.5343 11.1087 12.1316 11.4056 11.8348C11.7024 11.5379 12.1051 11.3711 12.5249 11.3711Z" stroke="black" stroke-miterlimit="22.93" stroke-linecap="round"/>
<path fill-rule="evenodd" clip-rule="evenodd" d="M15.3162 8.41797C15.6293 8.41797 15.9354 8.51081 16.1957 8.68476C16.456 8.85871 16.6589 9.10594 16.7787 9.39521C16.8986 9.68447 16.9299 10.0028 16.8688 10.3098C16.8077 10.6169 16.657 10.899 16.4356 11.1204C16.2142 11.3418 15.9321 11.4926 15.625 11.5536C15.318 11.6147 14.9997 11.5834 14.7104 11.4636C14.4211 11.3437 14.1739 11.1408 13.9999 10.8805C13.826 10.6202 13.7332 10.3141 13.7332 10.001C13.7332 9.58116 13.8999 9.17851 14.1968 8.88163C14.4937 8.58475 14.8963 8.41797 15.3162 8.41797Z" fill="#FEFEFE"/>
<path d="M15.3162 8.41797C15.6293 8.41797 15.9354 8.51081 16.1957 8.68476C16.456 8.85871 16.6589 9.10594 16.7787 9.39521C16.8986 9.68447 16.9299 10.0028 16.8688 10.3098C16.8077 10.6169 16.657 10.899 16.4356 11.1204C16.2142 11.3418 15.9321 11.4926 15.625 11.5536C15.318 11.6147 14.9997 11.5834 14.7104 11.4636C14.4211 11.3437 14.1739 11.1408 13.9999 10.8805C13.826 10.6202 13.7332 10.3141 13.7332 10.001C13.7332 9.58116 13.8999 9.17851 14.1968 8.88163C14.4937 8.58475 14.8963 8.41797 15.3162 8.41797V8.41797Z" stroke="black" stroke-miterlimit="22.93" stroke-linecap="round"/>
<path d="M17.8717 0.984375L7.42065 25.3243" stroke="#FF0000" stroke-miterlimit="22.93" stroke-linecap="round"/>
</svg>
