<svg width="425" height="23" viewBox="0 0 425 23" fill="none" xmlns="http://www.w3.org/2000/svg">
<rect width="425" height="23" rx="11.5" fill="#FF7373"/>
<path d="M117.156 7.02H113.496V15H114.504V11.688H117.108C118.872 11.688 119.568 10.62 119.568 9.348C119.568 8.064 118.872 7.02 117.156 7.02ZM114.504 10.884V7.824H116.94C118.092 7.824 118.524 8.4 118.524 9.348C118.524 10.26 118.092 10.884 116.904 10.884H114.504ZM122.352 15.156C123.744 15.156 124.38 14.316 124.608 13.596C124.608 14.04 124.644 14.484 124.692 15H125.568C125.508 14.412 125.496 13.944 125.496 13.512V10.632C125.496 9.552 124.752 8.796 123.108 8.796C121.452 8.796 120.552 9.612 120.516 10.884H121.464C121.524 10.104 121.968 9.552 123.144 9.552C124.308 9.552 124.62 10.02 124.62 10.632C124.62 11.088 124.356 11.256 123.72 11.364L122.196 11.616C120.9 11.832 120.372 12.444 120.372 13.416C120.372 14.556 121.2 15.156 122.352 15.156ZM122.544 14.4C121.836 14.4 121.344 14.064 121.344 13.38C121.344 12.732 121.728 12.42 122.544 12.252L123.54 12.048C123.996 11.952 124.32 11.856 124.62 11.64V12.156C124.62 13.296 123.96 14.4 122.544 14.4ZM126.694 12.996C126.718 14.256 127.51 15.192 129.466 15.192C131.062 15.192 131.914 14.592 131.914 13.368C131.914 12.384 131.41 11.796 130.03 11.592L128.758 11.412C128.002 11.304 127.786 10.944 127.786 10.524C127.786 9.936 128.206 9.528 129.226 9.528C130.33 9.528 130.786 10.092 130.846 10.716H131.794C131.722 9.588 130.822 8.796 129.25 8.796C127.738 8.796 126.85 9.48 126.85 10.596C126.85 11.52 127.438 12.072 128.482 12.216L129.874 12.42C130.63 12.528 130.966 12.84 130.966 13.416C130.966 14.088 130.546 14.46 129.49 14.46C128.11 14.46 127.654 13.812 127.582 12.996H126.694ZM132.917 12.996C132.941 14.256 133.733 15.192 135.689 15.192C137.285 15.192 138.137 14.592 138.137 13.368C138.137 12.384 137.633 11.796 136.253 11.592L134.981 11.412C134.225 11.304 134.009 10.944 134.009 10.524C134.009 9.936 134.429 9.528 135.449 9.528C136.553 9.528 137.009 10.092 137.069 10.716H138.017C137.945 9.588 137.045 8.796 135.473 8.796C133.961 8.796 133.073 9.48 133.073 10.596C133.073 11.52 133.661 12.072 134.705 12.216L136.097 12.42C136.853 12.528 137.189 12.84 137.189 13.416C137.189 14.088 136.769 14.46 135.713 14.46C134.333 14.46 133.877 13.812 133.805 12.996H132.917ZM146.024 14.28L144.128 9H143.132L141.236 14.28L139.688 9H138.68L140.516 15H141.884L143.6 10.14L145.328 15H146.696L148.52 9H147.584L146.024 14.28ZM152.139 15.192C154.155 15.192 155.151 13.788 155.151 11.988C155.151 10.212 154.155 8.808 152.139 8.808C150.111 8.808 149.115 10.2 149.115 11.988C149.115 13.8 150.111 15.192 152.139 15.192ZM150.087 12C150.087 10.308 150.783 9.588 152.139 9.588C153.495 9.588 154.179 10.308 154.179 12C154.179 13.68 153.495 14.412 152.139 14.412C150.783 14.412 150.087 13.68 150.087 12ZM159.567 8.916C158.427 8.916 157.731 9.588 157.371 10.584V9H156.411V15H157.371V12.792C157.371 11.1 157.755 9.804 159.531 9.864H159.783V8.916H159.567ZM165.475 10.14C165.067 9.288 164.311 8.808 163.207 8.808C161.323 8.808 160.459 10.152 160.459 12C160.459 13.836 161.323 15.192 163.207 15.192C164.311 15.192 165.067 14.7 165.475 13.848V15H166.435V6.6H165.475V10.14ZM163.399 14.412C162.031 14.412 161.431 13.608 161.431 12C161.431 10.38 162.031 9.588 163.399 9.588C164.671 9.588 165.475 10.308 165.475 12C165.475 13.692 164.671 14.412 163.399 14.412ZM171.964 8.016V7.02H170.728V8.016H171.964ZM171.82 15V9H170.86V15H171.82ZM176.726 8.808C175.538 8.808 174.794 9.48 174.422 10.572V9H173.462V15H174.422V12.708C174.422 10.644 175.13 9.612 176.462 9.612C177.338 9.612 177.902 9.996 177.902 11.28V15H178.862V11.172C178.862 9.624 178.226 8.808 176.726 8.808ZM180.029 12C180.029 13.836 181.061 15.192 183.029 15.192C184.853 15.192 185.825 14.088 185.897 12.708H184.985C184.865 13.728 184.241 14.412 183.029 14.412C181.769 14.412 181.001 13.74 181.001 12C181.001 10.272 181.793 9.588 183.065 9.588C184.181 9.588 184.781 10.212 184.925 11.196H185.825C185.729 9.804 184.829 8.808 183.029 8.808C181.085 8.808 180.029 10.164 180.029 12ZM189.862 15.192C191.878 15.192 192.874 13.788 192.874 11.988C192.874 10.212 191.878 8.808 189.862 8.808C187.834 8.808 186.838 10.2 186.838 11.988C186.838 13.8 187.834 15.192 189.862 15.192ZM187.81 12C187.81 10.308 188.506 9.588 189.862 9.588C191.218 9.588 191.902 10.308 191.902 12C191.902 13.68 191.218 14.412 189.862 14.412C188.506 14.412 187.81 13.68 187.81 12ZM197.29 8.916C196.15 8.916 195.454 9.588 195.094 10.584V9H194.134V15H195.094V12.792C195.094 11.1 195.478 9.804 197.254 9.864H197.506V8.916H197.29ZM201.837 8.916C200.697 8.916 200.001 9.588 199.641 10.584V9H198.681V15H199.641V12.792C199.641 11.1 200.025 9.804 201.801 9.864H202.053V8.916H201.837ZM205.623 14.46C204.423 14.46 203.631 13.86 203.559 12.216H208.383C208.407 12.072 208.407 11.952 208.407 11.796C208.407 10.044 207.387 8.808 205.587 8.808C203.595 8.808 202.611 10.2 202.611 11.988C202.611 13.8 203.523 15.192 205.587 15.192C207.579 15.192 208.275 14.064 208.395 13.152H207.519C207.339 13.908 206.799 14.46 205.623 14.46ZM205.599 9.54C206.715 9.54 207.423 10.116 207.471 11.496H203.583C203.715 10.08 204.459 9.54 205.599 9.54ZM209.385 12C209.385 13.836 210.417 15.192 212.385 15.192C214.209 15.192 215.181 14.088 215.253 12.708H214.341C214.221 13.728 213.597 14.412 212.385 14.412C211.125 14.412 210.357 13.74 210.357 12C210.357 10.272 211.149 9.588 212.421 9.588C213.537 9.588 214.137 10.212 214.281 11.196H215.181C215.085 9.804 214.185 8.808 212.385 8.808C210.441 8.808 209.385 10.164 209.385 12ZM219.783 15V14.22H217.875V9.756H219.855V9H217.875V7.668H217.359L216.999 8.916L215.775 9.216V9.756H216.915V13.596C216.915 14.556 217.215 15 218.367 15H219.783ZM221.204 14.952V15.972H220.592V16.596H220.844C221.528 16.596 221.828 16.356 221.828 15.696V13.944H220.592V14.952H221.204ZM228.85 8.808C227.746 8.808 226.99 9.3 226.582 10.152V9H225.622V17.4H226.582V13.86C226.99 14.712 227.746 15.192 228.85 15.192C230.734 15.192 231.598 13.848 231.598 12C231.598 10.164 230.734 8.808 228.85 8.808ZM228.658 14.412C227.386 14.412 226.582 13.692 226.582 12C226.582 10.308 227.386 9.588 228.658 9.588C230.026 9.588 230.626 10.392 230.626 12C230.626 13.62 230.026 14.412 228.658 14.412ZM233.883 15V6.6H232.923V15H233.883ZM238.225 14.46C237.025 14.46 236.233 13.86 236.161 12.216H240.985C241.009 12.072 241.009 11.952 241.009 11.796C241.009 10.044 239.989 8.808 238.189 8.808C236.197 8.808 235.213 10.2 235.213 11.988C235.213 13.8 236.125 15.192 238.189 15.192C240.181 15.192 240.877 14.064 240.997 13.152H240.121C239.941 13.908 239.401 14.46 238.225 14.46ZM238.201 9.54C239.317 9.54 240.025 10.116 240.073 11.496H236.185C236.317 10.08 237.061 9.54 238.201 9.54ZM244.098 15.156C245.49 15.156 246.126 14.316 246.354 13.596C246.354 14.04 246.39 14.484 246.438 15H247.314C247.254 14.412 247.242 13.944 247.242 13.512V10.632C247.242 9.552 246.498 8.796 244.854 8.796C243.198 8.796 242.298 9.612 242.262 10.884H243.21C243.27 10.104 243.714 9.552 244.89 9.552C246.054 9.552 246.366 10.02 246.366 10.632C246.366 11.088 246.102 11.256 245.466 11.364L243.942 11.616C242.646 11.832 242.118 12.444 242.118 13.416C242.118 14.556 242.946 15.156 244.098 15.156ZM244.29 14.4C243.582 14.4 243.09 14.064 243.09 13.38C243.09 12.732 243.474 12.42 244.29 12.252L245.286 12.048C245.742 11.952 246.066 11.856 246.366 11.64V12.156C246.366 13.296 245.706 14.4 244.29 14.4ZM248.44 12.996C248.464 14.256 249.256 15.192 251.212 15.192C252.808 15.192 253.66 14.592 253.66 13.368C253.66 12.384 253.156 11.796 251.776 11.592L250.504 11.412C249.748 11.304 249.532 10.944 249.532 10.524C249.532 9.936 249.952 9.528 250.972 9.528C252.076 9.528 252.532 10.092 252.592 10.716H253.54C253.468 9.588 252.568 8.796 250.996 8.796C249.484 8.796 248.596 9.48 248.596 10.596C248.596 11.52 249.184 12.072 250.228 12.216L251.62 12.42C252.376 12.528 252.712 12.84 252.712 13.416C252.712 14.088 252.292 14.46 251.236 14.46C249.856 14.46 249.4 13.812 249.328 12.996H248.44ZM257.701 14.46C256.501 14.46 255.709 13.86 255.637 12.216H260.461C260.485 12.072 260.485 11.952 260.485 11.796C260.485 10.044 259.465 8.808 257.665 8.808C255.673 8.808 254.689 10.2 254.689 11.988C254.689 13.8 255.601 15.192 257.665 15.192C259.657 15.192 260.353 14.064 260.473 13.152H259.597C259.417 13.908 258.877 14.46 257.701 14.46ZM257.677 9.54C258.793 9.54 259.501 10.116 259.549 11.496H255.661C255.793 10.08 256.537 9.54 257.677 9.54ZM267.971 15V14.22H266.063V9.756H268.043V9H266.063V7.668H265.547L265.187 8.916L263.963 9.216V9.756H265.103V13.596C265.103 14.556 265.403 15 266.555 15H267.971ZM272.419 8.916C271.279 8.916 270.583 9.588 270.223 10.584V9H269.263V15H270.223V12.792C270.223 11.1 270.607 9.804 272.383 9.864H272.635V8.916H272.419ZM276.486 13.62L276.306 14.196L276.102 13.62L274.266 9H273.258L275.634 15H275.97L275.31 16.62H273.642V17.4H274.782C275.862 17.4 276.102 16.956 276.474 15.996L279.294 9H278.346L276.486 13.62ZM284.961 15.156C286.353 15.156 286.989 14.316 287.217 13.596C287.217 14.04 287.253 14.484 287.301 15H288.177C288.117 14.412 288.105 13.944 288.105 13.512V10.632C288.105 9.552 287.361 8.796 285.717 8.796C284.061 8.796 283.161 9.612 283.125 10.884H284.073C284.133 10.104 284.577 9.552 285.753 9.552C286.917 9.552 287.229 10.02 287.229 10.632C287.229 11.088 286.965 11.256 286.329 11.364L284.805 11.616C283.509 11.832 282.981 12.444 282.981 13.416C282.981 14.556 283.809 15.156 284.961 15.156ZM285.153 14.4C284.445 14.4 283.953 14.064 283.953 13.38C283.953 12.732 284.337 12.42 285.153 12.252L286.149 12.048C286.605 11.952 286.929 11.856 287.229 11.64V12.156C287.229 13.296 286.569 14.4 285.153 14.4ZM294.416 10.032C294.008 9.264 293.276 8.832 292.184 8.832C290.3 8.832 289.412 10.008 289.412 11.844C289.412 13.692 290.3 14.868 292.184 14.868C293.264 14.868 294.008 14.484 294.416 13.704V15C294.416 16.284 293.828 16.776 292.412 16.776C291.08 16.776 290.576 16.176 290.504 15.384H289.556C289.664 16.752 290.624 17.532 292.412 17.532C294.596 17.532 295.376 16.608 295.376 15.012V9H294.416V10.032ZM292.412 14.112C291.044 14.112 290.396 13.464 290.396 11.844C290.396 10.224 291.044 9.588 292.412 9.588C293.684 9.588 294.416 10.224 294.416 11.844C294.416 13.476 293.684 14.112 292.412 14.112ZM298.836 15.156C300.228 15.156 300.864 14.316 301.092 13.596C301.092 14.04 301.128 14.484 301.176 15H302.052C301.992 14.412 301.98 13.944 301.98 13.512V10.632C301.98 9.552 301.236 8.796 299.592 8.796C297.936 8.796 297.036 9.612 297 10.884H297.948C298.008 10.104 298.452 9.552 299.628 9.552C300.792 9.552 301.104 10.02 301.104 10.632C301.104 11.088 300.84 11.256 300.204 11.364L298.68 11.616C297.384 11.832 296.856 12.444 296.856 13.416C296.856 14.556 297.684 15.156 298.836 15.156ZM299.028 14.4C298.32 14.4 297.828 14.064 297.828 13.38C297.828 12.732 298.212 12.42 299.028 12.252L300.024 12.048C300.48 11.952 300.804 11.856 301.104 11.64V12.156C301.104 13.296 300.444 14.4 299.028 14.4ZM304.668 8.016V7.02H303.432V8.016H304.668ZM304.524 15V9H303.564V15H304.524ZM309.429 8.808C308.241 8.808 307.497 9.48 307.125 10.572V9H306.165V15H307.125V12.708C307.125 10.644 307.833 9.612 309.165 9.612C310.041 9.612 310.605 9.996 310.605 11.28V15H311.565V11.172C311.565 9.624 310.929 8.808 309.429 8.808Z" fill="black"/>
</svg>
