<svg width="461" height="31" viewBox="0 0 461 31" fill="none" xmlns="http://www.w3.org/2000/svg">
<rect y="3" width="461" height="23" rx="11.5" fill="#33CC66"/>
<path d="M141.47 13.32C141.29 13.668 141.098 14.004 140.918 14.34C140.726 14.004 140.546 13.668 140.366 13.32L138.554 10.02H137.414L140.414 15.204V18H141.41V15.204L144.41 10.02H143.294L141.47 13.32ZM147.147 18.192C149.163 18.192 150.159 16.788 150.159 14.988C150.159 13.212 149.163 11.808 147.147 11.808C145.119 11.808 144.123 13.2 144.123 14.988C144.123 16.8 145.119 18.192 147.147 18.192ZM145.095 15C145.095 13.308 145.791 12.588 147.147 12.588C148.503 12.588 149.187 13.308 149.187 15C149.187 16.68 148.503 17.412 147.147 17.412C145.791 17.412 145.095 16.68 145.095 15ZM155.821 14.292C155.821 16.284 155.113 17.4 153.865 17.4C152.941 17.4 152.353 17.052 152.353 15.72V12H151.393V15.828C151.393 17.4 152.077 18.192 153.589 18.192C154.753 18.192 155.461 17.544 155.821 16.476V18H156.781V12H155.821V14.292ZM161.571 11.916C160.431 11.916 159.735 12.588 159.375 13.584V12H158.415V18H159.375V15.792C159.375 14.1 159.759 12.804 161.535 12.864H161.787V11.916H161.571ZM168.932 11.808C167.828 11.808 167.072 12.3 166.664 13.152V12H165.704V20.4H166.664V16.86C167.072 17.712 167.828 18.192 168.932 18.192C170.816 18.192 171.68 16.848 171.68 15C171.68 13.164 170.816 11.808 168.932 11.808ZM168.74 17.412C167.468 17.412 166.664 16.692 166.664 15C166.664 13.308 167.468 12.588 168.74 12.588C170.108 12.588 170.708 13.392 170.708 15C170.708 16.62 170.108 17.412 168.74 17.412ZM174.77 18.156C176.162 18.156 176.798 17.316 177.026 16.596C177.026 17.04 177.062 17.484 177.11 18H177.986C177.926 17.412 177.914 16.944 177.914 16.512V13.632C177.914 12.552 177.17 11.796 175.526 11.796C173.87 11.796 172.97 12.612 172.934 13.884H173.882C173.942 13.104 174.386 12.552 175.562 12.552C176.726 12.552 177.038 13.02 177.038 13.632C177.038 14.088 176.774 14.256 176.138 14.364L174.614 14.616C173.318 14.832 172.79 15.444 172.79 16.416C172.79 17.556 173.618 18.156 174.77 18.156ZM174.962 17.4C174.254 17.4 173.762 17.064 173.762 16.38C173.762 15.732 174.146 15.42 174.962 15.252L175.958 15.048C176.414 14.952 176.738 14.856 177.038 14.64V15.156C177.038 16.296 176.378 17.4 174.962 17.4ZM179.112 15.996C179.136 17.256 179.928 18.192 181.884 18.192C183.48 18.192 184.332 17.592 184.332 16.368C184.332 15.384 183.828 14.796 182.448 14.592L181.176 14.412C180.42 14.304 180.204 13.944 180.204 13.524C180.204 12.936 180.624 12.528 181.644 12.528C182.748 12.528 183.204 13.092 183.264 13.716H184.212C184.14 12.588 183.24 11.796 181.668 11.796C180.156 11.796 179.268 12.48 179.268 13.596C179.268 14.52 179.856 15.072 180.9 15.216L182.292 15.42C183.048 15.528 183.384 15.84 183.384 16.416C183.384 17.088 182.964 17.46 181.908 17.46C180.528 17.46 180.072 16.812 180 15.996H179.112ZM185.335 15.996C185.359 17.256 186.151 18.192 188.107 18.192C189.703 18.192 190.555 17.592 190.555 16.368C190.555 15.384 190.051 14.796 188.671 14.592L187.399 14.412C186.643 14.304 186.427 13.944 186.427 13.524C186.427 12.936 186.847 12.528 187.867 12.528C188.971 12.528 189.427 13.092 189.487 13.716H190.435C190.363 12.588 189.463 11.796 187.891 11.796C186.379 11.796 185.491 12.48 185.491 13.596C185.491 14.52 186.079 15.072 187.123 15.216L188.515 15.42C189.271 15.528 189.607 15.84 189.607 16.416C189.607 17.088 189.187 17.46 188.131 17.46C186.751 17.46 186.295 16.812 186.223 15.996H185.335ZM198.442 17.28L196.546 12H195.55L193.654 17.28L192.106 12H191.098L192.934 18H194.302L196.018 13.14L197.746 18H199.114L200.938 12H200.002L198.442 17.28ZM204.557 18.192C206.573 18.192 207.569 16.788 207.569 14.988C207.569 13.212 206.573 11.808 204.557 11.808C202.529 11.808 201.533 13.2 201.533 14.988C201.533 16.8 202.529 18.192 204.557 18.192ZM202.505 15C202.505 13.308 203.201 12.588 204.557 12.588C205.913 12.588 206.597 13.308 206.597 15C206.597 16.68 205.913 17.412 204.557 17.412C203.201 17.412 202.505 16.68 202.505 15ZM211.985 11.916C210.845 11.916 210.149 12.588 209.789 13.584V12H208.829V18H209.789V15.792C209.789 14.1 210.173 12.804 211.949 12.864H212.201V11.916H211.985ZM217.893 13.14C217.485 12.288 216.729 11.808 215.625 11.808C213.741 11.808 212.877 13.152 212.877 15C212.877 16.836 213.741 18.192 215.625 18.192C216.729 18.192 217.485 17.7 217.893 16.848V18H218.853V9.6H217.893V13.14ZM215.817 17.412C214.449 17.412 213.849 16.608 213.849 15C213.849 13.38 214.449 12.588 215.817 12.588C217.089 12.588 217.893 13.308 217.893 15C217.893 16.692 217.089 17.412 215.817 17.412ZM226.542 11.808C225.354 11.808 224.61 12.48 224.238 13.572V9.6H223.278V18H224.238V15.708C224.238 13.644 224.946 12.612 226.278 12.612C227.154 12.612 227.718 12.996 227.718 14.28V18H228.678V14.172C228.678 12.624 228.042 11.808 226.542 11.808ZM232.016 18.156C233.408 18.156 234.044 17.316 234.272 16.596C234.272 17.04 234.308 17.484 234.356 18H235.232C235.172 17.412 235.16 16.944 235.16 16.512V13.632C235.16 12.552 234.416 11.796 232.772 11.796C231.116 11.796 230.216 12.612 230.18 13.884H231.128C231.188 13.104 231.632 12.552 232.808 12.552C233.972 12.552 234.284 13.02 234.284 13.632C234.284 14.088 234.02 14.256 233.384 14.364L231.86 14.616C230.564 14.832 230.036 15.444 230.036 16.416C230.036 17.556 230.864 18.156 232.016 18.156ZM232.208 17.4C231.5 17.4 231.008 17.064 231.008 16.38C231.008 15.732 231.392 15.42 232.208 15.252L233.204 15.048C233.66 14.952 233.984 14.856 234.284 14.64V15.156C234.284 16.296 233.624 17.4 232.208 17.4ZM236.358 15.996C236.382 17.256 237.174 18.192 239.13 18.192C240.726 18.192 241.578 17.592 241.578 16.368C241.578 15.384 241.074 14.796 239.694 14.592L238.422 14.412C237.666 14.304 237.45 13.944 237.45 13.524C237.45 12.936 237.87 12.528 238.89 12.528C239.994 12.528 240.45 13.092 240.51 13.716H241.458C241.386 12.588 240.486 11.796 238.914 11.796C237.402 11.796 236.514 12.48 236.514 13.596C236.514 14.52 237.102 15.072 238.146 15.216L239.538 15.42C240.294 15.528 240.63 15.84 240.63 16.416C240.63 17.088 240.21 17.46 239.154 17.46C237.774 17.46 237.318 16.812 237.246 15.996H236.358ZM248.865 11.808C247.761 11.808 247.005 12.288 246.597 13.14V9.6H245.637V18H246.597V16.848C247.005 17.7 247.761 18.192 248.865 18.192C250.749 18.192 251.613 16.836 251.613 15C251.613 13.152 250.749 11.808 248.865 11.808ZM248.673 17.412C247.401 17.412 246.597 16.692 246.597 15C246.597 13.308 247.401 12.588 248.673 12.588C250.041 12.588 250.641 13.38 250.641 15C250.641 16.608 250.041 17.412 248.673 17.412ZM255.662 17.46C254.462 17.46 253.67 16.86 253.598 15.216H258.422C258.446 15.072 258.446 14.952 258.446 14.796C258.446 13.044 257.426 11.808 255.626 11.808C253.634 11.808 252.65 13.2 252.65 14.988C252.65 16.8 253.562 18.192 255.626 18.192C257.618 18.192 258.314 17.064 258.434 16.152H257.558C257.378 16.908 256.838 17.46 255.662 17.46ZM255.638 12.54C256.754 12.54 257.462 13.116 257.51 14.496H253.622C253.754 13.08 254.498 12.54 255.638 12.54ZM262.436 17.46C261.236 17.46 260.444 16.86 260.372 15.216H265.196C265.22 15.072 265.22 14.952 265.22 14.796C265.22 13.044 264.2 11.808 262.4 11.808C260.408 11.808 259.424 13.2 259.424 14.988C259.424 16.8 260.336 18.192 262.4 18.192C264.392 18.192 265.088 17.064 265.208 16.152H264.332C264.152 16.908 263.612 17.46 262.436 17.46ZM262.412 12.54C263.528 12.54 264.236 13.116 264.284 14.496H260.396C260.528 13.08 261.272 12.54 262.412 12.54ZM269.714 11.808C268.526 11.808 267.782 12.48 267.41 13.572V12H266.45V18H267.41V15.708C267.41 13.644 268.118 12.612 269.45 12.612C270.326 12.612 270.89 12.996 270.89 14.28V18H271.85V14.172C271.85 12.624 271.214 11.808 269.714 11.808ZM280.485 14.292C280.485 16.284 279.777 17.4 278.529 17.4C277.605 17.4 277.017 17.052 277.017 15.72V12H276.057V15.828C276.057 17.4 276.741 18.192 278.253 18.192C279.417 18.192 280.125 17.544 280.485 16.476V18H281.445V12H280.485V14.292ZM286.342 11.808C285.238 11.808 284.482 12.3 284.074 13.152V12H283.114V20.4H284.074V16.86C284.482 17.712 285.238 18.192 286.342 18.192C288.226 18.192 289.09 16.848 289.09 15C289.09 13.164 288.226 11.808 286.342 11.808ZM286.15 17.412C284.878 17.412 284.074 16.692 284.074 15C284.074 13.308 284.878 12.588 286.15 12.588C287.518 12.588 288.118 13.392 288.118 15C288.118 16.62 287.518 17.412 286.15 17.412ZM295.19 13.14C294.782 12.288 294.026 11.808 292.922 11.808C291.038 11.808 290.174 13.152 290.174 15C290.174 16.836 291.038 18.192 292.922 18.192C294.026 18.192 294.782 17.7 295.19 16.848V18H296.15V9.6H295.19V13.14ZM293.114 17.412C291.746 17.412 291.146 16.608 291.146 15C291.146 13.38 291.746 12.588 293.114 12.588C294.386 12.588 295.19 13.308 295.19 15C295.19 16.692 294.386 17.412 293.114 17.412ZM299.61 18.156C301.002 18.156 301.638 17.316 301.866 16.596C301.866 17.04 301.902 17.484 301.95 18H302.826C302.766 17.412 302.754 16.944 302.754 16.512V13.632C302.754 12.552 302.01 11.796 300.366 11.796C298.71 11.796 297.81 12.612 297.774 13.884H298.722C298.782 13.104 299.226 12.552 300.402 12.552C301.566 12.552 301.878 13.02 301.878 13.632C301.878 14.088 301.614 14.256 300.978 14.364L299.454 14.616C298.158 14.832 297.63 15.444 297.63 16.416C297.63 17.556 298.458 18.156 299.61 18.156ZM299.802 17.4C299.094 17.4 298.602 17.064 298.602 16.38C298.602 15.732 298.986 15.42 299.802 15.252L300.798 15.048C301.254 14.952 301.578 14.856 301.878 14.64V15.156C301.878 16.296 301.218 17.4 299.802 17.4ZM307.615 18V17.22H305.707V12.756H307.687V12H305.707V10.668H305.191L304.831 11.916L303.607 12.216V12.756H304.747V16.596C304.747 17.556 305.047 18 306.199 18H307.615ZM311.35 17.46C310.15 17.46 309.358 16.86 309.286 15.216H314.11C314.134 15.072 314.134 14.952 314.134 14.796C314.134 13.044 313.114 11.808 311.314 11.808C309.322 11.808 308.338 13.2 308.338 14.988C308.338 16.8 309.25 18.192 311.314 18.192C313.306 18.192 314.002 17.064 314.122 16.152H313.246C313.066 16.908 312.526 17.46 311.35 17.46ZM311.326 12.54C312.442 12.54 313.15 13.116 313.198 14.496H309.31C309.442 13.08 310.186 12.54 311.326 12.54ZM320.198 13.14C319.79 12.288 319.034 11.808 317.93 11.808C316.046 11.808 315.182 13.152 315.182 15C315.182 16.836 316.046 18.192 317.93 18.192C319.034 18.192 319.79 17.7 320.198 16.848V18H321.158V9.6H320.198V13.14ZM318.122 17.412C316.754 17.412 316.154 16.608 316.154 15C316.154 13.38 316.754 12.588 318.122 12.588C319.394 12.588 320.198 13.308 320.198 15C320.198 16.692 319.394 17.412 318.122 17.412ZM323.688 18V16.944H322.44V18H323.688Z" fill="black"/>
<path fill-rule="evenodd" clip-rule="evenodd" d="M344.647 5.31774C345.42 2.24546 344.988 1.00414 346.413 1C347.624 1 347.241 2.67372 347.752 4.48605C348.534 7.23972 349.463 10.4982 355.837 11.3423C359.122 11.7788 358.413 13.3429 356.634 13.6987C355.599 13.9056 355.643 13.7546 354.025 14.0504C348.764 15.0125 348.097 19.6923 347.551 23.079C347.224 25.1065 345.809 25.1065 345.323 22.4583C344.796 19.5743 344.86 14.3794 336.383 13.9553C334.6 13.8663 334.635 12.3747 335.949 12.0209C340.242 10.8664 343.066 11.5988 344.647 5.31774Z" fill="#FFCC00"/>
<path d="M344.647 5.31774C345.42 2.24546 344.988 1.00414 346.413 1C347.624 1 347.241 2.67372 347.752 4.48605C348.534 7.23972 349.463 10.4982 355.837 11.3423C359.122 11.7788 358.413 13.3429 356.634 13.6987C355.599 13.9056 355.643 13.7546 354.025 14.0504C348.764 15.0125 348.097 19.6923 347.551 23.079C347.224 25.1065 345.809 25.1065 345.323 22.4583C344.796 19.5743 344.86 14.3794 336.383 13.9553C334.6 13.8663 334.635 12.3747 335.949 12.0209C340.242 10.8664 343.066 11.5988 344.647 5.31774Z" stroke="black" stroke-width="0.8" stroke-miterlimit="22.93" stroke-linecap="round"/>
<path fill-rule="evenodd" clip-rule="evenodd" d="M355.519 18.2198C355.978 16.393 355.725 15.6544 356.57 15.6523C357.287 15.6523 357.058 16.6475 357.364 17.7212C357.829 19.3598 358.382 21.2962 362.17 21.7969C364.121 22.0555 363.701 22.9865 362.644 23.1975C362.023 23.3196 362.054 23.2306 361.092 23.4044C357.966 23.9775 357.575 26.758 357.246 28.7711C357.052 29.9772 356.212 29.9751 355.922 28.4028C355.608 26.6877 355.645 23.6009 350.607 23.3485C349.548 23.2948 349.573 22.4093 350.351 22.1983C352.899 21.53 354.579 21.9541 355.519 18.2198Z" fill="#FFCC00"/>
<path d="M355.519 18.2198C355.978 16.393 355.725 15.6544 356.57 15.6523C357.287 15.6523 357.058 16.6475 357.364 17.7212C357.829 19.3598 358.382 21.2962 362.17 21.7969C364.121 22.0555 363.701 22.9865 362.644 23.1975C362.023 23.3196 362.054 23.2306 361.092 23.4044C357.966 23.9775 357.575 26.758 357.246 28.7711C357.052 29.9772 356.212 29.9751 355.922 28.4028C355.608 26.6877 355.645 23.6009 350.607 23.3485C349.548 23.2948 349.573 22.4093 350.351 22.1983C352.899 21.53 354.579 21.9541 355.519 18.2198Z" stroke="black" stroke-width="0.8" stroke-miterlimit="22.93" stroke-linecap="round"/>
<path fill-rule="evenodd" clip-rule="evenodd" d="M361.783 6.09243C362.083 4.9049 361.915 4.42492 362.468 4.42285C362.935 4.42285 362.784 5.07041 362.985 5.77176C363.287 6.83516 363.647 8.09717 366.111 8.42405C367.381 8.59163 367.108 9.19781 366.419 9.33435C366.022 9.41297 366.037 9.35504 365.412 9.4709C363.376 9.8433 363.12 11.6536 362.906 12.9632C362.78 13.7473 362.234 13.7473 362.046 12.7232C361.839 11.608 361.866 9.5971 358.587 9.43366C357.898 9.40056 357.91 8.813 358.419 8.68473C360.078 8.23992 361.173 8.51922 361.783 6.09243Z" fill="#FFCC00"/>
<path d="M361.783 6.09243C362.083 4.9049 361.915 4.42492 362.468 4.42285C362.935 4.42285 362.784 5.07041 362.985 5.77176C363.287 6.83516 363.647 8.09717 366.111 8.42405C367.381 8.59163 367.108 9.19781 366.419 9.33435C366.022 9.41297 366.037 9.35504 365.412 9.4709C363.376 9.8433 363.12 11.6536 362.906 12.9632C362.78 13.7473 362.234 13.7473 362.046 12.7232C361.839 11.608 361.866 9.5971 358.587 9.43366C357.898 9.40056 357.91 8.813 358.419 8.68473C360.078 8.23992 361.173 8.51922 361.783 6.09243Z" stroke="black" stroke-width="0.8" stroke-miterlimit="22.93" stroke-linecap="round"/>
</svg>
