<svg width="441" height="31" viewBox="0 0 441 31" fill="none" xmlns="http://www.w3.org/2000/svg">
<rect y="3" width="441" height="23" rx="11.5" fill="#33CC66"/>
<path d="M141.56 13.32C141.38 13.668 141.188 14.004 141.008 14.34C140.816 14.004 140.636 13.668 140.456 13.32L138.644 10.02H137.504L140.504 15.204V18H141.5V15.204L144.5 10.02H143.384L141.56 13.32ZM147.237 18.192C149.253 18.192 150.249 16.788 150.249 14.988C150.249 13.212 149.253 11.808 147.237 11.808C145.209 11.808 144.213 13.2 144.213 14.988C144.213 16.8 145.209 18.192 147.237 18.192ZM145.185 15C145.185 13.308 145.881 12.588 147.237 12.588C148.593 12.588 149.277 13.308 149.277 15C149.277 16.68 148.593 17.412 147.237 17.412C145.881 17.412 145.185 16.68 145.185 15ZM155.911 14.292C155.911 16.284 155.203 17.4 153.955 17.4C153.031 17.4 152.443 17.052 152.443 15.72V12H151.483V15.828C151.483 17.4 152.167 18.192 153.679 18.192C154.843 18.192 155.551 17.544 155.911 16.476V18H156.871V12H155.911V14.292ZM161.661 11.916C160.521 11.916 159.825 12.588 159.465 13.584V12H158.505V18H159.465V15.792C159.465 14.1 159.849 12.804 161.625 12.864H161.877V11.916H161.661ZM169.021 11.808C167.917 11.808 167.161 12.3 166.753 13.152V12H165.793V20.4H166.753V16.86C167.161 17.712 167.917 18.192 169.021 18.192C170.905 18.192 171.769 16.848 171.769 15C171.769 13.164 170.905 11.808 169.021 11.808ZM168.829 17.412C167.557 17.412 166.753 16.692 166.753 15C166.753 13.308 167.557 12.588 168.829 12.588C170.197 12.588 170.797 13.392 170.797 15C170.797 16.62 170.197 17.412 168.829 17.412ZM176.274 11.916C175.134 11.916 174.438 12.588 174.078 13.584V12H173.118V18H174.078V15.792C174.078 14.1 174.462 12.804 176.238 12.864H176.49V11.916H176.274ZM180.073 18.192C182.089 18.192 183.085 16.788 183.085 14.988C183.085 13.212 182.089 11.808 180.073 11.808C178.045 11.808 177.049 13.2 177.049 14.988C177.049 16.8 178.045 18.192 180.073 18.192ZM178.021 15C178.021 13.308 178.717 12.588 180.073 12.588C181.429 12.588 182.113 13.308 182.113 15C182.113 16.68 181.429 17.412 180.073 17.412C178.717 17.412 178.021 16.68 178.021 15ZM185.68 18V12.756H187.396V12H185.608V10.332H189.292V9.6H186.244C185.092 9.6 184.72 10.008 184.72 10.812V11.988L183.712 12.216V12.756H184.72V18H185.68ZM189.292 18V12H188.332V18H189.292ZM191.949 18V9.6H190.989V18H191.949ZM196.291 17.46C195.091 17.46 194.299 16.86 194.227 15.216H199.051C199.075 15.072 199.075 14.952 199.075 14.796C199.075 13.044 198.055 11.808 196.255 11.808C194.263 11.808 193.279 13.2 193.279 14.988C193.279 16.8 194.191 18.192 196.255 18.192C198.247 18.192 198.943 17.064 199.063 16.152H198.187C198.007 16.908 197.467 17.46 196.291 17.46ZM196.267 12.54C197.383 12.54 198.091 13.116 198.139 14.496H194.251C194.383 13.08 195.127 12.54 196.267 12.54ZM206.453 11.808C205.265 11.808 204.521 12.48 204.149 13.572V9.6H203.189V18H204.149V15.708C204.149 13.644 204.857 12.612 206.189 12.612C207.065 12.612 207.629 12.996 207.629 14.28V18H208.589V14.172C208.589 12.624 207.953 11.808 206.453 11.808ZM211.926 18.156C213.318 18.156 213.954 17.316 214.182 16.596C214.182 17.04 214.218 17.484 214.266 18H215.142C215.082 17.412 215.07 16.944 215.07 16.512V13.632C215.07 12.552 214.326 11.796 212.682 11.796C211.026 11.796 210.126 12.612 210.09 13.884H211.038C211.098 13.104 211.542 12.552 212.718 12.552C213.882 12.552 214.194 13.02 214.194 13.632C214.194 14.088 213.93 14.256 213.294 14.364L211.77 14.616C210.474 14.832 209.946 15.444 209.946 16.416C209.946 17.556 210.774 18.156 211.926 18.156ZM212.118 17.4C211.41 17.4 210.918 17.064 210.918 16.38C210.918 15.732 211.302 15.42 212.118 15.252L213.114 15.048C213.57 14.952 213.894 14.856 214.194 14.64V15.156C214.194 16.296 213.534 17.4 212.118 17.4ZM216.269 15.996C216.293 17.256 217.085 18.192 219.041 18.192C220.637 18.192 221.489 17.592 221.489 16.368C221.489 15.384 220.985 14.796 219.605 14.592L218.333 14.412C217.576 14.304 217.361 13.944 217.361 13.524C217.361 12.936 217.781 12.528 218.801 12.528C219.905 12.528 220.361 13.092 220.421 13.716H221.369C221.297 12.588 220.397 11.796 218.825 11.796C217.312 11.796 216.425 12.48 216.425 13.596C216.425 14.52 217.013 15.072 218.057 15.216L219.449 15.42C220.205 15.528 220.541 15.84 220.541 16.416C220.541 17.088 220.121 17.46 219.065 17.46C217.685 17.46 217.229 16.812 217.157 15.996H216.269ZM228.775 11.808C227.671 11.808 226.915 12.288 226.507 13.14V9.6H225.547V18H226.507V16.848C226.915 17.7 227.671 18.192 228.775 18.192C230.659 18.192 231.523 16.836 231.523 15C231.523 13.152 230.659 11.808 228.775 11.808ZM228.583 17.412C227.311 17.412 226.507 16.692 226.507 15C226.507 13.308 227.311 12.588 228.583 12.588C229.951 12.588 230.551 13.38 230.551 15C230.551 16.608 229.951 17.412 228.583 17.412ZM235.572 17.46C234.372 17.46 233.58 16.86 233.508 15.216H238.332C238.356 15.072 238.356 14.952 238.356 14.796C238.356 13.044 237.336 11.808 235.536 11.808C233.544 11.808 232.56 13.2 232.56 14.988C232.56 16.8 233.472 18.192 235.536 18.192C237.528 18.192 238.224 17.064 238.344 16.152H237.468C237.288 16.908 236.748 17.46 235.572 17.46ZM235.548 12.54C236.664 12.54 237.372 13.116 237.42 14.496H233.532C233.664 13.08 234.408 12.54 235.548 12.54ZM242.346 17.46C241.146 17.46 240.354 16.86 240.282 15.216H245.106C245.13 15.072 245.13 14.952 245.13 14.796C245.13 13.044 244.11 11.808 242.31 11.808C240.318 11.808 239.334 13.2 239.334 14.988C239.334 16.8 240.246 18.192 242.31 18.192C244.302 18.192 244.998 17.064 245.118 16.152H244.242C244.062 16.908 243.522 17.46 242.346 17.46ZM242.322 12.54C243.438 12.54 244.146 13.116 244.194 14.496H240.306C240.438 13.08 241.182 12.54 242.322 12.54ZM249.624 11.808C248.436 11.808 247.692 12.48 247.32 13.572V12H246.36V18H247.32V15.708C247.32 13.644 248.028 12.612 249.36 12.612C250.236 12.612 250.8 12.996 250.8 14.28V18H251.76V14.172C251.76 12.624 251.124 11.808 249.624 11.808ZM260.395 14.292C260.395 16.284 259.687 17.4 258.439 17.4C257.515 17.4 256.927 17.052 256.927 15.72V12H255.967V15.828C255.967 17.4 256.651 18.192 258.163 18.192C259.327 18.192 260.035 17.544 260.395 16.476V18H261.355V12H260.395V14.292ZM266.252 11.808C265.148 11.808 264.392 12.3 263.984 13.152V12H263.024V20.4H263.984V16.86C264.392 17.712 265.148 18.192 266.252 18.192C268.136 18.192 269 16.848 269 15C269 13.164 268.136 11.808 266.252 11.808ZM266.06 17.412C264.788 17.412 263.984 16.692 263.984 15C263.984 13.308 264.788 12.588 266.06 12.588C267.428 12.588 268.028 13.392 268.028 15C268.028 16.62 267.428 17.412 266.06 17.412ZM275.1 13.14C274.692 12.288 273.936 11.808 272.832 11.808C270.948 11.808 270.084 13.152 270.084 15C270.084 16.836 270.948 18.192 272.832 18.192C273.936 18.192 274.692 17.7 275.1 16.848V18H276.06V9.6H275.1V13.14ZM273.024 17.412C271.656 17.412 271.056 16.608 271.056 15C271.056 13.38 271.656 12.588 273.024 12.588C274.296 12.588 275.1 13.308 275.1 15C275.1 16.692 274.296 17.412 273.024 17.412ZM279.52 18.156C280.912 18.156 281.548 17.316 281.776 16.596C281.776 17.04 281.812 17.484 281.86 18H282.736C282.676 17.412 282.664 16.944 282.664 16.512V13.632C282.664 12.552 281.92 11.796 280.276 11.796C278.62 11.796 277.72 12.612 277.684 13.884H278.632C278.692 13.104 279.136 12.552 280.312 12.552C281.476 12.552 281.788 13.02 281.788 13.632C281.788 14.088 281.524 14.256 280.888 14.364L279.364 14.616C278.068 14.832 277.54 15.444 277.54 16.416C277.54 17.556 278.368 18.156 279.52 18.156ZM279.712 17.4C279.004 17.4 278.512 17.064 278.512 16.38C278.512 15.732 278.896 15.42 279.712 15.252L280.708 15.048C281.164 14.952 281.488 14.856 281.788 14.64V15.156C281.788 16.296 281.128 17.4 279.712 17.4ZM287.525 18V17.22H285.617V12.756H287.597V12H285.617V10.668H285.101L284.741 11.916L283.517 12.216V12.756H284.657V16.596C284.657 17.556 284.957 18 286.109 18H287.525ZM291.26 17.46C290.06 17.46 289.268 16.86 289.196 15.216H294.02C294.044 15.072 294.044 14.952 294.044 14.796C294.044 13.044 293.024 11.808 291.224 11.808C289.232 11.808 288.248 13.2 288.248 14.988C288.248 16.8 289.16 18.192 291.224 18.192C293.216 18.192 293.912 17.064 294.032 16.152H293.156C292.976 16.908 292.436 17.46 291.26 17.46ZM291.236 12.54C292.352 12.54 293.06 13.116 293.108 14.496H289.22C289.352 13.08 290.096 12.54 291.236 12.54ZM300.108 13.14C299.7 12.288 298.944 11.808 297.84 11.808C295.956 11.808 295.092 13.152 295.092 15C295.092 16.836 295.956 18.192 297.84 18.192C298.944 18.192 299.7 17.7 300.108 16.848V18H301.068V9.6H300.108V13.14ZM298.032 17.412C296.664 17.412 296.064 16.608 296.064 15C296.064 13.38 296.664 12.588 298.032 12.588C299.304 12.588 300.108 13.308 300.108 15C300.108 16.692 299.304 17.412 298.032 17.412ZM303.598 18V16.944H302.35V18H303.598Z" fill="black"/>
<path fill-rule="evenodd" clip-rule="evenodd" d="M324.647 5.31774C325.42 2.24546 324.988 1.00414 326.413 1C327.624 1 327.241 2.67372 327.752 4.48605C328.534 7.23972 329.463 10.4982 335.837 11.3423C339.122 11.7788 338.413 13.3429 336.634 13.6987C335.599 13.9056 335.643 13.7546 334.025 14.0504C328.764 15.0125 328.097 19.6923 327.551 23.079C327.224 25.1065 325.809 25.1065 325.323 22.4583C324.796 19.5743 324.86 14.3794 316.383 13.9553C314.6 13.8663 314.635 12.3747 315.949 12.0209C320.242 10.8664 323.066 11.5988 324.647 5.31774Z" fill="#FFCC00"/>
<path d="M324.647 5.31774C325.42 2.24546 324.988 1.00414 326.413 1C327.624 1 327.241 2.67372 327.752 4.48605C328.534 7.23972 329.463 10.4982 335.837 11.3423C339.122 11.7788 338.413 13.3429 336.634 13.6987C335.599 13.9056 335.643 13.7546 334.025 14.0504C328.764 15.0125 328.097 19.6923 327.551 23.079C327.224 25.1065 325.809 25.1065 325.323 22.4583C324.796 19.5743 324.86 14.3794 316.383 13.9553C314.6 13.8663 314.635 12.3747 315.949 12.0209C320.242 10.8664 323.066 11.5988 324.647 5.31774Z" stroke="black" stroke-width="0.8" stroke-miterlimit="22.93" stroke-linecap="round"/>
<path fill-rule="evenodd" clip-rule="evenodd" d="M335.519 18.2198C335.978 16.393 335.725 15.6544 336.57 15.6523C337.287 15.6523 337.058 16.6475 337.364 17.7212C337.829 19.3598 338.382 21.2962 342.17 21.7969C344.121 22.0555 343.701 22.9865 342.644 23.1975C342.023 23.3196 342.054 23.2306 341.092 23.4044C337.966 23.9775 337.575 26.758 337.246 28.7711C337.052 29.9772 336.212 29.9751 335.922 28.4028C335.608 26.6877 335.645 23.6009 330.607 23.3485C329.548 23.2948 329.573 22.4093 330.351 22.1983C332.899 21.53 334.579 21.9541 335.519 18.2198Z" fill="#FFCC00"/>
<path d="M335.519 18.2198C335.978 16.393 335.725 15.6544 336.57 15.6523C337.287 15.6523 337.058 16.6475 337.364 17.7212C337.829 19.3598 338.382 21.2962 342.17 21.7969C344.121 22.0555 343.701 22.9865 342.644 23.1975C342.023 23.3196 342.054 23.2306 341.092 23.4044C337.966 23.9775 337.575 26.758 337.246 28.7711C337.052 29.9772 336.212 29.9751 335.922 28.4028C335.608 26.6877 335.645 23.6009 330.607 23.3485C329.548 23.2948 329.573 22.4093 330.351 22.1983C332.899 21.53 334.579 21.9541 335.519 18.2198Z" stroke="black" stroke-width="0.8" stroke-miterlimit="22.93" stroke-linecap="round"/>
<path fill-rule="evenodd" clip-rule="evenodd" d="M341.783 6.09145C342.083 4.90392 341.915 4.42394 342.468 4.42188C342.935 4.42188 342.784 5.06943 342.985 5.77078C343.287 6.83418 343.647 8.09619 346.111 8.42307C347.381 8.59065 347.108 9.19683 346.419 9.33338C346.022 9.41199 346.037 9.35407 345.412 9.46992C343.376 9.84232 343.12 11.6526 342.906 12.9622C342.78 13.7463 342.234 13.7463 342.046 12.7222C341.839 11.6071 341.866 9.59612 338.587 9.43268C337.898 9.39958 337.91 8.81202 338.419 8.68375C340.078 8.23894 341.173 8.51824 341.783 6.09145Z" fill="#FFCC00"/>
<path d="M341.783 6.09145C342.083 4.90392 341.915 4.42394 342.468 4.42188C342.935 4.42188 342.784 5.06943 342.985 5.77078C343.287 6.83418 343.647 8.09619 346.111 8.42307C347.381 8.59065 347.108 9.19683 346.419 9.33338C346.022 9.41199 346.037 9.35407 345.412 9.46992C343.376 9.84232 343.12 11.6526 342.906 12.9622C342.78 13.7463 342.234 13.7463 342.046 12.7222C341.839 11.6071 341.866 9.59612 338.587 9.43268C337.898 9.39958 337.91 8.81202 338.419 8.68375C340.078 8.23894 341.173 8.51824 341.783 6.09145Z" stroke="black" stroke-width="0.8" stroke-miterlimit="22.93" stroke-linecap="round"/>
</svg>
